%FSLAX45Y45*%
G04 Gerber Fmt 4.5, Leading zero omitted, Abs format (unit mm)*
G04 Created by KiCad (PCBNEW (6.0.2-0)) date 2022-02-19 09:02:35*
%MOMM*%
%LPD*%
G01*
G04 APERTURE LIST*
%TA.AperFunction,Profile*%
%ADD10C,0.099999*%
%TD*%
%TA.AperFunction,Profile*%
%ADD11C,0.100000*%
%TD*%
%ADD12C,0.200000*%
%ADD13C,0.150000*%
%ADD14C,0.190000*%
%ADD15C,0.300000*%
%ADD16C,0.410000*%
G04 APERTURE END LIST*
D10*
X19536736Y-6339585D02*
X19928690Y-6371445D01*
X32833798Y-4191490D02*
X32859195Y-4216890D01*
X14336450Y-4674709D02*
X14713937Y-4777511D01*
X31078505Y-4145172D02*
X31891224Y-4128079D01*
X27833691Y-15883053D02*
X28265552Y-15756319D01*
D11*
X23964996Y-18553865D02*
X23331656Y-18628849D01*
D10*
X14686880Y-16690773D02*
X15057721Y-17020973D01*
X25382575Y-5116544D02*
X25595538Y-5032484D01*
X32904913Y-4277850D02*
X32920157Y-4308330D01*
X16267203Y-5393642D02*
X16667279Y-5573523D01*
D11*
X20512255Y-18654249D02*
X19394656Y-18654249D01*
D10*
X27376489Y-16098953D02*
X27833691Y-15883053D01*
X30627692Y-15375053D02*
X30945209Y-15352584D01*
X31891224Y-4128079D02*
X32386660Y-4122621D01*
X29853009Y-15438785D02*
X29268790Y-15527453D01*
X30627692Y-15375053D02*
X29853009Y-15438785D01*
X24357232Y-5573523D02*
X24757309Y-5393642D01*
X28669921Y-4309742D02*
X29290406Y-4248864D01*
D11*
X7532961Y-14876694D02*
X8879161Y-15232294D01*
D10*
X18072436Y-6069846D02*
X18450387Y-6159956D01*
D11*
X5041318Y-13735385D02*
G75*
G03*
X5248467Y-14134416I299392J-97861D01*
G01*
D10*
X13302730Y-4446177D02*
X13719220Y-4524991D01*
X24731932Y-18241253D02*
X24955596Y-18071266D01*
X32859195Y-4216890D02*
X32884598Y-4247370D01*
X23768643Y-5811150D02*
X23994299Y-5726625D01*
X9946006Y-4145172D02*
X10529812Y-4166579D01*
X15641936Y-5116544D02*
X15892043Y-5227383D01*
X8368515Y-4120369D02*
X8637852Y-4122621D01*
X10529812Y-4166579D02*
X11125845Y-4201143D01*
D11*
X32145350Y-15232294D02*
X33491550Y-14876694D01*
D10*
X18765813Y-6222357D02*
X19157387Y-6287550D01*
X26310575Y-4777511D02*
X26688061Y-4674709D01*
X21097090Y-6371444D02*
X21487775Y-6339585D01*
X16754714Y-18477667D02*
X17059515Y-18553865D01*
X24269798Y-18477666D02*
X24533958Y-18358286D01*
X11755722Y-15527453D02*
X11171503Y-15438785D01*
X11734106Y-4248864D02*
X12354591Y-4309742D01*
X32757596Y-4145770D02*
X32798236Y-4166090D01*
X10079302Y-15352585D02*
X10396820Y-15375053D01*
X15216011Y-4948423D02*
X15428974Y-5032484D01*
X13719220Y-4524991D02*
X14059564Y-4601013D01*
X22952076Y-6069846D02*
X23253879Y-5982528D01*
X21867125Y-6287550D02*
X22258698Y-6222357D01*
D11*
X32920157Y-4308330D02*
X35274867Y-11555380D01*
X17692856Y-18628850D02*
X17059515Y-18553865D01*
D10*
X17255868Y-5811151D02*
X17531822Y-5910230D01*
X14402402Y-16507893D02*
X14686880Y-16690773D01*
X14402402Y-16507893D02*
X13648111Y-16098787D01*
X29898667Y-4201143D02*
X30494700Y-4166579D01*
X8104354Y-4308329D02*
X8119598Y-4277850D01*
X8266916Y-4145770D02*
X8307556Y-4130530D01*
X16490554Y-18358286D02*
X16754714Y-18477667D01*
X23253879Y-5982528D02*
X23492690Y-5910229D01*
D11*
X16068915Y-18071265D02*
X15362523Y-17292752D01*
D10*
X24757309Y-5393642D02*
X25132468Y-5227383D01*
X19157387Y-6287550D02*
X19536736Y-6339585D01*
D11*
X31703209Y-15296585D02*
X32145350Y-15232294D01*
D10*
X29290406Y-4248864D02*
X29898667Y-4201143D01*
X25132468Y-5227383D02*
X25382575Y-5116544D01*
X8190713Y-4191490D02*
X8226275Y-4166090D01*
X29268790Y-15527453D02*
X28265552Y-15756319D01*
X32655997Y-4120370D02*
X32716956Y-4130530D01*
X11125845Y-4201143D02*
X11734106Y-4248864D01*
X8165317Y-4216890D02*
X8190713Y-4191490D01*
D11*
X21629856Y-18654249D02*
X20512256Y-18654250D01*
D10*
X28391639Y-4345363D02*
X28669921Y-4309742D01*
X15057721Y-17020973D02*
X15362523Y-17292752D01*
X25966791Y-17020973D02*
X26337631Y-16690773D01*
D11*
X18505655Y-18654249D02*
X17692856Y-18628850D01*
D10*
X32798236Y-4166090D02*
X32833798Y-4191490D01*
X9133287Y-4128079D02*
X9946006Y-4145172D01*
X12758960Y-15756319D02*
X11755722Y-15527453D01*
D11*
X23331656Y-18628849D02*
X22518856Y-18654250D01*
D10*
X12758960Y-15756319D02*
X13190820Y-15883053D01*
D11*
X35776045Y-14134416D02*
G75*
G03*
X35983193Y-13735385I-92245J301170D01*
G01*
D10*
X23492690Y-5910229D02*
X23768643Y-5811150D01*
X15892043Y-5227383D02*
X16267203Y-5393642D01*
D11*
X5749645Y-11555380D02*
X8104354Y-4308329D01*
X30945209Y-15352584D02*
X31703209Y-15296585D01*
X5248467Y-14134416D02*
X5721199Y-14288016D01*
X9321303Y-15296585D02*
X10079302Y-15352585D01*
X33491550Y-14876694D02*
X35303313Y-14288016D01*
D10*
X26337631Y-16690773D02*
X26622110Y-16507893D01*
X18450387Y-6159956D02*
X18765813Y-6222357D01*
X22574124Y-6159956D02*
X22952076Y-6069846D01*
X17531822Y-5910230D02*
X17770632Y-5982528D01*
X23964996Y-18553865D02*
X24269798Y-18477666D01*
X17770632Y-5982528D02*
X18072436Y-6069846D01*
X8637852Y-4122621D02*
X9133287Y-4128079D01*
X27376489Y-16098953D02*
X26622110Y-16507893D01*
X8119598Y-4277850D02*
X8139914Y-4247369D01*
X11171503Y-15438785D02*
X10396820Y-15375053D01*
D11*
X22518856Y-18654250D02*
X21629856Y-18654249D01*
D10*
X25661989Y-17292752D02*
X25966791Y-17020973D01*
X32386660Y-4122621D02*
X32655997Y-4120370D01*
X32884598Y-4247370D02*
X32904913Y-4277850D01*
X17030213Y-5726625D02*
X17255868Y-5811151D01*
X23994299Y-5726625D02*
X24357232Y-5573523D01*
D11*
X35274867Y-11555380D02*
X35983193Y-13735385D01*
D10*
X14059564Y-4601013D02*
X14336450Y-4674709D01*
X22258698Y-6222357D02*
X22574124Y-6159956D01*
X16068915Y-18071265D02*
X16292580Y-18241253D01*
X32716956Y-4130530D02*
X32757596Y-4145770D01*
D11*
X19394656Y-18654249D02*
X18505655Y-18654249D01*
X35303313Y-14288016D02*
X35776045Y-14134416D01*
D10*
X25808500Y-4948424D02*
X26310575Y-4777511D01*
X12999531Y-4396933D02*
X13302730Y-4446177D01*
D11*
X5721199Y-14288016D02*
X7532961Y-14876694D01*
D10*
X8307556Y-4130530D02*
X8368515Y-4120369D01*
X14713937Y-4777511D02*
X15216011Y-4948423D01*
X12354591Y-4309742D02*
X12632873Y-4345363D01*
X24533958Y-18358286D02*
X24731932Y-18241253D01*
X8226275Y-4166090D02*
X8266916Y-4145770D01*
X20512890Y-6396845D02*
X21097090Y-6371444D01*
X19928690Y-6371445D02*
X20512890Y-6396845D01*
X13190820Y-15883053D02*
X13648111Y-16098787D01*
D11*
X25661989Y-17292752D02*
X24955596Y-18071266D01*
D10*
X21487775Y-6339585D02*
X21867125Y-6287550D01*
X28024981Y-4396933D02*
X28391639Y-4345363D01*
X26964947Y-4601014D02*
X27305291Y-4524991D01*
X27305291Y-4524991D02*
X27721781Y-4446177D01*
X16292580Y-18241253D02*
X16490554Y-18358286D01*
X12632873Y-4345363D02*
X12999531Y-4396933D01*
X25595538Y-5032484D02*
X25808500Y-4948424D01*
D11*
X8879161Y-15232294D02*
X9321303Y-15296585D01*
D10*
X16667279Y-5573523D02*
X17030213Y-5726625D01*
X30494700Y-4166579D02*
X31078505Y-4145172D01*
X8139914Y-4247369D02*
X8165317Y-4216890D01*
X15428974Y-5032484D02*
X15641936Y-5116544D01*
X26688061Y-4674709D02*
X26964947Y-4601014D01*
X27721781Y-4446177D02*
X28024981Y-4396933D01*
D11*
X5041318Y-13735385D02*
X5749645Y-11555380D01*
D12*
D13*
X18092013Y-12981227D02*
X18242013Y-13131227D01*
X18242013Y-12981227D02*
X18092013Y-13131227D01*
D12*
X18208746Y-13138131D02*
X18248918Y-13014494D01*
X18085109Y-13097959D02*
X18125281Y-12974322D01*
X18248918Y-13014494D02*
G75*
G03*
X18125281Y-12974322I-61819J20086D01*
G01*
X18085109Y-13097959D02*
G75*
G03*
X18208746Y-13138131I61819J-20086D01*
G01*
D13*
X19157197Y-13327326D02*
X19307197Y-13477326D01*
X19307197Y-13327326D02*
X19157197Y-13477326D01*
D12*
X19273929Y-13484230D02*
X19314101Y-13360593D01*
X19150292Y-13444058D02*
X19190464Y-13320421D01*
X19314101Y-13360593D02*
G75*
G03*
X19190464Y-13320421I-61819J20086D01*
G01*
X19150292Y-13444058D02*
G75*
G03*
X19273929Y-13484230I61819J-20086D01*
G01*
D13*
X21717315Y-13327326D02*
X21867315Y-13477326D01*
X21867315Y-13327326D02*
X21717315Y-13477326D01*
D12*
X21874220Y-13444058D02*
X21834048Y-13320421D01*
X21750583Y-13484230D02*
X21710410Y-13360593D01*
X21834048Y-13320421D02*
G75*
G03*
X21710410Y-13360593I-61819J-20086D01*
G01*
X21750583Y-13484230D02*
G75*
G03*
X21874220Y-13444058I61819J20086D01*
G01*
D13*
X22782498Y-12981227D02*
X22932498Y-13131227D01*
X22932498Y-12981227D02*
X22782498Y-13131227D01*
D12*
X22939403Y-13097959D02*
X22899231Y-12974322D01*
X22815766Y-13138131D02*
X22775594Y-13014494D01*
X22899231Y-12974322D02*
G75*
G03*
X22775594Y-13014494I-61819J-20086D01*
G01*
X22815766Y-13138131D02*
G75*
G03*
X22939403Y-13097959I61819J20086D01*
G01*
D14*
X6302783Y-13042972D02*
G75*
G03*
X6302783Y-13042972I-95000J0D01*
G01*
X6954475Y-11038027D02*
G75*
G03*
X6954475Y-11038027I-95000J0D01*
G01*
X7269056Y-13356933D02*
G75*
G03*
X7269056Y-13356933I-95000J0D01*
G01*
X7543152Y-9226265D02*
G75*
G03*
X7543152Y-9226265I-95000J0D01*
G01*
X7920748Y-11351988D02*
G75*
G03*
X7920748Y-11351988I-95000J0D01*
G01*
X8131830Y-7414502D02*
G75*
G03*
X8131830Y-7414502I-95000J0D01*
G01*
X8509425Y-9540226D02*
G75*
G03*
X8509425Y-9540226I-95000J0D01*
G01*
X8720507Y-5602739D02*
G75*
G03*
X8720507Y-5602739I-95000J0D01*
G01*
X8844728Y-11385136D02*
G75*
G03*
X8844728Y-11385136I-95000J0D01*
G01*
X9098103Y-7728463D02*
G75*
G03*
X9098103Y-7728463I-95000J0D01*
G01*
X9433405Y-9573374D02*
G75*
G03*
X9433405Y-9573374I-95000J0D01*
G01*
X9686780Y-5916700D02*
G75*
G03*
X9686780Y-5916700I-95000J0D01*
G01*
X9811001Y-11699097D02*
G75*
G03*
X9811001Y-11699097I-95000J0D01*
G01*
X10022083Y-7761611D02*
G75*
G03*
X10022083Y-7761611I-95000J0D01*
G01*
X10399679Y-9887335D02*
G75*
G03*
X10399679Y-9887335I-95000J0D01*
G01*
X10610760Y-5949848D02*
G75*
G03*
X10610760Y-5949848I-95000J0D01*
G01*
X10736413Y-14019868D02*
G75*
G03*
X10736413Y-14019868I-95000J0D01*
G01*
X10840873Y-11406105D02*
G75*
G03*
X10840873Y-11406105I-95000J0D01*
G01*
X10988356Y-8075572D02*
G75*
G03*
X10988356Y-8075572I-95000J0D01*
G01*
X11429550Y-9594343D02*
G75*
G03*
X11429550Y-9594343I-95000J0D01*
G01*
X11577033Y-6263809D02*
G75*
G03*
X11577033Y-6263809I-95000J0D01*
G01*
X11749938Y-14090741D02*
G75*
G03*
X11749938Y-14090741I-95000J0D01*
G01*
X11807146Y-11720066D02*
G75*
G03*
X11807146Y-11720066I-95000J0D01*
G01*
X12018227Y-7782580D02*
G75*
G03*
X12018227Y-7782580I-95000J0D01*
G01*
X12395823Y-9908304D02*
G75*
G03*
X12395823Y-9908304I-95000J0D01*
G01*
X12606905Y-5970817D02*
G75*
G03*
X12606905Y-5970817I-95000J0D01*
G01*
X12723276Y-11777371D02*
G75*
G03*
X12723276Y-11777371I-95000J0D01*
G01*
X12852363Y-14305749D02*
G75*
G03*
X12852363Y-14305749I-95000J0D01*
G01*
X12984501Y-8096541D02*
G75*
G03*
X12984501Y-8096541I-95000J0D01*
G01*
X13311954Y-9965609D02*
G75*
G03*
X13311954Y-9965609I-95000J0D01*
G01*
X13573178Y-6284778D02*
G75*
G03*
X13573178Y-6284778I-95000J0D01*
G01*
X13689550Y-12091332D02*
G75*
G03*
X13689550Y-12091332I-95000J0D01*
G01*
X13818636Y-14619710D02*
G75*
G03*
X13818636Y-14619710I-95000J0D01*
G01*
X13900631Y-8153846D02*
G75*
G03*
X13900631Y-8153846I-95000J0D01*
G01*
X14278227Y-10279570D02*
G75*
G03*
X14278227Y-10279570I-95000J0D01*
G01*
X14464398Y-12583460D02*
G75*
G03*
X14464398Y-12583460I-95000J0D01*
G01*
X14489309Y-6342083D02*
G75*
G03*
X14489309Y-6342083I-95000J0D01*
G01*
X14836895Y-15093754D02*
G75*
G03*
X14836895Y-15093754I-95000J0D01*
G01*
X14866905Y-8467807D02*
G75*
G03*
X14866905Y-8467807I-95000J0D01*
G01*
X15053075Y-10771697D02*
G75*
G03*
X15053075Y-10771697I-95000J0D01*
G01*
X15430671Y-12897421D02*
G75*
G03*
X15430671Y-12897421I-95000J0D01*
G01*
X15455582Y-6656044D02*
G75*
G03*
X15455582Y-6656044I-95000J0D01*
G01*
X15641753Y-8959935D02*
G75*
G03*
X15641753Y-8959935I-95000J0D01*
G01*
X15698512Y-15632152D02*
G75*
G03*
X15698512Y-15632152I-95000J0D01*
G01*
X16019349Y-11085659D02*
G75*
G03*
X16019349Y-11085659I-95000J0D01*
G01*
X16205367Y-13389499D02*
G75*
G03*
X16205367Y-13389499I-95000J0D01*
G01*
X16230430Y-7148172D02*
G75*
G03*
X16230430Y-7148172I-95000J0D01*
G01*
X16538142Y-17088076D02*
G75*
G03*
X16538142Y-17088076I-95000J0D01*
G01*
X16608026Y-9273896D02*
G75*
G03*
X16608026Y-9273896I-95000J0D01*
G01*
X16794044Y-11577737D02*
G75*
G03*
X16794044Y-11577737I-95000J0D01*
G01*
X16892064Y-16769402D02*
G75*
G03*
X16892064Y-16769402I-95000J0D01*
G01*
X17171641Y-13703460D02*
G75*
G03*
X17171641Y-13703460I-95000J0D01*
G01*
X17196703Y-7462133D02*
G75*
G03*
X17196703Y-7462133I-95000J0D01*
G01*
X17293177Y-16408239D02*
G75*
G03*
X17293177Y-16408239I-95000J0D01*
G01*
X17382722Y-9765974D02*
G75*
G03*
X17382722Y-9765974I-95000J0D01*
G01*
X17647100Y-16089566D02*
G75*
G03*
X17647100Y-16089566I-95000J0D01*
G01*
X17760318Y-11891698D02*
G75*
G03*
X17760318Y-11891698I-95000J0D01*
G01*
X17971399Y-7954211D02*
G75*
G03*
X17971399Y-7954211I-95000J0D01*
G01*
X18311468Y-13072296D02*
G75*
G03*
X18311468Y-13072296I-95000J0D01*
G01*
X18348995Y-10079935D02*
G75*
G03*
X18348995Y-10079935I-95000J0D01*
G01*
X18937673Y-8268173D02*
G75*
G03*
X18937673Y-8268173I-95000J0D01*
G01*
X19277742Y-13386257D02*
G75*
G03*
X19277742Y-13386257I-95000J0D01*
G01*
X21936770Y-13386257D02*
G75*
G03*
X21936770Y-13386257I-95000J0D01*
G01*
X22276839Y-8268173D02*
G75*
G03*
X22276839Y-8268173I-95000J0D01*
G01*
X22865517Y-10079935D02*
G75*
G03*
X22865517Y-10079935I-95000J0D01*
G01*
X22903043Y-13072295D02*
G75*
G03*
X22903043Y-13072295I-95000J0D01*
G01*
X23243113Y-7954211D02*
G75*
G03*
X23243113Y-7954211I-95000J0D01*
G01*
X23454194Y-11891698D02*
G75*
G03*
X23454194Y-11891698I-95000J0D01*
G01*
X23567482Y-16089543D02*
G75*
G03*
X23567482Y-16089543I-95000J0D01*
G01*
X23831790Y-9765974D02*
G75*
G03*
X23831790Y-9765974I-95000J0D01*
G01*
X23921405Y-16408216D02*
G75*
G03*
X23921405Y-16408216I-95000J0D01*
G01*
X24017808Y-7462133D02*
G75*
G03*
X24017808Y-7462133I-95000J0D01*
G01*
X24042871Y-13703461D02*
G75*
G03*
X24042871Y-13703461I-95000J0D01*
G01*
X24322518Y-16769380D02*
G75*
G03*
X24322518Y-16769380I-95000J0D01*
G01*
X24420468Y-11577737D02*
G75*
G03*
X24420468Y-11577737I-95000J0D01*
G01*
X24606486Y-9273896D02*
G75*
G03*
X24606486Y-9273896I-95000J0D01*
G01*
X24676440Y-17088053D02*
G75*
G03*
X24676440Y-17088053I-95000J0D01*
G01*
X24984082Y-7148172D02*
G75*
G03*
X24984082Y-7148172I-95000J0D01*
G01*
X25009145Y-13389499D02*
G75*
G03*
X25009145Y-13389499I-95000J0D01*
G01*
X25195163Y-11085658D02*
G75*
G03*
X25195163Y-11085658I-95000J0D01*
G01*
X25516000Y-15632152D02*
G75*
G03*
X25516000Y-15632152I-95000J0D01*
G01*
X25572759Y-8959935D02*
G75*
G03*
X25572759Y-8959935I-95000J0D01*
G01*
X25758930Y-6656044D02*
G75*
G03*
X25758930Y-6656044I-95000J0D01*
G01*
X25783841Y-12897421D02*
G75*
G03*
X25783841Y-12897421I-95000J0D01*
G01*
X26161437Y-10771697D02*
G75*
G03*
X26161437Y-10771697I-95000J0D01*
G01*
X26347607Y-8467807D02*
G75*
G03*
X26347607Y-8467807I-95000J0D01*
G01*
X26377616Y-15093754D02*
G75*
G03*
X26377616Y-15093754I-95000J0D01*
G01*
X26725203Y-6342083D02*
G75*
G03*
X26725203Y-6342083I-95000J0D01*
G01*
X26750114Y-12583460D02*
G75*
G03*
X26750114Y-12583460I-95000J0D01*
G01*
X26936285Y-10279570D02*
G75*
G03*
X26936285Y-10279570I-95000J0D01*
G01*
X27313881Y-8153845D02*
G75*
G03*
X27313881Y-8153845I-95000J0D01*
G01*
X27395876Y-14619710D02*
G75*
G03*
X27395876Y-14619710I-95000J0D01*
G01*
X27524962Y-12091332D02*
G75*
G03*
X27524962Y-12091332I-95000J0D01*
G01*
X27641334Y-6284778D02*
G75*
G03*
X27641334Y-6284778I-95000J0D01*
G01*
X27902558Y-9965608D02*
G75*
G03*
X27902558Y-9965608I-95000J0D01*
G01*
X28230011Y-8096541D02*
G75*
G03*
X28230011Y-8096541I-95000J0D01*
G01*
X28362149Y-14305748D02*
G75*
G03*
X28362149Y-14305748I-95000J0D01*
G01*
X28491235Y-11777371D02*
G75*
G03*
X28491235Y-11777371I-95000J0D01*
G01*
X28607607Y-5970817D02*
G75*
G03*
X28607607Y-5970817I-95000J0D01*
G01*
X28818688Y-9908304D02*
G75*
G03*
X28818688Y-9908304I-95000J0D01*
G01*
X29196285Y-7782580D02*
G75*
G03*
X29196285Y-7782580I-95000J0D01*
G01*
X29407366Y-11720066D02*
G75*
G03*
X29407366Y-11720066I-95000J0D01*
G01*
X29464644Y-14090718D02*
G75*
G03*
X29464644Y-14090718I-95000J0D01*
G01*
X29637567Y-6263844D02*
G75*
G03*
X29637567Y-6263844I-95000J0D01*
G01*
X29784962Y-9594343D02*
G75*
G03*
X29784962Y-9594343I-95000J0D01*
G01*
X30226244Y-8075606D02*
G75*
G03*
X30226244Y-8075606I-95000J0D01*
G01*
X30373640Y-11406105D02*
G75*
G03*
X30373640Y-11406105I-95000J0D01*
G01*
X30478169Y-14019845D02*
G75*
G03*
X30478169Y-14019845I-95000J0D01*
G01*
X30603841Y-5949883D02*
G75*
G03*
X30603841Y-5949883I-95000J0D01*
G01*
X30814922Y-9887369D02*
G75*
G03*
X30814922Y-9887369I-95000J0D01*
G01*
X31192518Y-7761645D02*
G75*
G03*
X31192518Y-7761645I-95000J0D01*
G01*
X31403599Y-11699132D02*
G75*
G03*
X31403599Y-11699132I-95000J0D01*
G01*
X31527820Y-5916735D02*
G75*
G03*
X31527820Y-5916735I-95000J0D01*
G01*
X31781195Y-9573408D02*
G75*
G03*
X31781195Y-9573408I-95000J0D01*
G01*
X32116497Y-7728497D02*
G75*
G03*
X32116497Y-7728497I-95000J0D01*
G01*
X32369873Y-11385170D02*
G75*
G03*
X32369873Y-11385170I-95000J0D01*
G01*
X32494094Y-5602773D02*
G75*
G03*
X32494094Y-5602773I-95000J0D01*
G01*
X32705175Y-9540260D02*
G75*
G03*
X32705175Y-9540260I-95000J0D01*
G01*
X33082771Y-7414536D02*
G75*
G03*
X33082771Y-7414536I-95000J0D01*
G01*
X33293852Y-11352022D02*
G75*
G03*
X33293852Y-11352022I-95000J0D01*
G01*
X33671448Y-9226299D02*
G75*
G03*
X33671448Y-9226299I-95000J0D01*
G01*
X33945544Y-13356968D02*
G75*
G03*
X33945544Y-13356968I-95000J0D01*
G01*
X34260126Y-11038061D02*
G75*
G03*
X34260126Y-11038061I-95000J0D01*
G01*
X34911818Y-13043007D02*
G75*
G03*
X34911818Y-13043007I-95000J0D01*
G01*
D15*
X6407058Y-12690649D02*
X6407058Y-12990649D01*
X6257058Y-12840649D02*
X6557058Y-12840649D01*
X7058749Y-10685704D02*
X7058749Y-10985704D01*
X6908749Y-10835704D02*
X7208749Y-10835704D01*
X7089469Y-12645306D02*
X7089469Y-12945306D01*
X6939469Y-12795306D02*
X7239469Y-12795306D01*
X7647426Y-8873941D02*
X7647426Y-9173941D01*
X7497426Y-9023941D02*
X7797426Y-9023941D01*
X7741160Y-10640361D02*
X7741160Y-10940361D01*
X7591160Y-10790361D02*
X7891160Y-10790361D01*
X8236104Y-7062179D02*
X8236104Y-7362179D01*
X8086104Y-7212179D02*
X8386104Y-7212179D01*
X8329838Y-8828599D02*
X8329838Y-9128599D01*
X8179838Y-8978599D02*
X8479838Y-8978599D01*
X8824781Y-5250416D02*
X8824781Y-5550416D01*
X8674781Y-5400416D02*
X8974781Y-5400416D01*
X8918515Y-7016836D02*
X8918515Y-7316836D01*
X8768515Y-7166836D02*
X9068515Y-7166836D01*
X8949002Y-11032813D02*
X8949002Y-11332813D01*
X8799002Y-11182813D02*
X9099002Y-11182813D01*
X9507193Y-5205073D02*
X9507193Y-5505073D01*
X9357193Y-5355073D02*
X9657193Y-5355073D01*
X9537680Y-9221050D02*
X9537680Y-9521050D01*
X9387680Y-9371050D02*
X9687680Y-9371050D01*
X9631414Y-10987471D02*
X9631414Y-11287470D01*
X9481414Y-11137471D02*
X9781414Y-11137471D01*
X10126357Y-7409288D02*
X10126357Y-7709288D01*
X9976357Y-7559288D02*
X10276357Y-7559288D01*
X10220091Y-9175708D02*
X10220091Y-9475708D01*
X10070091Y-9325708D02*
X10370091Y-9325708D01*
X10715034Y-5597525D02*
X10715034Y-5897525D01*
X10565034Y-5747525D02*
X10865034Y-5747525D01*
X10785821Y-13625346D02*
X10785821Y-13925346D01*
X10635821Y-13775346D02*
X10935821Y-13775346D01*
X10808768Y-7363945D02*
X10808768Y-7663945D01*
X10658768Y-7513945D02*
X10958768Y-7513945D01*
X10945147Y-11053782D02*
X10945147Y-11353782D01*
X10795147Y-11203782D02*
X11095147Y-11203782D01*
X11397445Y-5552183D02*
X11397445Y-5852182D01*
X11247445Y-5702182D02*
X11547445Y-5702182D01*
X11436993Y-13416260D02*
X11436993Y-13716260D01*
X11286993Y-13566260D02*
X11586993Y-13566260D01*
X11533824Y-9242019D02*
X11533824Y-9542019D01*
X11383824Y-9392019D02*
X11683824Y-9392019D01*
X11627558Y-11008439D02*
X11627558Y-11308439D01*
X11477558Y-11158439D02*
X11777558Y-11158439D01*
X12122502Y-7430257D02*
X12122502Y-7730257D01*
X11972502Y-7580257D02*
X12272502Y-7580257D01*
X12216236Y-9196677D02*
X12216236Y-9496677D01*
X12066236Y-9346677D02*
X12366236Y-9346677D01*
X12711179Y-5618494D02*
X12711179Y-5918494D01*
X12561179Y-5768494D02*
X12861179Y-5768494D01*
X12804913Y-7384914D02*
X12804913Y-7684914D01*
X12654913Y-7534914D02*
X12954913Y-7534914D01*
X12827551Y-11425048D02*
X12827551Y-11725048D01*
X12677551Y-11575048D02*
X12977551Y-11575048D01*
X12956637Y-13953425D02*
X12956637Y-14253425D01*
X12806637Y-14103425D02*
X13106637Y-14103425D01*
X13393590Y-5573152D02*
X13393590Y-5873151D01*
X13243590Y-5723151D02*
X13543590Y-5723151D01*
X13416228Y-9613285D02*
X13416228Y-9913285D01*
X13266228Y-9763285D02*
X13566228Y-9763285D01*
X13509962Y-11379705D02*
X13509962Y-11679705D01*
X13359962Y-11529705D02*
X13659962Y-11529705D01*
X13639048Y-13908083D02*
X13639048Y-14208083D01*
X13489048Y-14058083D02*
X13789048Y-14058083D01*
X14004906Y-7801523D02*
X14004906Y-8101523D01*
X13854906Y-7951523D02*
X14154906Y-7951523D01*
X14098640Y-9567943D02*
X14098640Y-9867943D01*
X13948640Y-9717943D02*
X14248640Y-9717943D01*
X14568673Y-12231137D02*
X14568673Y-12531137D01*
X14418673Y-12381137D02*
X14718673Y-12381137D01*
X14593583Y-5989760D02*
X14593583Y-6289760D01*
X14443583Y-6139760D02*
X14743583Y-6139760D01*
X14687317Y-7756180D02*
X14687317Y-8056180D01*
X14537317Y-7906180D02*
X14837317Y-7906180D01*
X14984197Y-14795650D02*
X14984197Y-15095650D01*
X14834197Y-14945650D02*
X15134197Y-14945650D01*
X15157350Y-10419374D02*
X15157350Y-10719374D01*
X15007350Y-10569374D02*
X15307350Y-10569374D01*
X15251084Y-12185794D02*
X15251084Y-12485794D01*
X15101084Y-12335794D02*
X15401084Y-12335794D01*
X15275994Y-5944417D02*
X15275994Y-6244417D01*
X15125994Y-6094417D02*
X15425994Y-6094417D01*
X15657307Y-14916744D02*
X15657307Y-15216744D01*
X15507307Y-15066744D02*
X15807307Y-15066744D01*
X15746027Y-8607611D02*
X15746027Y-8907611D01*
X15596027Y-8757611D02*
X15896027Y-8757611D01*
X15839761Y-10374032D02*
X15839761Y-10674032D01*
X15689761Y-10524032D02*
X15989761Y-10524032D01*
X16309642Y-13037176D02*
X16309642Y-13337176D01*
X16159642Y-13187176D02*
X16459642Y-13187176D01*
X16334704Y-6795849D02*
X16334704Y-7095849D01*
X16184704Y-6945849D02*
X16484704Y-6945849D01*
X16367562Y-16664337D02*
X16367562Y-16964337D01*
X16217562Y-16814337D02*
X16517562Y-16814337D01*
X16428438Y-8562269D02*
X16428438Y-8862269D01*
X16278438Y-8712269D02*
X16578438Y-8712269D01*
X16669500Y-16050681D02*
X16669500Y-16350681D01*
X16519500Y-16200681D02*
X16819500Y-16200681D01*
X16898319Y-11225414D02*
X16898319Y-11525414D01*
X16748319Y-11375414D02*
X17048319Y-11375414D01*
X16992053Y-12991833D02*
X16992053Y-13291833D01*
X16842053Y-13141833D02*
X17142053Y-13141833D01*
X17017116Y-6750506D02*
X17017116Y-7050506D01*
X16867116Y-6900506D02*
X17167116Y-6900506D01*
X17325742Y-16826961D02*
X17325742Y-17126961D01*
X17175742Y-16976961D02*
X17475742Y-16976961D01*
X17486996Y-9413651D02*
X17486996Y-9713651D01*
X17336996Y-9563651D02*
X17636996Y-9563651D01*
X17580730Y-11180071D02*
X17580730Y-11480071D01*
X17430730Y-11330071D02*
X17730730Y-11330071D01*
X17627679Y-16213304D02*
X17627679Y-16513304D01*
X17477679Y-16363304D02*
X17777679Y-16363304D01*
X18075674Y-7601888D02*
X18075674Y-7901888D01*
X17925674Y-7751888D02*
X18225674Y-7751888D01*
X18169408Y-9368308D02*
X18169408Y-9668308D01*
X18019408Y-9518308D02*
X18319408Y-9518308D01*
X18415743Y-12719972D02*
X18415743Y-13019972D01*
X18265743Y-12869972D02*
X18565743Y-12869972D01*
X18758085Y-7556546D02*
X18758085Y-7856546D01*
X18608085Y-7706546D02*
X18908085Y-7706546D01*
X19098154Y-12674630D02*
X19098154Y-12974630D01*
X18948154Y-12824630D02*
X19248154Y-12824630D01*
X21884064Y-12955443D02*
X21884064Y-13255443D01*
X21734064Y-13105443D02*
X22034064Y-13105443D01*
X22224133Y-7837359D02*
X22224133Y-8137359D01*
X22074133Y-7987359D02*
X22374133Y-7987359D01*
X22409494Y-12517649D02*
X22409494Y-12817649D01*
X22259495Y-12667649D02*
X22559494Y-12667649D01*
X22749564Y-7399565D02*
X22749564Y-7699565D01*
X22599564Y-7549565D02*
X22899564Y-7549565D01*
X22812811Y-9649122D02*
X22812811Y-9949122D01*
X22662811Y-9799122D02*
X22962811Y-9799122D01*
X23338241Y-9211328D02*
X23338241Y-9511328D01*
X23188241Y-9361328D02*
X23488241Y-9361328D01*
X23401488Y-11460885D02*
X23401488Y-11760885D01*
X23251488Y-11610885D02*
X23551488Y-11610885D01*
X23675246Y-16805693D02*
X23675246Y-17105693D01*
X23525246Y-16955693D02*
X23825246Y-16955693D01*
X23736821Y-15835764D02*
X23736821Y-16135764D01*
X23586821Y-15985764D02*
X23886821Y-15985764D01*
X23926919Y-11023091D02*
X23926919Y-11323090D01*
X23776919Y-11173091D02*
X24076919Y-11173091D01*
X23965102Y-7031320D02*
X23965102Y-7331320D01*
X23815102Y-7181320D02*
X24115102Y-7181320D01*
X23990165Y-13272647D02*
X23990165Y-13572647D01*
X23840165Y-13422647D02*
X24140165Y-13422647D01*
X24317102Y-17041832D02*
X24317102Y-17341832D01*
X24167102Y-17191832D02*
X24467102Y-17191832D01*
X24378677Y-16071903D02*
X24378677Y-16371903D01*
X24228677Y-16221903D02*
X24528677Y-16221903D01*
X24490533Y-6593526D02*
X24490533Y-6893526D01*
X24340533Y-6743526D02*
X24640533Y-6743526D01*
X24515596Y-12834853D02*
X24515596Y-13134853D01*
X24365596Y-12984853D02*
X24665596Y-12984853D01*
X24553780Y-8843082D02*
X24553780Y-9143082D01*
X24403780Y-8993082D02*
X24703780Y-8993082D01*
X25079210Y-8405288D02*
X25079210Y-8705288D01*
X24929210Y-8555288D02*
X25229210Y-8555288D01*
X25142457Y-10654845D02*
X25142457Y-10954845D01*
X24992457Y-10804845D02*
X25292457Y-10804845D01*
X25394102Y-15199448D02*
X25394102Y-15499448D01*
X25244102Y-15349448D02*
X25544102Y-15349448D01*
X25667888Y-10217051D02*
X25667888Y-10517051D01*
X25517888Y-10367051D02*
X25817888Y-10367051D01*
X25706224Y-6225231D02*
X25706224Y-6525231D01*
X25556224Y-6375231D02*
X25856224Y-6375231D01*
X25731134Y-12466608D02*
X25731134Y-12766608D01*
X25581134Y-12616608D02*
X25881134Y-12616608D01*
X25798013Y-14647545D02*
X25798013Y-14947545D01*
X25648013Y-14797545D02*
X25948013Y-14797545D01*
X26231654Y-5787437D02*
X26231654Y-6087437D01*
X26081654Y-5937437D02*
X26381654Y-5937437D01*
X26256565Y-12028814D02*
X26256565Y-12328814D01*
X26106565Y-12178814D02*
X26406565Y-12178814D01*
X26294901Y-8036993D02*
X26294901Y-8336993D01*
X26144901Y-8186993D02*
X26444901Y-8186993D01*
X26820332Y-7599199D02*
X26820332Y-7899199D01*
X26670332Y-7749199D02*
X26970332Y-7749199D01*
X26883579Y-9848756D02*
X26883579Y-10148756D01*
X26733579Y-9998756D02*
X27033579Y-9998756D01*
X27343170Y-14188896D02*
X27343170Y-14488896D01*
X27193170Y-14338896D02*
X27493170Y-14338896D01*
X27409009Y-9410962D02*
X27409009Y-9710962D01*
X27259009Y-9560962D02*
X27559009Y-9560962D01*
X27472256Y-11660519D02*
X27472256Y-11960519D01*
X27322256Y-11810519D02*
X27622256Y-11810519D01*
X27588628Y-5853965D02*
X27588628Y-6153965D01*
X27438628Y-6003965D02*
X27738628Y-6003965D01*
X27868600Y-13751102D02*
X27868600Y-14051102D01*
X27718600Y-13901102D02*
X28018600Y-13901102D01*
X27997686Y-11222725D02*
X27997686Y-11522725D01*
X27847686Y-11372725D02*
X28147686Y-11372725D01*
X28114058Y-5416171D02*
X28114058Y-5716171D01*
X27964058Y-5566171D02*
X28264058Y-5566171D01*
X28177305Y-7665727D02*
X28177305Y-7965727D01*
X28027305Y-7815727D02*
X28327305Y-7815727D01*
X28702736Y-7227933D02*
X28702736Y-7527933D01*
X28552736Y-7377933D02*
X28852736Y-7377933D01*
X28765982Y-9477490D02*
X28765982Y-9777490D01*
X28615982Y-9627490D02*
X28915982Y-9627490D01*
X29291413Y-9039696D02*
X29291413Y-9339696D01*
X29141413Y-9189696D02*
X29441413Y-9189696D01*
X29354660Y-11289253D02*
X29354660Y-11589253D01*
X29204660Y-11439253D02*
X29504660Y-11439253D01*
X29478617Y-13678478D02*
X29478617Y-13978478D01*
X29328617Y-13828478D02*
X29628617Y-13828478D01*
X29584861Y-5833030D02*
X29584861Y-6133030D01*
X29434861Y-5983030D02*
X29734861Y-5983030D01*
X29880091Y-10851459D02*
X29880091Y-11151459D01*
X29730091Y-11001459D02*
X30030091Y-11001459D01*
X30094352Y-13380801D02*
X30094352Y-13680801D01*
X29944352Y-13530801D02*
X30244352Y-13530801D01*
X30110292Y-5395236D02*
X30110292Y-5695236D01*
X29960292Y-5545236D02*
X30260292Y-5545236D01*
X30173538Y-7644793D02*
X30173538Y-7944793D01*
X30023538Y-7794793D02*
X30323538Y-7794793D01*
X30698969Y-7206999D02*
X30698969Y-7506999D01*
X30548969Y-7356999D02*
X30848969Y-7356999D01*
X30762216Y-9456556D02*
X30762216Y-9756556D01*
X30612216Y-9606556D02*
X30912216Y-9606556D01*
X31287646Y-9018761D02*
X31287646Y-9318761D01*
X31137646Y-9168761D02*
X31437646Y-9168761D01*
X31350893Y-11268318D02*
X31350893Y-11568318D01*
X31200893Y-11418318D02*
X31500893Y-11418318D01*
X31475114Y-5485921D02*
X31475114Y-5785921D01*
X31325114Y-5635921D02*
X31625114Y-5635921D01*
X31876324Y-10830524D02*
X31876324Y-11130524D01*
X31726324Y-10980524D02*
X32026324Y-10980524D01*
X32000545Y-5048127D02*
X32000545Y-5348127D01*
X31850545Y-5198127D02*
X32150545Y-5198127D01*
X32063791Y-7297684D02*
X32063791Y-7597684D01*
X31913791Y-7447684D02*
X32213791Y-7447684D01*
X32589222Y-6859890D02*
X32589222Y-7159890D01*
X32439222Y-7009890D02*
X32739222Y-7009890D01*
X32652469Y-9109446D02*
X32652469Y-9409446D01*
X32502469Y-9259446D02*
X32802469Y-9259446D01*
X33177899Y-8671652D02*
X33177899Y-8971652D01*
X33027899Y-8821652D02*
X33327899Y-8821652D01*
X33241146Y-10921209D02*
X33241146Y-11221209D01*
X33091146Y-11071209D02*
X33391146Y-11071209D01*
X33766577Y-10483415D02*
X33766577Y-10783415D01*
X33616577Y-10633415D02*
X33916577Y-10633415D01*
X33892838Y-12926154D02*
X33892838Y-13226154D01*
X33742838Y-13076154D02*
X34042838Y-13076154D01*
X34418269Y-12488360D02*
X34418269Y-12788360D01*
X34268269Y-12638360D02*
X34568269Y-12638360D01*
D16*
X6835878Y-13344911D02*
X6835878Y-13054995D01*
X6545961Y-13054995D01*
X6545961Y-13344911D01*
X6835878Y-13344911D01*
X7487570Y-11339966D02*
X7487570Y-11050050D01*
X7197653Y-11050050D01*
X7197653Y-11339966D01*
X7487570Y-11339966D01*
X8076247Y-9528204D02*
X8076247Y-9238287D01*
X7786330Y-9238287D01*
X7786330Y-9528204D01*
X8076247Y-9528204D01*
X8664925Y-7716441D02*
X8664925Y-7426524D01*
X8375008Y-7426524D01*
X8375008Y-7716441D01*
X8664925Y-7716441D01*
X9253602Y-5904678D02*
X9253602Y-5614761D01*
X8963685Y-5614761D01*
X8963685Y-5904678D01*
X9253602Y-5904678D01*
X9377823Y-11687075D02*
X9377823Y-11397159D01*
X9087906Y-11397159D01*
X9087906Y-11687075D01*
X9377823Y-11687075D01*
X9966500Y-9875313D02*
X9966500Y-9585396D01*
X9676584Y-9585396D01*
X9676584Y-9875313D01*
X9966500Y-9875313D01*
X10555178Y-8063550D02*
X10555178Y-7773633D01*
X10265261Y-7773633D01*
X10265261Y-8063550D01*
X10555178Y-8063550D01*
X11143855Y-6251787D02*
X11143855Y-5961871D01*
X10853938Y-5961871D01*
X10853938Y-6251787D01*
X11143855Y-6251787D01*
X11293133Y-14200263D02*
X11293133Y-13910346D01*
X11003217Y-13910346D01*
X11003217Y-14200263D01*
X11293133Y-14200263D01*
X11373968Y-11708044D02*
X11373968Y-11418127D01*
X11084051Y-11418127D01*
X11084051Y-11708044D01*
X11373968Y-11708044D01*
X11962645Y-9896281D02*
X11962645Y-9606365D01*
X11672728Y-9606365D01*
X11672728Y-9896281D01*
X11962645Y-9896281D01*
X12551322Y-8084519D02*
X12551322Y-7794602D01*
X12261406Y-7794602D01*
X12261406Y-8084519D01*
X12551322Y-8084519D01*
X13140000Y-6272756D02*
X13140000Y-5982840D01*
X12850083Y-5982840D01*
X12850083Y-6272756D01*
X13140000Y-6272756D01*
X13256371Y-12079310D02*
X13256371Y-11789393D01*
X12966455Y-11789393D01*
X12966455Y-12079310D01*
X13256371Y-12079310D01*
X13385458Y-14607687D02*
X13385458Y-14317771D01*
X13095541Y-14317771D01*
X13095541Y-14607687D01*
X13385458Y-14607687D01*
X13845049Y-10267547D02*
X13845049Y-9977631D01*
X13555132Y-9977631D01*
X13555132Y-10267547D01*
X13845049Y-10267547D01*
X14433726Y-8455785D02*
X14433726Y-8165868D01*
X14143810Y-8165868D01*
X14143810Y-8455785D01*
X14433726Y-8455785D01*
X14997493Y-12885399D02*
X14997493Y-12595482D01*
X14707576Y-12595482D01*
X14707576Y-12885399D01*
X14997493Y-12885399D01*
X15022404Y-6644022D02*
X15022404Y-6354105D01*
X14732487Y-6354105D01*
X14732487Y-6644022D01*
X15022404Y-6644022D01*
X15317662Y-15507911D02*
X15317662Y-15217995D01*
X15027746Y-15217995D01*
X15027746Y-15507911D01*
X15317662Y-15507911D01*
X15586170Y-11073636D02*
X15586170Y-10783720D01*
X15296254Y-10783720D01*
X15296254Y-11073636D01*
X15586170Y-11073636D01*
X16174848Y-9261874D02*
X16174848Y-8971957D01*
X15884931Y-8971957D01*
X15884931Y-9261874D01*
X16174848Y-9261874D01*
X16738462Y-13691438D02*
X16738462Y-13401522D01*
X16448546Y-13401522D01*
X16448546Y-13691438D01*
X16738462Y-13691438D01*
X16763525Y-7450111D02*
X16763525Y-7160194D01*
X16473608Y-7160194D01*
X16473608Y-7450111D01*
X16763525Y-7450111D01*
X16965618Y-16893116D02*
X16965618Y-16603199D01*
X16675701Y-16603199D01*
X16675701Y-16893116D01*
X16965618Y-16893116D01*
X17319540Y-16574442D02*
X17319540Y-16284526D01*
X17029624Y-16284526D01*
X17029624Y-16574442D01*
X17319540Y-16574442D01*
X17327139Y-11879676D02*
X17327139Y-11589759D01*
X17037223Y-11589759D01*
X17037223Y-11879676D01*
X17327139Y-11879676D01*
X17915817Y-10067913D02*
X17915817Y-9777996D01*
X17625900Y-9777996D01*
X17625900Y-10067913D01*
X17915817Y-10067913D01*
X18504494Y-8256150D02*
X18504494Y-7966234D01*
X18214578Y-7966234D01*
X18214578Y-8256150D01*
X18504494Y-8256150D01*
X18844563Y-13374234D02*
X18844563Y-13084318D01*
X18554647Y-13084318D01*
X18554647Y-13374234D01*
X18844563Y-13374234D01*
X22469865Y-13374234D02*
X22469865Y-13084318D01*
X22179949Y-13084318D01*
X22179949Y-13374234D01*
X22469865Y-13374234D01*
X22809934Y-8256150D02*
X22809934Y-7966234D01*
X22520018Y-7966234D01*
X22520018Y-8256150D01*
X22809934Y-8256150D01*
X23398612Y-10067913D02*
X23398612Y-9777996D01*
X23108695Y-9777996D01*
X23108695Y-10067913D01*
X23398612Y-10067913D01*
X23987289Y-11879676D02*
X23987289Y-11589759D01*
X23697373Y-11589759D01*
X23697373Y-11879676D01*
X23987289Y-11879676D01*
X23994958Y-16574420D02*
X23994958Y-16284503D01*
X23705042Y-16284503D01*
X23705042Y-16574420D01*
X23994958Y-16574420D01*
X24348881Y-16893093D02*
X24348881Y-16603176D01*
X24058964Y-16603176D01*
X24058964Y-16893093D01*
X24348881Y-16893093D01*
X24550903Y-7450111D02*
X24550903Y-7160194D01*
X24260987Y-7160194D01*
X24260987Y-7450111D01*
X24550903Y-7450111D01*
X24575966Y-13691438D02*
X24575966Y-13401522D01*
X24286050Y-13401522D01*
X24286050Y-13691438D01*
X24575966Y-13691438D01*
X25139581Y-9261873D02*
X25139581Y-8971957D01*
X24849664Y-8971957D01*
X24849664Y-9261873D01*
X25139581Y-9261873D01*
X25728258Y-11073636D02*
X25728258Y-10783719D01*
X25438342Y-10783719D01*
X25438342Y-11073636D01*
X25728258Y-11073636D01*
X25996766Y-15507912D02*
X25996766Y-15217995D01*
X25706850Y-15217995D01*
X25706850Y-15507912D01*
X25996766Y-15507912D01*
X26292025Y-6644022D02*
X26292025Y-6354105D01*
X26002108Y-6354105D01*
X26002108Y-6644022D01*
X26292025Y-6644022D01*
X26316936Y-12885399D02*
X26316936Y-12595482D01*
X26027019Y-12595482D01*
X26027019Y-12885399D01*
X26316936Y-12885399D01*
X26880702Y-8455784D02*
X26880702Y-8165868D01*
X26590786Y-8165868D01*
X26590786Y-8455784D01*
X26880702Y-8455784D01*
X27469380Y-10267547D02*
X27469380Y-9977631D01*
X27179463Y-9977631D01*
X27179463Y-10267547D01*
X27469380Y-10267547D01*
X27928971Y-14607687D02*
X27928971Y-14317771D01*
X27639054Y-14317771D01*
X27639054Y-14607687D01*
X27928971Y-14607687D01*
X28058057Y-12079310D02*
X28058057Y-11789393D01*
X27768140Y-11789393D01*
X27768140Y-12079310D01*
X28058057Y-12079310D01*
X28174429Y-6272756D02*
X28174429Y-5982839D01*
X27884512Y-5982839D01*
X27884512Y-6272756D01*
X28174429Y-6272756D01*
X28763106Y-8084519D02*
X28763106Y-7794602D01*
X28473190Y-7794602D01*
X28473190Y-8084519D01*
X28763106Y-8084519D01*
X29351783Y-9896282D02*
X29351783Y-9606365D01*
X29061867Y-9606365D01*
X29061867Y-9896282D01*
X29351783Y-9896282D01*
X29940461Y-11708044D02*
X29940461Y-11418127D01*
X29650545Y-11418127D01*
X29650545Y-11708044D01*
X29940461Y-11708044D01*
X30021365Y-14200240D02*
X30021365Y-13910323D01*
X29731448Y-13910323D01*
X29731448Y-14200240D01*
X30021365Y-14200240D01*
X30170662Y-6251822D02*
X30170662Y-5961905D01*
X29880746Y-5961905D01*
X29880746Y-6251822D01*
X30170662Y-6251822D01*
X30759339Y-8063584D02*
X30759339Y-7773667D01*
X30469423Y-7773667D01*
X30469423Y-8063584D01*
X30759339Y-8063584D01*
X31348017Y-9875347D02*
X31348017Y-9585430D01*
X31058100Y-9585430D01*
X31058100Y-9875347D01*
X31348017Y-9875347D01*
X31936694Y-11687109D02*
X31936694Y-11397193D01*
X31646778Y-11397193D01*
X31646778Y-11687109D01*
X31936694Y-11687109D01*
X32060915Y-5904712D02*
X32060915Y-5614796D01*
X31770999Y-5614796D01*
X31770999Y-5904712D01*
X32060915Y-5904712D01*
X32649592Y-7716475D02*
X32649592Y-7426558D01*
X32359676Y-7426558D01*
X32359676Y-7716475D01*
X32649592Y-7716475D01*
X33238270Y-9528238D02*
X33238270Y-9238321D01*
X32948353Y-9238321D01*
X32948353Y-9528238D01*
X33238270Y-9528238D01*
X33826948Y-11340000D02*
X33826948Y-11050084D01*
X33537031Y-11050084D01*
X33537031Y-11340000D01*
X33826948Y-11340000D01*
X34478639Y-13344946D02*
X34478639Y-13055029D01*
X34188723Y-13055029D01*
X34188723Y-13344946D01*
X34478639Y-13344946D01*
D12*
X5278350Y-18969726D02*
X5278350Y-18769726D01*
X5325969Y-18769726D01*
X5354540Y-18779250D01*
X5373588Y-18798297D01*
X5383111Y-18817345D01*
X5392635Y-18855440D01*
X5392635Y-18884011D01*
X5383111Y-18922107D01*
X5373588Y-18941154D01*
X5354540Y-18960202D01*
X5325969Y-18969726D01*
X5278350Y-18969726D01*
X5478350Y-18969726D02*
X5478350Y-18836392D01*
X5478350Y-18874488D02*
X5487873Y-18855440D01*
X5497397Y-18845916D01*
X5516445Y-18836392D01*
X5535492Y-18836392D01*
X5602159Y-18969726D02*
X5602159Y-18836392D01*
X5602159Y-18769726D02*
X5592635Y-18779250D01*
X5602159Y-18788773D01*
X5611683Y-18779250D01*
X5602159Y-18769726D01*
X5602159Y-18788773D01*
X5725968Y-18969726D02*
X5706921Y-18960202D01*
X5697397Y-18941154D01*
X5697397Y-18769726D01*
X5830730Y-18969726D02*
X5811683Y-18960202D01*
X5802159Y-18941154D01*
X5802159Y-18769726D01*
X6059302Y-18969726D02*
X6059302Y-18769726D01*
X6125968Y-18912583D01*
X6192635Y-18769726D01*
X6192635Y-18969726D01*
X6373588Y-18969726D02*
X6373588Y-18864964D01*
X6364064Y-18845916D01*
X6345016Y-18836392D01*
X6306921Y-18836392D01*
X6287873Y-18845916D01*
X6373588Y-18960202D02*
X6354540Y-18969726D01*
X6306921Y-18969726D01*
X6287873Y-18960202D01*
X6278349Y-18941154D01*
X6278349Y-18922107D01*
X6287873Y-18903059D01*
X6306921Y-18893535D01*
X6354540Y-18893535D01*
X6373588Y-18884011D01*
X6468826Y-18836392D02*
X6468826Y-19036392D01*
X6468826Y-18845916D02*
X6487873Y-18836392D01*
X6525968Y-18836392D01*
X6545016Y-18845916D01*
X6554540Y-18855440D01*
X6564064Y-18874488D01*
X6564064Y-18931630D01*
X6554540Y-18950678D01*
X6545016Y-18960202D01*
X6525968Y-18969726D01*
X6487873Y-18969726D01*
X6468826Y-18960202D01*
X6649778Y-18950678D02*
X6659302Y-18960202D01*
X6649778Y-18969726D01*
X6640254Y-18960202D01*
X6649778Y-18950678D01*
X6649778Y-18969726D01*
X6649778Y-18845916D02*
X6659302Y-18855440D01*
X6649778Y-18864964D01*
X6640254Y-18855440D01*
X6649778Y-18845916D01*
X6649778Y-18864964D01*
D13*
X4870731Y-19224250D02*
X5020731Y-19374250D01*
X5020731Y-19224250D02*
X4870731Y-19374250D01*
D12*
X5383111Y-19389726D02*
X5268826Y-19389726D01*
X5325969Y-19389726D02*
X5325969Y-19189726D01*
X5306921Y-19218297D01*
X5287873Y-19237345D01*
X5268826Y-19246869D01*
X5468826Y-19370678D02*
X5478350Y-19380202D01*
X5468826Y-19389726D01*
X5459302Y-19380202D01*
X5468826Y-19370678D01*
X5468826Y-19389726D01*
X5659302Y-19189726D02*
X5564064Y-19189726D01*
X5554540Y-19284964D01*
X5564064Y-19275440D01*
X5583111Y-19265916D01*
X5630730Y-19265916D01*
X5649778Y-19275440D01*
X5659302Y-19284964D01*
X5668826Y-19304011D01*
X5668826Y-19351630D01*
X5659302Y-19370678D01*
X5649778Y-19380202D01*
X5630730Y-19389726D01*
X5583111Y-19389726D01*
X5564064Y-19380202D01*
X5554540Y-19370678D01*
X5792635Y-19189726D02*
X5811683Y-19189726D01*
X5830730Y-19199250D01*
X5840254Y-19208773D01*
X5849778Y-19227821D01*
X5859302Y-19265916D01*
X5859302Y-19313535D01*
X5849778Y-19351630D01*
X5840254Y-19370678D01*
X5830730Y-19380202D01*
X5811683Y-19389726D01*
X5792635Y-19389726D01*
X5773588Y-19380202D01*
X5764064Y-19370678D01*
X5754540Y-19351630D01*
X5745016Y-19313535D01*
X5745016Y-19265916D01*
X5754540Y-19227821D01*
X5764064Y-19208773D01*
X5773588Y-19199250D01*
X5792635Y-19189726D01*
X5983111Y-19189726D02*
X6002159Y-19189726D01*
X6021207Y-19199250D01*
X6030730Y-19208773D01*
X6040254Y-19227821D01*
X6049778Y-19265916D01*
X6049778Y-19313535D01*
X6040254Y-19351630D01*
X6030730Y-19370678D01*
X6021207Y-19380202D01*
X6002159Y-19389726D01*
X5983111Y-19389726D01*
X5964064Y-19380202D01*
X5954540Y-19370678D01*
X5945016Y-19351630D01*
X5935492Y-19313535D01*
X5935492Y-19265916D01*
X5945016Y-19227821D01*
X5954540Y-19208773D01*
X5964064Y-19199250D01*
X5983111Y-19189726D01*
X6135492Y-19389726D02*
X6135492Y-19256392D01*
X6135492Y-19275440D02*
X6145016Y-19265916D01*
X6164064Y-19256392D01*
X6192635Y-19256392D01*
X6211683Y-19265916D01*
X6221207Y-19284964D01*
X6221207Y-19389726D01*
X6221207Y-19284964D02*
X6230730Y-19265916D01*
X6249778Y-19256392D01*
X6278349Y-19256392D01*
X6297397Y-19265916D01*
X6306921Y-19284964D01*
X6306921Y-19389726D01*
X6402159Y-19389726D02*
X6402159Y-19256392D01*
X6402159Y-19275440D02*
X6411683Y-19265916D01*
X6430730Y-19256392D01*
X6459302Y-19256392D01*
X6478349Y-19265916D01*
X6487873Y-19284964D01*
X6487873Y-19389726D01*
X6487873Y-19284964D02*
X6497397Y-19265916D01*
X6516445Y-19256392D01*
X6545016Y-19256392D01*
X6564064Y-19265916D01*
X6573588Y-19284964D01*
X6573588Y-19389726D01*
X6964064Y-19180202D02*
X6792635Y-19437345D01*
X7221207Y-19189726D02*
X7240254Y-19189726D01*
X7259302Y-19199250D01*
X7268826Y-19208773D01*
X7278349Y-19227821D01*
X7287873Y-19265916D01*
X7287873Y-19313535D01*
X7278349Y-19351630D01*
X7268826Y-19370678D01*
X7259302Y-19380202D01*
X7240254Y-19389726D01*
X7221207Y-19389726D01*
X7202159Y-19380202D01*
X7192635Y-19370678D01*
X7183111Y-19351630D01*
X7173588Y-19313535D01*
X7173588Y-19265916D01*
X7183111Y-19227821D01*
X7192635Y-19208773D01*
X7202159Y-19199250D01*
X7221207Y-19189726D01*
X7373588Y-19370678D02*
X7383111Y-19380202D01*
X7373588Y-19389726D01*
X7364064Y-19380202D01*
X7373588Y-19370678D01*
X7373588Y-19389726D01*
X7506921Y-19189726D02*
X7525968Y-19189726D01*
X7545016Y-19199250D01*
X7554540Y-19208773D01*
X7564064Y-19227821D01*
X7573588Y-19265916D01*
X7573588Y-19313535D01*
X7564064Y-19351630D01*
X7554540Y-19370678D01*
X7545016Y-19380202D01*
X7525968Y-19389726D01*
X7506921Y-19389726D01*
X7487873Y-19380202D01*
X7478349Y-19370678D01*
X7468826Y-19351630D01*
X7459302Y-19313535D01*
X7459302Y-19265916D01*
X7468826Y-19227821D01*
X7478349Y-19208773D01*
X7487873Y-19199250D01*
X7506921Y-19189726D01*
X7754540Y-19189726D02*
X7659302Y-19189726D01*
X7649778Y-19284964D01*
X7659302Y-19275440D01*
X7678349Y-19265916D01*
X7725968Y-19265916D01*
X7745016Y-19275440D01*
X7754540Y-19284964D01*
X7764064Y-19304011D01*
X7764064Y-19351630D01*
X7754540Y-19370678D01*
X7745016Y-19380202D01*
X7725968Y-19389726D01*
X7678349Y-19389726D01*
X7659302Y-19380202D01*
X7649778Y-19370678D01*
X7859302Y-19389726D02*
X7897397Y-19389726D01*
X7916445Y-19380202D01*
X7925968Y-19370678D01*
X7945016Y-19342107D01*
X7954540Y-19304011D01*
X7954540Y-19227821D01*
X7945016Y-19208773D01*
X7935492Y-19199250D01*
X7916445Y-19189726D01*
X7878349Y-19189726D01*
X7859302Y-19199250D01*
X7849778Y-19208773D01*
X7840254Y-19227821D01*
X7840254Y-19275440D01*
X7849778Y-19294488D01*
X7859302Y-19304011D01*
X7878349Y-19313535D01*
X7916445Y-19313535D01*
X7935492Y-19304011D01*
X7945016Y-19294488D01*
X7954540Y-19275440D01*
X8145016Y-19389726D02*
X8030730Y-19389726D01*
X8087873Y-19389726D02*
X8087873Y-19189726D01*
X8068826Y-19218297D01*
X8049778Y-19237345D01*
X8030730Y-19246869D01*
X8221207Y-19189726D02*
X8221207Y-19227821D01*
X8297397Y-19189726D02*
X8297397Y-19227821D01*
X8592635Y-19465916D02*
X8583111Y-19456392D01*
X8564064Y-19427821D01*
X8554540Y-19408773D01*
X8545016Y-19380202D01*
X8535492Y-19332583D01*
X8535492Y-19294488D01*
X8545016Y-19246869D01*
X8554540Y-19218297D01*
X8564064Y-19199250D01*
X8583111Y-19170678D01*
X8592635Y-19161154D01*
X8706921Y-19189726D02*
X8725969Y-19189726D01*
X8745016Y-19199250D01*
X8754540Y-19208773D01*
X8764064Y-19227821D01*
X8773588Y-19265916D01*
X8773588Y-19313535D01*
X8764064Y-19351630D01*
X8754540Y-19370678D01*
X8745016Y-19380202D01*
X8725969Y-19389726D01*
X8706921Y-19389726D01*
X8687873Y-19380202D01*
X8678350Y-19370678D01*
X8668826Y-19351630D01*
X8659302Y-19313535D01*
X8659302Y-19265916D01*
X8668826Y-19227821D01*
X8678350Y-19208773D01*
X8687873Y-19199250D01*
X8706921Y-19189726D01*
X9011683Y-19389726D02*
X9011683Y-19189726D01*
X9097397Y-19389726D02*
X9097397Y-19284964D01*
X9087873Y-19265916D01*
X9068826Y-19256392D01*
X9040254Y-19256392D01*
X9021207Y-19265916D01*
X9011683Y-19275440D01*
X9221207Y-19389726D02*
X9202159Y-19380202D01*
X9192635Y-19370678D01*
X9183111Y-19351630D01*
X9183111Y-19294488D01*
X9192635Y-19275440D01*
X9202159Y-19265916D01*
X9221207Y-19256392D01*
X9249778Y-19256392D01*
X9268826Y-19265916D01*
X9278350Y-19275440D01*
X9287873Y-19294488D01*
X9287873Y-19351630D01*
X9278350Y-19370678D01*
X9268826Y-19380202D01*
X9249778Y-19389726D01*
X9221207Y-19389726D01*
X9402159Y-19389726D02*
X9383111Y-19380202D01*
X9373588Y-19361154D01*
X9373588Y-19189726D01*
X9554540Y-19380202D02*
X9535492Y-19389726D01*
X9497397Y-19389726D01*
X9478350Y-19380202D01*
X9468826Y-19361154D01*
X9468826Y-19284964D01*
X9478350Y-19265916D01*
X9497397Y-19256392D01*
X9535492Y-19256392D01*
X9554540Y-19265916D01*
X9564064Y-19284964D01*
X9564064Y-19304011D01*
X9468826Y-19323059D01*
X9640254Y-19380202D02*
X9659302Y-19389726D01*
X9697397Y-19389726D01*
X9716445Y-19380202D01*
X9725969Y-19361154D01*
X9725969Y-19351630D01*
X9716445Y-19332583D01*
X9697397Y-19323059D01*
X9668826Y-19323059D01*
X9649778Y-19313535D01*
X9640254Y-19294488D01*
X9640254Y-19284964D01*
X9649778Y-19265916D01*
X9668826Y-19256392D01*
X9697397Y-19256392D01*
X9716445Y-19265916D01*
X9964064Y-19313535D02*
X10116445Y-19313535D01*
X10040254Y-19389726D02*
X10040254Y-19237345D01*
X10449778Y-19256392D02*
X10449778Y-19389726D01*
X10402159Y-19180202D02*
X10354540Y-19323059D01*
X10478350Y-19323059D01*
X10697397Y-19380202D02*
X10716445Y-19389726D01*
X10754540Y-19389726D01*
X10773588Y-19380202D01*
X10783111Y-19361154D01*
X10783111Y-19351630D01*
X10773588Y-19332583D01*
X10754540Y-19323059D01*
X10725969Y-19323059D01*
X10706921Y-19313535D01*
X10697397Y-19294488D01*
X10697397Y-19284964D01*
X10706921Y-19265916D01*
X10725969Y-19256392D01*
X10754540Y-19256392D01*
X10773588Y-19265916D01*
X10897397Y-19389726D02*
X10878350Y-19380202D01*
X10868826Y-19361154D01*
X10868826Y-19189726D01*
X11002159Y-19389726D02*
X10983111Y-19380202D01*
X10973588Y-19370678D01*
X10964064Y-19351630D01*
X10964064Y-19294488D01*
X10973588Y-19275440D01*
X10983111Y-19265916D01*
X11002159Y-19256392D01*
X11030730Y-19256392D01*
X11049778Y-19265916D01*
X11059302Y-19275440D01*
X11068826Y-19294488D01*
X11068826Y-19351630D01*
X11059302Y-19370678D01*
X11049778Y-19380202D01*
X11030730Y-19389726D01*
X11002159Y-19389726D01*
X11125969Y-19256392D02*
X11202159Y-19256392D01*
X11154540Y-19189726D02*
X11154540Y-19361154D01*
X11164064Y-19380202D01*
X11183111Y-19389726D01*
X11202159Y-19389726D01*
X11259302Y-19380202D02*
X11278349Y-19389726D01*
X11316445Y-19389726D01*
X11335492Y-19380202D01*
X11345016Y-19361154D01*
X11345016Y-19351630D01*
X11335492Y-19332583D01*
X11316445Y-19323059D01*
X11287873Y-19323059D01*
X11268826Y-19313535D01*
X11259302Y-19294488D01*
X11259302Y-19284964D01*
X11268826Y-19265916D01*
X11287873Y-19256392D01*
X11316445Y-19256392D01*
X11335492Y-19265916D01*
X11411683Y-19465916D02*
X11421207Y-19456392D01*
X11440254Y-19427821D01*
X11449778Y-19408773D01*
X11459302Y-19380202D01*
X11468826Y-19332583D01*
X11468826Y-19294488D01*
X11459302Y-19246869D01*
X11449778Y-19218297D01*
X11440254Y-19199250D01*
X11421207Y-19170678D01*
X11411683Y-19161154D01*
X11773588Y-19465916D02*
X11764064Y-19456392D01*
X11745016Y-19427821D01*
X11735492Y-19408773D01*
X11725968Y-19380202D01*
X11716445Y-19332583D01*
X11716445Y-19294488D01*
X11725968Y-19246869D01*
X11735492Y-19218297D01*
X11745016Y-19199250D01*
X11764064Y-19170678D01*
X11773588Y-19161154D01*
X11849778Y-19256392D02*
X11849778Y-19389726D01*
X11849778Y-19275440D02*
X11859302Y-19265916D01*
X11878349Y-19256392D01*
X11906921Y-19256392D01*
X11925968Y-19265916D01*
X11935492Y-19284964D01*
X11935492Y-19389726D01*
X12059302Y-19389726D02*
X12040254Y-19380202D01*
X12030730Y-19370678D01*
X12021207Y-19351630D01*
X12021207Y-19294488D01*
X12030730Y-19275440D01*
X12040254Y-19265916D01*
X12059302Y-19256392D01*
X12087873Y-19256392D01*
X12106921Y-19265916D01*
X12116445Y-19275440D01*
X12125968Y-19294488D01*
X12125968Y-19351630D01*
X12116445Y-19370678D01*
X12106921Y-19380202D01*
X12087873Y-19389726D01*
X12059302Y-19389726D01*
X12183111Y-19256392D02*
X12259302Y-19256392D01*
X12211683Y-19189726D02*
X12211683Y-19361154D01*
X12221207Y-19380202D01*
X12240254Y-19389726D01*
X12259302Y-19389726D01*
X12478349Y-19256392D02*
X12478349Y-19456392D01*
X12478349Y-19265916D02*
X12497397Y-19256392D01*
X12535492Y-19256392D01*
X12554540Y-19265916D01*
X12564064Y-19275440D01*
X12573588Y-19294488D01*
X12573588Y-19351630D01*
X12564064Y-19370678D01*
X12554540Y-19380202D01*
X12535492Y-19389726D01*
X12497397Y-19389726D01*
X12478349Y-19380202D01*
X12687873Y-19389726D02*
X12668826Y-19380202D01*
X12659302Y-19361154D01*
X12659302Y-19189726D01*
X12849778Y-19389726D02*
X12849778Y-19284964D01*
X12840254Y-19265916D01*
X12821207Y-19256392D01*
X12783111Y-19256392D01*
X12764064Y-19265916D01*
X12849778Y-19380202D02*
X12830730Y-19389726D01*
X12783111Y-19389726D01*
X12764064Y-19380202D01*
X12754540Y-19361154D01*
X12754540Y-19342107D01*
X12764064Y-19323059D01*
X12783111Y-19313535D01*
X12830730Y-19313535D01*
X12849778Y-19304011D01*
X12916445Y-19256392D02*
X12992635Y-19256392D01*
X12945016Y-19189726D02*
X12945016Y-19361154D01*
X12954540Y-19380202D01*
X12973588Y-19389726D01*
X12992635Y-19389726D01*
X13135492Y-19380202D02*
X13116445Y-19389726D01*
X13078349Y-19389726D01*
X13059302Y-19380202D01*
X13049778Y-19361154D01*
X13049778Y-19284964D01*
X13059302Y-19265916D01*
X13078349Y-19256392D01*
X13116445Y-19256392D01*
X13135492Y-19265916D01*
X13145016Y-19284964D01*
X13145016Y-19304011D01*
X13049778Y-19323059D01*
X13316445Y-19389726D02*
X13316445Y-19189726D01*
X13316445Y-19380202D02*
X13297397Y-19389726D01*
X13259302Y-19389726D01*
X13240254Y-19380202D01*
X13230730Y-19370678D01*
X13221207Y-19351630D01*
X13221207Y-19294488D01*
X13230730Y-19275440D01*
X13240254Y-19265916D01*
X13259302Y-19256392D01*
X13297397Y-19256392D01*
X13316445Y-19265916D01*
X13392635Y-19465916D02*
X13402159Y-19456392D01*
X13421207Y-19427821D01*
X13430730Y-19408773D01*
X13440254Y-19380202D01*
X13449778Y-19332583D01*
X13449778Y-19294488D01*
X13440254Y-19246869D01*
X13430730Y-19218297D01*
X13421207Y-19199250D01*
X13402159Y-19170678D01*
X13392635Y-19161154D01*
D14*
X5020731Y-19569250D02*
G75*
G03*
X5020731Y-19569250I-95000J0D01*
G01*
D12*
X5383111Y-19659726D02*
X5268826Y-19659726D01*
X5325969Y-19659726D02*
X5325969Y-19459726D01*
X5306921Y-19488297D01*
X5287873Y-19507345D01*
X5268826Y-19516869D01*
X5468826Y-19640678D02*
X5478350Y-19650202D01*
X5468826Y-19659726D01*
X5459302Y-19650202D01*
X5468826Y-19640678D01*
X5468826Y-19659726D01*
X5573588Y-19659726D02*
X5611683Y-19659726D01*
X5630730Y-19650202D01*
X5640254Y-19640678D01*
X5659302Y-19612107D01*
X5668826Y-19574011D01*
X5668826Y-19497821D01*
X5659302Y-19478773D01*
X5649778Y-19469250D01*
X5630730Y-19459726D01*
X5592635Y-19459726D01*
X5573588Y-19469250D01*
X5564064Y-19478773D01*
X5554540Y-19497821D01*
X5554540Y-19545440D01*
X5564064Y-19564488D01*
X5573588Y-19574011D01*
X5592635Y-19583535D01*
X5630730Y-19583535D01*
X5649778Y-19574011D01*
X5659302Y-19564488D01*
X5668826Y-19545440D01*
X5792635Y-19459726D02*
X5811683Y-19459726D01*
X5830730Y-19469250D01*
X5840254Y-19478773D01*
X5849778Y-19497821D01*
X5859302Y-19535916D01*
X5859302Y-19583535D01*
X5849778Y-19621630D01*
X5840254Y-19640678D01*
X5830730Y-19650202D01*
X5811683Y-19659726D01*
X5792635Y-19659726D01*
X5773588Y-19650202D01*
X5764064Y-19640678D01*
X5754540Y-19621630D01*
X5745016Y-19583535D01*
X5745016Y-19535916D01*
X5754540Y-19497821D01*
X5764064Y-19478773D01*
X5773588Y-19469250D01*
X5792635Y-19459726D01*
X5983111Y-19459726D02*
X6002159Y-19459726D01*
X6021207Y-19469250D01*
X6030730Y-19478773D01*
X6040254Y-19497821D01*
X6049778Y-19535916D01*
X6049778Y-19583535D01*
X6040254Y-19621630D01*
X6030730Y-19640678D01*
X6021207Y-19650202D01*
X6002159Y-19659726D01*
X5983111Y-19659726D01*
X5964064Y-19650202D01*
X5954540Y-19640678D01*
X5945016Y-19621630D01*
X5935492Y-19583535D01*
X5935492Y-19535916D01*
X5945016Y-19497821D01*
X5954540Y-19478773D01*
X5964064Y-19469250D01*
X5983111Y-19459726D01*
X6135492Y-19659726D02*
X6135492Y-19526392D01*
X6135492Y-19545440D02*
X6145016Y-19535916D01*
X6164064Y-19526392D01*
X6192635Y-19526392D01*
X6211683Y-19535916D01*
X6221207Y-19554964D01*
X6221207Y-19659726D01*
X6221207Y-19554964D02*
X6230730Y-19535916D01*
X6249778Y-19526392D01*
X6278349Y-19526392D01*
X6297397Y-19535916D01*
X6306921Y-19554964D01*
X6306921Y-19659726D01*
X6402159Y-19659726D02*
X6402159Y-19526392D01*
X6402159Y-19545440D02*
X6411683Y-19535916D01*
X6430730Y-19526392D01*
X6459302Y-19526392D01*
X6478349Y-19535916D01*
X6487873Y-19554964D01*
X6487873Y-19659726D01*
X6487873Y-19554964D02*
X6497397Y-19535916D01*
X6516445Y-19526392D01*
X6545016Y-19526392D01*
X6564064Y-19535916D01*
X6573588Y-19554964D01*
X6573588Y-19659726D01*
X6964064Y-19450202D02*
X6792635Y-19707345D01*
X7221207Y-19459726D02*
X7240254Y-19459726D01*
X7259302Y-19469250D01*
X7268826Y-19478773D01*
X7278349Y-19497821D01*
X7287873Y-19535916D01*
X7287873Y-19583535D01*
X7278349Y-19621630D01*
X7268826Y-19640678D01*
X7259302Y-19650202D01*
X7240254Y-19659726D01*
X7221207Y-19659726D01*
X7202159Y-19650202D01*
X7192635Y-19640678D01*
X7183111Y-19621630D01*
X7173588Y-19583535D01*
X7173588Y-19535916D01*
X7183111Y-19497821D01*
X7192635Y-19478773D01*
X7202159Y-19469250D01*
X7221207Y-19459726D01*
X7373588Y-19640678D02*
X7383111Y-19650202D01*
X7373588Y-19659726D01*
X7364064Y-19650202D01*
X7373588Y-19640678D01*
X7373588Y-19659726D01*
X7506921Y-19459726D02*
X7525968Y-19459726D01*
X7545016Y-19469250D01*
X7554540Y-19478773D01*
X7564064Y-19497821D01*
X7573588Y-19535916D01*
X7573588Y-19583535D01*
X7564064Y-19621630D01*
X7554540Y-19640678D01*
X7545016Y-19650202D01*
X7525968Y-19659726D01*
X7506921Y-19659726D01*
X7487873Y-19650202D01*
X7478349Y-19640678D01*
X7468826Y-19621630D01*
X7459302Y-19583535D01*
X7459302Y-19535916D01*
X7468826Y-19497821D01*
X7478349Y-19478773D01*
X7487873Y-19469250D01*
X7506921Y-19459726D01*
X7640254Y-19459726D02*
X7773588Y-19459726D01*
X7687873Y-19659726D01*
X7935492Y-19526392D02*
X7935492Y-19659726D01*
X7887873Y-19450202D02*
X7840254Y-19593059D01*
X7964064Y-19593059D01*
X8068826Y-19545440D02*
X8049778Y-19535916D01*
X8040254Y-19526392D01*
X8030730Y-19507345D01*
X8030730Y-19497821D01*
X8040254Y-19478773D01*
X8049778Y-19469250D01*
X8068826Y-19459726D01*
X8106921Y-19459726D01*
X8125968Y-19469250D01*
X8135492Y-19478773D01*
X8145016Y-19497821D01*
X8145016Y-19507345D01*
X8135492Y-19526392D01*
X8125968Y-19535916D01*
X8106921Y-19545440D01*
X8068826Y-19545440D01*
X8049778Y-19554964D01*
X8040254Y-19564488D01*
X8030730Y-19583535D01*
X8030730Y-19621630D01*
X8040254Y-19640678D01*
X8049778Y-19650202D01*
X8068826Y-19659726D01*
X8106921Y-19659726D01*
X8125968Y-19650202D01*
X8135492Y-19640678D01*
X8145016Y-19621630D01*
X8145016Y-19583535D01*
X8135492Y-19564488D01*
X8125968Y-19554964D01*
X8106921Y-19545440D01*
X8221207Y-19459726D02*
X8221207Y-19497821D01*
X8297397Y-19459726D02*
X8297397Y-19497821D01*
X8592635Y-19735916D02*
X8583111Y-19726392D01*
X8564064Y-19697821D01*
X8554540Y-19678773D01*
X8545016Y-19650202D01*
X8535492Y-19602583D01*
X8535492Y-19564488D01*
X8545016Y-19516869D01*
X8554540Y-19488297D01*
X8564064Y-19469250D01*
X8583111Y-19440678D01*
X8592635Y-19431154D01*
X8773588Y-19659726D02*
X8659302Y-19659726D01*
X8716445Y-19659726D02*
X8716445Y-19459726D01*
X8697397Y-19488297D01*
X8678350Y-19507345D01*
X8659302Y-19516869D01*
X8849778Y-19478773D02*
X8859302Y-19469250D01*
X8878350Y-19459726D01*
X8925969Y-19459726D01*
X8945016Y-19469250D01*
X8954540Y-19478773D01*
X8964064Y-19497821D01*
X8964064Y-19516869D01*
X8954540Y-19545440D01*
X8840254Y-19659726D01*
X8964064Y-19659726D01*
X9135492Y-19526392D02*
X9135492Y-19659726D01*
X9087873Y-19450202D02*
X9040254Y-19593059D01*
X9164064Y-19593059D01*
X9392635Y-19659726D02*
X9392635Y-19459726D01*
X9478350Y-19659726D02*
X9478350Y-19554964D01*
X9468826Y-19535916D01*
X9449778Y-19526392D01*
X9421207Y-19526392D01*
X9402159Y-19535916D01*
X9392635Y-19545440D01*
X9602159Y-19659726D02*
X9583111Y-19650202D01*
X9573588Y-19640678D01*
X9564064Y-19621630D01*
X9564064Y-19564488D01*
X9573588Y-19545440D01*
X9583111Y-19535916D01*
X9602159Y-19526392D01*
X9630730Y-19526392D01*
X9649778Y-19535916D01*
X9659302Y-19545440D01*
X9668826Y-19564488D01*
X9668826Y-19621630D01*
X9659302Y-19640678D01*
X9649778Y-19650202D01*
X9630730Y-19659726D01*
X9602159Y-19659726D01*
X9783111Y-19659726D02*
X9764064Y-19650202D01*
X9754540Y-19631154D01*
X9754540Y-19459726D01*
X9935492Y-19650202D02*
X9916445Y-19659726D01*
X9878350Y-19659726D01*
X9859302Y-19650202D01*
X9849778Y-19631154D01*
X9849778Y-19554964D01*
X9859302Y-19535916D01*
X9878350Y-19526392D01*
X9916445Y-19526392D01*
X9935492Y-19535916D01*
X9945016Y-19554964D01*
X9945016Y-19574011D01*
X9849778Y-19593059D01*
X10021207Y-19650202D02*
X10040254Y-19659726D01*
X10078350Y-19659726D01*
X10097397Y-19650202D01*
X10106921Y-19631154D01*
X10106921Y-19621630D01*
X10097397Y-19602583D01*
X10078350Y-19593059D01*
X10049778Y-19593059D01*
X10030730Y-19583535D01*
X10021207Y-19564488D01*
X10021207Y-19554964D01*
X10030730Y-19535916D01*
X10049778Y-19526392D01*
X10078350Y-19526392D01*
X10097397Y-19535916D01*
X10173588Y-19735916D02*
X10183111Y-19726392D01*
X10202159Y-19697821D01*
X10211683Y-19678773D01*
X10221207Y-19650202D01*
X10230730Y-19602583D01*
X10230730Y-19564488D01*
X10221207Y-19516869D01*
X10211683Y-19488297D01*
X10202159Y-19469250D01*
X10183111Y-19440678D01*
X10173588Y-19431154D01*
X10535492Y-19735916D02*
X10525969Y-19726392D01*
X10506921Y-19697821D01*
X10497397Y-19678773D01*
X10487873Y-19650202D01*
X10478350Y-19602583D01*
X10478350Y-19564488D01*
X10487873Y-19516869D01*
X10497397Y-19488297D01*
X10506921Y-19469250D01*
X10525969Y-19440678D01*
X10535492Y-19431154D01*
X10611683Y-19526392D02*
X10611683Y-19659726D01*
X10611683Y-19545440D02*
X10621207Y-19535916D01*
X10640254Y-19526392D01*
X10668826Y-19526392D01*
X10687873Y-19535916D01*
X10697397Y-19554964D01*
X10697397Y-19659726D01*
X10821207Y-19659726D02*
X10802159Y-19650202D01*
X10792635Y-19640678D01*
X10783111Y-19621630D01*
X10783111Y-19564488D01*
X10792635Y-19545440D01*
X10802159Y-19535916D01*
X10821207Y-19526392D01*
X10849778Y-19526392D01*
X10868826Y-19535916D01*
X10878350Y-19545440D01*
X10887873Y-19564488D01*
X10887873Y-19621630D01*
X10878350Y-19640678D01*
X10868826Y-19650202D01*
X10849778Y-19659726D01*
X10821207Y-19659726D01*
X10945016Y-19526392D02*
X11021207Y-19526392D01*
X10973588Y-19459726D02*
X10973588Y-19631154D01*
X10983111Y-19650202D01*
X11002159Y-19659726D01*
X11021207Y-19659726D01*
X11240254Y-19526392D02*
X11240254Y-19726392D01*
X11240254Y-19535916D02*
X11259302Y-19526392D01*
X11297397Y-19526392D01*
X11316445Y-19535916D01*
X11325968Y-19545440D01*
X11335492Y-19564488D01*
X11335492Y-19621630D01*
X11325968Y-19640678D01*
X11316445Y-19650202D01*
X11297397Y-19659726D01*
X11259302Y-19659726D01*
X11240254Y-19650202D01*
X11449778Y-19659726D02*
X11430730Y-19650202D01*
X11421207Y-19631154D01*
X11421207Y-19459726D01*
X11611683Y-19659726D02*
X11611683Y-19554964D01*
X11602159Y-19535916D01*
X11583111Y-19526392D01*
X11545016Y-19526392D01*
X11525968Y-19535916D01*
X11611683Y-19650202D02*
X11592635Y-19659726D01*
X11545016Y-19659726D01*
X11525968Y-19650202D01*
X11516445Y-19631154D01*
X11516445Y-19612107D01*
X11525968Y-19593059D01*
X11545016Y-19583535D01*
X11592635Y-19583535D01*
X11611683Y-19574011D01*
X11678349Y-19526392D02*
X11754540Y-19526392D01*
X11706921Y-19459726D02*
X11706921Y-19631154D01*
X11716445Y-19650202D01*
X11735492Y-19659726D01*
X11754540Y-19659726D01*
X11897397Y-19650202D02*
X11878349Y-19659726D01*
X11840254Y-19659726D01*
X11821207Y-19650202D01*
X11811683Y-19631154D01*
X11811683Y-19554964D01*
X11821207Y-19535916D01*
X11840254Y-19526392D01*
X11878349Y-19526392D01*
X11897397Y-19535916D01*
X11906921Y-19554964D01*
X11906921Y-19574011D01*
X11811683Y-19593059D01*
X12078349Y-19659726D02*
X12078349Y-19459726D01*
X12078349Y-19650202D02*
X12059302Y-19659726D01*
X12021207Y-19659726D01*
X12002159Y-19650202D01*
X11992635Y-19640678D01*
X11983111Y-19621630D01*
X11983111Y-19564488D01*
X11992635Y-19545440D01*
X12002159Y-19535916D01*
X12021207Y-19526392D01*
X12059302Y-19526392D01*
X12078349Y-19535916D01*
X12154540Y-19735916D02*
X12164064Y-19726392D01*
X12183111Y-19697821D01*
X12192635Y-19678773D01*
X12202159Y-19650202D01*
X12211683Y-19602583D01*
X12211683Y-19564488D01*
X12202159Y-19516869D01*
X12192635Y-19488297D01*
X12183111Y-19469250D01*
X12164064Y-19440678D01*
X12154540Y-19431154D01*
X4920731Y-19779250D02*
X4920731Y-19979250D01*
X4820731Y-19879250D02*
X5020731Y-19879250D01*
X5259302Y-19769726D02*
X5383111Y-19769726D01*
X5316445Y-19845916D01*
X5345016Y-19845916D01*
X5364064Y-19855440D01*
X5373588Y-19864964D01*
X5383111Y-19884011D01*
X5383111Y-19931630D01*
X5373588Y-19950678D01*
X5364064Y-19960202D01*
X5345016Y-19969726D01*
X5287873Y-19969726D01*
X5268826Y-19960202D01*
X5259302Y-19950678D01*
X5468826Y-19950678D02*
X5478350Y-19960202D01*
X5468826Y-19969726D01*
X5459302Y-19960202D01*
X5468826Y-19950678D01*
X5468826Y-19969726D01*
X5602159Y-19769726D02*
X5621207Y-19769726D01*
X5640254Y-19779250D01*
X5649778Y-19788773D01*
X5659302Y-19807821D01*
X5668826Y-19845916D01*
X5668826Y-19893535D01*
X5659302Y-19931630D01*
X5649778Y-19950678D01*
X5640254Y-19960202D01*
X5621207Y-19969726D01*
X5602159Y-19969726D01*
X5583111Y-19960202D01*
X5573588Y-19950678D01*
X5564064Y-19931630D01*
X5554540Y-19893535D01*
X5554540Y-19845916D01*
X5564064Y-19807821D01*
X5573588Y-19788773D01*
X5583111Y-19779250D01*
X5602159Y-19769726D01*
X5792635Y-19769726D02*
X5811683Y-19769726D01*
X5830730Y-19779250D01*
X5840254Y-19788773D01*
X5849778Y-19807821D01*
X5859302Y-19845916D01*
X5859302Y-19893535D01*
X5849778Y-19931630D01*
X5840254Y-19950678D01*
X5830730Y-19960202D01*
X5811683Y-19969726D01*
X5792635Y-19969726D01*
X5773588Y-19960202D01*
X5764064Y-19950678D01*
X5754540Y-19931630D01*
X5745016Y-19893535D01*
X5745016Y-19845916D01*
X5754540Y-19807821D01*
X5764064Y-19788773D01*
X5773588Y-19779250D01*
X5792635Y-19769726D01*
X5983111Y-19769726D02*
X6002159Y-19769726D01*
X6021207Y-19779250D01*
X6030730Y-19788773D01*
X6040254Y-19807821D01*
X6049778Y-19845916D01*
X6049778Y-19893535D01*
X6040254Y-19931630D01*
X6030730Y-19950678D01*
X6021207Y-19960202D01*
X6002159Y-19969726D01*
X5983111Y-19969726D01*
X5964064Y-19960202D01*
X5954540Y-19950678D01*
X5945016Y-19931630D01*
X5935492Y-19893535D01*
X5935492Y-19845916D01*
X5945016Y-19807821D01*
X5954540Y-19788773D01*
X5964064Y-19779250D01*
X5983111Y-19769726D01*
X6135492Y-19969726D02*
X6135492Y-19836392D01*
X6135492Y-19855440D02*
X6145016Y-19845916D01*
X6164064Y-19836392D01*
X6192635Y-19836392D01*
X6211683Y-19845916D01*
X6221207Y-19864964D01*
X6221207Y-19969726D01*
X6221207Y-19864964D02*
X6230730Y-19845916D01*
X6249778Y-19836392D01*
X6278349Y-19836392D01*
X6297397Y-19845916D01*
X6306921Y-19864964D01*
X6306921Y-19969726D01*
X6402159Y-19969726D02*
X6402159Y-19836392D01*
X6402159Y-19855440D02*
X6411683Y-19845916D01*
X6430730Y-19836392D01*
X6459302Y-19836392D01*
X6478349Y-19845916D01*
X6487873Y-19864964D01*
X6487873Y-19969726D01*
X6487873Y-19864964D02*
X6497397Y-19845916D01*
X6516445Y-19836392D01*
X6545016Y-19836392D01*
X6564064Y-19845916D01*
X6573588Y-19864964D01*
X6573588Y-19969726D01*
X6964064Y-19760202D02*
X6792635Y-20017345D01*
X7221207Y-19769726D02*
X7240254Y-19769726D01*
X7259302Y-19779250D01*
X7268826Y-19788773D01*
X7278349Y-19807821D01*
X7287873Y-19845916D01*
X7287873Y-19893535D01*
X7278349Y-19931630D01*
X7268826Y-19950678D01*
X7259302Y-19960202D01*
X7240254Y-19969726D01*
X7221207Y-19969726D01*
X7202159Y-19960202D01*
X7192635Y-19950678D01*
X7183111Y-19931630D01*
X7173588Y-19893535D01*
X7173588Y-19845916D01*
X7183111Y-19807821D01*
X7192635Y-19788773D01*
X7202159Y-19779250D01*
X7221207Y-19769726D01*
X7373588Y-19950678D02*
X7383111Y-19960202D01*
X7373588Y-19969726D01*
X7364064Y-19960202D01*
X7373588Y-19950678D01*
X7373588Y-19969726D01*
X7573588Y-19969726D02*
X7459302Y-19969726D01*
X7516445Y-19969726D02*
X7516445Y-19769726D01*
X7497397Y-19798297D01*
X7478349Y-19817345D01*
X7459302Y-19826869D01*
X7764064Y-19969726D02*
X7649778Y-19969726D01*
X7706921Y-19969726D02*
X7706921Y-19769726D01*
X7687873Y-19798297D01*
X7668826Y-19817345D01*
X7649778Y-19826869D01*
X7878349Y-19855440D02*
X7859302Y-19845916D01*
X7849778Y-19836392D01*
X7840254Y-19817345D01*
X7840254Y-19807821D01*
X7849778Y-19788773D01*
X7859302Y-19779250D01*
X7878349Y-19769726D01*
X7916445Y-19769726D01*
X7935492Y-19779250D01*
X7945016Y-19788773D01*
X7954540Y-19807821D01*
X7954540Y-19817345D01*
X7945016Y-19836392D01*
X7935492Y-19845916D01*
X7916445Y-19855440D01*
X7878349Y-19855440D01*
X7859302Y-19864964D01*
X7849778Y-19874488D01*
X7840254Y-19893535D01*
X7840254Y-19931630D01*
X7849778Y-19950678D01*
X7859302Y-19960202D01*
X7878349Y-19969726D01*
X7916445Y-19969726D01*
X7935492Y-19960202D01*
X7945016Y-19950678D01*
X7954540Y-19931630D01*
X7954540Y-19893535D01*
X7945016Y-19874488D01*
X7935492Y-19864964D01*
X7916445Y-19855440D01*
X8145016Y-19969726D02*
X8030730Y-19969726D01*
X8087873Y-19969726D02*
X8087873Y-19769726D01*
X8068826Y-19798297D01*
X8049778Y-19817345D01*
X8030730Y-19826869D01*
X8221207Y-19769726D02*
X8221207Y-19807821D01*
X8297397Y-19769726D02*
X8297397Y-19807821D01*
X8592635Y-20045916D02*
X8583111Y-20036392D01*
X8564064Y-20007821D01*
X8554540Y-19988773D01*
X8545016Y-19960202D01*
X8535492Y-19912583D01*
X8535492Y-19874488D01*
X8545016Y-19826869D01*
X8554540Y-19798297D01*
X8564064Y-19779250D01*
X8583111Y-19750678D01*
X8592635Y-19741154D01*
X8773588Y-19969726D02*
X8659302Y-19969726D01*
X8716445Y-19969726D02*
X8716445Y-19769726D01*
X8697397Y-19798297D01*
X8678350Y-19817345D01*
X8659302Y-19826869D01*
X8849778Y-19788773D02*
X8859302Y-19779250D01*
X8878350Y-19769726D01*
X8925969Y-19769726D01*
X8945016Y-19779250D01*
X8954540Y-19788773D01*
X8964064Y-19807821D01*
X8964064Y-19826869D01*
X8954540Y-19855440D01*
X8840254Y-19969726D01*
X8964064Y-19969726D01*
X9135492Y-19836392D02*
X9135492Y-19969726D01*
X9087873Y-19760202D02*
X9040254Y-19903059D01*
X9164064Y-19903059D01*
X9392635Y-19969726D02*
X9392635Y-19769726D01*
X9478350Y-19969726D02*
X9478350Y-19864964D01*
X9468826Y-19845916D01*
X9449778Y-19836392D01*
X9421207Y-19836392D01*
X9402159Y-19845916D01*
X9392635Y-19855440D01*
X9602159Y-19969726D02*
X9583111Y-19960202D01*
X9573588Y-19950678D01*
X9564064Y-19931630D01*
X9564064Y-19874488D01*
X9573588Y-19855440D01*
X9583111Y-19845916D01*
X9602159Y-19836392D01*
X9630730Y-19836392D01*
X9649778Y-19845916D01*
X9659302Y-19855440D01*
X9668826Y-19874488D01*
X9668826Y-19931630D01*
X9659302Y-19950678D01*
X9649778Y-19960202D01*
X9630730Y-19969726D01*
X9602159Y-19969726D01*
X9783111Y-19969726D02*
X9764064Y-19960202D01*
X9754540Y-19941154D01*
X9754540Y-19769726D01*
X9935492Y-19960202D02*
X9916445Y-19969726D01*
X9878350Y-19969726D01*
X9859302Y-19960202D01*
X9849778Y-19941154D01*
X9849778Y-19864964D01*
X9859302Y-19845916D01*
X9878350Y-19836392D01*
X9916445Y-19836392D01*
X9935492Y-19845916D01*
X9945016Y-19864964D01*
X9945016Y-19884011D01*
X9849778Y-19903059D01*
X10021207Y-19960202D02*
X10040254Y-19969726D01*
X10078350Y-19969726D01*
X10097397Y-19960202D01*
X10106921Y-19941154D01*
X10106921Y-19931630D01*
X10097397Y-19912583D01*
X10078350Y-19903059D01*
X10049778Y-19903059D01*
X10030730Y-19893535D01*
X10021207Y-19874488D01*
X10021207Y-19864964D01*
X10030730Y-19845916D01*
X10049778Y-19836392D01*
X10078350Y-19836392D01*
X10097397Y-19845916D01*
X10173588Y-20045916D02*
X10183111Y-20036392D01*
X10202159Y-20007821D01*
X10211683Y-19988773D01*
X10221207Y-19960202D01*
X10230730Y-19912583D01*
X10230730Y-19874488D01*
X10221207Y-19826869D01*
X10211683Y-19798297D01*
X10202159Y-19779250D01*
X10183111Y-19750678D01*
X10173588Y-19741154D01*
X10535492Y-20045916D02*
X10525969Y-20036392D01*
X10506921Y-20007821D01*
X10497397Y-19988773D01*
X10487873Y-19960202D01*
X10478350Y-19912583D01*
X10478350Y-19874488D01*
X10487873Y-19826869D01*
X10497397Y-19798297D01*
X10506921Y-19779250D01*
X10525969Y-19750678D01*
X10535492Y-19741154D01*
X10611683Y-19836392D02*
X10611683Y-19969726D01*
X10611683Y-19855440D02*
X10621207Y-19845916D01*
X10640254Y-19836392D01*
X10668826Y-19836392D01*
X10687873Y-19845916D01*
X10697397Y-19864964D01*
X10697397Y-19969726D01*
X10821207Y-19969726D02*
X10802159Y-19960202D01*
X10792635Y-19950678D01*
X10783111Y-19931630D01*
X10783111Y-19874488D01*
X10792635Y-19855440D01*
X10802159Y-19845916D01*
X10821207Y-19836392D01*
X10849778Y-19836392D01*
X10868826Y-19845916D01*
X10878350Y-19855440D01*
X10887873Y-19874488D01*
X10887873Y-19931630D01*
X10878350Y-19950678D01*
X10868826Y-19960202D01*
X10849778Y-19969726D01*
X10821207Y-19969726D01*
X10945016Y-19836392D02*
X11021207Y-19836392D01*
X10973588Y-19769726D02*
X10973588Y-19941154D01*
X10983111Y-19960202D01*
X11002159Y-19969726D01*
X11021207Y-19969726D01*
X11240254Y-19836392D02*
X11240254Y-20036392D01*
X11240254Y-19845916D02*
X11259302Y-19836392D01*
X11297397Y-19836392D01*
X11316445Y-19845916D01*
X11325968Y-19855440D01*
X11335492Y-19874488D01*
X11335492Y-19931630D01*
X11325968Y-19950678D01*
X11316445Y-19960202D01*
X11297397Y-19969726D01*
X11259302Y-19969726D01*
X11240254Y-19960202D01*
X11449778Y-19969726D02*
X11430730Y-19960202D01*
X11421207Y-19941154D01*
X11421207Y-19769726D01*
X11611683Y-19969726D02*
X11611683Y-19864964D01*
X11602159Y-19845916D01*
X11583111Y-19836392D01*
X11545016Y-19836392D01*
X11525968Y-19845916D01*
X11611683Y-19960202D02*
X11592635Y-19969726D01*
X11545016Y-19969726D01*
X11525968Y-19960202D01*
X11516445Y-19941154D01*
X11516445Y-19922107D01*
X11525968Y-19903059D01*
X11545016Y-19893535D01*
X11592635Y-19893535D01*
X11611683Y-19884011D01*
X11678349Y-19836392D02*
X11754540Y-19836392D01*
X11706921Y-19769726D02*
X11706921Y-19941154D01*
X11716445Y-19960202D01*
X11735492Y-19969726D01*
X11754540Y-19969726D01*
X11897397Y-19960202D02*
X11878349Y-19969726D01*
X11840254Y-19969726D01*
X11821207Y-19960202D01*
X11811683Y-19941154D01*
X11811683Y-19864964D01*
X11821207Y-19845916D01*
X11840254Y-19836392D01*
X11878349Y-19836392D01*
X11897397Y-19845916D01*
X11906921Y-19864964D01*
X11906921Y-19884011D01*
X11811683Y-19903059D01*
X12078349Y-19969726D02*
X12078349Y-19769726D01*
X12078349Y-19960202D02*
X12059302Y-19969726D01*
X12021207Y-19969726D01*
X12002159Y-19960202D01*
X11992635Y-19950678D01*
X11983111Y-19931630D01*
X11983111Y-19874488D01*
X11992635Y-19855440D01*
X12002159Y-19845916D01*
X12021207Y-19836392D01*
X12059302Y-19836392D01*
X12078349Y-19845916D01*
X12154540Y-20045916D02*
X12164064Y-20036392D01*
X12183111Y-20007821D01*
X12192635Y-19988773D01*
X12202159Y-19960202D01*
X12211683Y-19912583D01*
X12211683Y-19874488D01*
X12202159Y-19826869D01*
X12192635Y-19798297D01*
X12183111Y-19779250D01*
X12164064Y-19750678D01*
X12154540Y-19741154D01*
X4991442Y-20269961D02*
X4991442Y-20128538D01*
X4850019Y-20128538D01*
X4850019Y-20269961D01*
X4991442Y-20269961D01*
X5364064Y-20156392D02*
X5364064Y-20289726D01*
X5316445Y-20080202D02*
X5268826Y-20223059D01*
X5392635Y-20223059D01*
X5468826Y-20270678D02*
X5478350Y-20280202D01*
X5468826Y-20289726D01*
X5459302Y-20280202D01*
X5468826Y-20270678D01*
X5468826Y-20289726D01*
X5668826Y-20289726D02*
X5554540Y-20289726D01*
X5611683Y-20289726D02*
X5611683Y-20089726D01*
X5592635Y-20118297D01*
X5573588Y-20137345D01*
X5554540Y-20146869D01*
X5792635Y-20089726D02*
X5811683Y-20089726D01*
X5830730Y-20099250D01*
X5840254Y-20108773D01*
X5849778Y-20127821D01*
X5859302Y-20165916D01*
X5859302Y-20213535D01*
X5849778Y-20251630D01*
X5840254Y-20270678D01*
X5830730Y-20280202D01*
X5811683Y-20289726D01*
X5792635Y-20289726D01*
X5773588Y-20280202D01*
X5764064Y-20270678D01*
X5754540Y-20251630D01*
X5745016Y-20213535D01*
X5745016Y-20165916D01*
X5754540Y-20127821D01*
X5764064Y-20108773D01*
X5773588Y-20099250D01*
X5792635Y-20089726D01*
X5983111Y-20089726D02*
X6002159Y-20089726D01*
X6021207Y-20099250D01*
X6030730Y-20108773D01*
X6040254Y-20127821D01*
X6049778Y-20165916D01*
X6049778Y-20213535D01*
X6040254Y-20251630D01*
X6030730Y-20270678D01*
X6021207Y-20280202D01*
X6002159Y-20289726D01*
X5983111Y-20289726D01*
X5964064Y-20280202D01*
X5954540Y-20270678D01*
X5945016Y-20251630D01*
X5935492Y-20213535D01*
X5935492Y-20165916D01*
X5945016Y-20127821D01*
X5954540Y-20108773D01*
X5964064Y-20099250D01*
X5983111Y-20089726D01*
X6135492Y-20289726D02*
X6135492Y-20156392D01*
X6135492Y-20175440D02*
X6145016Y-20165916D01*
X6164064Y-20156392D01*
X6192635Y-20156392D01*
X6211683Y-20165916D01*
X6221207Y-20184964D01*
X6221207Y-20289726D01*
X6221207Y-20184964D02*
X6230730Y-20165916D01*
X6249778Y-20156392D01*
X6278349Y-20156392D01*
X6297397Y-20165916D01*
X6306921Y-20184964D01*
X6306921Y-20289726D01*
X6402159Y-20289726D02*
X6402159Y-20156392D01*
X6402159Y-20175440D02*
X6411683Y-20165916D01*
X6430730Y-20156392D01*
X6459302Y-20156392D01*
X6478349Y-20165916D01*
X6487873Y-20184964D01*
X6487873Y-20289726D01*
X6487873Y-20184964D02*
X6497397Y-20165916D01*
X6516445Y-20156392D01*
X6545016Y-20156392D01*
X6564064Y-20165916D01*
X6573588Y-20184964D01*
X6573588Y-20289726D01*
X6964064Y-20080202D02*
X6792635Y-20337345D01*
X7221207Y-20089726D02*
X7240254Y-20089726D01*
X7259302Y-20099250D01*
X7268826Y-20108773D01*
X7278349Y-20127821D01*
X7287873Y-20165916D01*
X7287873Y-20213535D01*
X7278349Y-20251630D01*
X7268826Y-20270678D01*
X7259302Y-20280202D01*
X7240254Y-20289726D01*
X7221207Y-20289726D01*
X7202159Y-20280202D01*
X7192635Y-20270678D01*
X7183111Y-20251630D01*
X7173588Y-20213535D01*
X7173588Y-20165916D01*
X7183111Y-20127821D01*
X7192635Y-20108773D01*
X7202159Y-20099250D01*
X7221207Y-20089726D01*
X7373588Y-20270678D02*
X7383111Y-20280202D01*
X7373588Y-20289726D01*
X7364064Y-20280202D01*
X7373588Y-20270678D01*
X7373588Y-20289726D01*
X7573588Y-20289726D02*
X7459302Y-20289726D01*
X7516445Y-20289726D02*
X7516445Y-20089726D01*
X7497397Y-20118297D01*
X7478349Y-20137345D01*
X7459302Y-20146869D01*
X7745016Y-20089726D02*
X7706921Y-20089726D01*
X7687873Y-20099250D01*
X7678349Y-20108773D01*
X7659302Y-20137345D01*
X7649778Y-20175440D01*
X7649778Y-20251630D01*
X7659302Y-20270678D01*
X7668826Y-20280202D01*
X7687873Y-20289726D01*
X7725968Y-20289726D01*
X7745016Y-20280202D01*
X7754540Y-20270678D01*
X7764064Y-20251630D01*
X7764064Y-20204011D01*
X7754540Y-20184964D01*
X7745016Y-20175440D01*
X7725968Y-20165916D01*
X7687873Y-20165916D01*
X7668826Y-20175440D01*
X7659302Y-20184964D01*
X7649778Y-20204011D01*
X7954540Y-20289726D02*
X7840254Y-20289726D01*
X7897397Y-20289726D02*
X7897397Y-20089726D01*
X7878349Y-20118297D01*
X7859302Y-20137345D01*
X7840254Y-20146869D01*
X8125968Y-20156392D02*
X8125968Y-20289726D01*
X8078349Y-20080202D02*
X8030730Y-20223059D01*
X8154540Y-20223059D01*
X8221207Y-20089726D02*
X8221207Y-20127821D01*
X8297397Y-20089726D02*
X8297397Y-20127821D01*
X8592635Y-20365916D02*
X8583111Y-20356392D01*
X8564064Y-20327821D01*
X8554540Y-20308773D01*
X8545016Y-20280202D01*
X8535492Y-20232583D01*
X8535492Y-20194488D01*
X8545016Y-20146869D01*
X8554540Y-20118297D01*
X8564064Y-20099250D01*
X8583111Y-20070678D01*
X8592635Y-20061154D01*
X8754540Y-20089726D02*
X8716445Y-20089726D01*
X8697397Y-20099250D01*
X8687873Y-20108773D01*
X8668826Y-20137345D01*
X8659302Y-20175440D01*
X8659302Y-20251630D01*
X8668826Y-20270678D01*
X8678350Y-20280202D01*
X8697397Y-20289726D01*
X8735492Y-20289726D01*
X8754540Y-20280202D01*
X8764064Y-20270678D01*
X8773588Y-20251630D01*
X8773588Y-20204011D01*
X8764064Y-20184964D01*
X8754540Y-20175440D01*
X8735492Y-20165916D01*
X8697397Y-20165916D01*
X8678350Y-20175440D01*
X8668826Y-20184964D01*
X8659302Y-20204011D01*
X8849778Y-20108773D02*
X8859302Y-20099250D01*
X8878350Y-20089726D01*
X8925969Y-20089726D01*
X8945016Y-20099250D01*
X8954540Y-20108773D01*
X8964064Y-20127821D01*
X8964064Y-20146869D01*
X8954540Y-20175440D01*
X8840254Y-20289726D01*
X8964064Y-20289726D01*
X9202159Y-20289726D02*
X9202159Y-20089726D01*
X9287873Y-20289726D02*
X9287873Y-20184964D01*
X9278350Y-20165916D01*
X9259302Y-20156392D01*
X9230730Y-20156392D01*
X9211683Y-20165916D01*
X9202159Y-20175440D01*
X9411683Y-20289726D02*
X9392635Y-20280202D01*
X9383111Y-20270678D01*
X9373588Y-20251630D01*
X9373588Y-20194488D01*
X9383111Y-20175440D01*
X9392635Y-20165916D01*
X9411683Y-20156392D01*
X9440254Y-20156392D01*
X9459302Y-20165916D01*
X9468826Y-20175440D01*
X9478350Y-20194488D01*
X9478350Y-20251630D01*
X9468826Y-20270678D01*
X9459302Y-20280202D01*
X9440254Y-20289726D01*
X9411683Y-20289726D01*
X9592635Y-20289726D02*
X9573588Y-20280202D01*
X9564064Y-20261154D01*
X9564064Y-20089726D01*
X9745016Y-20280202D02*
X9725969Y-20289726D01*
X9687873Y-20289726D01*
X9668826Y-20280202D01*
X9659302Y-20261154D01*
X9659302Y-20184964D01*
X9668826Y-20165916D01*
X9687873Y-20156392D01*
X9725969Y-20156392D01*
X9745016Y-20165916D01*
X9754540Y-20184964D01*
X9754540Y-20204011D01*
X9659302Y-20223059D01*
X9830730Y-20280202D02*
X9849778Y-20289726D01*
X9887873Y-20289726D01*
X9906921Y-20280202D01*
X9916445Y-20261154D01*
X9916445Y-20251630D01*
X9906921Y-20232583D01*
X9887873Y-20223059D01*
X9859302Y-20223059D01*
X9840254Y-20213535D01*
X9830730Y-20194488D01*
X9830730Y-20184964D01*
X9840254Y-20165916D01*
X9859302Y-20156392D01*
X9887873Y-20156392D01*
X9906921Y-20165916D01*
X9983111Y-20365916D02*
X9992635Y-20356392D01*
X10011683Y-20327821D01*
X10021207Y-20308773D01*
X10030730Y-20280202D01*
X10040254Y-20232583D01*
X10040254Y-20194488D01*
X10030730Y-20146869D01*
X10021207Y-20118297D01*
X10011683Y-20099250D01*
X9992635Y-20070678D01*
X9983111Y-20061154D01*
X10345016Y-20365916D02*
X10335492Y-20356392D01*
X10316445Y-20327821D01*
X10306921Y-20308773D01*
X10297397Y-20280202D01*
X10287873Y-20232583D01*
X10287873Y-20194488D01*
X10297397Y-20146869D01*
X10306921Y-20118297D01*
X10316445Y-20099250D01*
X10335492Y-20070678D01*
X10345016Y-20061154D01*
X10421207Y-20156392D02*
X10421207Y-20289726D01*
X10421207Y-20175440D02*
X10430730Y-20165916D01*
X10449778Y-20156392D01*
X10478350Y-20156392D01*
X10497397Y-20165916D01*
X10506921Y-20184964D01*
X10506921Y-20289726D01*
X10630730Y-20289726D02*
X10611683Y-20280202D01*
X10602159Y-20270678D01*
X10592635Y-20251630D01*
X10592635Y-20194488D01*
X10602159Y-20175440D01*
X10611683Y-20165916D01*
X10630730Y-20156392D01*
X10659302Y-20156392D01*
X10678350Y-20165916D01*
X10687873Y-20175440D01*
X10697397Y-20194488D01*
X10697397Y-20251630D01*
X10687873Y-20270678D01*
X10678350Y-20280202D01*
X10659302Y-20289726D01*
X10630730Y-20289726D01*
X10754540Y-20156392D02*
X10830730Y-20156392D01*
X10783111Y-20089726D02*
X10783111Y-20261154D01*
X10792635Y-20280202D01*
X10811683Y-20289726D01*
X10830730Y-20289726D01*
X11049778Y-20156392D02*
X11049778Y-20356392D01*
X11049778Y-20165916D02*
X11068826Y-20156392D01*
X11106921Y-20156392D01*
X11125969Y-20165916D01*
X11135492Y-20175440D01*
X11145016Y-20194488D01*
X11145016Y-20251630D01*
X11135492Y-20270678D01*
X11125969Y-20280202D01*
X11106921Y-20289726D01*
X11068826Y-20289726D01*
X11049778Y-20280202D01*
X11259302Y-20289726D02*
X11240254Y-20280202D01*
X11230730Y-20261154D01*
X11230730Y-20089726D01*
X11421207Y-20289726D02*
X11421207Y-20184964D01*
X11411683Y-20165916D01*
X11392635Y-20156392D01*
X11354540Y-20156392D01*
X11335492Y-20165916D01*
X11421207Y-20280202D02*
X11402159Y-20289726D01*
X11354540Y-20289726D01*
X11335492Y-20280202D01*
X11325968Y-20261154D01*
X11325968Y-20242107D01*
X11335492Y-20223059D01*
X11354540Y-20213535D01*
X11402159Y-20213535D01*
X11421207Y-20204011D01*
X11487873Y-20156392D02*
X11564064Y-20156392D01*
X11516445Y-20089726D02*
X11516445Y-20261154D01*
X11525968Y-20280202D01*
X11545016Y-20289726D01*
X11564064Y-20289726D01*
X11706921Y-20280202D02*
X11687873Y-20289726D01*
X11649778Y-20289726D01*
X11630730Y-20280202D01*
X11621207Y-20261154D01*
X11621207Y-20184964D01*
X11630730Y-20165916D01*
X11649778Y-20156392D01*
X11687873Y-20156392D01*
X11706921Y-20165916D01*
X11716445Y-20184964D01*
X11716445Y-20204011D01*
X11621207Y-20223059D01*
X11887873Y-20289726D02*
X11887873Y-20089726D01*
X11887873Y-20280202D02*
X11868826Y-20289726D01*
X11830730Y-20289726D01*
X11811683Y-20280202D01*
X11802159Y-20270678D01*
X11792635Y-20251630D01*
X11792635Y-20194488D01*
X11802159Y-20175440D01*
X11811683Y-20165916D01*
X11830730Y-20156392D01*
X11868826Y-20156392D01*
X11887873Y-20165916D01*
X11964064Y-20365916D02*
X11973588Y-20356392D01*
X11992635Y-20327821D01*
X12002159Y-20308773D01*
X12011683Y-20280202D01*
X12021207Y-20232583D01*
X12021207Y-20194488D01*
X12011683Y-20146869D01*
X12002159Y-20118297D01*
X11992635Y-20099250D01*
X11973588Y-20070678D01*
X11964064Y-20061154D01*
M02*
