G04 #@! TF.GenerationSoftware,KiCad,Pcbnew,(6.0.2-0)*
G04 #@! TF.CreationDate,2022-02-19T09:02:28+00:00*
G04 #@! TF.ProjectId,atreyu-pcb2,61747265-7975-42d7-9063-62322e6b6963,rev?*
G04 #@! TF.SameCoordinates,Original*
G04 #@! TF.FileFunction,Profile,NP*
%FSLAX46Y46*%
G04 Gerber Fmt 4.6, Leading zero omitted, Abs format (unit mm)*
G04 Created by KiCad (PCBNEW (6.0.2-0)) date 2022-02-19 09:02:28*
%MOMM*%
%LPD*%
G01*
G04 APERTURE LIST*
G04 #@! TA.AperFunction,Profile*
%ADD10C,0.099999*%
G04 #@! TD*
G04 #@! TA.AperFunction,Profile*
%ADD11C,0.100000*%
G04 #@! TD*
G04 APERTURE END LIST*
D10*
X195367362Y-63395851D02*
X199286897Y-63714446D01*
X328337985Y-41914896D02*
X328591950Y-42168902D01*
X143364505Y-46747091D02*
X147139368Y-47775105D01*
X310785055Y-41451716D02*
X318912241Y-41280790D01*
X278336914Y-158830535D02*
X282655518Y-157563186D01*
D11*
X239649965Y-185538654D02*
X233316561Y-186288493D01*
D10*
X146868803Y-166907727D02*
X150577206Y-170209730D01*
X253825755Y-51165441D02*
X255955379Y-50324837D01*
X329049134Y-42778498D02*
X329201570Y-43083297D01*
X162672028Y-53936423D02*
X166672795Y-55735232D01*
D11*
X205122554Y-186542494D02*
X193946557Y-186542494D01*
D10*
X273764893Y-160989531D02*
X278336914Y-158830535D01*
X306276919Y-153750531D02*
X309452092Y-153525845D01*
X318912241Y-41280790D02*
X323866601Y-41226211D01*
X298530089Y-154387846D02*
X292687897Y-155274534D01*
X306276919Y-153750531D02*
X298530089Y-154387846D01*
X243572322Y-55735231D02*
X247573089Y-53936422D01*
X286699207Y-43097417D02*
X292904060Y-42488638D01*
D11*
X75329613Y-148766940D02*
X88791611Y-152322940D01*
D10*
X180724358Y-60698463D02*
X184503874Y-61599565D01*
D11*
X50413184Y-137353854D02*
G75*
G03*
X52484665Y-141344165I2993922J-978609D01*
G01*
D10*
X133027304Y-44461768D02*
X137192202Y-45249911D01*
X247319316Y-182412527D02*
X249555963Y-180712655D01*
X328591950Y-42168902D02*
X328845979Y-42473696D01*
X237686434Y-58111505D02*
X239942987Y-57266252D01*
X99460059Y-41451717D02*
X105298118Y-41665792D01*
X156419361Y-51165440D02*
X158920435Y-52273829D01*
X83685148Y-41203695D02*
X86378515Y-41226211D01*
X105298118Y-41665792D02*
X111258449Y-42011426D01*
D11*
X321453503Y-152322938D02*
X334915504Y-148766939D01*
D10*
X187658132Y-62223568D02*
X191573867Y-62875496D01*
X263105747Y-47775107D02*
X266880611Y-46747092D01*
X210970897Y-63714444D02*
X214877754Y-63395850D01*
X167547140Y-184776666D02*
X170595153Y-185538654D01*
X242697977Y-184776663D02*
X245339580Y-183582863D01*
X117557218Y-155274534D02*
X111715025Y-154387847D01*
X117341056Y-42488638D02*
X123545907Y-43097418D01*
X327575958Y-41457702D02*
X327982363Y-41660896D01*
X100793024Y-153525846D02*
X103968200Y-153750531D01*
X152160112Y-49484234D02*
X154289737Y-50324840D01*
X137192202Y-45249911D02*
X140595644Y-46010133D01*
X229520756Y-60698463D02*
X232538791Y-59825284D01*
X218671247Y-62875496D02*
X222586984Y-62223568D01*
D11*
X329201570Y-43083297D02*
X352748666Y-115553803D01*
X176928557Y-186288496D02*
X170595153Y-185538654D01*
D10*
X172558682Y-58111506D02*
X175318221Y-59102297D01*
X144024016Y-165078933D02*
X146868803Y-166907727D01*
X144024016Y-165078933D02*
X136481107Y-160987867D01*
X298986667Y-42011427D02*
X304946998Y-41665791D01*
X81043545Y-43083294D02*
X81195981Y-42778499D01*
X82669157Y-41457701D02*
X83075559Y-41305299D01*
X164905538Y-183582862D02*
X167547140Y-184776666D01*
X232538791Y-59825284D02*
X234926896Y-59102294D01*
D11*
X160689153Y-180712654D02*
X153625226Y-172927519D01*
D10*
X247573089Y-53936422D02*
X251324681Y-52273832D01*
X191573867Y-62875496D02*
X195367362Y-63395851D01*
D11*
X317032089Y-152965846D02*
X321453503Y-152322938D01*
D10*
X292904060Y-42488638D02*
X298986667Y-42011427D01*
X251324681Y-52273832D02*
X253825755Y-51165441D01*
X81907133Y-41914897D02*
X82262755Y-41660898D01*
X292687897Y-155274534D02*
X282655518Y-157563186D01*
X326559968Y-41203696D02*
X327169557Y-41305298D01*
X111258449Y-42011426D02*
X117341056Y-42488638D01*
X81653166Y-42168899D02*
X81907133Y-41914897D01*
D11*
X216298560Y-186542494D02*
X205122558Y-186542495D01*
D10*
X283916387Y-43453631D02*
X286699207Y-43097417D01*
X150577206Y-170209730D02*
X153625226Y-172927519D01*
X259667907Y-170209729D02*
X263376314Y-166907727D01*
D11*
X185056554Y-186542494D02*
X176928557Y-186288496D01*
D10*
X327982363Y-41660896D02*
X328337985Y-41914896D01*
X91332874Y-41280792D02*
X99460059Y-41451717D01*
X127589600Y-157563186D02*
X117557218Y-155274534D01*
D11*
X233316561Y-186288493D02*
X225188558Y-186542495D01*
D10*
X127589600Y-157563186D02*
X131908202Y-158830534D01*
D11*
X357760454Y-141344164D02*
G75*
G03*
X359831932Y-137353855I-922445J3011701D01*
G01*
D10*
X234926896Y-59102294D02*
X237686434Y-58111505D01*
X158920435Y-52273829D02*
X162672028Y-53936423D01*
D11*
X57496450Y-115553804D02*
X81043545Y-43083294D01*
X309452092Y-153525845D02*
X317032089Y-152965846D01*
X52484665Y-141344165D02*
X57211986Y-142880165D01*
X93213025Y-152965846D02*
X100793024Y-153525846D01*
X334915504Y-148766939D02*
X353033131Y-142880163D01*
D10*
X263376314Y-166907727D02*
X266221099Y-165078931D01*
X184503874Y-61599565D02*
X187658132Y-62223568D01*
X225741241Y-61599565D02*
X229520756Y-60698463D01*
X175318221Y-59102297D02*
X177706324Y-59825283D01*
X239649965Y-185538654D02*
X242697977Y-184776663D01*
X177706324Y-59825283D02*
X180724358Y-60698463D01*
X86378515Y-41226211D02*
X91332874Y-41280792D01*
X273764893Y-160989531D02*
X266221099Y-165078931D01*
X81195981Y-42778499D02*
X81399137Y-42473694D01*
X111715025Y-154387847D02*
X103968200Y-153750531D01*
D11*
X225188558Y-186542495D02*
X216298560Y-186542494D01*
D10*
X256619889Y-172927518D02*
X259667907Y-170209729D01*
X323866601Y-41226211D02*
X326559968Y-41203696D01*
X328845979Y-42473696D02*
X329049134Y-42778498D01*
X170302130Y-57266252D02*
X172558682Y-58111506D01*
X239942987Y-57266252D02*
X243572322Y-55735231D01*
D11*
X352748666Y-115553803D02*
X359831932Y-137353855D01*
D10*
X140595644Y-46010133D02*
X143364505Y-46747091D01*
X222586984Y-62223568D02*
X225741241Y-61599565D01*
X160689153Y-180712654D02*
X162925803Y-182412529D01*
X327169557Y-41305298D02*
X327575958Y-41457702D01*
D11*
X193946557Y-186542494D02*
X185056554Y-186542494D01*
X353033131Y-142880163D02*
X357760454Y-141344164D01*
D10*
X258085001Y-49484236D02*
X263105747Y-47775107D01*
X129995307Y-43969332D02*
X133027304Y-44461768D01*
D11*
X57211986Y-142880165D02*
X75329613Y-148766940D01*
D10*
X83075559Y-41305299D02*
X83685148Y-41203695D01*
X147139368Y-47775105D02*
X152160112Y-49484234D01*
X123545907Y-43097418D02*
X126328729Y-43453629D01*
X245339580Y-183582863D02*
X247319316Y-182412527D01*
X82262755Y-41660898D02*
X82669157Y-41457701D01*
X205128897Y-63968446D02*
X210970897Y-63714444D01*
X199286897Y-63714446D02*
X205128897Y-63968446D01*
X131908202Y-158830534D02*
X136481107Y-160987867D01*
D11*
X256619889Y-172927518D02*
X249555963Y-180712655D01*
D10*
X214877754Y-63395850D02*
X218671247Y-62875496D01*
X280249806Y-43969333D02*
X283916387Y-43453631D01*
X269649471Y-46010136D02*
X273052915Y-45249912D01*
X273052915Y-45249912D02*
X277217811Y-44461768D01*
X162925803Y-182412529D02*
X164905538Y-183582862D01*
X126328729Y-43453629D02*
X129995307Y-43969332D01*
X255955379Y-50324837D02*
X258085001Y-49484236D01*
D11*
X88791611Y-152322940D02*
X93213025Y-152965846D01*
D10*
X166672795Y-55735232D02*
X170302130Y-57266252D01*
X304946998Y-41665791D02*
X310785055Y-41451716D01*
X81399137Y-42473694D02*
X81653166Y-42168899D01*
X154289737Y-50324840D02*
X156419361Y-51165440D01*
X266880611Y-46747092D02*
X269649471Y-46010136D01*
X277217811Y-44461768D02*
X280249806Y-43969333D01*
D11*
X50413183Y-137353854D02*
X57496450Y-115553804D01*
M02*
