M48
; DRILL file {KiCad (6.0.2-0)} date Saturday, February 19, 2022 at 09:02:34 AM
; FORMAT={-:-/ absolute / metric / decimal}
; #@! TF.CreationDate,2022-02-19T09:02:34+00:00
; #@! TF.GenerationSoftware,Kicad,Pcbnew,(6.0.2-0)
; #@! TF.FileFunction,Plated,1,2,PTH
FMAT,2
METRIC
; #@! TA.AperFunction,Plated,PTH,ViaDrill
T1C0.400
; #@! TA.AperFunction,Plated,PTH,ComponentDrill
T2C0.800
; #@! TA.AperFunction,Plated,PTH,ComponentDrill
T3C1.000
; #@! TA.AperFunction,Plated,PTH,ComponentDrill
T4C1.092
; #@! TA.AperFunction,Plated,PTH,ComponentDrill
T5C1.300
; #@! TA.AperFunction,Plated,PTH,ComponentDrill
T6C4.100
%
G90
G05
T1
X103.529Y-134.612
X126.548Y-136.993
X129.622Y-134.552
X194.616Y-78.016
X195.106Y-76.507
X195.597Y-74.997
X196.087Y-73.487
X196.578Y-71.977
X197.068Y-70.467
X204.335Y-140.962
X246.404Y-156.043
X259.898Y-131.437
T2
X61.378Y-138.749
X67.417Y-140.711
X67.893Y-118.698
X73.779Y-100.581
X73.932Y-120.661
X79.666Y-82.463
X79.819Y-102.543
X85.553Y-64.346
X85.705Y-84.425
X86.795Y-122.17
X91.592Y-66.308
X92.682Y-104.052
X92.834Y-124.132
X98.569Y-85.934
X98.721Y-106.014
X104.455Y-67.817
X104.608Y-87.897
X106.757Y-122.379
X107.748Y-148.44
X110.495Y-69.779
X112.644Y-104.262
X112.796Y-124.342
X114.082Y-148.883
X118.531Y-86.144
X118.683Y-106.224
X124.418Y-68.027
X124.57Y-88.106
X125.581Y-126.092
X126.578Y-151.28
X130.457Y-69.989
X131.468Y-107.974
X131.621Y-128.054
X132.617Y-153.242
X137.355Y-89.857
X137.507Y-109.937
X142.993Y-134.153
X143.242Y-71.739
X143.394Y-91.819
X144.727Y-158.84
X148.879Y-116.035
X149.032Y-136.115
X149.281Y-73.701
X150.112Y-162.205
X154.766Y-97.918
X154.919Y-117.998
X160.404Y-142.214
X160.653Y-79.8
X160.805Y-99.88
X166.291Y-124.096
X166.443Y-144.176
X166.692Y-81.762
X172.177Y-105.979
X172.33Y-126.058
X176.76Y-170.718
X178.064Y-87.86
X178.216Y-107.941
X181.479Y-166.469
X184.103Y-89.823
X193.338Y-141.03
X195.3Y-134.991
X214.945Y-134.991
X216.907Y-141.03
X226.142Y-89.823
X228.767Y-166.468
X232.029Y-107.941
X232.181Y-87.861
X233.486Y-170.717
X237.915Y-126.058
X238.068Y-105.979
X243.553Y-81.762
X243.802Y-144.176
X243.955Y-124.096
X249.44Y-99.88
X249.592Y-79.8
X249.841Y-142.214
X255.327Y-117.998
X255.479Y-97.918
X260.133Y-162.205
X260.964Y-73.701
X261.213Y-136.115
X261.366Y-116.035
X265.518Y-158.84
X266.851Y-91.819
X267.003Y-71.739
X267.253Y-134.153
X272.738Y-109.937
X272.89Y-89.857
X277.628Y-153.242
X278.625Y-128.054
X278.777Y-107.974
X279.788Y-69.989
X283.667Y-151.28
X284.664Y-126.092
X285.675Y-88.106
X285.828Y-68.027
X291.562Y-106.224
X291.714Y-86.144
X296.167Y-148.894
X297.449Y-124.342
X297.601Y-104.262
X299.751Y-69.779
X302.501Y-148.451
X303.488Y-122.379
X305.637Y-87.897
X305.79Y-67.817
X311.524Y-106.015
X311.677Y-85.935
X317.412Y-124.132
X317.563Y-104.052
X318.653Y-66.308
X323.451Y-122.17
X324.54Y-84.426
X324.692Y-64.346
X330.427Y-102.544
X330.579Y-82.464
X336.313Y-120.661
X336.466Y-100.581
X342.353Y-118.699
X342.828Y-140.711
X348.867Y-138.749
T3
X182.301Y-138.653
X184.678Y-139.426
X186.782Y-124.863
X187.056Y-140.198
X191.537Y-126.408
X218.708Y-126.408
X223.189Y-140.198
X223.464Y-124.863
X225.567Y-139.426
X227.944Y-138.653
T4
X197.503Y-89.601
X197.503Y-92.141
X197.503Y-94.681
X197.503Y-97.221
X197.503Y-99.761
X197.503Y-102.301
X197.503Y-104.841
X197.503Y-107.381
X197.503Y-109.921
X197.503Y-112.461
X197.503Y-115.001
X197.503Y-117.541
X200.043Y-117.541
X202.583Y-117.541
X205.123Y-117.541
X207.663Y-117.541
X210.203Y-117.541
X212.743Y-89.601
X212.743Y-92.141
X212.743Y-94.681
X212.743Y-97.221
X212.743Y-99.761
X212.743Y-102.301
X212.743Y-104.841
X212.743Y-107.381
X212.743Y-109.921
X212.743Y-112.461
X212.743Y-115.001
X212.743Y-117.541
T5
X215.404Y-65.215
X221.841Y-64.31
T6
X79.569Y-123.862
X97.769Y-67.848
X124.811Y-107.915
X172.05Y-147.467
X172.084Y-85.718
X238.189Y-85.809
X238.223Y-147.558
X285.462Y-108.006
X312.505Y-67.939
X330.704Y-123.953
T0
M30
