G04 #@! TF.GenerationSoftware,KiCad,Pcbnew,(6.0.2-0)*
G04 #@! TF.CreationDate,2022-02-19T09:02:28+00:00*
G04 #@! TF.ProjectId,atreyu-pcb2,61747265-7975-42d7-9063-62322e6b6963,rev?*
G04 #@! TF.SameCoordinates,Original*
G04 #@! TF.FileFunction,Soldermask,Top*
G04 #@! TF.FilePolarity,Negative*
%FSLAX46Y46*%
G04 Gerber Fmt 4.6, Leading zero omitted, Abs format (unit mm)*
G04 Created by KiCad (PCBNEW (6.0.2-0)) date 2022-02-19 09:02:28*
%MOMM*%
%LPD*%
G01*
G04 APERTURE LIST*
%ADD10C,1.900000*%
%ADD11C,3.000000*%
%ADD12C,4.100000*%
%ADD13C,1.400000*%
%ADD14R,1.752600X1.752600*%
%ADD15C,1.752600*%
%ADD16C,4.700000*%
%ADD17C,2.000000*%
G04 APERTURE END LIST*
D10*
X156035123Y-156321521D03*
D11*
X156573071Y-150667442D03*
D10*
X147418955Y-150937541D03*
D12*
X151727039Y-153629531D03*
D11*
X149841971Y-149456496D03*
G36*
X277178703Y-154124510D02*
G01*
X276746080Y-152793031D01*
X278077559Y-152360408D01*
X278510182Y-153691887D01*
X277178703Y-154124510D01*
G37*
D13*
X283667340Y-151280201D03*
G36*
X184985510Y-89373238D02*
G01*
X184552887Y-90704717D01*
X183221408Y-90272094D01*
X183654031Y-88940615D01*
X184985510Y-89373238D01*
G37*
X178064250Y-87860408D03*
D12*
X137000906Y-101225891D03*
D11*
X140986396Y-97179427D03*
D10*
X132169539Y-99656085D03*
D11*
X134162284Y-97632853D03*
D10*
X141832273Y-102795697D03*
G36*
X243103634Y-82644400D02*
G01*
X242671011Y-81312921D01*
X244002490Y-80880298D01*
X244435113Y-82211777D01*
X243103634Y-82644400D01*
G37*
D13*
X249592271Y-79800091D03*
G36*
X151076986Y-161982270D02*
G01*
X150335099Y-163169537D01*
X149147832Y-162427650D01*
X149889719Y-161240383D01*
X151076986Y-161982270D01*
G37*
X144727304Y-158839973D03*
D11*
X307622159Y-96065555D03*
D12*
X312030587Y-97303884D03*
D10*
X316861954Y-95734078D03*
D11*
X312876464Y-91687614D03*
D10*
X307199220Y-98873690D03*
D11*
X129566373Y-141034254D03*
D12*
X132404995Y-144627292D03*
D10*
X127573628Y-143057486D03*
D11*
X136390485Y-140580828D03*
D10*
X137236362Y-146197098D03*
D14*
X197502560Y-89601494D03*
D15*
X197502560Y-92141494D03*
X197502560Y-94681494D03*
X197502560Y-97221494D03*
X197502560Y-99761494D03*
X197502560Y-102301494D03*
X197502560Y-104841494D03*
X197502560Y-107381494D03*
X197502560Y-109921494D03*
X197502560Y-112461494D03*
X197502560Y-115001494D03*
X197502560Y-117541494D03*
X212742560Y-117541494D03*
X212742560Y-115001494D03*
X212742560Y-112461494D03*
X212742560Y-109921494D03*
X212742560Y-107381494D03*
X212742560Y-104841494D03*
X212742560Y-102301494D03*
X212742560Y-99761494D03*
X212742560Y-97221494D03*
X212742560Y-94681494D03*
X212742560Y-92141494D03*
X212742560Y-89601494D03*
X200042560Y-117541494D03*
X202582560Y-117541494D03*
X205122560Y-117541494D03*
X207662560Y-117541494D03*
X210202560Y-117541494D03*
D12*
X92328646Y-115421169D03*
D10*
X97160013Y-116990975D03*
D11*
X96314136Y-111374705D03*
D10*
X87497279Y-113851363D03*
D11*
X89490024Y-111828131D03*
D10*
X248890818Y-71481720D03*
D11*
X239651023Y-71813197D03*
X244905328Y-67435256D03*
D10*
X239228084Y-74621332D03*
D12*
X244059451Y-73051526D03*
D10*
X218417701Y-133862567D03*
D11*
X224094945Y-126676491D03*
D12*
X223249068Y-132292761D03*
D10*
X228080435Y-130722955D03*
D11*
X218840640Y-131054432D03*
D16*
X312504521Y-67938959D03*
G36*
X227778450Y-166520131D02*
G01*
X228715233Y-165479728D01*
X229755636Y-166416511D01*
X228818853Y-167456914D01*
X227778450Y-166520131D01*
G37*
D13*
X233486013Y-170717300D03*
D11*
X109451472Y-112037820D03*
D10*
X107458727Y-114061052D03*
D11*
X116275584Y-111584394D03*
D10*
X117121461Y-117200664D03*
D12*
X112290094Y-115630858D03*
G36*
X133499039Y-152793029D02*
G01*
X133066416Y-154124508D01*
X131734937Y-153691885D01*
X132167560Y-152360406D01*
X133499039Y-152793029D01*
G37*
D13*
X126577779Y-151280199D03*
D12*
X129950414Y-61277979D03*
D11*
X133935904Y-57231515D03*
X127111792Y-57684941D03*
D10*
X125119047Y-59708173D03*
X134781781Y-62847785D03*
D16*
X330704465Y-123952619D03*
G36*
X111376710Y-69329455D02*
G01*
X110944087Y-70660934D01*
X109612608Y-70228311D01*
X110045231Y-68896832D01*
X111376710Y-69329455D01*
G37*
D13*
X104455450Y-67816625D03*
G36*
X225692419Y-90705287D02*
G01*
X225259796Y-89373808D01*
X226591275Y-88941185D01*
X227023898Y-90272664D01*
X225692419Y-90705287D01*
G37*
X232181056Y-87860978D03*
D11*
X76474264Y-90239414D03*
D12*
X79312886Y-93832452D03*
D10*
X84144253Y-95402258D03*
X74481519Y-92262646D03*
D11*
X83298376Y-89785988D03*
G36*
X260763952Y-136997280D02*
G01*
X260331329Y-135665801D01*
X261662808Y-135233178D01*
X262095431Y-136564657D01*
X260763952Y-136997280D01*
G37*
D13*
X267252589Y-134152971D03*
G36*
X243352738Y-145058168D02*
G01*
X242920115Y-143726689D01*
X244251594Y-143294066D01*
X244684217Y-144625545D01*
X243352738Y-145058168D01*
G37*
X249841375Y-142213859D03*
G36*
X316962240Y-125014156D02*
G01*
X316529617Y-123682677D01*
X317861096Y-123250054D01*
X318293719Y-124581533D01*
X316962240Y-125014156D01*
G37*
X323450877Y-122169847D03*
D11*
X318763238Y-109805240D03*
X313508933Y-114183181D03*
D10*
X313085994Y-116991316D03*
X322748728Y-113851704D03*
D12*
X317917361Y-115421510D03*
G36*
X144276122Y-91369658D02*
G01*
X143843499Y-92701137D01*
X142512020Y-92268514D01*
X142944643Y-90937035D01*
X144276122Y-91369658D01*
G37*
D13*
X137354862Y-89856828D03*
D11*
X268835786Y-99987561D03*
X274090091Y-95609620D03*
D10*
X278075581Y-99656084D03*
X268412847Y-102795696D03*
D12*
X273244214Y-101225890D03*
D11*
X298800906Y-110014588D03*
D12*
X297955029Y-115630858D03*
D10*
X293123662Y-117200664D03*
X302786396Y-114061052D03*
D11*
X293546601Y-114392529D03*
G36*
X119565312Y-105774627D02*
G01*
X119132689Y-107106106D01*
X117801210Y-106673483D01*
X118233833Y-105342004D01*
X119565312Y-105774627D01*
G37*
D13*
X112644052Y-104261797D03*
D12*
X165935039Y-135464799D03*
D10*
X170766406Y-137034605D03*
D11*
X169920529Y-131418335D03*
D10*
X161103672Y-133894993D03*
D11*
X163096417Y-131871761D03*
D10*
X320214974Y-77284973D03*
X329877708Y-74145361D03*
D11*
X320637913Y-74476838D03*
X325892218Y-70098897D03*
D12*
X325046341Y-75715167D03*
G36*
X86587406Y-83975991D02*
G01*
X86154783Y-85307470D01*
X84823304Y-84874847D01*
X85255927Y-83543368D01*
X86587406Y-83975991D01*
G37*
D13*
X79666146Y-82463161D03*
D12*
X292068252Y-97513232D03*
D10*
X296899619Y-95943426D03*
D11*
X287659824Y-96274903D03*
D10*
X287236885Y-99083038D03*
D11*
X292914129Y-91896962D03*
X251424572Y-108048448D03*
D12*
X255833000Y-109286777D03*
D10*
X251001633Y-110856583D03*
X260664367Y-107716971D03*
D11*
X256678877Y-103670507D03*
G36*
X237465963Y-126940541D02*
G01*
X237033340Y-125609062D01*
X238364819Y-125176439D01*
X238797442Y-126507918D01*
X237465963Y-126940541D01*
G37*
D13*
X243954600Y-124096232D03*
G36*
X329977297Y-103425667D02*
G01*
X329544674Y-102094188D01*
X330876153Y-101661565D01*
X331308776Y-102993044D01*
X329977297Y-103425667D01*
G37*
X336465934Y-100581358D03*
G36*
X149913790Y-135665797D02*
G01*
X149481167Y-136997276D01*
X148149688Y-136564653D01*
X148582311Y-135233174D01*
X149913790Y-135665797D01*
G37*
X142992530Y-134152967D03*
D16*
X238189307Y-85808627D03*
G36*
X132502574Y-127604911D02*
G01*
X132069951Y-128936390D01*
X130738472Y-128503767D01*
X131171095Y-127172288D01*
X132502574Y-127604911D01*
G37*
D13*
X125581314Y-126092081D03*
G36*
X248990403Y-100762025D02*
G01*
X248557780Y-99430546D01*
X249889259Y-98997923D01*
X250321882Y-100329402D01*
X248990403Y-100762025D01*
G37*
X255479040Y-97917716D03*
D16*
X285462261Y-108005630D03*
D12*
X249946226Y-91169151D03*
D10*
X254777593Y-89599345D03*
D11*
X245537798Y-89930822D03*
D10*
X245114859Y-92738957D03*
D11*
X250792103Y-85552881D03*
X135099620Y-115297053D03*
D10*
X135945497Y-120913323D03*
D11*
X128275508Y-115750479D03*
D10*
X126282763Y-117773711D03*
D12*
X131114130Y-119343517D03*
D11*
X301735384Y-77947928D03*
D10*
X310975179Y-77616451D03*
X301312445Y-80756063D03*
D11*
X306989689Y-73569987D03*
D12*
X306143812Y-79186257D03*
D11*
X314751141Y-56359211D03*
D12*
X319159569Y-57597540D03*
D11*
X320005446Y-51981270D03*
D10*
X314328202Y-59167346D03*
X323990936Y-56027734D03*
D11*
X275886277Y-60039649D03*
X281140582Y-55661708D03*
D10*
X275463338Y-62847784D03*
D12*
X280294705Y-61277978D03*
D10*
X285126072Y-59708172D03*
D11*
X326524689Y-92594463D03*
D10*
X326101750Y-95402598D03*
X335764484Y-92262986D03*
D11*
X331778994Y-88216522D03*
D12*
X330933117Y-93832792D03*
D11*
X281773051Y-78157275D03*
X287027356Y-73779334D03*
D10*
X281350112Y-80965410D03*
X291012846Y-77825798D03*
D12*
X286181479Y-79395604D03*
G36*
X295517231Y-149640965D02*
G01*
X295419572Y-148244376D01*
X296816161Y-148146717D01*
X296913820Y-149543306D01*
X295517231Y-149640965D01*
G37*
D13*
X302501228Y-148450887D03*
G36*
X150162898Y-73252031D02*
G01*
X149730275Y-74583510D01*
X148398796Y-74150887D01*
X148831419Y-72819408D01*
X150162898Y-73252031D01*
G37*
X143241638Y-71739201D03*
G36*
X217789465Y-141479502D02*
G01*
X216457986Y-141912125D01*
X216025363Y-140580646D01*
X217356842Y-140148023D01*
X217789465Y-141479502D01*
G37*
X214945156Y-134990865D03*
D10*
X155467527Y-89599346D03*
D12*
X160298894Y-91169152D03*
D11*
X157460272Y-87576114D03*
D10*
X165130261Y-92738958D03*
D11*
X164284384Y-87122688D03*
D10*
X71740565Y-133569335D03*
D11*
X70894688Y-127953065D03*
D12*
X66909198Y-131999529D03*
D10*
X62077831Y-130429723D03*
D11*
X64070576Y-128406491D03*
X257980132Y-147975454D03*
D10*
X254209996Y-156321523D03*
X262826164Y-150937543D03*
D11*
X253941022Y-153494483D03*
D12*
X258518080Y-153629533D03*
X232536534Y-99229545D03*
D10*
X227705167Y-100799351D03*
X237367901Y-97659739D03*
D11*
X228128106Y-97991216D03*
X233382411Y-93613275D03*
D12*
X261719773Y-127404406D03*
D11*
X257311345Y-126166077D03*
D10*
X266551140Y-125834600D03*
D11*
X262565650Y-121788136D03*
D10*
X256888406Y-128974212D03*
G36*
X324090523Y-85308039D02*
G01*
X323657900Y-83976560D01*
X324989379Y-83543937D01*
X325422002Y-84875416D01*
X324090523Y-85308039D01*
G37*
D13*
X330579160Y-82463730D03*
D10*
X242275176Y-167693797D03*
X234724824Y-160895431D03*
D11*
X243786771Y-162219030D03*
D12*
X238500000Y-164294614D03*
D11*
X237368210Y-159857639D03*
G36*
X93716390Y-123682335D02*
G01*
X93283767Y-125013814D01*
X91952288Y-124581191D01*
X92384911Y-123249712D01*
X93716390Y-123682335D01*
G37*
D13*
X86795130Y-122169505D03*
G36*
X291112433Y-107106104D02*
G01*
X290679810Y-105774625D01*
X292011289Y-105342002D01*
X292443912Y-106673481D01*
X291112433Y-107106104D01*
G37*
X297601070Y-104261795D03*
G36*
X181530587Y-165479958D02*
G01*
X182467370Y-166520361D01*
X181426967Y-167457144D01*
X180490184Y-166416741D01*
X181530587Y-165479958D01*
G37*
X176759807Y-170717530D03*
G36*
X167574110Y-81312920D02*
G01*
X167141487Y-82644399D01*
X165810008Y-82211776D01*
X166242631Y-80880297D01*
X167574110Y-81312920D01*
G37*
X160652850Y-79800090D03*
D11*
X140049057Y-79515226D03*
D10*
X138056312Y-81538458D03*
X147719046Y-84678070D03*
D12*
X142887679Y-83108264D03*
D11*
X146873169Y-79061800D03*
D10*
X182539952Y-100799353D03*
D12*
X177708585Y-99229547D03*
D11*
X181694075Y-95183083D03*
D10*
X172877218Y-97659741D03*
D11*
X174869963Y-95636509D03*
D10*
X221818392Y-82681726D03*
D11*
X222241331Y-79873591D03*
X227495636Y-75495650D03*
D10*
X231481126Y-79542114D03*
D12*
X226649759Y-81111920D03*
G36*
X113678537Y-123892251D02*
G01*
X113245914Y-125223730D01*
X111914435Y-124791107D01*
X112347058Y-123459628D01*
X113678537Y-123892251D01*
G37*
D13*
X106757277Y-122379421D03*
D11*
X344182687Y-126383603D03*
D10*
X338505443Y-133569679D03*
X348168177Y-130430067D03*
D12*
X343336810Y-131999873D03*
D11*
X338928382Y-130761544D03*
D10*
X159243487Y-110856585D03*
X149580753Y-107716973D03*
D12*
X154412120Y-109286779D03*
D11*
X158397610Y-105240315D03*
X151573498Y-105693741D03*
G36*
X80700631Y-102093618D02*
G01*
X80268008Y-103425097D01*
X78936529Y-102992474D01*
X79369152Y-101660995D01*
X80700631Y-102093618D01*
G37*
D13*
X73779371Y-100580788D03*
G36*
X299301219Y-70661502D02*
G01*
X298868596Y-69330023D01*
X300200075Y-68897400D01*
X300632698Y-70228879D01*
X299301219Y-70661502D01*
G37*
X305789856Y-67817193D03*
D10*
X283962353Y-117773711D03*
D11*
X279976863Y-113727247D03*
D10*
X274299619Y-120913323D03*
D11*
X274722558Y-118105188D03*
D12*
X279130986Y-119343517D03*
G36*
X179098550Y-107491436D02*
G01*
X178665927Y-108822915D01*
X177334448Y-108390292D01*
X177767071Y-107058813D01*
X179098550Y-107491436D01*
G37*
D13*
X172177290Y-105978606D03*
G36*
X335864070Y-121543293D02*
G01*
X335431447Y-120211814D01*
X336762926Y-119779191D01*
X337195549Y-121110670D01*
X335864070Y-121543293D01*
G37*
X342352707Y-118698984D03*
D12*
X336819892Y-111950419D03*
D10*
X341651259Y-110380613D03*
X331988525Y-113520225D03*
D11*
X337665769Y-106334149D03*
X332411464Y-110712090D03*
G36*
X92474179Y-65858365D02*
G01*
X92041556Y-67189844D01*
X90710077Y-66757221D01*
X91142700Y-65425742D01*
X92474179Y-65858365D01*
G37*
D13*
X85552919Y-64345535D03*
D10*
X171981771Y-164082391D03*
D11*
X163675621Y-168143374D03*
D10*
X164431419Y-170880757D03*
D11*
X166694999Y-162006807D03*
D12*
X168206595Y-167481574D03*
G36*
X318203749Y-67190413D02*
G01*
X317771126Y-65858934D01*
X319102605Y-65426311D01*
X319535228Y-66757790D01*
X318203749Y-67190413D01*
G37*
D13*
X324692386Y-64346104D03*
G36*
X155800563Y-117548172D02*
G01*
X155367940Y-118879651D01*
X154036461Y-118447028D01*
X154469084Y-117115549D01*
X155800563Y-117548172D01*
G37*
X148879303Y-116035342D03*
D11*
X122162357Y-93466767D03*
D10*
X113345500Y-95943425D03*
X123008234Y-99083037D03*
D11*
X115338245Y-93920193D03*
D12*
X118176867Y-97513231D03*
D10*
X153605821Y-66560444D03*
D12*
X148774454Y-64990638D03*
D11*
X152759944Y-60944174D03*
D10*
X143943087Y-63420832D03*
D11*
X145935832Y-61397600D03*
D10*
X153356715Y-128974212D03*
D11*
X152510838Y-123357942D03*
D12*
X148525348Y-127404406D03*
D11*
X145686726Y-123811368D03*
D10*
X143693981Y-125834600D03*
D12*
X124063641Y-79395604D03*
D11*
X121225019Y-75802566D03*
D10*
X119232274Y-77825798D03*
X128895008Y-80965410D03*
D11*
X128049131Y-75349140D03*
G36*
X167325002Y-143726688D02*
G01*
X166892379Y-145058167D01*
X165560900Y-144625544D01*
X165993523Y-143294065D01*
X167325002Y-143726688D01*
G37*
D13*
X160403742Y-142213858D03*
G36*
X173211778Y-125609062D02*
G01*
X172779155Y-126940541D01*
X171447676Y-126507918D01*
X171880299Y-125176439D01*
X173211778Y-125609062D01*
G37*
X166290518Y-124096232D03*
D10*
X93384051Y-95733736D03*
D11*
X102200908Y-93257078D03*
X95376796Y-93710504D03*
D12*
X98215418Y-97303542D03*
D10*
X103046785Y-98873348D03*
G36*
X193787132Y-141912126D02*
G01*
X192455653Y-141479503D01*
X192888276Y-140148024D01*
X194219755Y-140580647D01*
X193787132Y-141912126D01*
G37*
D13*
X195299962Y-134990866D03*
D10*
X243254676Y-115777369D03*
D11*
X234014881Y-116108846D03*
D12*
X238423309Y-117347175D03*
D11*
X239269186Y-111730905D03*
D10*
X233591942Y-118916981D03*
G36*
X342378766Y-141593467D02*
G01*
X341946143Y-140261988D01*
X343277622Y-139829365D01*
X343710245Y-141160844D01*
X342378766Y-141593467D01*
G37*
D13*
X348867403Y-138749158D03*
G36*
X278175169Y-128936390D02*
G01*
X277742546Y-127604911D01*
X279074025Y-127172288D01*
X279506648Y-128503767D01*
X278175169Y-128936390D01*
G37*
X284663806Y-126092081D03*
G36*
X68299162Y-140261418D02*
G01*
X67866539Y-141592897D01*
X66535060Y-141160274D01*
X66967683Y-139828795D01*
X68299162Y-140261418D01*
G37*
X61377902Y-138748588D03*
G36*
X131338858Y-69539372D02*
G01*
X130906235Y-70870851D01*
X129574756Y-70438228D01*
X130007379Y-69106749D01*
X131338858Y-69539372D01*
G37*
X124417598Y-68026542D03*
G36*
X125452084Y-87656998D02*
G01*
X125019461Y-88988477D01*
X123687982Y-88555854D01*
X124120605Y-87224375D01*
X125452084Y-87656998D01*
G37*
X118530824Y-86144168D03*
G36*
X99603161Y-105564708D02*
G01*
X99170538Y-106896187D01*
X97839059Y-106463564D01*
X98271682Y-105132085D01*
X99603161Y-105564708D01*
G37*
X92681901Y-104051878D03*
G36*
X285225660Y-88988478D02*
G01*
X284793037Y-87656999D01*
X286124516Y-87224376D01*
X286557139Y-88555855D01*
X285225660Y-88988478D01*
G37*
X291714297Y-86144169D03*
D12*
X244310081Y-135464800D03*
D11*
X239901653Y-134226471D03*
X245155958Y-129848530D03*
D10*
X249141448Y-133894994D03*
X239478714Y-137034606D03*
G36*
X260514845Y-74583510D02*
G01*
X260082222Y-73252031D01*
X261413701Y-72819408D01*
X261846324Y-74150887D01*
X260514845Y-74583510D01*
G37*
D13*
X267003482Y-71739201D03*
G36*
X138389350Y-109487283D02*
G01*
X137956727Y-110818762D01*
X136625248Y-110386139D01*
X137057871Y-109054660D01*
X138389350Y-109487283D01*
G37*
X131468090Y-107974453D03*
D10*
X182164682Y-130722956D03*
D11*
X184157427Y-128699724D03*
D10*
X191827416Y-133862568D03*
D12*
X186996049Y-132292762D03*
D11*
X190981539Y-128246298D03*
X268203317Y-77491990D03*
D12*
X267357440Y-83108260D03*
D10*
X262526073Y-84678066D03*
D11*
X262949012Y-81869931D03*
D10*
X272188807Y-81538454D03*
G36*
X266401619Y-92701134D02*
G01*
X265968996Y-91369655D01*
X267300475Y-90937032D01*
X267733098Y-92268511D01*
X266401619Y-92701134D01*
G37*
D13*
X272890256Y-89856825D03*
G36*
X114829160Y-148233257D02*
G01*
X114731501Y-149629846D01*
X113334912Y-149532187D01*
X113432571Y-148135598D01*
X114829160Y-148233257D01*
G37*
X107747504Y-148439768D03*
D10*
X293696443Y-140907181D03*
X303831693Y-140198455D03*
D12*
X298764068Y-140552818D03*
D11*
X294786168Y-138284777D03*
X300943518Y-135308011D03*
D10*
X238264051Y-164082164D03*
D11*
X236752456Y-169556931D03*
D12*
X242039227Y-167481347D03*
D10*
X245814403Y-170880530D03*
D11*
X243171017Y-171918322D03*
D10*
X105157598Y-59498483D03*
D12*
X109988965Y-61068289D03*
D10*
X114820332Y-62638095D03*
D11*
X107150343Y-57475251D03*
X113974455Y-57021825D03*
G36*
X74813858Y-120211245D02*
G01*
X74381235Y-121542724D01*
X73049756Y-121110101D01*
X73482379Y-119778622D01*
X74813858Y-120211245D01*
G37*
D13*
X67892598Y-118698415D03*
D10*
X106414126Y-140198682D03*
D11*
X114369927Y-135662601D03*
X107858213Y-137753460D03*
D12*
X111481751Y-140553045D03*
D10*
X116549376Y-140907408D03*
X175520996Y-160895658D03*
D11*
X176276794Y-163633041D03*
D12*
X171745820Y-164294841D03*
D10*
X167970644Y-167694024D03*
D11*
X173257416Y-169769608D03*
G36*
X254877178Y-118879650D02*
G01*
X254444555Y-117548171D01*
X255776034Y-117115548D01*
X256208657Y-118447027D01*
X254877178Y-118879650D01*
G37*
D13*
X261365815Y-116035341D03*
D10*
X80368297Y-74145021D03*
D11*
X82361042Y-72121789D03*
D12*
X85199664Y-75714827D03*
D10*
X90031031Y-77284633D03*
D11*
X89185154Y-71668363D03*
D16*
X238222566Y-147558083D03*
G36*
X311074766Y-106896756D02*
G01*
X310642143Y-105565277D01*
X311973622Y-105132654D01*
X312406245Y-106464133D01*
X311074766Y-106896756D01*
G37*
D13*
X317563403Y-104052447D03*
D11*
X257062238Y-63752308D03*
X262316543Y-59374367D03*
D10*
X266302033Y-63420831D03*
D12*
X261470666Y-64990637D03*
D10*
X256639299Y-66560443D03*
D12*
X73426115Y-111950078D03*
D10*
X78257482Y-113519884D03*
X68594748Y-110380272D03*
D11*
X70587493Y-108357040D03*
X77411605Y-107903614D03*
G36*
X279338885Y-70870851D02*
G01*
X278906262Y-69539372D01*
X280237741Y-69106749D01*
X280670364Y-70438228D01*
X279338885Y-70870851D01*
G37*
D13*
X285827522Y-68026542D03*
D10*
X295425674Y-62638439D03*
D11*
X301102918Y-55452363D03*
X295848613Y-59830304D03*
D10*
X305088408Y-59498827D03*
D12*
X300257041Y-61068633D03*
D10*
X188426725Y-82681727D03*
X178763991Y-79542115D03*
D11*
X187580848Y-77065457D03*
X180756736Y-77518883D03*
D12*
X183595358Y-81111921D03*
D11*
X278686001Y-139011020D03*
D12*
X277840124Y-144627290D03*
D11*
X273431696Y-143388961D03*
D10*
X282671491Y-143057484D03*
X273008757Y-146197096D03*
D12*
X104102192Y-79185917D03*
D11*
X101263570Y-75592879D03*
X108087682Y-75139453D03*
D10*
X99270825Y-77616111D03*
X108933559Y-80755723D03*
G36*
X305187992Y-88779130D02*
G01*
X304755369Y-87447651D01*
X306086848Y-87015028D01*
X306519471Y-88346507D01*
X305187992Y-88779130D01*
G37*
D13*
X311676629Y-85934821D03*
G36*
X259910023Y-163169537D02*
G01*
X259168136Y-161982270D01*
X260355403Y-161240383D01*
X261097290Y-162427650D01*
X259910023Y-163169537D01*
G37*
X265517818Y-158839973D03*
G36*
X161687338Y-99430545D02*
G01*
X161254715Y-100762024D01*
X159923236Y-100329401D01*
X160355859Y-98997922D01*
X161687338Y-99430545D01*
G37*
X154766078Y-97917715D03*
G36*
X105489936Y-87447081D02*
G01*
X105057313Y-88778560D01*
X103725834Y-88345937D01*
X104158457Y-87014458D01*
X105489936Y-87447081D01*
G37*
X98568676Y-85934251D03*
G36*
X272288393Y-110818763D02*
G01*
X271855770Y-109487284D01*
X273187249Y-109054661D01*
X273619872Y-110386140D01*
X272288393Y-110818763D01*
G37*
X278777030Y-107974454D03*
G36*
X231579189Y-108822914D02*
G01*
X231146566Y-107491435D01*
X232478045Y-107058812D01*
X232910668Y-108390291D01*
X231579189Y-108822914D01*
G37*
X238067826Y-105978605D03*
D11*
X175807300Y-113300710D03*
D10*
X176653177Y-118916980D03*
D12*
X171821810Y-117347174D03*
D10*
X166990443Y-115777368D03*
D11*
X168983188Y-113754136D03*
D10*
X171017034Y-74621330D03*
D12*
X166185667Y-73051524D03*
D11*
X170171157Y-69005060D03*
D10*
X161354300Y-71481718D03*
D11*
X163347045Y-69458486D03*
G36*
X296999207Y-125223731D02*
G01*
X296566584Y-123892252D01*
X297898063Y-123459629D01*
X298330686Y-124791108D01*
X296999207Y-125223731D01*
G37*
D13*
X303487844Y-122379422D03*
D12*
X91086435Y-57597198D03*
D10*
X95917802Y-59167004D03*
D11*
X88247813Y-54004160D03*
D10*
X86255068Y-56027392D03*
D11*
X95071925Y-53550734D03*
D17*
X191536809Y-126407909D03*
X186781527Y-124862824D03*
X184678422Y-139425686D03*
X182300780Y-138653143D03*
G36*
X187698103Y-141458302D02*
G01*
X185795989Y-140840268D01*
X186414023Y-138938154D01*
X188316137Y-139556188D01*
X187698103Y-141458302D01*
G37*
G36*
G01*
X191889341Y-135354736D02*
X191889341Y-135354736D01*
G75*
G02*
X191407812Y-134409681I231763J713292D01*
G01*
X191809534Y-133173307D01*
G75*
G02*
X192754589Y-132691778I713292J-231763D01*
G01*
X192754589Y-132691778D01*
G75*
G02*
X193236118Y-133636833I-231763J-713292D01*
G01*
X192834396Y-134873207D01*
G75*
G02*
X191889341Y-135354736I-713292J231763D01*
G01*
G37*
G36*
G01*
X181237509Y-131893746D02*
X181237509Y-131893746D01*
G75*
G02*
X180755980Y-130948691I231763J713292D01*
G01*
X181157702Y-129712317D01*
G75*
G02*
X182102757Y-129230788I713292J-231763D01*
G01*
X182102757Y-129230788D01*
G75*
G02*
X182584286Y-130175843I-231763J-713292D01*
G01*
X182182564Y-131412217D01*
G75*
G02*
X181237509Y-131893746I-713292J231763D01*
G01*
G37*
X223463590Y-124862823D03*
X218708308Y-126407908D03*
X225566695Y-139425685D03*
X223189054Y-140198227D03*
G36*
X229204411Y-139295182D02*
G01*
X227302297Y-139913216D01*
X226684263Y-138011102D01*
X228586377Y-137393068D01*
X229204411Y-139295182D01*
G37*
G36*
G01*
X218355776Y-135354735D02*
X218355776Y-135354735D01*
G75*
G02*
X217410721Y-134873206I-231763J713292D01*
G01*
X217008999Y-133636832D01*
G75*
G02*
X217490528Y-132691777I713292J231763D01*
G01*
X217490528Y-132691777D01*
G75*
G02*
X218435583Y-133173306I231763J-713292D01*
G01*
X218837305Y-134409680D01*
G75*
G02*
X218355776Y-135354735I-713292J-231763D01*
G01*
G37*
G36*
G01*
X229007608Y-131893745D02*
X229007608Y-131893745D01*
G75*
G02*
X228062553Y-131412216I-231763J713292D01*
G01*
X227660831Y-130175842D01*
G75*
G02*
X228142360Y-129230787I713292J231763D01*
G01*
X228142360Y-129230787D01*
G75*
G02*
X229087415Y-129712316I231763J-713292D01*
G01*
X229489137Y-130948690D01*
G75*
G02*
X229007608Y-131893745I-713292J-231763D01*
G01*
G37*
D16*
X172083724Y-85717541D03*
X172050465Y-147467000D03*
X97768509Y-67847875D03*
X124810771Y-107914546D03*
X79568568Y-123861536D03*
M02*
