%FSLAX45Y45*%
G04 Gerber Fmt 4.5, Leading zero omitted, Abs format (unit mm)*
G04 Created by KiCad (PCBNEW (6.0.2-0)) date 2022-02-19 09:02:35*
%MOMM*%
%LPD*%
G01*
G04 APERTURE LIST*
%TA.AperFunction,Profile*%
%ADD10C,0.099999*%
%TD*%
%TA.AperFunction,Profile*%
%ADD11C,0.100000*%
%TD*%
%ADD12C,0.200000*%
%ADD13C,0.040000*%
%ADD14C,0.080000*%
%ADD15C,0.100000*%
%ADD16C,0.109220*%
%ADD17C,0.130000*%
%ADD18C,0.410000*%
G04 APERTURE END LIST*
D10*
X19536736Y-6339585D02*
X19928690Y-6371445D01*
X32833798Y-4191490D02*
X32859195Y-4216890D01*
X14336450Y-4674709D02*
X14713937Y-4777511D01*
X31078505Y-4145172D02*
X31891224Y-4128079D01*
X27833691Y-15883053D02*
X28265552Y-15756319D01*
D11*
X23964996Y-18553865D02*
X23331656Y-18628849D01*
D10*
X14686880Y-16690773D02*
X15057721Y-17020973D01*
X25382575Y-5116544D02*
X25595538Y-5032484D01*
X32904913Y-4277850D02*
X32920157Y-4308330D01*
X16267203Y-5393642D02*
X16667279Y-5573523D01*
D11*
X20512255Y-18654249D02*
X19394656Y-18654249D01*
D10*
X27376489Y-16098953D02*
X27833691Y-15883053D01*
X30627692Y-15375053D02*
X30945209Y-15352584D01*
X31891224Y-4128079D02*
X32386660Y-4122621D01*
X29853009Y-15438785D02*
X29268790Y-15527453D01*
X30627692Y-15375053D02*
X29853009Y-15438785D01*
X24357232Y-5573523D02*
X24757309Y-5393642D01*
X28669921Y-4309742D02*
X29290406Y-4248864D01*
D11*
X7532961Y-14876694D02*
X8879161Y-15232294D01*
D10*
X18072436Y-6069846D02*
X18450387Y-6159956D01*
D11*
X5041318Y-13735385D02*
G75*
G03*
X5248467Y-14134416I299392J-97861D01*
G01*
D10*
X13302730Y-4446177D02*
X13719220Y-4524991D01*
X24731932Y-18241253D02*
X24955596Y-18071266D01*
X32859195Y-4216890D02*
X32884598Y-4247370D01*
X23768643Y-5811150D02*
X23994299Y-5726625D01*
X9946006Y-4145172D02*
X10529812Y-4166579D01*
X15641936Y-5116544D02*
X15892043Y-5227383D01*
X8368515Y-4120369D02*
X8637852Y-4122621D01*
X10529812Y-4166579D02*
X11125845Y-4201143D01*
D11*
X32145350Y-15232294D02*
X33491550Y-14876694D01*
D10*
X18765813Y-6222357D02*
X19157387Y-6287550D01*
X26310575Y-4777511D02*
X26688061Y-4674709D01*
X21097090Y-6371444D02*
X21487775Y-6339585D01*
X16754714Y-18477667D02*
X17059515Y-18553865D01*
X24269798Y-18477666D02*
X24533958Y-18358286D01*
X11755722Y-15527453D02*
X11171503Y-15438785D01*
X11734106Y-4248864D02*
X12354591Y-4309742D01*
X32757596Y-4145770D02*
X32798236Y-4166090D01*
X10079302Y-15352585D02*
X10396820Y-15375053D01*
X15216011Y-4948423D02*
X15428974Y-5032484D01*
X13719220Y-4524991D02*
X14059564Y-4601013D01*
X22952076Y-6069846D02*
X23253879Y-5982528D01*
X21867125Y-6287550D02*
X22258698Y-6222357D01*
D11*
X32920157Y-4308330D02*
X35274867Y-11555380D01*
X17692856Y-18628850D02*
X17059515Y-18553865D01*
D10*
X17255868Y-5811151D02*
X17531822Y-5910230D01*
X14402402Y-16507893D02*
X14686880Y-16690773D01*
X14402402Y-16507893D02*
X13648111Y-16098787D01*
X29898667Y-4201143D02*
X30494700Y-4166579D01*
X8104354Y-4308329D02*
X8119598Y-4277850D01*
X8266916Y-4145770D02*
X8307556Y-4130530D01*
X16490554Y-18358286D02*
X16754714Y-18477667D01*
X23253879Y-5982528D02*
X23492690Y-5910229D01*
D11*
X16068915Y-18071265D02*
X15362523Y-17292752D01*
D10*
X24757309Y-5393642D02*
X25132468Y-5227383D01*
X19157387Y-6287550D02*
X19536736Y-6339585D01*
D11*
X31703209Y-15296585D02*
X32145350Y-15232294D01*
D10*
X29290406Y-4248864D02*
X29898667Y-4201143D01*
X25132468Y-5227383D02*
X25382575Y-5116544D01*
X8190713Y-4191490D02*
X8226275Y-4166090D01*
X29268790Y-15527453D02*
X28265552Y-15756319D01*
X32655997Y-4120370D02*
X32716956Y-4130530D01*
X11125845Y-4201143D02*
X11734106Y-4248864D01*
X8165317Y-4216890D02*
X8190713Y-4191490D01*
D11*
X21629856Y-18654249D02*
X20512256Y-18654250D01*
D10*
X28391639Y-4345363D02*
X28669921Y-4309742D01*
X15057721Y-17020973D02*
X15362523Y-17292752D01*
X25966791Y-17020973D02*
X26337631Y-16690773D01*
D11*
X18505655Y-18654249D02*
X17692856Y-18628850D01*
D10*
X32798236Y-4166090D02*
X32833798Y-4191490D01*
X9133287Y-4128079D02*
X9946006Y-4145172D01*
X12758960Y-15756319D02*
X11755722Y-15527453D01*
D11*
X23331656Y-18628849D02*
X22518856Y-18654250D01*
D10*
X12758960Y-15756319D02*
X13190820Y-15883053D01*
D11*
X35776045Y-14134416D02*
G75*
G03*
X35983193Y-13735385I-92245J301170D01*
G01*
D10*
X23492690Y-5910229D02*
X23768643Y-5811150D01*
X15892043Y-5227383D02*
X16267203Y-5393642D01*
D11*
X5749645Y-11555380D02*
X8104354Y-4308329D01*
X30945209Y-15352584D02*
X31703209Y-15296585D01*
X5248467Y-14134416D02*
X5721199Y-14288016D01*
X9321303Y-15296585D02*
X10079302Y-15352585D01*
X33491550Y-14876694D02*
X35303313Y-14288016D01*
D10*
X26337631Y-16690773D02*
X26622110Y-16507893D01*
X18450387Y-6159956D02*
X18765813Y-6222357D01*
X22574124Y-6159956D02*
X22952076Y-6069846D01*
X17531822Y-5910230D02*
X17770632Y-5982528D01*
X23964996Y-18553865D02*
X24269798Y-18477666D01*
X17770632Y-5982528D02*
X18072436Y-6069846D01*
X8637852Y-4122621D02*
X9133287Y-4128079D01*
X27376489Y-16098953D02*
X26622110Y-16507893D01*
X8119598Y-4277850D02*
X8139914Y-4247369D01*
X11171503Y-15438785D02*
X10396820Y-15375053D01*
D11*
X22518856Y-18654250D02*
X21629856Y-18654249D01*
D10*
X25661989Y-17292752D02*
X25966791Y-17020973D01*
X32386660Y-4122621D02*
X32655997Y-4120370D01*
X32884598Y-4247370D02*
X32904913Y-4277850D01*
X17030213Y-5726625D02*
X17255868Y-5811151D01*
X23994299Y-5726625D02*
X24357232Y-5573523D01*
D11*
X35274867Y-11555380D02*
X35983193Y-13735385D01*
D10*
X14059564Y-4601013D02*
X14336450Y-4674709D01*
X22258698Y-6222357D02*
X22574124Y-6159956D01*
X16068915Y-18071265D02*
X16292580Y-18241253D01*
X32716956Y-4130530D02*
X32757596Y-4145770D01*
D11*
X19394656Y-18654249D02*
X18505655Y-18654249D01*
X35303313Y-14288016D02*
X35776045Y-14134416D01*
D10*
X25808500Y-4948424D02*
X26310575Y-4777511D01*
X12999531Y-4396933D02*
X13302730Y-4446177D01*
D11*
X5721199Y-14288016D02*
X7532961Y-14876694D01*
D10*
X8307556Y-4130530D02*
X8368515Y-4120369D01*
X14713937Y-4777511D02*
X15216011Y-4948423D01*
X12354591Y-4309742D02*
X12632873Y-4345363D01*
X24533958Y-18358286D02*
X24731932Y-18241253D01*
X8226275Y-4166090D02*
X8266916Y-4145770D01*
X20512890Y-6396845D02*
X21097090Y-6371444D01*
X19928690Y-6371445D02*
X20512890Y-6396845D01*
X13190820Y-15883053D02*
X13648111Y-16098787D01*
D11*
X25661989Y-17292752D02*
X24955596Y-18071266D01*
D10*
X21487775Y-6339585D02*
X21867125Y-6287550D01*
X28024981Y-4396933D02*
X28391639Y-4345363D01*
X26964947Y-4601014D02*
X27305291Y-4524991D01*
X27305291Y-4524991D02*
X27721781Y-4446177D01*
X16292580Y-18241253D02*
X16490554Y-18358286D01*
X12632873Y-4345363D02*
X12999531Y-4396933D01*
X25595538Y-5032484D02*
X25808500Y-4948424D01*
D11*
X8879161Y-15232294D02*
X9321303Y-15296585D01*
D10*
X16667279Y-5573523D02*
X17030213Y-5726625D01*
X30494700Y-4166579D02*
X31078505Y-4145172D01*
X8139914Y-4247369D02*
X8165317Y-4216890D01*
X15428974Y-5032484D02*
X15641936Y-5116544D01*
X26688061Y-4674709D02*
X26964947Y-4601014D01*
X27721781Y-4446177D02*
X28024981Y-4396933D01*
D11*
X5041318Y-13735385D02*
X5749645Y-11555380D01*
D12*
D13*
X10332890Y-13441219D02*
X10372890Y-13481219D01*
X10372890Y-13441219D02*
X10332890Y-13481219D01*
X12634765Y-13679345D02*
X12674765Y-13719345D01*
X12674765Y-13679345D02*
X12634765Y-13719345D01*
X12942191Y-13435209D02*
X12982191Y-13475209D01*
X12982191Y-13435209D02*
X12942191Y-13475209D01*
X19441554Y-7781644D02*
X19481554Y-7821644D01*
X19481554Y-7781644D02*
X19441554Y-7821644D01*
X19490611Y-7630664D02*
X19530611Y-7670664D01*
X19530611Y-7630664D02*
X19490611Y-7670664D01*
X19539667Y-7479684D02*
X19579667Y-7519684D01*
X19579667Y-7479684D02*
X19539667Y-7519684D01*
X19588723Y-7328703D02*
X19628723Y-7368703D01*
X19628723Y-7328703D02*
X19588723Y-7368703D01*
X19637780Y-7177723D02*
X19677780Y-7217723D01*
X19677780Y-7177723D02*
X19637780Y-7217723D01*
X19686837Y-7026743D02*
X19726837Y-7066743D01*
X19726837Y-7026743D02*
X19686837Y-7066743D01*
X20413515Y-14076220D02*
X20453515Y-14116220D01*
X20453515Y-14076220D02*
X20413515Y-14116220D01*
X24620390Y-15584345D02*
X24660390Y-15624345D01*
X24660390Y-15584345D02*
X24620390Y-15624345D01*
X25969765Y-13123720D02*
X26009765Y-13163720D01*
X26009765Y-13123720D02*
X25969765Y-13163720D01*
D14*
X6177790Y-13874859D02*
G75*
G03*
X6177790Y-13874859I-40000J0D01*
G01*
X6781711Y-14071085D02*
G75*
G03*
X6781711Y-14071085I-40000J0D01*
G01*
X6829260Y-11869841D02*
G75*
G03*
X6829260Y-11869841I-40000J0D01*
G01*
X7417937Y-10058079D02*
G75*
G03*
X7417937Y-10058079I-40000J0D01*
G01*
X7433181Y-12066067D02*
G75*
G03*
X7433181Y-12066067I-40000J0D01*
G01*
X8006615Y-8246316D02*
G75*
G03*
X8006615Y-8246316I-40000J0D01*
G01*
X8021858Y-10254305D02*
G75*
G03*
X8021858Y-10254305I-40000J0D01*
G01*
X8595292Y-6434553D02*
G75*
G03*
X8595292Y-6434553I-40000J0D01*
G01*
X8610536Y-8442542D02*
G75*
G03*
X8610536Y-8442542I-40000J0D01*
G01*
X8719513Y-12216950D02*
G75*
G03*
X8719513Y-12216950I-40000J0D01*
G01*
X9199213Y-6630779D02*
G75*
G03*
X9199213Y-6630779I-40000J0D01*
G01*
X9308190Y-10405188D02*
G75*
G03*
X9308190Y-10405188I-40000J0D01*
G01*
X9323434Y-12413176D02*
G75*
G03*
X9323434Y-12413176I-40000J0D01*
G01*
X9896868Y-8593425D02*
G75*
G03*
X9896868Y-8593425I-40000J0D01*
G01*
X9912111Y-10601414D02*
G75*
G03*
X9912111Y-10601414I-40000J0D01*
G01*
X10485545Y-6781662D02*
G75*
G03*
X10485545Y-6781662I-40000J0D01*
G01*
X10500789Y-8789651D02*
G75*
G03*
X10500789Y-8789651I-40000J0D01*
G01*
X10715728Y-12237942D02*
G75*
G03*
X10715728Y-12237942I-40000J0D01*
G01*
X10814750Y-14843977D02*
G75*
G03*
X10814750Y-14843977I-40000J0D01*
G01*
X11089466Y-6977888D02*
G75*
G03*
X11089466Y-6977888I-40000J0D01*
G01*
X11304405Y-10426180D02*
G75*
G03*
X11304405Y-10426180I-40000J0D01*
G01*
X11319649Y-12434168D02*
G75*
G03*
X11319649Y-12434168I-40000J0D01*
G01*
X11448204Y-14888272D02*
G75*
G03*
X11448204Y-14888272I-40000J0D01*
G01*
X11893082Y-8614417D02*
G75*
G03*
X11893082Y-8614417I-40000J0D01*
G01*
X11908326Y-10622406D02*
G75*
G03*
X11908326Y-10622406I-40000J0D01*
G01*
X12481760Y-6802654D02*
G75*
G03*
X12481760Y-6802654I-40000J0D01*
G01*
X12497003Y-8810643D02*
G75*
G03*
X12497003Y-8810643I-40000J0D01*
G01*
X12598131Y-12609208D02*
G75*
G03*
X12598131Y-12609208I-40000J0D01*
G01*
X12697778Y-15128020D02*
G75*
G03*
X12697778Y-15128020I-40000J0D01*
G01*
X13085681Y-6998880D02*
G75*
G03*
X13085681Y-6998880I-40000J0D01*
G01*
X13186809Y-10797445D02*
G75*
G03*
X13186809Y-10797445I-40000J0D01*
G01*
X13202052Y-12805434D02*
G75*
G03*
X13202052Y-12805434I-40000J0D01*
G01*
X13301699Y-15324246D02*
G75*
G03*
X13301699Y-15324246I-40000J0D01*
G01*
X13775486Y-8985683D02*
G75*
G03*
X13775486Y-8985683I-40000J0D01*
G01*
X13790730Y-10993671D02*
G75*
G03*
X13790730Y-10993671I-40000J0D01*
G01*
X14339253Y-13415297D02*
G75*
G03*
X14339253Y-13415297I-40000J0D01*
G01*
X14364164Y-7173920D02*
G75*
G03*
X14364164Y-7173920I-40000J0D01*
G01*
X14379407Y-9181909D02*
G75*
G03*
X14379407Y-9181909I-40000J0D01*
G01*
X14512730Y-15883997D02*
G75*
G03*
X14512730Y-15883997I-40000J0D01*
G01*
X14927930Y-11603534D02*
G75*
G03*
X14927930Y-11603534I-40000J0D01*
G01*
X14943174Y-13611522D02*
G75*
G03*
X14943174Y-13611522I-40000J0D01*
G01*
X14968085Y-7370146D02*
G75*
G03*
X14968085Y-7370146I-40000J0D01*
G01*
X15051241Y-16220496D02*
G75*
G03*
X15051241Y-16220496I-40000J0D01*
G01*
X15516608Y-9791772D02*
G75*
G03*
X15516608Y-9791772I-40000J0D01*
G01*
X15531851Y-11799760D02*
G75*
G03*
X15531851Y-11799760I-40000J0D01*
G01*
X16080374Y-14221386D02*
G75*
G03*
X16080374Y-14221386I-40000J0D01*
G01*
X16105285Y-7980009D02*
G75*
G03*
X16105285Y-7980009I-40000J0D01*
G01*
X16120529Y-9987997D02*
G75*
G03*
X16120529Y-9987997I-40000J0D01*
G01*
X16669052Y-12409623D02*
G75*
G03*
X16669052Y-12409623I-40000J0D01*
G01*
X16684295Y-14417612D02*
G75*
G03*
X16684295Y-14417612I-40000J0D01*
G01*
X16709206Y-8176235D02*
G75*
G03*
X16709206Y-8176235I-40000J0D01*
G01*
X17257729Y-10597861D02*
G75*
G03*
X17257729Y-10597861I-40000J0D01*
G01*
X17272973Y-12605849D02*
G75*
G03*
X17272973Y-12605849I-40000J0D01*
G01*
X17715981Y-17071753D02*
G75*
G03*
X17715981Y-17071753I-40000J0D01*
G01*
X17846425Y-8786041D02*
G75*
G03*
X17846425Y-8786041I-40000J0D01*
G01*
X17861650Y-10794086D02*
G75*
G03*
X17861650Y-10794086I-40000J0D01*
G01*
X18187878Y-16646855D02*
G75*
G03*
X18187878Y-16646855I-40000J0D01*
G01*
X18450346Y-8982267D02*
G75*
G03*
X18450346Y-8982267I-40000J0D01*
G01*
X19373770Y-14103007D02*
G75*
G03*
X19373770Y-14103007I-40000J0D01*
G01*
X19569996Y-13499087D02*
G75*
G03*
X19569996Y-13499087I-40000J0D01*
G01*
X21534516Y-13499086D02*
G75*
G03*
X21534516Y-13499086I-40000J0D01*
G01*
X21730741Y-14103007D02*
G75*
G03*
X21730741Y-14103007I-40000J0D01*
G01*
X22654185Y-8982324D02*
G75*
G03*
X22654185Y-8982324I-40000J0D01*
G01*
X22916704Y-16646832D02*
G75*
G03*
X22916704Y-16646832I-40000J0D01*
G01*
X23242862Y-10794086D02*
G75*
G03*
X23242862Y-10794086I-40000J0D01*
G01*
X23258106Y-8786098D02*
G75*
G03*
X23258106Y-8786098I-40000J0D01*
G01*
X23388601Y-17071730D02*
G75*
G03*
X23388601Y-17071730I-40000J0D01*
G01*
X23831539Y-12605849D02*
G75*
G03*
X23831539Y-12605849I-40000J0D01*
G01*
X23846783Y-10597861D02*
G75*
G03*
X23846783Y-10597861I-40000J0D01*
G01*
X24395306Y-8176235D02*
G75*
G03*
X24395306Y-8176235I-40000J0D01*
G01*
X24420217Y-14417612D02*
G75*
G03*
X24420217Y-14417612I-40000J0D01*
G01*
X24435460Y-12409623D02*
G75*
G03*
X24435460Y-12409623I-40000J0D01*
G01*
X24983983Y-9987997D02*
G75*
G03*
X24983983Y-9987997I-40000J0D01*
G01*
X24999227Y-7980009D02*
G75*
G03*
X24999227Y-7980009I-40000J0D01*
G01*
X25024137Y-14221386D02*
G75*
G03*
X25024137Y-14221386I-40000J0D01*
G01*
X25572661Y-11799760D02*
G75*
G03*
X25572661Y-11799760I-40000J0D01*
G01*
X25587904Y-9791772D02*
G75*
G03*
X25587904Y-9791772I-40000J0D01*
G01*
X26053271Y-16220496D02*
G75*
G03*
X26053271Y-16220496I-40000J0D01*
G01*
X26136427Y-7370146D02*
G75*
G03*
X26136427Y-7370146I-40000J0D01*
G01*
X26161338Y-13611523D02*
G75*
G03*
X26161338Y-13611523I-40000J0D01*
G01*
X26176581Y-11603534D02*
G75*
G03*
X26176581Y-11603534I-40000J0D01*
G01*
X26591782Y-15883997D02*
G75*
G03*
X26591782Y-15883997I-40000J0D01*
G01*
X26725105Y-9181908D02*
G75*
G03*
X26725105Y-9181908I-40000J0D01*
G01*
X26740348Y-7173920D02*
G75*
G03*
X26740348Y-7173920I-40000J0D01*
G01*
X26765259Y-13415297D02*
G75*
G03*
X26765259Y-13415297I-40000J0D01*
G01*
X27313782Y-10993671D02*
G75*
G03*
X27313782Y-10993671I-40000J0D01*
G01*
X27329026Y-8985683D02*
G75*
G03*
X27329026Y-8985683I-40000J0D01*
G01*
X27802813Y-15324246D02*
G75*
G03*
X27802813Y-15324246I-40000J0D01*
G01*
X27902460Y-12805434D02*
G75*
G03*
X27902460Y-12805434I-40000J0D01*
G01*
X27917703Y-10797445D02*
G75*
G03*
X27917703Y-10797445I-40000J0D01*
G01*
X28018831Y-6998880D02*
G75*
G03*
X28018831Y-6998880I-40000J0D01*
G01*
X28406734Y-15128020D02*
G75*
G03*
X28406734Y-15128020I-40000J0D01*
G01*
X28506381Y-12609208D02*
G75*
G03*
X28506381Y-12609208I-40000J0D01*
G01*
X28607509Y-8810643D02*
G75*
G03*
X28607509Y-8810643I-40000J0D01*
G01*
X28622752Y-6802654D02*
G75*
G03*
X28622752Y-6802654I-40000J0D01*
G01*
X29196186Y-10622405D02*
G75*
G03*
X29196186Y-10622405I-40000J0D01*
G01*
X29211430Y-8614417D02*
G75*
G03*
X29211430Y-8614417I-40000J0D01*
G01*
X29656670Y-14889384D02*
G75*
G03*
X29656670Y-14889384I-40000J0D01*
G01*
X29784863Y-12434168D02*
G75*
G03*
X29784863Y-12434168I-40000J0D01*
G01*
X29800107Y-10426180D02*
G75*
G03*
X29800107Y-10426180I-40000J0D01*
G01*
X30015065Y-6977945D02*
G75*
G03*
X30015065Y-6977945I-40000J0D01*
G01*
X30290123Y-14845089D02*
G75*
G03*
X30290123Y-14845089I-40000J0D01*
G01*
X30388784Y-12237942D02*
G75*
G03*
X30388784Y-12237942I-40000J0D01*
G01*
X30603742Y-8789708D02*
G75*
G03*
X30603742Y-8789708I-40000J0D01*
G01*
X30618986Y-6781719D02*
G75*
G03*
X30618986Y-6781719I-40000J0D01*
G01*
X31192419Y-10601471D02*
G75*
G03*
X31192419Y-10601471I-40000J0D01*
G01*
X31207663Y-8593482D02*
G75*
G03*
X31207663Y-8593482I-40000J0D01*
G01*
X31781167Y-12413210D02*
G75*
G03*
X31781167Y-12413210I-40000J0D01*
G01*
X31796340Y-10405245D02*
G75*
G03*
X31796340Y-10405245I-40000J0D01*
G01*
X31905318Y-6630836D02*
G75*
G03*
X31905318Y-6630836I-40000J0D01*
G01*
X32385088Y-12216985D02*
G75*
G03*
X32385088Y-12216985I-40000J0D01*
G01*
X32493995Y-8442599D02*
G75*
G03*
X32493995Y-8442599I-40000J0D01*
G01*
X32509239Y-6434610D02*
G75*
G03*
X32509239Y-6434610I-40000J0D01*
G01*
X33082672Y-10254362D02*
G75*
G03*
X33082672Y-10254362I-40000J0D01*
G01*
X33097916Y-8246373D02*
G75*
G03*
X33097916Y-8246373I-40000J0D01*
G01*
X33671350Y-12066124D02*
G75*
G03*
X33671350Y-12066124I-40000J0D01*
G01*
X33686593Y-10058136D02*
G75*
G03*
X33686593Y-10058136I-40000J0D01*
G01*
X34275271Y-11869898D02*
G75*
G03*
X34275271Y-11869898I-40000J0D01*
G01*
X34322819Y-14071142D02*
G75*
G03*
X34322819Y-14071142I-40000J0D01*
G01*
X34926740Y-13874916D02*
G75*
G03*
X34926740Y-13874916I-40000J0D01*
G01*
D15*
X18230078Y-13815314D02*
X18230078Y-13915314D01*
X18180078Y-13865314D02*
X18280078Y-13865314D01*
X18467842Y-13892569D02*
X18467842Y-13992569D01*
X18417842Y-13942569D02*
X18517842Y-13942569D01*
X18678153Y-12436282D02*
X18678153Y-12536282D01*
X18628153Y-12486282D02*
X18728153Y-12486282D01*
X18705606Y-13969823D02*
X18705606Y-14069823D01*
X18655606Y-14019823D02*
X18755606Y-14019823D01*
X19153681Y-12590791D02*
X19153681Y-12690791D01*
X19103681Y-12640791D02*
X19203681Y-12640791D01*
X21870831Y-12590791D02*
X21870831Y-12690791D01*
X21820831Y-12640791D02*
X21920831Y-12640791D01*
X22318905Y-13969823D02*
X22318905Y-14069823D01*
X22268905Y-14019823D02*
X22368905Y-14019823D01*
X22346359Y-12436282D02*
X22346359Y-12536282D01*
X22296359Y-12486282D02*
X22396359Y-12486282D01*
X22556669Y-13892568D02*
X22556669Y-13992568D01*
X22506669Y-13942568D02*
X22606669Y-13942568D01*
X22794434Y-13815314D02*
X22794434Y-13915314D01*
X22744434Y-13865314D02*
X22844434Y-13865314D01*
D16*
X19788872Y-8998765D02*
X19788872Y-8921534D01*
X19711641Y-8921534D01*
X19711641Y-8998765D01*
X19788872Y-8998765D01*
X19788872Y-9252765D02*
X19788872Y-9175534D01*
X19711641Y-9175534D01*
X19711641Y-9252765D01*
X19788872Y-9252765D01*
X19788872Y-9506765D02*
X19788872Y-9429534D01*
X19711641Y-9429534D01*
X19711641Y-9506765D01*
X19788872Y-9506765D01*
X19788872Y-9760765D02*
X19788872Y-9683534D01*
X19711641Y-9683534D01*
X19711641Y-9760765D01*
X19788872Y-9760765D01*
X19788872Y-10014765D02*
X19788872Y-9937534D01*
X19711641Y-9937534D01*
X19711641Y-10014765D01*
X19788872Y-10014765D01*
X19788872Y-10268765D02*
X19788872Y-10191534D01*
X19711641Y-10191534D01*
X19711641Y-10268765D01*
X19788872Y-10268765D01*
X19788872Y-10522765D02*
X19788872Y-10445534D01*
X19711641Y-10445534D01*
X19711641Y-10522765D01*
X19788872Y-10522765D01*
X19788872Y-10776765D02*
X19788872Y-10699534D01*
X19711641Y-10699534D01*
X19711641Y-10776765D01*
X19788872Y-10776765D01*
X19788872Y-11030765D02*
X19788872Y-10953534D01*
X19711641Y-10953534D01*
X19711641Y-11030765D01*
X19788872Y-11030765D01*
X19788872Y-11284765D02*
X19788872Y-11207534D01*
X19711641Y-11207534D01*
X19711641Y-11284765D01*
X19788872Y-11284765D01*
X19788872Y-11538765D02*
X19788872Y-11461534D01*
X19711641Y-11461534D01*
X19711641Y-11538765D01*
X19788872Y-11538765D01*
X19788872Y-11792765D02*
X19788872Y-11715534D01*
X19711641Y-11715534D01*
X19711641Y-11792765D01*
X19788872Y-11792765D01*
X20042872Y-11792765D02*
X20042872Y-11715534D01*
X19965641Y-11715534D01*
X19965641Y-11792765D01*
X20042872Y-11792765D01*
X20296872Y-11792765D02*
X20296872Y-11715534D01*
X20219641Y-11715534D01*
X20219641Y-11792765D01*
X20296872Y-11792765D01*
X20550872Y-11792765D02*
X20550872Y-11715534D01*
X20473641Y-11715534D01*
X20473641Y-11792765D01*
X20550872Y-11792765D01*
X20804872Y-11792765D02*
X20804872Y-11715534D01*
X20727641Y-11715534D01*
X20727641Y-11792765D01*
X20804872Y-11792765D01*
X21058872Y-11792765D02*
X21058872Y-11715534D01*
X20981641Y-11715534D01*
X20981641Y-11792765D01*
X21058872Y-11792765D01*
X21312872Y-8998765D02*
X21312872Y-8921534D01*
X21235641Y-8921534D01*
X21235641Y-8998765D01*
X21312872Y-8998765D01*
X21312872Y-9252765D02*
X21312872Y-9175534D01*
X21235641Y-9175534D01*
X21235641Y-9252765D01*
X21312872Y-9252765D01*
X21312872Y-9506765D02*
X21312872Y-9429534D01*
X21235641Y-9429534D01*
X21235641Y-9506765D01*
X21312872Y-9506765D01*
X21312872Y-9760765D02*
X21312872Y-9683534D01*
X21235641Y-9683534D01*
X21235641Y-9760765D01*
X21312872Y-9760765D01*
X21312872Y-10014765D02*
X21312872Y-9937534D01*
X21235641Y-9937534D01*
X21235641Y-10014765D01*
X21312872Y-10014765D01*
X21312872Y-10268765D02*
X21312872Y-10191534D01*
X21235641Y-10191534D01*
X21235641Y-10268765D01*
X21312872Y-10268765D01*
X21312872Y-10522765D02*
X21312872Y-10445534D01*
X21235641Y-10445534D01*
X21235641Y-10522765D01*
X21312872Y-10522765D01*
X21312872Y-10776765D02*
X21312872Y-10699534D01*
X21235641Y-10699534D01*
X21235641Y-10776765D01*
X21312872Y-10776765D01*
X21312872Y-11030765D02*
X21312872Y-10953534D01*
X21235641Y-10953534D01*
X21235641Y-11030765D01*
X21312872Y-11030765D01*
X21312872Y-11284765D02*
X21312872Y-11207534D01*
X21235641Y-11207534D01*
X21235641Y-11284765D01*
X21312872Y-11284765D01*
X21312872Y-11538765D02*
X21312872Y-11461534D01*
X21235641Y-11461534D01*
X21235641Y-11538765D01*
X21312872Y-11538765D01*
X21312872Y-11792765D02*
X21312872Y-11715534D01*
X21235641Y-11715534D01*
X21235641Y-11792765D01*
X21312872Y-11792765D01*
D17*
X21540428Y-6586451D02*
X21605428Y-6521451D01*
X21540428Y-6456451D01*
X21475428Y-6521451D01*
X21540428Y-6586451D01*
X22184102Y-6495988D02*
X22249102Y-6430988D01*
X22184102Y-6365988D01*
X22119102Y-6430988D01*
X22184102Y-6495988D01*
D18*
X7751857Y-12181154D02*
X8161857Y-12591154D01*
X8161857Y-12181154D02*
X7751857Y-12591154D01*
X8161857Y-12386154D02*
G75*
G03*
X8161857Y-12386154I-205000J0D01*
G01*
X9571851Y-6579787D02*
X9981851Y-6989787D01*
X9981851Y-6579787D02*
X9571851Y-6989787D01*
X9981851Y-6784787D02*
G75*
G03*
X9981851Y-6784787I-205000J0D01*
G01*
X12276077Y-10586455D02*
X12686077Y-10996455D01*
X12686077Y-10586455D02*
X12276077Y-10996455D01*
X12686077Y-10791455D02*
G75*
G03*
X12686077Y-10791455I-205000J0D01*
G01*
X17000047Y-14541700D02*
X17410047Y-14951700D01*
X17410047Y-14541700D02*
X17000047Y-14951700D01*
X17410047Y-14746700D02*
G75*
G03*
X17410047Y-14746700I-205000J0D01*
G01*
X17003372Y-8366754D02*
X17413372Y-8776754D01*
X17413372Y-8366754D02*
X17003372Y-8776754D01*
X17413372Y-8571754D02*
G75*
G03*
X17413372Y-8571754I-205000J0D01*
G01*
X23613931Y-8375863D02*
X24023931Y-8785863D01*
X24023931Y-8375863D02*
X23613931Y-8785863D01*
X24023931Y-8580863D02*
G75*
G03*
X24023931Y-8580863I-205000J0D01*
G01*
X23617257Y-14550808D02*
X24027257Y-14960808D01*
X24027257Y-14550808D02*
X23617257Y-14960808D01*
X24027257Y-14755808D02*
G75*
G03*
X24027257Y-14755808I-205000J0D01*
G01*
X28341226Y-10595563D02*
X28751226Y-11005563D01*
X28751226Y-10595563D02*
X28341226Y-11005563D01*
X28751226Y-10800563D02*
G75*
G03*
X28751226Y-10800563I-205000J0D01*
G01*
X31045452Y-6588896D02*
X31455452Y-6998896D01*
X31455452Y-6588896D02*
X31045452Y-6998896D01*
X31455452Y-6793896D02*
G75*
G03*
X31455452Y-6793896I-205000J0D01*
G01*
X32865446Y-12190262D02*
X33275446Y-12600262D01*
X33275446Y-12190262D02*
X32865446Y-12600262D01*
X33275446Y-12395262D02*
G75*
G03*
X33275446Y-12395262I-205000J0D01*
G01*
D12*
X5278350Y-18969726D02*
X5278350Y-18769726D01*
X5325969Y-18769726D01*
X5354540Y-18779250D01*
X5373588Y-18798297D01*
X5383111Y-18817345D01*
X5392635Y-18855440D01*
X5392635Y-18884011D01*
X5383111Y-18922107D01*
X5373588Y-18941154D01*
X5354540Y-18960202D01*
X5325969Y-18969726D01*
X5278350Y-18969726D01*
X5478350Y-18969726D02*
X5478350Y-18836392D01*
X5478350Y-18874488D02*
X5487873Y-18855440D01*
X5497397Y-18845916D01*
X5516445Y-18836392D01*
X5535492Y-18836392D01*
X5602159Y-18969726D02*
X5602159Y-18836392D01*
X5602159Y-18769726D02*
X5592635Y-18779250D01*
X5602159Y-18788773D01*
X5611683Y-18779250D01*
X5602159Y-18769726D01*
X5602159Y-18788773D01*
X5725968Y-18969726D02*
X5706921Y-18960202D01*
X5697397Y-18941154D01*
X5697397Y-18769726D01*
X5830730Y-18969726D02*
X5811683Y-18960202D01*
X5802159Y-18941154D01*
X5802159Y-18769726D01*
X6059302Y-18969726D02*
X6059302Y-18769726D01*
X6125968Y-18912583D01*
X6192635Y-18769726D01*
X6192635Y-18969726D01*
X6373588Y-18969726D02*
X6373588Y-18864964D01*
X6364064Y-18845916D01*
X6345016Y-18836392D01*
X6306921Y-18836392D01*
X6287873Y-18845916D01*
X6373588Y-18960202D02*
X6354540Y-18969726D01*
X6306921Y-18969726D01*
X6287873Y-18960202D01*
X6278349Y-18941154D01*
X6278349Y-18922107D01*
X6287873Y-18903059D01*
X6306921Y-18893535D01*
X6354540Y-18893535D01*
X6373588Y-18884011D01*
X6468826Y-18836392D02*
X6468826Y-19036392D01*
X6468826Y-18845916D02*
X6487873Y-18836392D01*
X6525968Y-18836392D01*
X6545016Y-18845916D01*
X6554540Y-18855440D01*
X6564064Y-18874488D01*
X6564064Y-18931630D01*
X6554540Y-18950678D01*
X6545016Y-18960202D01*
X6525968Y-18969726D01*
X6487873Y-18969726D01*
X6468826Y-18960202D01*
X6649778Y-18950678D02*
X6659302Y-18960202D01*
X6649778Y-18969726D01*
X6640254Y-18960202D01*
X6649778Y-18950678D01*
X6649778Y-18969726D01*
X6649778Y-18845916D02*
X6659302Y-18855440D01*
X6649778Y-18864964D01*
X6640254Y-18855440D01*
X6649778Y-18845916D01*
X6649778Y-18864964D01*
D13*
X4980731Y-19279250D02*
X5020731Y-19319250D01*
X5020731Y-19279250D02*
X4980731Y-19319250D01*
D12*
X5316445Y-19189726D02*
X5335492Y-19189726D01*
X5354540Y-19199250D01*
X5364064Y-19208773D01*
X5373588Y-19227821D01*
X5383111Y-19265916D01*
X5383111Y-19313535D01*
X5373588Y-19351630D01*
X5364064Y-19370678D01*
X5354540Y-19380202D01*
X5335492Y-19389726D01*
X5316445Y-19389726D01*
X5297397Y-19380202D01*
X5287873Y-19370678D01*
X5278350Y-19351630D01*
X5268826Y-19313535D01*
X5268826Y-19265916D01*
X5278350Y-19227821D01*
X5287873Y-19208773D01*
X5297397Y-19199250D01*
X5316445Y-19189726D01*
X5468826Y-19370678D02*
X5478350Y-19380202D01*
X5468826Y-19389726D01*
X5459302Y-19380202D01*
X5468826Y-19370678D01*
X5468826Y-19389726D01*
X5649778Y-19256392D02*
X5649778Y-19389726D01*
X5602159Y-19180202D02*
X5554540Y-19323059D01*
X5678349Y-19323059D01*
X5792635Y-19189726D02*
X5811683Y-19189726D01*
X5830730Y-19199250D01*
X5840254Y-19208773D01*
X5849778Y-19227821D01*
X5859302Y-19265916D01*
X5859302Y-19313535D01*
X5849778Y-19351630D01*
X5840254Y-19370678D01*
X5830730Y-19380202D01*
X5811683Y-19389726D01*
X5792635Y-19389726D01*
X5773588Y-19380202D01*
X5764064Y-19370678D01*
X5754540Y-19351630D01*
X5745016Y-19313535D01*
X5745016Y-19265916D01*
X5754540Y-19227821D01*
X5764064Y-19208773D01*
X5773588Y-19199250D01*
X5792635Y-19189726D01*
X5983111Y-19189726D02*
X6002159Y-19189726D01*
X6021207Y-19199250D01*
X6030730Y-19208773D01*
X6040254Y-19227821D01*
X6049778Y-19265916D01*
X6049778Y-19313535D01*
X6040254Y-19351630D01*
X6030730Y-19370678D01*
X6021207Y-19380202D01*
X6002159Y-19389726D01*
X5983111Y-19389726D01*
X5964064Y-19380202D01*
X5954540Y-19370678D01*
X5945016Y-19351630D01*
X5935492Y-19313535D01*
X5935492Y-19265916D01*
X5945016Y-19227821D01*
X5954540Y-19208773D01*
X5964064Y-19199250D01*
X5983111Y-19189726D01*
X6135492Y-19389726D02*
X6135492Y-19256392D01*
X6135492Y-19275440D02*
X6145016Y-19265916D01*
X6164064Y-19256392D01*
X6192635Y-19256392D01*
X6211683Y-19265916D01*
X6221207Y-19284964D01*
X6221207Y-19389726D01*
X6221207Y-19284964D02*
X6230730Y-19265916D01*
X6249778Y-19256392D01*
X6278349Y-19256392D01*
X6297397Y-19265916D01*
X6306921Y-19284964D01*
X6306921Y-19389726D01*
X6402159Y-19389726D02*
X6402159Y-19256392D01*
X6402159Y-19275440D02*
X6411683Y-19265916D01*
X6430730Y-19256392D01*
X6459302Y-19256392D01*
X6478349Y-19265916D01*
X6487873Y-19284964D01*
X6487873Y-19389726D01*
X6487873Y-19284964D02*
X6497397Y-19265916D01*
X6516445Y-19256392D01*
X6545016Y-19256392D01*
X6564064Y-19265916D01*
X6573588Y-19284964D01*
X6573588Y-19389726D01*
X6964064Y-19180202D02*
X6792635Y-19437345D01*
X7221207Y-19189726D02*
X7240254Y-19189726D01*
X7259302Y-19199250D01*
X7268826Y-19208773D01*
X7278349Y-19227821D01*
X7287873Y-19265916D01*
X7287873Y-19313535D01*
X7278349Y-19351630D01*
X7268826Y-19370678D01*
X7259302Y-19380202D01*
X7240254Y-19389726D01*
X7221207Y-19389726D01*
X7202159Y-19380202D01*
X7192635Y-19370678D01*
X7183111Y-19351630D01*
X7173588Y-19313535D01*
X7173588Y-19265916D01*
X7183111Y-19227821D01*
X7192635Y-19208773D01*
X7202159Y-19199250D01*
X7221207Y-19189726D01*
X7373588Y-19370678D02*
X7383111Y-19380202D01*
X7373588Y-19389726D01*
X7364064Y-19380202D01*
X7373588Y-19370678D01*
X7373588Y-19389726D01*
X7506921Y-19189726D02*
X7525968Y-19189726D01*
X7545016Y-19199250D01*
X7554540Y-19208773D01*
X7564064Y-19227821D01*
X7573588Y-19265916D01*
X7573588Y-19313535D01*
X7564064Y-19351630D01*
X7554540Y-19370678D01*
X7545016Y-19380202D01*
X7525968Y-19389726D01*
X7506921Y-19389726D01*
X7487873Y-19380202D01*
X7478349Y-19370678D01*
X7468826Y-19351630D01*
X7459302Y-19313535D01*
X7459302Y-19265916D01*
X7468826Y-19227821D01*
X7478349Y-19208773D01*
X7487873Y-19199250D01*
X7506921Y-19189726D01*
X7764064Y-19389726D02*
X7649778Y-19389726D01*
X7706921Y-19389726D02*
X7706921Y-19189726D01*
X7687873Y-19218297D01*
X7668826Y-19237345D01*
X7649778Y-19246869D01*
X7945016Y-19189726D02*
X7849778Y-19189726D01*
X7840254Y-19284964D01*
X7849778Y-19275440D01*
X7868826Y-19265916D01*
X7916445Y-19265916D01*
X7935492Y-19275440D01*
X7945016Y-19284964D01*
X7954540Y-19304011D01*
X7954540Y-19351630D01*
X7945016Y-19370678D01*
X7935492Y-19380202D01*
X7916445Y-19389726D01*
X7868826Y-19389726D01*
X7849778Y-19380202D01*
X7840254Y-19370678D01*
X8021207Y-19189726D02*
X8154540Y-19189726D01*
X8068826Y-19389726D01*
X8221207Y-19189726D02*
X8221207Y-19227821D01*
X8297397Y-19189726D02*
X8297397Y-19227821D01*
X8592635Y-19465916D02*
X8583111Y-19456392D01*
X8564064Y-19427821D01*
X8554540Y-19408773D01*
X8545016Y-19380202D01*
X8535492Y-19332583D01*
X8535492Y-19294488D01*
X8545016Y-19246869D01*
X8554540Y-19218297D01*
X8564064Y-19199250D01*
X8583111Y-19170678D01*
X8592635Y-19161154D01*
X8773588Y-19389726D02*
X8659302Y-19389726D01*
X8716445Y-19389726D02*
X8716445Y-19189726D01*
X8697397Y-19218297D01*
X8678350Y-19237345D01*
X8659302Y-19246869D01*
X8849778Y-19208773D02*
X8859302Y-19199250D01*
X8878350Y-19189726D01*
X8925969Y-19189726D01*
X8945016Y-19199250D01*
X8954540Y-19208773D01*
X8964064Y-19227821D01*
X8964064Y-19246869D01*
X8954540Y-19275440D01*
X8840254Y-19389726D01*
X8964064Y-19389726D01*
X9202159Y-19389726D02*
X9202159Y-19189726D01*
X9287873Y-19389726D02*
X9287873Y-19284964D01*
X9278350Y-19265916D01*
X9259302Y-19256392D01*
X9230730Y-19256392D01*
X9211683Y-19265916D01*
X9202159Y-19275440D01*
X9411683Y-19389726D02*
X9392635Y-19380202D01*
X9383111Y-19370678D01*
X9373588Y-19351630D01*
X9373588Y-19294488D01*
X9383111Y-19275440D01*
X9392635Y-19265916D01*
X9411683Y-19256392D01*
X9440254Y-19256392D01*
X9459302Y-19265916D01*
X9468826Y-19275440D01*
X9478350Y-19294488D01*
X9478350Y-19351630D01*
X9468826Y-19370678D01*
X9459302Y-19380202D01*
X9440254Y-19389726D01*
X9411683Y-19389726D01*
X9592635Y-19389726D02*
X9573588Y-19380202D01*
X9564064Y-19361154D01*
X9564064Y-19189726D01*
X9745016Y-19380202D02*
X9725969Y-19389726D01*
X9687873Y-19389726D01*
X9668826Y-19380202D01*
X9659302Y-19361154D01*
X9659302Y-19284964D01*
X9668826Y-19265916D01*
X9687873Y-19256392D01*
X9725969Y-19256392D01*
X9745016Y-19265916D01*
X9754540Y-19284964D01*
X9754540Y-19304011D01*
X9659302Y-19323059D01*
X9830730Y-19380202D02*
X9849778Y-19389726D01*
X9887873Y-19389726D01*
X9906921Y-19380202D01*
X9916445Y-19361154D01*
X9916445Y-19351630D01*
X9906921Y-19332583D01*
X9887873Y-19323059D01*
X9859302Y-19323059D01*
X9840254Y-19313535D01*
X9830730Y-19294488D01*
X9830730Y-19284964D01*
X9840254Y-19265916D01*
X9859302Y-19256392D01*
X9887873Y-19256392D01*
X9906921Y-19265916D01*
X9983111Y-19465916D02*
X9992635Y-19456392D01*
X10011683Y-19427821D01*
X10021207Y-19408773D01*
X10030730Y-19380202D01*
X10040254Y-19332583D01*
X10040254Y-19294488D01*
X10030730Y-19246869D01*
X10021207Y-19218297D01*
X10011683Y-19199250D01*
X9992635Y-19170678D01*
X9983111Y-19161154D01*
D14*
X5020731Y-19563250D02*
G75*
G03*
X5020731Y-19563250I-40000J0D01*
G01*
D12*
X5316445Y-19453726D02*
X5335492Y-19453726D01*
X5354540Y-19463250D01*
X5364064Y-19472773D01*
X5373588Y-19491821D01*
X5383111Y-19529916D01*
X5383111Y-19577535D01*
X5373588Y-19615630D01*
X5364064Y-19634678D01*
X5354540Y-19644202D01*
X5335492Y-19653726D01*
X5316445Y-19653726D01*
X5297397Y-19644202D01*
X5287873Y-19634678D01*
X5278350Y-19615630D01*
X5268826Y-19577535D01*
X5268826Y-19529916D01*
X5278350Y-19491821D01*
X5287873Y-19472773D01*
X5297397Y-19463250D01*
X5316445Y-19453726D01*
X5468826Y-19634678D02*
X5478350Y-19644202D01*
X5468826Y-19653726D01*
X5459302Y-19644202D01*
X5468826Y-19634678D01*
X5468826Y-19653726D01*
X5592635Y-19539440D02*
X5573588Y-19529916D01*
X5564064Y-19520392D01*
X5554540Y-19501345D01*
X5554540Y-19491821D01*
X5564064Y-19472773D01*
X5573588Y-19463250D01*
X5592635Y-19453726D01*
X5630730Y-19453726D01*
X5649778Y-19463250D01*
X5659302Y-19472773D01*
X5668826Y-19491821D01*
X5668826Y-19501345D01*
X5659302Y-19520392D01*
X5649778Y-19529916D01*
X5630730Y-19539440D01*
X5592635Y-19539440D01*
X5573588Y-19548964D01*
X5564064Y-19558488D01*
X5554540Y-19577535D01*
X5554540Y-19615630D01*
X5564064Y-19634678D01*
X5573588Y-19644202D01*
X5592635Y-19653726D01*
X5630730Y-19653726D01*
X5649778Y-19644202D01*
X5659302Y-19634678D01*
X5668826Y-19615630D01*
X5668826Y-19577535D01*
X5659302Y-19558488D01*
X5649778Y-19548964D01*
X5630730Y-19539440D01*
X5792635Y-19453726D02*
X5811683Y-19453726D01*
X5830730Y-19463250D01*
X5840254Y-19472773D01*
X5849778Y-19491821D01*
X5859302Y-19529916D01*
X5859302Y-19577535D01*
X5849778Y-19615630D01*
X5840254Y-19634678D01*
X5830730Y-19644202D01*
X5811683Y-19653726D01*
X5792635Y-19653726D01*
X5773588Y-19644202D01*
X5764064Y-19634678D01*
X5754540Y-19615630D01*
X5745016Y-19577535D01*
X5745016Y-19529916D01*
X5754540Y-19491821D01*
X5764064Y-19472773D01*
X5773588Y-19463250D01*
X5792635Y-19453726D01*
X5983111Y-19453726D02*
X6002159Y-19453726D01*
X6021207Y-19463250D01*
X6030730Y-19472773D01*
X6040254Y-19491821D01*
X6049778Y-19529916D01*
X6049778Y-19577535D01*
X6040254Y-19615630D01*
X6030730Y-19634678D01*
X6021207Y-19644202D01*
X6002159Y-19653726D01*
X5983111Y-19653726D01*
X5964064Y-19644202D01*
X5954540Y-19634678D01*
X5945016Y-19615630D01*
X5935492Y-19577535D01*
X5935492Y-19529916D01*
X5945016Y-19491821D01*
X5954540Y-19472773D01*
X5964064Y-19463250D01*
X5983111Y-19453726D01*
X6135492Y-19653726D02*
X6135492Y-19520392D01*
X6135492Y-19539440D02*
X6145016Y-19529916D01*
X6164064Y-19520392D01*
X6192635Y-19520392D01*
X6211683Y-19529916D01*
X6221207Y-19548964D01*
X6221207Y-19653726D01*
X6221207Y-19548964D02*
X6230730Y-19529916D01*
X6249778Y-19520392D01*
X6278349Y-19520392D01*
X6297397Y-19529916D01*
X6306921Y-19548964D01*
X6306921Y-19653726D01*
X6402159Y-19653726D02*
X6402159Y-19520392D01*
X6402159Y-19539440D02*
X6411683Y-19529916D01*
X6430730Y-19520392D01*
X6459302Y-19520392D01*
X6478349Y-19529916D01*
X6487873Y-19548964D01*
X6487873Y-19653726D01*
X6487873Y-19548964D02*
X6497397Y-19529916D01*
X6516445Y-19520392D01*
X6545016Y-19520392D01*
X6564064Y-19529916D01*
X6573588Y-19548964D01*
X6573588Y-19653726D01*
X6964064Y-19444202D02*
X6792635Y-19701345D01*
X7221207Y-19453726D02*
X7240254Y-19453726D01*
X7259302Y-19463250D01*
X7268826Y-19472773D01*
X7278349Y-19491821D01*
X7287873Y-19529916D01*
X7287873Y-19577535D01*
X7278349Y-19615630D01*
X7268826Y-19634678D01*
X7259302Y-19644202D01*
X7240254Y-19653726D01*
X7221207Y-19653726D01*
X7202159Y-19644202D01*
X7192635Y-19634678D01*
X7183111Y-19615630D01*
X7173588Y-19577535D01*
X7173588Y-19529916D01*
X7183111Y-19491821D01*
X7192635Y-19472773D01*
X7202159Y-19463250D01*
X7221207Y-19453726D01*
X7373588Y-19634678D02*
X7383111Y-19644202D01*
X7373588Y-19653726D01*
X7364064Y-19644202D01*
X7373588Y-19634678D01*
X7373588Y-19653726D01*
X7506921Y-19453726D02*
X7525968Y-19453726D01*
X7545016Y-19463250D01*
X7554540Y-19472773D01*
X7564064Y-19491821D01*
X7573588Y-19529916D01*
X7573588Y-19577535D01*
X7564064Y-19615630D01*
X7554540Y-19634678D01*
X7545016Y-19644202D01*
X7525968Y-19653726D01*
X7506921Y-19653726D01*
X7487873Y-19644202D01*
X7478349Y-19634678D01*
X7468826Y-19615630D01*
X7459302Y-19577535D01*
X7459302Y-19529916D01*
X7468826Y-19491821D01*
X7478349Y-19472773D01*
X7487873Y-19463250D01*
X7506921Y-19453726D01*
X7640254Y-19453726D02*
X7764064Y-19453726D01*
X7697397Y-19529916D01*
X7725968Y-19529916D01*
X7745016Y-19539440D01*
X7754540Y-19548964D01*
X7764064Y-19568011D01*
X7764064Y-19615630D01*
X7754540Y-19634678D01*
X7745016Y-19644202D01*
X7725968Y-19653726D01*
X7668826Y-19653726D01*
X7649778Y-19644202D01*
X7640254Y-19634678D01*
X7954540Y-19653726D02*
X7840254Y-19653726D01*
X7897397Y-19653726D02*
X7897397Y-19453726D01*
X7878349Y-19482297D01*
X7859302Y-19501345D01*
X7840254Y-19510869D01*
X8135492Y-19453726D02*
X8040254Y-19453726D01*
X8030730Y-19548964D01*
X8040254Y-19539440D01*
X8059302Y-19529916D01*
X8106921Y-19529916D01*
X8125968Y-19539440D01*
X8135492Y-19548964D01*
X8145016Y-19568011D01*
X8145016Y-19615630D01*
X8135492Y-19634678D01*
X8125968Y-19644202D01*
X8106921Y-19653726D01*
X8059302Y-19653726D01*
X8040254Y-19644202D01*
X8030730Y-19634678D01*
X8221207Y-19453726D02*
X8221207Y-19491821D01*
X8297397Y-19453726D02*
X8297397Y-19491821D01*
X8592635Y-19729916D02*
X8583111Y-19720392D01*
X8564064Y-19691821D01*
X8554540Y-19672773D01*
X8545016Y-19644202D01*
X8535492Y-19596583D01*
X8535492Y-19558488D01*
X8545016Y-19510869D01*
X8554540Y-19482297D01*
X8564064Y-19463250D01*
X8583111Y-19434678D01*
X8592635Y-19425154D01*
X8773588Y-19653726D02*
X8659302Y-19653726D01*
X8716445Y-19653726D02*
X8716445Y-19453726D01*
X8697397Y-19482297D01*
X8678350Y-19501345D01*
X8659302Y-19510869D01*
X8849778Y-19472773D02*
X8859302Y-19463250D01*
X8878350Y-19453726D01*
X8925969Y-19453726D01*
X8945016Y-19463250D01*
X8954540Y-19472773D01*
X8964064Y-19491821D01*
X8964064Y-19510869D01*
X8954540Y-19539440D01*
X8840254Y-19653726D01*
X8964064Y-19653726D01*
X9087873Y-19453726D02*
X9106921Y-19453726D01*
X9125969Y-19463250D01*
X9135492Y-19472773D01*
X9145016Y-19491821D01*
X9154540Y-19529916D01*
X9154540Y-19577535D01*
X9145016Y-19615630D01*
X9135492Y-19634678D01*
X9125969Y-19644202D01*
X9106921Y-19653726D01*
X9087873Y-19653726D01*
X9068826Y-19644202D01*
X9059302Y-19634678D01*
X9049778Y-19615630D01*
X9040254Y-19577535D01*
X9040254Y-19529916D01*
X9049778Y-19491821D01*
X9059302Y-19472773D01*
X9068826Y-19463250D01*
X9087873Y-19453726D01*
X9392635Y-19653726D02*
X9392635Y-19453726D01*
X9478350Y-19653726D02*
X9478350Y-19548964D01*
X9468826Y-19529916D01*
X9449778Y-19520392D01*
X9421207Y-19520392D01*
X9402159Y-19529916D01*
X9392635Y-19539440D01*
X9602159Y-19653726D02*
X9583111Y-19644202D01*
X9573588Y-19634678D01*
X9564064Y-19615630D01*
X9564064Y-19558488D01*
X9573588Y-19539440D01*
X9583111Y-19529916D01*
X9602159Y-19520392D01*
X9630730Y-19520392D01*
X9649778Y-19529916D01*
X9659302Y-19539440D01*
X9668826Y-19558488D01*
X9668826Y-19615630D01*
X9659302Y-19634678D01*
X9649778Y-19644202D01*
X9630730Y-19653726D01*
X9602159Y-19653726D01*
X9783111Y-19653726D02*
X9764064Y-19644202D01*
X9754540Y-19625154D01*
X9754540Y-19453726D01*
X9935492Y-19644202D02*
X9916445Y-19653726D01*
X9878350Y-19653726D01*
X9859302Y-19644202D01*
X9849778Y-19625154D01*
X9849778Y-19548964D01*
X9859302Y-19529916D01*
X9878350Y-19520392D01*
X9916445Y-19520392D01*
X9935492Y-19529916D01*
X9945016Y-19548964D01*
X9945016Y-19568011D01*
X9849778Y-19587059D01*
X10021207Y-19644202D02*
X10040254Y-19653726D01*
X10078350Y-19653726D01*
X10097397Y-19644202D01*
X10106921Y-19625154D01*
X10106921Y-19615630D01*
X10097397Y-19596583D01*
X10078350Y-19587059D01*
X10049778Y-19587059D01*
X10030730Y-19577535D01*
X10021207Y-19558488D01*
X10021207Y-19548964D01*
X10030730Y-19529916D01*
X10049778Y-19520392D01*
X10078350Y-19520392D01*
X10097397Y-19529916D01*
X10173588Y-19729916D02*
X10183111Y-19720392D01*
X10202159Y-19691821D01*
X10211683Y-19672773D01*
X10221207Y-19644202D01*
X10230730Y-19596583D01*
X10230730Y-19558488D01*
X10221207Y-19510869D01*
X10211683Y-19482297D01*
X10202159Y-19463250D01*
X10183111Y-19434678D01*
X10173588Y-19425154D01*
D15*
X4970731Y-19777250D02*
X4970731Y-19877250D01*
X4920731Y-19827250D02*
X5020731Y-19827250D01*
D12*
X5383111Y-19917726D02*
X5268826Y-19917726D01*
X5325969Y-19917726D02*
X5325969Y-19717726D01*
X5306921Y-19746297D01*
X5287873Y-19765345D01*
X5268826Y-19774869D01*
X5468826Y-19898678D02*
X5478350Y-19908202D01*
X5468826Y-19917726D01*
X5459302Y-19908202D01*
X5468826Y-19898678D01*
X5468826Y-19917726D01*
X5602159Y-19717726D02*
X5621207Y-19717726D01*
X5640254Y-19727250D01*
X5649778Y-19736773D01*
X5659302Y-19755821D01*
X5668826Y-19793916D01*
X5668826Y-19841535D01*
X5659302Y-19879630D01*
X5649778Y-19898678D01*
X5640254Y-19908202D01*
X5621207Y-19917726D01*
X5602159Y-19917726D01*
X5583111Y-19908202D01*
X5573588Y-19898678D01*
X5564064Y-19879630D01*
X5554540Y-19841535D01*
X5554540Y-19793916D01*
X5564064Y-19755821D01*
X5573588Y-19736773D01*
X5583111Y-19727250D01*
X5602159Y-19717726D01*
X5792635Y-19717726D02*
X5811683Y-19717726D01*
X5830730Y-19727250D01*
X5840254Y-19736773D01*
X5849778Y-19755821D01*
X5859302Y-19793916D01*
X5859302Y-19841535D01*
X5849778Y-19879630D01*
X5840254Y-19898678D01*
X5830730Y-19908202D01*
X5811683Y-19917726D01*
X5792635Y-19917726D01*
X5773588Y-19908202D01*
X5764064Y-19898678D01*
X5754540Y-19879630D01*
X5745016Y-19841535D01*
X5745016Y-19793916D01*
X5754540Y-19755821D01*
X5764064Y-19736773D01*
X5773588Y-19727250D01*
X5792635Y-19717726D01*
X5983111Y-19717726D02*
X6002159Y-19717726D01*
X6021207Y-19727250D01*
X6030730Y-19736773D01*
X6040254Y-19755821D01*
X6049778Y-19793916D01*
X6049778Y-19841535D01*
X6040254Y-19879630D01*
X6030730Y-19898678D01*
X6021207Y-19908202D01*
X6002159Y-19917726D01*
X5983111Y-19917726D01*
X5964064Y-19908202D01*
X5954540Y-19898678D01*
X5945016Y-19879630D01*
X5935492Y-19841535D01*
X5935492Y-19793916D01*
X5945016Y-19755821D01*
X5954540Y-19736773D01*
X5964064Y-19727250D01*
X5983111Y-19717726D01*
X6135492Y-19917726D02*
X6135492Y-19784392D01*
X6135492Y-19803440D02*
X6145016Y-19793916D01*
X6164064Y-19784392D01*
X6192635Y-19784392D01*
X6211683Y-19793916D01*
X6221207Y-19812964D01*
X6221207Y-19917726D01*
X6221207Y-19812964D02*
X6230730Y-19793916D01*
X6249778Y-19784392D01*
X6278349Y-19784392D01*
X6297397Y-19793916D01*
X6306921Y-19812964D01*
X6306921Y-19917726D01*
X6402159Y-19917726D02*
X6402159Y-19784392D01*
X6402159Y-19803440D02*
X6411683Y-19793916D01*
X6430730Y-19784392D01*
X6459302Y-19784392D01*
X6478349Y-19793916D01*
X6487873Y-19812964D01*
X6487873Y-19917726D01*
X6487873Y-19812964D02*
X6497397Y-19793916D01*
X6516445Y-19784392D01*
X6545016Y-19784392D01*
X6564064Y-19793916D01*
X6573588Y-19812964D01*
X6573588Y-19917726D01*
X6964064Y-19708202D02*
X6792635Y-19965345D01*
X7221207Y-19717726D02*
X7240254Y-19717726D01*
X7259302Y-19727250D01*
X7268826Y-19736773D01*
X7278349Y-19755821D01*
X7287873Y-19793916D01*
X7287873Y-19841535D01*
X7278349Y-19879630D01*
X7268826Y-19898678D01*
X7259302Y-19908202D01*
X7240254Y-19917726D01*
X7221207Y-19917726D01*
X7202159Y-19908202D01*
X7192635Y-19898678D01*
X7183111Y-19879630D01*
X7173588Y-19841535D01*
X7173588Y-19793916D01*
X7183111Y-19755821D01*
X7192635Y-19736773D01*
X7202159Y-19727250D01*
X7221207Y-19717726D01*
X7373588Y-19898678D02*
X7383111Y-19908202D01*
X7373588Y-19917726D01*
X7364064Y-19908202D01*
X7373588Y-19898678D01*
X7373588Y-19917726D01*
X7506921Y-19717726D02*
X7525968Y-19717726D01*
X7545016Y-19727250D01*
X7554540Y-19736773D01*
X7564064Y-19755821D01*
X7573588Y-19793916D01*
X7573588Y-19841535D01*
X7564064Y-19879630D01*
X7554540Y-19898678D01*
X7545016Y-19908202D01*
X7525968Y-19917726D01*
X7506921Y-19917726D01*
X7487873Y-19908202D01*
X7478349Y-19898678D01*
X7468826Y-19879630D01*
X7459302Y-19841535D01*
X7459302Y-19793916D01*
X7468826Y-19755821D01*
X7478349Y-19736773D01*
X7487873Y-19727250D01*
X7506921Y-19717726D01*
X7640254Y-19717726D02*
X7764064Y-19717726D01*
X7697397Y-19793916D01*
X7725968Y-19793916D01*
X7745016Y-19803440D01*
X7754540Y-19812964D01*
X7764064Y-19832011D01*
X7764064Y-19879630D01*
X7754540Y-19898678D01*
X7745016Y-19908202D01*
X7725968Y-19917726D01*
X7668826Y-19917726D01*
X7649778Y-19908202D01*
X7640254Y-19898678D01*
X7859302Y-19917726D02*
X7897397Y-19917726D01*
X7916445Y-19908202D01*
X7925968Y-19898678D01*
X7945016Y-19870107D01*
X7954540Y-19832011D01*
X7954540Y-19755821D01*
X7945016Y-19736773D01*
X7935492Y-19727250D01*
X7916445Y-19717726D01*
X7878349Y-19717726D01*
X7859302Y-19727250D01*
X7849778Y-19736773D01*
X7840254Y-19755821D01*
X7840254Y-19803440D01*
X7849778Y-19822488D01*
X7859302Y-19832011D01*
X7878349Y-19841535D01*
X7916445Y-19841535D01*
X7935492Y-19832011D01*
X7945016Y-19822488D01*
X7954540Y-19803440D01*
X8125968Y-19784392D02*
X8125968Y-19917726D01*
X8078349Y-19708202D02*
X8030730Y-19851059D01*
X8154540Y-19851059D01*
X8221207Y-19717726D02*
X8221207Y-19755821D01*
X8297397Y-19717726D02*
X8297397Y-19755821D01*
X8592635Y-19993916D02*
X8583111Y-19984392D01*
X8564064Y-19955821D01*
X8554540Y-19936773D01*
X8545016Y-19908202D01*
X8535492Y-19860583D01*
X8535492Y-19822488D01*
X8545016Y-19774869D01*
X8554540Y-19746297D01*
X8564064Y-19727250D01*
X8583111Y-19698678D01*
X8592635Y-19689154D01*
X8773588Y-19917726D02*
X8659302Y-19917726D01*
X8716445Y-19917726D02*
X8716445Y-19717726D01*
X8697397Y-19746297D01*
X8678350Y-19765345D01*
X8659302Y-19774869D01*
X8897397Y-19717726D02*
X8916445Y-19717726D01*
X8935492Y-19727250D01*
X8945016Y-19736773D01*
X8954540Y-19755821D01*
X8964064Y-19793916D01*
X8964064Y-19841535D01*
X8954540Y-19879630D01*
X8945016Y-19898678D01*
X8935492Y-19908202D01*
X8916445Y-19917726D01*
X8897397Y-19917726D01*
X8878350Y-19908202D01*
X8868826Y-19898678D01*
X8859302Y-19879630D01*
X8849778Y-19841535D01*
X8849778Y-19793916D01*
X8859302Y-19755821D01*
X8868826Y-19736773D01*
X8878350Y-19727250D01*
X8897397Y-19717726D01*
X9202159Y-19917726D02*
X9202159Y-19717726D01*
X9287873Y-19917726D02*
X9287873Y-19812964D01*
X9278350Y-19793916D01*
X9259302Y-19784392D01*
X9230730Y-19784392D01*
X9211683Y-19793916D01*
X9202159Y-19803440D01*
X9411683Y-19917726D02*
X9392635Y-19908202D01*
X9383111Y-19898678D01*
X9373588Y-19879630D01*
X9373588Y-19822488D01*
X9383111Y-19803440D01*
X9392635Y-19793916D01*
X9411683Y-19784392D01*
X9440254Y-19784392D01*
X9459302Y-19793916D01*
X9468826Y-19803440D01*
X9478350Y-19822488D01*
X9478350Y-19879630D01*
X9468826Y-19898678D01*
X9459302Y-19908202D01*
X9440254Y-19917726D01*
X9411683Y-19917726D01*
X9592635Y-19917726D02*
X9573588Y-19908202D01*
X9564064Y-19889154D01*
X9564064Y-19717726D01*
X9745016Y-19908202D02*
X9725969Y-19917726D01*
X9687873Y-19917726D01*
X9668826Y-19908202D01*
X9659302Y-19889154D01*
X9659302Y-19812964D01*
X9668826Y-19793916D01*
X9687873Y-19784392D01*
X9725969Y-19784392D01*
X9745016Y-19793916D01*
X9754540Y-19812964D01*
X9754540Y-19832011D01*
X9659302Y-19851059D01*
X9830730Y-19908202D02*
X9849778Y-19917726D01*
X9887873Y-19917726D01*
X9906921Y-19908202D01*
X9916445Y-19889154D01*
X9916445Y-19879630D01*
X9906921Y-19860583D01*
X9887873Y-19851059D01*
X9859302Y-19851059D01*
X9840254Y-19841535D01*
X9830730Y-19822488D01*
X9830730Y-19812964D01*
X9840254Y-19793916D01*
X9859302Y-19784392D01*
X9887873Y-19784392D01*
X9906921Y-19793916D01*
X9983111Y-19993916D02*
X9992635Y-19984392D01*
X10011683Y-19955821D01*
X10021207Y-19936773D01*
X10030730Y-19908202D01*
X10040254Y-19860583D01*
X10040254Y-19822488D01*
X10030730Y-19774869D01*
X10021207Y-19746297D01*
X10011683Y-19727250D01*
X9992635Y-19698678D01*
X9983111Y-19689154D01*
D16*
X5004736Y-20129865D02*
X5004736Y-20052634D01*
X4927505Y-20052634D01*
X4927505Y-20129865D01*
X5004736Y-20129865D01*
D12*
X5383111Y-20181726D02*
X5268826Y-20181726D01*
X5325969Y-20181726D02*
X5325969Y-19981726D01*
X5306921Y-20010297D01*
X5287873Y-20029345D01*
X5268826Y-20038869D01*
X5468826Y-20162678D02*
X5478350Y-20172202D01*
X5468826Y-20181726D01*
X5459302Y-20172202D01*
X5468826Y-20162678D01*
X5468826Y-20181726D01*
X5602159Y-19981726D02*
X5621207Y-19981726D01*
X5640254Y-19991250D01*
X5649778Y-20000773D01*
X5659302Y-20019821D01*
X5668826Y-20057916D01*
X5668826Y-20105535D01*
X5659302Y-20143630D01*
X5649778Y-20162678D01*
X5640254Y-20172202D01*
X5621207Y-20181726D01*
X5602159Y-20181726D01*
X5583111Y-20172202D01*
X5573588Y-20162678D01*
X5564064Y-20143630D01*
X5554540Y-20105535D01*
X5554540Y-20057916D01*
X5564064Y-20019821D01*
X5573588Y-20000773D01*
X5583111Y-19991250D01*
X5602159Y-19981726D01*
X5764064Y-20181726D02*
X5802159Y-20181726D01*
X5821207Y-20172202D01*
X5830730Y-20162678D01*
X5849778Y-20134107D01*
X5859302Y-20096011D01*
X5859302Y-20019821D01*
X5849778Y-20000773D01*
X5840254Y-19991250D01*
X5821207Y-19981726D01*
X5783111Y-19981726D01*
X5764064Y-19991250D01*
X5754540Y-20000773D01*
X5745016Y-20019821D01*
X5745016Y-20067440D01*
X5754540Y-20086488D01*
X5764064Y-20096011D01*
X5783111Y-20105535D01*
X5821207Y-20105535D01*
X5840254Y-20096011D01*
X5849778Y-20086488D01*
X5859302Y-20067440D01*
X5935492Y-20000773D02*
X5945016Y-19991250D01*
X5964064Y-19981726D01*
X6011683Y-19981726D01*
X6030730Y-19991250D01*
X6040254Y-20000773D01*
X6049778Y-20019821D01*
X6049778Y-20038869D01*
X6040254Y-20067440D01*
X5925968Y-20181726D01*
X6049778Y-20181726D01*
X6135492Y-20181726D02*
X6135492Y-20048392D01*
X6135492Y-20067440D02*
X6145016Y-20057916D01*
X6164064Y-20048392D01*
X6192635Y-20048392D01*
X6211683Y-20057916D01*
X6221207Y-20076964D01*
X6221207Y-20181726D01*
X6221207Y-20076964D02*
X6230730Y-20057916D01*
X6249778Y-20048392D01*
X6278349Y-20048392D01*
X6297397Y-20057916D01*
X6306921Y-20076964D01*
X6306921Y-20181726D01*
X6402159Y-20181726D02*
X6402159Y-20048392D01*
X6402159Y-20067440D02*
X6411683Y-20057916D01*
X6430730Y-20048392D01*
X6459302Y-20048392D01*
X6478349Y-20057916D01*
X6487873Y-20076964D01*
X6487873Y-20181726D01*
X6487873Y-20076964D02*
X6497397Y-20057916D01*
X6516445Y-20048392D01*
X6545016Y-20048392D01*
X6564064Y-20057916D01*
X6573588Y-20076964D01*
X6573588Y-20181726D01*
X6964064Y-19972202D02*
X6792635Y-20229345D01*
X7221207Y-19981726D02*
X7240254Y-19981726D01*
X7259302Y-19991250D01*
X7268826Y-20000773D01*
X7278349Y-20019821D01*
X7287873Y-20057916D01*
X7287873Y-20105535D01*
X7278349Y-20143630D01*
X7268826Y-20162678D01*
X7259302Y-20172202D01*
X7240254Y-20181726D01*
X7221207Y-20181726D01*
X7202159Y-20172202D01*
X7192635Y-20162678D01*
X7183111Y-20143630D01*
X7173588Y-20105535D01*
X7173588Y-20057916D01*
X7183111Y-20019821D01*
X7192635Y-20000773D01*
X7202159Y-19991250D01*
X7221207Y-19981726D01*
X7373588Y-20162678D02*
X7383111Y-20172202D01*
X7373588Y-20181726D01*
X7364064Y-20172202D01*
X7373588Y-20162678D01*
X7373588Y-20181726D01*
X7506921Y-19981726D02*
X7525968Y-19981726D01*
X7545016Y-19991250D01*
X7554540Y-20000773D01*
X7564064Y-20019821D01*
X7573588Y-20057916D01*
X7573588Y-20105535D01*
X7564064Y-20143630D01*
X7554540Y-20162678D01*
X7545016Y-20172202D01*
X7525968Y-20181726D01*
X7506921Y-20181726D01*
X7487873Y-20172202D01*
X7478349Y-20162678D01*
X7468826Y-20143630D01*
X7459302Y-20105535D01*
X7459302Y-20057916D01*
X7468826Y-20019821D01*
X7478349Y-20000773D01*
X7487873Y-19991250D01*
X7506921Y-19981726D01*
X7745016Y-20048392D02*
X7745016Y-20181726D01*
X7697397Y-19972202D02*
X7649778Y-20115059D01*
X7773588Y-20115059D01*
X7830730Y-19981726D02*
X7954540Y-19981726D01*
X7887873Y-20057916D01*
X7916445Y-20057916D01*
X7935492Y-20067440D01*
X7945016Y-20076964D01*
X7954540Y-20096011D01*
X7954540Y-20143630D01*
X7945016Y-20162678D01*
X7935492Y-20172202D01*
X7916445Y-20181726D01*
X7859302Y-20181726D01*
X7840254Y-20172202D01*
X7830730Y-20162678D01*
X8078349Y-19981726D02*
X8097397Y-19981726D01*
X8116445Y-19991250D01*
X8125968Y-20000773D01*
X8135492Y-20019821D01*
X8145016Y-20057916D01*
X8145016Y-20105535D01*
X8135492Y-20143630D01*
X8125968Y-20162678D01*
X8116445Y-20172202D01*
X8097397Y-20181726D01*
X8078349Y-20181726D01*
X8059302Y-20172202D01*
X8049778Y-20162678D01*
X8040254Y-20143630D01*
X8030730Y-20105535D01*
X8030730Y-20057916D01*
X8040254Y-20019821D01*
X8049778Y-20000773D01*
X8059302Y-19991250D01*
X8078349Y-19981726D01*
X8221207Y-19981726D02*
X8221207Y-20019821D01*
X8297397Y-19981726D02*
X8297397Y-20019821D01*
X8592635Y-20257916D02*
X8583111Y-20248392D01*
X8564064Y-20219821D01*
X8554540Y-20200773D01*
X8545016Y-20172202D01*
X8535492Y-20124583D01*
X8535492Y-20086488D01*
X8545016Y-20038869D01*
X8554540Y-20010297D01*
X8564064Y-19991250D01*
X8583111Y-19962678D01*
X8592635Y-19953154D01*
X8659302Y-20000773D02*
X8668826Y-19991250D01*
X8687873Y-19981726D01*
X8735492Y-19981726D01*
X8754540Y-19991250D01*
X8764064Y-20000773D01*
X8773588Y-20019821D01*
X8773588Y-20038869D01*
X8764064Y-20067440D01*
X8649778Y-20181726D01*
X8773588Y-20181726D01*
X8868826Y-20181726D02*
X8906921Y-20181726D01*
X8925969Y-20172202D01*
X8935492Y-20162678D01*
X8954540Y-20134107D01*
X8964064Y-20096011D01*
X8964064Y-20019821D01*
X8954540Y-20000773D01*
X8945016Y-19991250D01*
X8925969Y-19981726D01*
X8887873Y-19981726D01*
X8868826Y-19991250D01*
X8859302Y-20000773D01*
X8849778Y-20019821D01*
X8849778Y-20067440D01*
X8859302Y-20086488D01*
X8868826Y-20096011D01*
X8887873Y-20105535D01*
X8925969Y-20105535D01*
X8945016Y-20096011D01*
X8954540Y-20086488D01*
X8964064Y-20067440D01*
X9202159Y-20181726D02*
X9202159Y-19981726D01*
X9287873Y-20181726D02*
X9287873Y-20076964D01*
X9278350Y-20057916D01*
X9259302Y-20048392D01*
X9230730Y-20048392D01*
X9211683Y-20057916D01*
X9202159Y-20067440D01*
X9411683Y-20181726D02*
X9392635Y-20172202D01*
X9383111Y-20162678D01*
X9373588Y-20143630D01*
X9373588Y-20086488D01*
X9383111Y-20067440D01*
X9392635Y-20057916D01*
X9411683Y-20048392D01*
X9440254Y-20048392D01*
X9459302Y-20057916D01*
X9468826Y-20067440D01*
X9478350Y-20086488D01*
X9478350Y-20143630D01*
X9468826Y-20162678D01*
X9459302Y-20172202D01*
X9440254Y-20181726D01*
X9411683Y-20181726D01*
X9592635Y-20181726D02*
X9573588Y-20172202D01*
X9564064Y-20153154D01*
X9564064Y-19981726D01*
X9745016Y-20172202D02*
X9725969Y-20181726D01*
X9687873Y-20181726D01*
X9668826Y-20172202D01*
X9659302Y-20153154D01*
X9659302Y-20076964D01*
X9668826Y-20057916D01*
X9687873Y-20048392D01*
X9725969Y-20048392D01*
X9745016Y-20057916D01*
X9754540Y-20076964D01*
X9754540Y-20096011D01*
X9659302Y-20115059D01*
X9830730Y-20172202D02*
X9849778Y-20181726D01*
X9887873Y-20181726D01*
X9906921Y-20172202D01*
X9916445Y-20153154D01*
X9916445Y-20143630D01*
X9906921Y-20124583D01*
X9887873Y-20115059D01*
X9859302Y-20115059D01*
X9840254Y-20105535D01*
X9830730Y-20086488D01*
X9830730Y-20076964D01*
X9840254Y-20057916D01*
X9859302Y-20048392D01*
X9887873Y-20048392D01*
X9906921Y-20057916D01*
X9983111Y-20257916D02*
X9992635Y-20248392D01*
X10011683Y-20219821D01*
X10021207Y-20200773D01*
X10030730Y-20172202D01*
X10040254Y-20124583D01*
X10040254Y-20086488D01*
X10030730Y-20038869D01*
X10021207Y-20010297D01*
X10011683Y-19991250D01*
X9992635Y-19962678D01*
X9983111Y-19953154D01*
D17*
X4955731Y-20420250D02*
X5020731Y-20355250D01*
X4955731Y-20290250D01*
X4890731Y-20355250D01*
X4955731Y-20420250D01*
D12*
X5383111Y-20445726D02*
X5268826Y-20445726D01*
X5325969Y-20445726D02*
X5325969Y-20245726D01*
X5306921Y-20274297D01*
X5287873Y-20293345D01*
X5268826Y-20302869D01*
X5468826Y-20426678D02*
X5478350Y-20436202D01*
X5468826Y-20445726D01*
X5459302Y-20436202D01*
X5468826Y-20426678D01*
X5468826Y-20445726D01*
X5545016Y-20245726D02*
X5668826Y-20245726D01*
X5602159Y-20321916D01*
X5630730Y-20321916D01*
X5649778Y-20331440D01*
X5659302Y-20340964D01*
X5668826Y-20360011D01*
X5668826Y-20407630D01*
X5659302Y-20426678D01*
X5649778Y-20436202D01*
X5630730Y-20445726D01*
X5573588Y-20445726D01*
X5554540Y-20436202D01*
X5545016Y-20426678D01*
X5792635Y-20245726D02*
X5811683Y-20245726D01*
X5830730Y-20255250D01*
X5840254Y-20264773D01*
X5849778Y-20283821D01*
X5859302Y-20321916D01*
X5859302Y-20369535D01*
X5849778Y-20407630D01*
X5840254Y-20426678D01*
X5830730Y-20436202D01*
X5811683Y-20445726D01*
X5792635Y-20445726D01*
X5773588Y-20436202D01*
X5764064Y-20426678D01*
X5754540Y-20407630D01*
X5745016Y-20369535D01*
X5745016Y-20321916D01*
X5754540Y-20283821D01*
X5764064Y-20264773D01*
X5773588Y-20255250D01*
X5792635Y-20245726D01*
X5983111Y-20245726D02*
X6002159Y-20245726D01*
X6021207Y-20255250D01*
X6030730Y-20264773D01*
X6040254Y-20283821D01*
X6049778Y-20321916D01*
X6049778Y-20369535D01*
X6040254Y-20407630D01*
X6030730Y-20426678D01*
X6021207Y-20436202D01*
X6002159Y-20445726D01*
X5983111Y-20445726D01*
X5964064Y-20436202D01*
X5954540Y-20426678D01*
X5945016Y-20407630D01*
X5935492Y-20369535D01*
X5935492Y-20321916D01*
X5945016Y-20283821D01*
X5954540Y-20264773D01*
X5964064Y-20255250D01*
X5983111Y-20245726D01*
X6135492Y-20445726D02*
X6135492Y-20312392D01*
X6135492Y-20331440D02*
X6145016Y-20321916D01*
X6164064Y-20312392D01*
X6192635Y-20312392D01*
X6211683Y-20321916D01*
X6221207Y-20340964D01*
X6221207Y-20445726D01*
X6221207Y-20340964D02*
X6230730Y-20321916D01*
X6249778Y-20312392D01*
X6278349Y-20312392D01*
X6297397Y-20321916D01*
X6306921Y-20340964D01*
X6306921Y-20445726D01*
X6402159Y-20445726D02*
X6402159Y-20312392D01*
X6402159Y-20331440D02*
X6411683Y-20321916D01*
X6430730Y-20312392D01*
X6459302Y-20312392D01*
X6478349Y-20321916D01*
X6487873Y-20340964D01*
X6487873Y-20445726D01*
X6487873Y-20340964D02*
X6497397Y-20321916D01*
X6516445Y-20312392D01*
X6545016Y-20312392D01*
X6564064Y-20321916D01*
X6573588Y-20340964D01*
X6573588Y-20445726D01*
X6964064Y-20236202D02*
X6792635Y-20493345D01*
X7221207Y-20245726D02*
X7240254Y-20245726D01*
X7259302Y-20255250D01*
X7268826Y-20264773D01*
X7278349Y-20283821D01*
X7287873Y-20321916D01*
X7287873Y-20369535D01*
X7278349Y-20407630D01*
X7268826Y-20426678D01*
X7259302Y-20436202D01*
X7240254Y-20445726D01*
X7221207Y-20445726D01*
X7202159Y-20436202D01*
X7192635Y-20426678D01*
X7183111Y-20407630D01*
X7173588Y-20369535D01*
X7173588Y-20321916D01*
X7183111Y-20283821D01*
X7192635Y-20264773D01*
X7202159Y-20255250D01*
X7221207Y-20245726D01*
X7373588Y-20426678D02*
X7383111Y-20436202D01*
X7373588Y-20445726D01*
X7364064Y-20436202D01*
X7373588Y-20426678D01*
X7373588Y-20445726D01*
X7506921Y-20245726D02*
X7525968Y-20245726D01*
X7545016Y-20255250D01*
X7554540Y-20264773D01*
X7564064Y-20283821D01*
X7573588Y-20321916D01*
X7573588Y-20369535D01*
X7564064Y-20407630D01*
X7554540Y-20426678D01*
X7545016Y-20436202D01*
X7525968Y-20445726D01*
X7506921Y-20445726D01*
X7487873Y-20436202D01*
X7478349Y-20426678D01*
X7468826Y-20407630D01*
X7459302Y-20369535D01*
X7459302Y-20321916D01*
X7468826Y-20283821D01*
X7478349Y-20264773D01*
X7487873Y-20255250D01*
X7506921Y-20245726D01*
X7754540Y-20245726D02*
X7659302Y-20245726D01*
X7649778Y-20340964D01*
X7659302Y-20331440D01*
X7678349Y-20321916D01*
X7725968Y-20321916D01*
X7745016Y-20331440D01*
X7754540Y-20340964D01*
X7764064Y-20360011D01*
X7764064Y-20407630D01*
X7754540Y-20426678D01*
X7745016Y-20436202D01*
X7725968Y-20445726D01*
X7678349Y-20445726D01*
X7659302Y-20436202D01*
X7649778Y-20426678D01*
X7954540Y-20445726D02*
X7840254Y-20445726D01*
X7897397Y-20445726D02*
X7897397Y-20245726D01*
X7878349Y-20274297D01*
X7859302Y-20293345D01*
X7840254Y-20302869D01*
X8030730Y-20264773D02*
X8040254Y-20255250D01*
X8059302Y-20245726D01*
X8106921Y-20245726D01*
X8125968Y-20255250D01*
X8135492Y-20264773D01*
X8145016Y-20283821D01*
X8145016Y-20302869D01*
X8135492Y-20331440D01*
X8021207Y-20445726D01*
X8145016Y-20445726D01*
X8221207Y-20245726D02*
X8221207Y-20283821D01*
X8297397Y-20245726D02*
X8297397Y-20283821D01*
X8592635Y-20521916D02*
X8583111Y-20512392D01*
X8564064Y-20483821D01*
X8554540Y-20464773D01*
X8545016Y-20436202D01*
X8535492Y-20388583D01*
X8535492Y-20350488D01*
X8545016Y-20302869D01*
X8554540Y-20274297D01*
X8564064Y-20255250D01*
X8583111Y-20226678D01*
X8592635Y-20217154D01*
X8659302Y-20264773D02*
X8668826Y-20255250D01*
X8687873Y-20245726D01*
X8735492Y-20245726D01*
X8754540Y-20255250D01*
X8764064Y-20264773D01*
X8773588Y-20283821D01*
X8773588Y-20302869D01*
X8764064Y-20331440D01*
X8649778Y-20445726D01*
X8773588Y-20445726D01*
X9011683Y-20445726D02*
X9011683Y-20245726D01*
X9097397Y-20445726D02*
X9097397Y-20340964D01*
X9087873Y-20321916D01*
X9068826Y-20312392D01*
X9040254Y-20312392D01*
X9021207Y-20321916D01*
X9011683Y-20331440D01*
X9221207Y-20445726D02*
X9202159Y-20436202D01*
X9192635Y-20426678D01*
X9183111Y-20407630D01*
X9183111Y-20350488D01*
X9192635Y-20331440D01*
X9202159Y-20321916D01*
X9221207Y-20312392D01*
X9249778Y-20312392D01*
X9268826Y-20321916D01*
X9278350Y-20331440D01*
X9287873Y-20350488D01*
X9287873Y-20407630D01*
X9278350Y-20426678D01*
X9268826Y-20436202D01*
X9249778Y-20445726D01*
X9221207Y-20445726D01*
X9402159Y-20445726D02*
X9383111Y-20436202D01*
X9373588Y-20417154D01*
X9373588Y-20245726D01*
X9554540Y-20436202D02*
X9535492Y-20445726D01*
X9497397Y-20445726D01*
X9478350Y-20436202D01*
X9468826Y-20417154D01*
X9468826Y-20340964D01*
X9478350Y-20321916D01*
X9497397Y-20312392D01*
X9535492Y-20312392D01*
X9554540Y-20321916D01*
X9564064Y-20340964D01*
X9564064Y-20360011D01*
X9468826Y-20379059D01*
X9640254Y-20436202D02*
X9659302Y-20445726D01*
X9697397Y-20445726D01*
X9716445Y-20436202D01*
X9725969Y-20417154D01*
X9725969Y-20407630D01*
X9716445Y-20388583D01*
X9697397Y-20379059D01*
X9668826Y-20379059D01*
X9649778Y-20369535D01*
X9640254Y-20350488D01*
X9640254Y-20340964D01*
X9649778Y-20321916D01*
X9668826Y-20312392D01*
X9697397Y-20312392D01*
X9716445Y-20321916D01*
X9792635Y-20521916D02*
X9802159Y-20512392D01*
X9821207Y-20483821D01*
X9830730Y-20464773D01*
X9840254Y-20436202D01*
X9849778Y-20388583D01*
X9849778Y-20350488D01*
X9840254Y-20302869D01*
X9830730Y-20274297D01*
X9821207Y-20255250D01*
X9802159Y-20226678D01*
X9792635Y-20217154D01*
X4820731Y-20519250D02*
X5020731Y-20719250D01*
X5020731Y-20519250D02*
X4820731Y-20719250D01*
X5020731Y-20619250D02*
G75*
G03*
X5020731Y-20619250I-100000J0D01*
G01*
X5364064Y-20576392D02*
X5364064Y-20709726D01*
X5316445Y-20500202D02*
X5268826Y-20643059D01*
X5392635Y-20643059D01*
X5468826Y-20690678D02*
X5478350Y-20700202D01*
X5468826Y-20709726D01*
X5459302Y-20700202D01*
X5468826Y-20690678D01*
X5468826Y-20709726D01*
X5668826Y-20709726D02*
X5554540Y-20709726D01*
X5611683Y-20709726D02*
X5611683Y-20509726D01*
X5592635Y-20538297D01*
X5573588Y-20557345D01*
X5554540Y-20566869D01*
X5792635Y-20509726D02*
X5811683Y-20509726D01*
X5830730Y-20519250D01*
X5840254Y-20528773D01*
X5849778Y-20547821D01*
X5859302Y-20585916D01*
X5859302Y-20633535D01*
X5849778Y-20671630D01*
X5840254Y-20690678D01*
X5830730Y-20700202D01*
X5811683Y-20709726D01*
X5792635Y-20709726D01*
X5773588Y-20700202D01*
X5764064Y-20690678D01*
X5754540Y-20671630D01*
X5745016Y-20633535D01*
X5745016Y-20585916D01*
X5754540Y-20547821D01*
X5764064Y-20528773D01*
X5773588Y-20519250D01*
X5792635Y-20509726D01*
X5983111Y-20509726D02*
X6002159Y-20509726D01*
X6021207Y-20519250D01*
X6030730Y-20528773D01*
X6040254Y-20547821D01*
X6049778Y-20585916D01*
X6049778Y-20633535D01*
X6040254Y-20671630D01*
X6030730Y-20690678D01*
X6021207Y-20700202D01*
X6002159Y-20709726D01*
X5983111Y-20709726D01*
X5964064Y-20700202D01*
X5954540Y-20690678D01*
X5945016Y-20671630D01*
X5935492Y-20633535D01*
X5935492Y-20585916D01*
X5945016Y-20547821D01*
X5954540Y-20528773D01*
X5964064Y-20519250D01*
X5983111Y-20509726D01*
X6135492Y-20709726D02*
X6135492Y-20576392D01*
X6135492Y-20595440D02*
X6145016Y-20585916D01*
X6164064Y-20576392D01*
X6192635Y-20576392D01*
X6211683Y-20585916D01*
X6221207Y-20604964D01*
X6221207Y-20709726D01*
X6221207Y-20604964D02*
X6230730Y-20585916D01*
X6249778Y-20576392D01*
X6278349Y-20576392D01*
X6297397Y-20585916D01*
X6306921Y-20604964D01*
X6306921Y-20709726D01*
X6402159Y-20709726D02*
X6402159Y-20576392D01*
X6402159Y-20595440D02*
X6411683Y-20585916D01*
X6430730Y-20576392D01*
X6459302Y-20576392D01*
X6478349Y-20585916D01*
X6487873Y-20604964D01*
X6487873Y-20709726D01*
X6487873Y-20604964D02*
X6497397Y-20585916D01*
X6516445Y-20576392D01*
X6545016Y-20576392D01*
X6564064Y-20585916D01*
X6573588Y-20604964D01*
X6573588Y-20709726D01*
X6964064Y-20500202D02*
X6792635Y-20757345D01*
X7221207Y-20509726D02*
X7240254Y-20509726D01*
X7259302Y-20519250D01*
X7268826Y-20528773D01*
X7278349Y-20547821D01*
X7287873Y-20585916D01*
X7287873Y-20633535D01*
X7278349Y-20671630D01*
X7268826Y-20690678D01*
X7259302Y-20700202D01*
X7240254Y-20709726D01*
X7221207Y-20709726D01*
X7202159Y-20700202D01*
X7192635Y-20690678D01*
X7183111Y-20671630D01*
X7173588Y-20633535D01*
X7173588Y-20585916D01*
X7183111Y-20547821D01*
X7192635Y-20528773D01*
X7202159Y-20519250D01*
X7221207Y-20509726D01*
X7373588Y-20690678D02*
X7383111Y-20700202D01*
X7373588Y-20709726D01*
X7364064Y-20700202D01*
X7373588Y-20690678D01*
X7373588Y-20709726D01*
X7573588Y-20709726D02*
X7459302Y-20709726D01*
X7516445Y-20709726D02*
X7516445Y-20509726D01*
X7497397Y-20538297D01*
X7478349Y-20557345D01*
X7459302Y-20566869D01*
X7745016Y-20509726D02*
X7706921Y-20509726D01*
X7687873Y-20519250D01*
X7678349Y-20528773D01*
X7659302Y-20557345D01*
X7649778Y-20595440D01*
X7649778Y-20671630D01*
X7659302Y-20690678D01*
X7668826Y-20700202D01*
X7687873Y-20709726D01*
X7725968Y-20709726D01*
X7745016Y-20700202D01*
X7754540Y-20690678D01*
X7764064Y-20671630D01*
X7764064Y-20624011D01*
X7754540Y-20604964D01*
X7745016Y-20595440D01*
X7725968Y-20585916D01*
X7687873Y-20585916D01*
X7668826Y-20595440D01*
X7659302Y-20604964D01*
X7649778Y-20624011D01*
X7954540Y-20709726D02*
X7840254Y-20709726D01*
X7897397Y-20709726D02*
X7897397Y-20509726D01*
X7878349Y-20538297D01*
X7859302Y-20557345D01*
X7840254Y-20566869D01*
X8125968Y-20576392D02*
X8125968Y-20709726D01*
X8078349Y-20500202D02*
X8030730Y-20643059D01*
X8154540Y-20643059D01*
X8221207Y-20509726D02*
X8221207Y-20547821D01*
X8297397Y-20509726D02*
X8297397Y-20547821D01*
X8592635Y-20785916D02*
X8583111Y-20776392D01*
X8564064Y-20747821D01*
X8554540Y-20728773D01*
X8545016Y-20700202D01*
X8535492Y-20652583D01*
X8535492Y-20614488D01*
X8545016Y-20566869D01*
X8554540Y-20538297D01*
X8564064Y-20519250D01*
X8583111Y-20490678D01*
X8592635Y-20481154D01*
X8773588Y-20709726D02*
X8659302Y-20709726D01*
X8716445Y-20709726D02*
X8716445Y-20509726D01*
X8697397Y-20538297D01*
X8678350Y-20557345D01*
X8659302Y-20566869D01*
X8897397Y-20509726D02*
X8916445Y-20509726D01*
X8935492Y-20519250D01*
X8945016Y-20528773D01*
X8954540Y-20547821D01*
X8964064Y-20585916D01*
X8964064Y-20633535D01*
X8954540Y-20671630D01*
X8945016Y-20690678D01*
X8935492Y-20700202D01*
X8916445Y-20709726D01*
X8897397Y-20709726D01*
X8878350Y-20700202D01*
X8868826Y-20690678D01*
X8859302Y-20671630D01*
X8849778Y-20633535D01*
X8849778Y-20585916D01*
X8859302Y-20547821D01*
X8868826Y-20528773D01*
X8878350Y-20519250D01*
X8897397Y-20509726D01*
X9202159Y-20709726D02*
X9202159Y-20509726D01*
X9287873Y-20709726D02*
X9287873Y-20604964D01*
X9278350Y-20585916D01*
X9259302Y-20576392D01*
X9230730Y-20576392D01*
X9211683Y-20585916D01*
X9202159Y-20595440D01*
X9411683Y-20709726D02*
X9392635Y-20700202D01*
X9383111Y-20690678D01*
X9373588Y-20671630D01*
X9373588Y-20614488D01*
X9383111Y-20595440D01*
X9392635Y-20585916D01*
X9411683Y-20576392D01*
X9440254Y-20576392D01*
X9459302Y-20585916D01*
X9468826Y-20595440D01*
X9478350Y-20614488D01*
X9478350Y-20671630D01*
X9468826Y-20690678D01*
X9459302Y-20700202D01*
X9440254Y-20709726D01*
X9411683Y-20709726D01*
X9592635Y-20709726D02*
X9573588Y-20700202D01*
X9564064Y-20681154D01*
X9564064Y-20509726D01*
X9745016Y-20700202D02*
X9725969Y-20709726D01*
X9687873Y-20709726D01*
X9668826Y-20700202D01*
X9659302Y-20681154D01*
X9659302Y-20604964D01*
X9668826Y-20585916D01*
X9687873Y-20576392D01*
X9725969Y-20576392D01*
X9745016Y-20585916D01*
X9754540Y-20604964D01*
X9754540Y-20624011D01*
X9659302Y-20643059D01*
X9830730Y-20700202D02*
X9849778Y-20709726D01*
X9887873Y-20709726D01*
X9906921Y-20700202D01*
X9916445Y-20681154D01*
X9916445Y-20671630D01*
X9906921Y-20652583D01*
X9887873Y-20643059D01*
X9859302Y-20643059D01*
X9840254Y-20633535D01*
X9830730Y-20614488D01*
X9830730Y-20604964D01*
X9840254Y-20585916D01*
X9859302Y-20576392D01*
X9887873Y-20576392D01*
X9906921Y-20585916D01*
X9983111Y-20785916D02*
X9992635Y-20776392D01*
X10011683Y-20747821D01*
X10021207Y-20728773D01*
X10030730Y-20700202D01*
X10040254Y-20652583D01*
X10040254Y-20614488D01*
X10030730Y-20566869D01*
X10021207Y-20538297D01*
X10011683Y-20519250D01*
X9992635Y-20490678D01*
X9983111Y-20481154D01*
M02*
