G04 #@! TF.GenerationSoftware,KiCad,Pcbnew,(6.0.2-0)*
G04 #@! TF.CreationDate,2022-02-19T09:02:28+00:00*
G04 #@! TF.ProjectId,atreyu-pcb2,61747265-7975-42d7-9063-62322e6b6963,rev?*
G04 #@! TF.SameCoordinates,Original*
G04 #@! TF.FileFunction,Legend,Bot*
G04 #@! TF.FilePolarity,Positive*
%FSLAX46Y46*%
G04 Gerber Fmt 4.6, Leading zero omitted, Abs format (unit mm)*
G04 Created by KiCad (PCBNEW (6.0.2-0)) date 2022-02-19 09:02:28*
%MOMM*%
%LPD*%
G01*
G04 APERTURE LIST*
%ADD10C,0.150000*%
%ADD11C,0.300000*%
%ADD12C,0.500000*%
%ADD13C,0.400000*%
%ADD14C,3.500000*%
%ADD15C,3.000000*%
%ADD16C,0.800000*%
%ADD17C,1.000000*%
%ADD18C,0.200000*%
%ADD19C,0.381000*%
%ADD20C,0.120000*%
%ADD21R,1.752600X1.752600*%
%ADD22C,1.752600*%
%ADD23C,1.900000*%
%ADD24C,3.000000*%
%ADD25C,4.100000*%
%ADD26C,1.400000*%
%ADD27C,4.700000*%
%ADD28C,2.000000*%
G04 APERTURE END LIST*
D10*
X211650226Y-96783398D02*
X211383560Y-97583398D01*
X211116893Y-96783398D01*
X210393083Y-97507208D02*
X210431179Y-97545303D01*
X210545464Y-97583398D01*
X210621655Y-97583398D01*
X210735940Y-97545303D01*
X210812131Y-97469113D01*
X210850226Y-97392922D01*
X210888321Y-97240541D01*
X210888321Y-97126255D01*
X210850226Y-96973874D01*
X210812131Y-96897684D01*
X210735940Y-96821494D01*
X210621655Y-96783398D01*
X210545464Y-96783398D01*
X210431179Y-96821494D01*
X210393083Y-96859589D01*
X209593083Y-97507208D02*
X209631179Y-97545303D01*
X209745464Y-97583398D01*
X209821655Y-97583398D01*
X209935940Y-97545303D01*
X210012131Y-97469113D01*
X210050226Y-97392922D01*
X210088321Y-97240541D01*
X210088321Y-97126255D01*
X210050226Y-96973874D01*
X210012131Y-96897684D01*
X209935940Y-96821494D01*
X209821655Y-96783398D01*
X209745464Y-96783398D01*
X209631179Y-96821494D01*
X209593083Y-96859589D01*
X210907369Y-89544351D02*
X210793083Y-89582446D01*
X210754988Y-89620541D01*
X210716893Y-89696732D01*
X210716893Y-89811017D01*
X210754988Y-89887208D01*
X210793083Y-89925303D01*
X210869274Y-89963398D01*
X211174036Y-89963398D01*
X211174036Y-89163398D01*
X210907369Y-89163398D01*
X210831179Y-89201494D01*
X210793083Y-89239589D01*
X210754988Y-89315779D01*
X210754988Y-89391970D01*
X210793083Y-89468160D01*
X210831179Y-89506255D01*
X210907369Y-89544351D01*
X211174036Y-89544351D01*
X210221655Y-89163398D02*
X210145464Y-89163398D01*
X210069274Y-89201494D01*
X210031179Y-89239589D01*
X209993083Y-89315779D01*
X209954988Y-89468160D01*
X209954988Y-89658636D01*
X209993083Y-89811017D01*
X210031179Y-89887208D01*
X210069274Y-89925303D01*
X210145464Y-89963398D01*
X210221655Y-89963398D01*
X210297845Y-89925303D01*
X210335940Y-89887208D01*
X210374036Y-89811017D01*
X210412131Y-89658636D01*
X210412131Y-89468160D01*
X210374036Y-89315779D01*
X210335940Y-89239589D01*
X210297845Y-89201494D01*
X210221655Y-89163398D01*
X209855893Y-116121494D02*
X210089226Y-116121494D01*
X210089226Y-116488160D02*
X210089226Y-115788160D01*
X209755893Y-115788160D01*
X209355893Y-115788160D02*
X209289226Y-115788160D01*
X209222560Y-115821494D01*
X209189226Y-115854827D01*
X209155893Y-115921494D01*
X209122560Y-116054827D01*
X209122560Y-116221494D01*
X209155893Y-116354827D01*
X209189226Y-116421494D01*
X209222560Y-116454827D01*
X209289226Y-116488160D01*
X209355893Y-116488160D01*
X209422560Y-116454827D01*
X209455893Y-116421494D01*
X209489226Y-116354827D01*
X209522560Y-116221494D01*
X209522560Y-116054827D01*
X209489226Y-115921494D01*
X209455893Y-115854827D01*
X209422560Y-115821494D01*
X209355893Y-115788160D01*
X210695893Y-94985303D02*
X210581607Y-95023398D01*
X210391131Y-95023398D01*
X210314940Y-94985303D01*
X210276845Y-94947208D01*
X210238750Y-94871017D01*
X210238750Y-94794827D01*
X210276845Y-94718636D01*
X210314940Y-94680541D01*
X210391131Y-94642446D01*
X210543512Y-94604351D01*
X210619702Y-94566255D01*
X210657798Y-94528160D01*
X210695893Y-94451970D01*
X210695893Y-94375779D01*
X210657798Y-94299589D01*
X210619702Y-94261494D01*
X210543512Y-94223398D01*
X210353036Y-94223398D01*
X210238750Y-94261494D01*
X210010179Y-94223398D02*
X209553036Y-94223398D01*
X209781607Y-95023398D02*
X209781607Y-94223398D01*
X200252036Y-105203398D02*
X200252036Y-104403398D01*
X200061560Y-104403398D01*
X199947274Y-104441494D01*
X199871083Y-104517684D01*
X199832988Y-104593874D01*
X199794893Y-104746255D01*
X199794893Y-104860541D01*
X199832988Y-105012922D01*
X199871083Y-105089113D01*
X199947274Y-105165303D01*
X200061560Y-105203398D01*
X200252036Y-105203398D01*
X199109179Y-104670065D02*
X199109179Y-105203398D01*
X199299655Y-104365303D02*
X199490131Y-104936732D01*
X198994893Y-104936732D01*
X199794893Y-107667208D02*
X199832988Y-107705303D01*
X199947274Y-107743398D01*
X200023464Y-107743398D01*
X200137750Y-107705303D01*
X200213940Y-107629113D01*
X200252036Y-107552922D01*
X200290131Y-107400541D01*
X200290131Y-107286255D01*
X200252036Y-107133874D01*
X200213940Y-107057684D01*
X200137750Y-106981494D01*
X200023464Y-106943398D01*
X199947274Y-106943398D01*
X199832988Y-106981494D01*
X199794893Y-107019589D01*
X199109179Y-106943398D02*
X199261560Y-106943398D01*
X199337750Y-106981494D01*
X199375845Y-107019589D01*
X199452036Y-107133874D01*
X199490131Y-107286255D01*
X199490131Y-107591017D01*
X199452036Y-107667208D01*
X199413940Y-107705303D01*
X199337750Y-107743398D01*
X199185369Y-107743398D01*
X199109179Y-107705303D01*
X199071083Y-107667208D01*
X199032988Y-107591017D01*
X199032988Y-107400541D01*
X199071083Y-107324351D01*
X199109179Y-107286255D01*
X199185369Y-107248160D01*
X199337750Y-107248160D01*
X199413940Y-107286255D01*
X199452036Y-107324351D01*
X199490131Y-107400541D01*
X198486857Y-116106502D02*
X198581138Y-116153642D01*
X198628279Y-116153642D01*
X198698989Y-116130072D01*
X198769700Y-116059361D01*
X198793270Y-115988651D01*
X198793270Y-115941510D01*
X198769700Y-115870800D01*
X198581138Y-115682238D01*
X198086163Y-116177213D01*
X198251155Y-116342204D01*
X198321866Y-116365774D01*
X198369006Y-116365774D01*
X198439717Y-116342204D01*
X198486857Y-116295064D01*
X198510427Y-116224353D01*
X198510427Y-116177213D01*
X198486857Y-116106502D01*
X198321866Y-115941510D01*
X198816840Y-116907890D02*
X198581138Y-116672187D01*
X198793270Y-116412915D01*
X198793270Y-116460055D01*
X198816840Y-116530766D01*
X198934692Y-116648617D01*
X199005402Y-116672187D01*
X199052543Y-116672187D01*
X199123253Y-116648617D01*
X199241104Y-116530766D01*
X199264675Y-116460055D01*
X199264675Y-116412915D01*
X199241104Y-116342204D01*
X199123253Y-116224353D01*
X199052543Y-116200783D01*
X199005402Y-116200783D01*
X200252036Y-100123398D02*
X200252036Y-99323398D01*
X200061560Y-99323398D01*
X199947274Y-99361494D01*
X199871083Y-99437684D01*
X199832988Y-99513874D01*
X199794893Y-99666255D01*
X199794893Y-99780541D01*
X199832988Y-99932922D01*
X199871083Y-100009113D01*
X199947274Y-100085303D01*
X200061560Y-100123398D01*
X200252036Y-100123398D01*
X199032988Y-100123398D02*
X199490131Y-100123398D01*
X199261560Y-100123398D02*
X199261560Y-99323398D01*
X199337750Y-99437684D01*
X199413940Y-99513874D01*
X199490131Y-99551970D01*
X200213940Y-112404351D02*
X199947274Y-112404351D01*
X199832988Y-112823398D02*
X200213940Y-112823398D01*
X200213940Y-112023398D01*
X199832988Y-112023398D01*
X199147274Y-112023398D02*
X199299655Y-112023398D01*
X199375845Y-112061494D01*
X199413940Y-112099589D01*
X199490131Y-112213874D01*
X199528226Y-112366255D01*
X199528226Y-112671017D01*
X199490131Y-112747208D01*
X199452036Y-112785303D01*
X199375845Y-112823398D01*
X199223464Y-112823398D01*
X199147274Y-112785303D01*
X199109179Y-112747208D01*
X199071083Y-112671017D01*
X199071083Y-112480541D01*
X199109179Y-112404351D01*
X199147274Y-112366255D01*
X199223464Y-112328160D01*
X199375845Y-112328160D01*
X199452036Y-112366255D01*
X199490131Y-112404351D01*
X199528226Y-112480541D01*
X207929226Y-115914351D02*
X208195893Y-115914351D01*
X208195893Y-116333398D02*
X208195893Y-115533398D01*
X207814940Y-115533398D01*
X207091131Y-116333398D02*
X207548274Y-116333398D01*
X207319702Y-116333398D02*
X207319702Y-115533398D01*
X207395893Y-115647684D01*
X207472083Y-115723874D01*
X207548274Y-115761970D01*
X203173036Y-116333398D02*
X203173036Y-115533398D01*
X202982560Y-115533398D01*
X202868274Y-115571494D01*
X202792083Y-115647684D01*
X202753988Y-115723874D01*
X202715893Y-115876255D01*
X202715893Y-115990541D01*
X202753988Y-116142922D01*
X202792083Y-116219113D01*
X202868274Y-116295303D01*
X202982560Y-116333398D01*
X203173036Y-116333398D01*
X201992083Y-115533398D02*
X202373036Y-115533398D01*
X202411131Y-115914351D01*
X202373036Y-115876255D01*
X202296845Y-115838160D01*
X202106369Y-115838160D01*
X202030179Y-115876255D01*
X201992083Y-115914351D01*
X201953988Y-115990541D01*
X201953988Y-116181017D01*
X201992083Y-116257208D01*
X202030179Y-116295303D01*
X202106369Y-116333398D01*
X202296845Y-116333398D01*
X202373036Y-116295303D01*
X202411131Y-116257208D01*
X210850226Y-104784351D02*
X211116893Y-104784351D01*
X211116893Y-105203398D02*
X211116893Y-104403398D01*
X210735940Y-104403398D01*
X210088321Y-104403398D02*
X210240702Y-104403398D01*
X210316893Y-104441494D01*
X210354988Y-104479589D01*
X210431179Y-104593874D01*
X210469274Y-104746255D01*
X210469274Y-105051017D01*
X210431179Y-105127208D01*
X210393083Y-105165303D01*
X210316893Y-105203398D01*
X210164512Y-105203398D01*
X210088321Y-105165303D01*
X210050226Y-105127208D01*
X210012131Y-105051017D01*
X210012131Y-104860541D01*
X210050226Y-104784351D01*
X210088321Y-104746255D01*
X210164512Y-104708160D01*
X210316893Y-104708160D01*
X210393083Y-104746255D01*
X210431179Y-104784351D01*
X210469274Y-104860541D01*
X199985369Y-114944351D02*
X199871083Y-114982446D01*
X199832988Y-115020541D01*
X199794893Y-115096732D01*
X199794893Y-115211017D01*
X199832988Y-115287208D01*
X199871083Y-115325303D01*
X199947274Y-115363398D01*
X200252036Y-115363398D01*
X200252036Y-114563398D01*
X199985369Y-114563398D01*
X199909179Y-114601494D01*
X199871083Y-114639589D01*
X199832988Y-114715779D01*
X199832988Y-114791970D01*
X199871083Y-114868160D01*
X199909179Y-114906255D01*
X199985369Y-114944351D01*
X200252036Y-114944351D01*
X199109179Y-114830065D02*
X199109179Y-115363398D01*
X199299655Y-114525303D02*
X199490131Y-115096732D01*
X198994893Y-115096732D01*
X210850226Y-107324351D02*
X211116893Y-107324351D01*
X211116893Y-107743398D02*
X211116893Y-106943398D01*
X210735940Y-106943398D01*
X210507369Y-106943398D02*
X209974036Y-106943398D01*
X210316893Y-107743398D01*
X211193083Y-91741494D02*
X211269274Y-91703398D01*
X211383560Y-91703398D01*
X211497845Y-91741494D01*
X211574036Y-91817684D01*
X211612131Y-91893874D01*
X211650226Y-92046255D01*
X211650226Y-92160541D01*
X211612131Y-92312922D01*
X211574036Y-92389113D01*
X211497845Y-92465303D01*
X211383560Y-92503398D01*
X211307369Y-92503398D01*
X211193083Y-92465303D01*
X211154988Y-92427208D01*
X211154988Y-92160541D01*
X211307369Y-92160541D01*
X210812131Y-92503398D02*
X210812131Y-91703398D01*
X210354988Y-92503398D01*
X210354988Y-91703398D01*
X209974036Y-92503398D02*
X209974036Y-91703398D01*
X209783560Y-91703398D01*
X209669274Y-91741494D01*
X209593083Y-91817684D01*
X209554988Y-91893874D01*
X209516893Y-92046255D01*
X209516893Y-92160541D01*
X209554988Y-92312922D01*
X209593083Y-92389113D01*
X209669274Y-92465303D01*
X209783560Y-92503398D01*
X209974036Y-92503398D01*
X200252036Y-110283398D02*
X200252036Y-109483398D01*
X200061560Y-109483398D01*
X199947274Y-109521494D01*
X199871083Y-109597684D01*
X199832988Y-109673874D01*
X199794893Y-109826255D01*
X199794893Y-109940541D01*
X199832988Y-110092922D01*
X199871083Y-110169113D01*
X199947274Y-110245303D01*
X200061560Y-110283398D01*
X200252036Y-110283398D01*
X199528226Y-109483398D02*
X198994893Y-109483398D01*
X199337750Y-110283398D01*
X200271083Y-96821494D02*
X200347274Y-96783398D01*
X200461560Y-96783398D01*
X200575845Y-96821494D01*
X200652036Y-96897684D01*
X200690131Y-96973874D01*
X200728226Y-97126255D01*
X200728226Y-97240541D01*
X200690131Y-97392922D01*
X200652036Y-97469113D01*
X200575845Y-97545303D01*
X200461560Y-97583398D01*
X200385369Y-97583398D01*
X200271083Y-97545303D01*
X200232988Y-97507208D01*
X200232988Y-97240541D01*
X200385369Y-97240541D01*
X199890131Y-97583398D02*
X199890131Y-96783398D01*
X199432988Y-97583398D01*
X199432988Y-96783398D01*
X199052036Y-97583398D02*
X199052036Y-96783398D01*
X198861560Y-96783398D01*
X198747274Y-96821494D01*
X198671083Y-96897684D01*
X198632988Y-96973874D01*
X198594893Y-97126255D01*
X198594893Y-97240541D01*
X198632988Y-97392922D01*
X198671083Y-97469113D01*
X198747274Y-97545303D01*
X198861560Y-97583398D01*
X199052036Y-97583398D01*
X200252036Y-92503398D02*
X200252036Y-91703398D01*
X200061560Y-91703398D01*
X199947274Y-91741494D01*
X199871083Y-91817684D01*
X199832988Y-91893874D01*
X199794893Y-92046255D01*
X199794893Y-92160541D01*
X199832988Y-92312922D01*
X199871083Y-92389113D01*
X199947274Y-92465303D01*
X200061560Y-92503398D01*
X200252036Y-92503398D01*
X199490131Y-91779589D02*
X199452036Y-91741494D01*
X199375845Y-91703398D01*
X199185369Y-91703398D01*
X199109179Y-91741494D01*
X199071083Y-91779589D01*
X199032988Y-91855779D01*
X199032988Y-91931970D01*
X199071083Y-92046255D01*
X199528226Y-92503398D01*
X199032988Y-92503398D01*
X200252036Y-102663398D02*
X200252036Y-101863398D01*
X200061560Y-101863398D01*
X199947274Y-101901494D01*
X199871083Y-101977684D01*
X199832988Y-102053874D01*
X199794893Y-102206255D01*
X199794893Y-102320541D01*
X199832988Y-102472922D01*
X199871083Y-102549113D01*
X199947274Y-102625303D01*
X200061560Y-102663398D01*
X200252036Y-102663398D01*
X199299655Y-101863398D02*
X199223464Y-101863398D01*
X199147274Y-101901494D01*
X199109179Y-101939589D01*
X199071083Y-102015779D01*
X199032988Y-102168160D01*
X199032988Y-102358636D01*
X199071083Y-102511017D01*
X199109179Y-102587208D01*
X199147274Y-102625303D01*
X199223464Y-102663398D01*
X199299655Y-102663398D01*
X199375845Y-102625303D01*
X199413940Y-102587208D01*
X199452036Y-102511017D01*
X199490131Y-102358636D01*
X199490131Y-102168160D01*
X199452036Y-102015779D01*
X199413940Y-101939589D01*
X199375845Y-101901494D01*
X199299655Y-101863398D01*
X210907369Y-109864351D02*
X210793083Y-109902446D01*
X210754988Y-109940541D01*
X210716893Y-110016732D01*
X210716893Y-110131017D01*
X210754988Y-110207208D01*
X210793083Y-110245303D01*
X210869274Y-110283398D01*
X211174036Y-110283398D01*
X211174036Y-109483398D01*
X210907369Y-109483398D01*
X210831179Y-109521494D01*
X210793083Y-109559589D01*
X210754988Y-109635779D01*
X210754988Y-109711970D01*
X210793083Y-109788160D01*
X210831179Y-109826255D01*
X210907369Y-109864351D01*
X211174036Y-109864351D01*
X209954988Y-110283398D02*
X210412131Y-110283398D01*
X210183560Y-110283398D02*
X210183560Y-109483398D01*
X210259750Y-109597684D01*
X210335940Y-109673874D01*
X210412131Y-109711970D01*
X210907369Y-114944351D02*
X210793083Y-114982446D01*
X210754988Y-115020541D01*
X210716893Y-115096732D01*
X210716893Y-115211017D01*
X210754988Y-115287208D01*
X210793083Y-115325303D01*
X210869274Y-115363398D01*
X211174036Y-115363398D01*
X211174036Y-114563398D01*
X210907369Y-114563398D01*
X210831179Y-114601494D01*
X210793083Y-114639589D01*
X210754988Y-114715779D01*
X210754988Y-114791970D01*
X210793083Y-114868160D01*
X210831179Y-114906255D01*
X210907369Y-114944351D01*
X211174036Y-114944351D01*
X210412131Y-114639589D02*
X210374036Y-114601494D01*
X210297845Y-114563398D01*
X210107369Y-114563398D01*
X210031179Y-114601494D01*
X209993083Y-114639589D01*
X209954988Y-114715779D01*
X209954988Y-114791970D01*
X209993083Y-114906255D01*
X210450226Y-115363398D01*
X209954988Y-115363398D01*
X210850226Y-102244351D02*
X211116893Y-102244351D01*
X211116893Y-102663398D02*
X211116893Y-101863398D01*
X210735940Y-101863398D01*
X210050226Y-101863398D02*
X210431179Y-101863398D01*
X210469274Y-102244351D01*
X210431179Y-102206255D01*
X210354988Y-102168160D01*
X210164512Y-102168160D01*
X210088321Y-102206255D01*
X210050226Y-102244351D01*
X210012131Y-102320541D01*
X210012131Y-102511017D01*
X210050226Y-102587208D01*
X210088321Y-102625303D01*
X210164512Y-102663398D01*
X210354988Y-102663398D01*
X210431179Y-102625303D01*
X210469274Y-102587208D01*
X200271083Y-94281494D02*
X200347274Y-94243398D01*
X200461560Y-94243398D01*
X200575845Y-94281494D01*
X200652036Y-94357684D01*
X200690131Y-94433874D01*
X200728226Y-94586255D01*
X200728226Y-94700541D01*
X200690131Y-94852922D01*
X200652036Y-94929113D01*
X200575845Y-95005303D01*
X200461560Y-95043398D01*
X200385369Y-95043398D01*
X200271083Y-95005303D01*
X200232988Y-94967208D01*
X200232988Y-94700541D01*
X200385369Y-94700541D01*
X199890131Y-95043398D02*
X199890131Y-94243398D01*
X199432988Y-95043398D01*
X199432988Y-94243398D01*
X199052036Y-95043398D02*
X199052036Y-94243398D01*
X198861560Y-94243398D01*
X198747274Y-94281494D01*
X198671083Y-94357684D01*
X198632988Y-94433874D01*
X198594893Y-94586255D01*
X198594893Y-94700541D01*
X198632988Y-94852922D01*
X198671083Y-94929113D01*
X198747274Y-95005303D01*
X198861560Y-95043398D01*
X199052036Y-95043398D01*
X211687551Y-116035791D02*
X211640411Y-116130072D01*
X211640411Y-116177213D01*
X211663981Y-116247923D01*
X211734692Y-116318634D01*
X211805402Y-116342204D01*
X211852543Y-116342204D01*
X211923253Y-116318634D01*
X212111815Y-116130072D01*
X211616840Y-115635097D01*
X211451849Y-115800089D01*
X211428279Y-115870800D01*
X211428279Y-115917940D01*
X211451849Y-115988651D01*
X211498989Y-116035791D01*
X211569700Y-116059361D01*
X211616840Y-116059361D01*
X211687551Y-116035791D01*
X211852543Y-115870800D01*
X210909734Y-116342204D02*
X211004015Y-116247923D01*
X211074725Y-116224353D01*
X211121866Y-116224353D01*
X211239717Y-116247923D01*
X211357568Y-116318634D01*
X211546130Y-116507196D01*
X211569700Y-116577906D01*
X211569700Y-116625047D01*
X211546130Y-116695758D01*
X211451849Y-116790038D01*
X211381138Y-116813609D01*
X211333998Y-116813609D01*
X211263287Y-116790038D01*
X211145436Y-116672187D01*
X211121866Y-116601477D01*
X211121866Y-116554336D01*
X211145436Y-116483626D01*
X211239717Y-116389345D01*
X211310427Y-116365774D01*
X211357568Y-116365774D01*
X211428279Y-116389345D01*
X210907369Y-112404351D02*
X210793083Y-112442446D01*
X210754988Y-112480541D01*
X210716893Y-112556732D01*
X210716893Y-112671017D01*
X210754988Y-112747208D01*
X210793083Y-112785303D01*
X210869274Y-112823398D01*
X211174036Y-112823398D01*
X211174036Y-112023398D01*
X210907369Y-112023398D01*
X210831179Y-112061494D01*
X210793083Y-112099589D01*
X210754988Y-112175779D01*
X210754988Y-112251970D01*
X210793083Y-112328160D01*
X210831179Y-112366255D01*
X210907369Y-112404351D01*
X211174036Y-112404351D01*
X210450226Y-112023398D02*
X209954988Y-112023398D01*
X210221655Y-112328160D01*
X210107369Y-112328160D01*
X210031179Y-112366255D01*
X209993083Y-112404351D01*
X209954988Y-112480541D01*
X209954988Y-112671017D01*
X209993083Y-112747208D01*
X210031179Y-112785303D01*
X210107369Y-112823398D01*
X210335940Y-112823398D01*
X210412131Y-112785303D01*
X210450226Y-112747208D01*
X205255893Y-116257208D02*
X205293988Y-116295303D01*
X205408274Y-116333398D01*
X205484464Y-116333398D01*
X205598750Y-116295303D01*
X205674940Y-116219113D01*
X205713036Y-116142922D01*
X205751131Y-115990541D01*
X205751131Y-115876255D01*
X205713036Y-115723874D01*
X205674940Y-115647684D01*
X205598750Y-115571494D01*
X205484464Y-115533398D01*
X205408274Y-115533398D01*
X205293988Y-115571494D01*
X205255893Y-115609589D01*
X204989226Y-115533398D02*
X204455893Y-115533398D01*
X204798750Y-116333398D01*
X203741164Y-89163398D02*
X203284021Y-89163398D01*
X203512592Y-89963398D02*
X203512592Y-89163398D01*
X203093545Y-89163398D02*
X202560211Y-89963398D01*
X202560211Y-89163398D02*
X203093545Y-89963398D01*
X202103068Y-89163398D02*
X202026878Y-89163398D01*
X201950688Y-89201494D01*
X201912592Y-89239589D01*
X201874497Y-89315779D01*
X201836402Y-89468160D01*
X201836402Y-89658636D01*
X201874497Y-89811017D01*
X201912592Y-89887208D01*
X201950688Y-89925303D01*
X202026878Y-89963398D01*
X202103068Y-89963398D01*
X202179259Y-89925303D01*
X202217354Y-89887208D01*
X202255449Y-89811017D01*
X202293545Y-89658636D01*
X202293545Y-89468160D01*
X202255449Y-89315779D01*
X202217354Y-89239589D01*
X202179259Y-89201494D01*
X202103068Y-89163398D01*
X200922116Y-89125303D02*
X201607830Y-90153874D01*
X200655449Y-89963398D02*
X200655449Y-89163398D01*
X200464973Y-89163398D01*
X200350688Y-89201494D01*
X200274497Y-89277684D01*
X200236402Y-89353874D01*
X200198307Y-89506255D01*
X200198307Y-89620541D01*
X200236402Y-89772922D01*
X200274497Y-89849113D01*
X200350688Y-89925303D01*
X200464973Y-89963398D01*
X200655449Y-89963398D01*
X199931640Y-89163398D02*
X199436402Y-89163398D01*
X199703068Y-89468160D01*
X199588783Y-89468160D01*
X199512592Y-89506255D01*
X199474497Y-89544351D01*
X199436402Y-89620541D01*
X199436402Y-89811017D01*
X199474497Y-89887208D01*
X199512592Y-89925303D01*
X199588783Y-89963398D01*
X199817354Y-89963398D01*
X199893545Y-89925303D01*
X199931640Y-89887208D01*
X210850226Y-99704351D02*
X211116893Y-99704351D01*
X211116893Y-100123398D02*
X211116893Y-99323398D01*
X210735940Y-99323398D01*
X210088321Y-99590065D02*
X210088321Y-100123398D01*
X210278798Y-99285303D02*
X210469274Y-99856732D01*
X209974036Y-99856732D01*
X200905893Y-116121494D02*
X200805893Y-116154827D01*
X200772560Y-116188160D01*
X200739226Y-116254827D01*
X200739226Y-116354827D01*
X200772560Y-116421494D01*
X200805893Y-116454827D01*
X200872560Y-116488160D01*
X201139226Y-116488160D01*
X201139226Y-115788160D01*
X200905893Y-115788160D01*
X200839226Y-115821494D01*
X200805893Y-115854827D01*
X200772560Y-115921494D01*
X200772560Y-115988160D01*
X200805893Y-116054827D01*
X200839226Y-116088160D01*
X200905893Y-116121494D01*
X201139226Y-116121494D01*
X200505893Y-115788160D02*
X200039226Y-115788160D01*
X200339226Y-116488160D01*
X149876619Y-145928820D02*
X147518478Y-149702634D01*
D11*
X148954533Y-147121404D02*
X149298981Y-146570173D01*
D12*
X157011079Y-153099036D02*
X155935112Y-152367738D01*
D13*
X158722727Y-150454180D02*
X157662667Y-149791781D01*
D10*
X157561167Y-152558385D02*
X158753485Y-150650277D01*
D14*
X156475577Y-150936690D02*
X150793654Y-147386231D01*
D15*
X150893267Y-147094722D02*
X149706248Y-148994350D01*
D16*
X148080255Y-149464082D02*
X149034109Y-147937596D01*
D10*
X147518478Y-149702634D02*
X150088064Y-151308290D01*
X152977578Y-150873419D02*
X157048208Y-153417031D01*
X157048208Y-153417031D02*
X158955918Y-150364058D01*
D17*
X158213942Y-150607928D02*
X156889144Y-152728048D01*
D10*
X149214176Y-146517181D02*
X148816736Y-147153217D01*
X148816736Y-147153217D02*
X148986346Y-147259201D01*
X158955918Y-150364058D02*
X152001923Y-146018720D01*
D12*
X147794072Y-149639008D02*
X149871790Y-150937311D01*
D17*
X152850326Y-150322232D02*
G75*
G03*
X149975313Y-150740845I-1205048J-1805818D01*
G01*
D10*
X152977578Y-150873419D02*
G75*
G03*
X150102565Y-151292032I-1205049J-1805818D01*
G01*
X152001923Y-146018720D02*
G75*
G03*
X149214175Y-146517182I-1144644J-1643100D01*
G01*
D18*
X278711636Y-152049237D02*
X279206063Y-153570928D01*
X278959610Y-152809835D02*
X279885766Y-151615166D01*
X279885766Y-151615166D02*
X280411095Y-153231962D01*
X278959610Y-152809835D02*
X280411095Y-153231962D01*
X278958849Y-152810082D02*
X278578427Y-152933689D01*
X182525527Y-90151135D02*
X183019954Y-88629444D01*
X182771980Y-89390042D02*
X181320495Y-89812169D01*
X181320495Y-89812169D02*
X181845824Y-88195373D01*
X182771980Y-89390042D02*
X181845824Y-88195373D01*
X182772741Y-89390289D02*
X183153163Y-89513896D01*
D12*
X141999649Y-99432829D02*
X140778726Y-98983554D01*
D16*
X132454734Y-98066411D02*
X133010964Y-96354510D01*
D10*
X143225067Y-96308593D02*
X135426402Y-93774653D01*
X142112606Y-99732396D02*
X143225067Y-96308593D01*
X131967355Y-98433783D02*
X134849057Y-99370104D01*
D12*
X132219370Y-98305375D02*
X134549459Y-99062467D01*
D15*
X134610987Y-95086902D02*
X133918789Y-97217268D01*
D10*
X137547534Y-98249115D02*
X142112606Y-99732396D01*
X132842052Y-94932725D02*
X132610290Y-95646017D01*
X142402602Y-98775159D02*
X143097890Y-96635282D01*
D11*
X132736297Y-95581814D02*
X132937158Y-94963627D01*
D14*
X140956935Y-97464264D02*
X134584856Y-95393850D01*
D10*
X133342481Y-94201581D02*
X131967355Y-98433783D01*
X132610290Y-95646017D02*
X132800501Y-95707821D01*
D17*
X142564128Y-96724718D02*
X141791586Y-99102359D01*
D13*
X143020605Y-96452452D02*
X141831784Y-96066180D01*
D10*
X135426402Y-93774653D02*
G75*
G03*
X132842052Y-94932726I-713139J-1871210D01*
G01*
D17*
X137290718Y-97745087D02*
G75*
G03*
X134602378Y-98846793I-732386J-2043704D01*
G01*
D10*
X137547534Y-98249115D02*
G75*
G03*
X134859193Y-99350822I-732386J-2043705D01*
G01*
D18*
X244636567Y-80569127D02*
X245130994Y-82090818D01*
X244883780Y-81329972D02*
X244503358Y-81453579D01*
X244884541Y-81329725D02*
X245810697Y-80135056D01*
X244884541Y-81329725D02*
X246336026Y-81751852D01*
X245810697Y-80135056D02*
X246336026Y-81751852D01*
X148925142Y-161463073D02*
X147414650Y-161521515D01*
X148501885Y-162141935D02*
X149349756Y-160785058D01*
X148925142Y-161463073D02*
X148315513Y-160079833D01*
X147414650Y-161521515D02*
X148315513Y-160079833D01*
X148925820Y-161463497D02*
X149265039Y-161675465D01*
D15*
X306488695Y-93742097D02*
X307180893Y-95872463D01*
D16*
X306495560Y-97419984D02*
X305939330Y-95708083D01*
D14*
X313020052Y-91935369D02*
X306647974Y-94005782D01*
D12*
X306445607Y-97751653D02*
X308775695Y-96994562D01*
D10*
X306317199Y-98003668D02*
X309198900Y-97067346D01*
D11*
X305262940Y-95244404D02*
X305062079Y-94626217D01*
D13*
X314094868Y-89903800D02*
X312906048Y-90290071D01*
D12*
X315020719Y-92915079D02*
X313768895Y-93269248D01*
D10*
X310723113Y-94574321D02*
X315288185Y-93091040D01*
X304966974Y-94657119D02*
X305198736Y-95370411D01*
X315288185Y-93091040D02*
X314175724Y-89667236D01*
X314960147Y-92146163D02*
X314264858Y-90006286D01*
X314175724Y-89667236D02*
X306377059Y-92201176D01*
D17*
X313885605Y-90392379D02*
X314658148Y-92770020D01*
D10*
X305198736Y-95370411D02*
X305388948Y-95308608D01*
X304942073Y-93771466D02*
X306317199Y-98003668D01*
X306377059Y-92201176D02*
G75*
G03*
X304966974Y-94657120I522928J-1933013D01*
G01*
X310723113Y-94574321D02*
G75*
G03*
X309195767Y-97045788I608747J-2083878D01*
G01*
D17*
X310219084Y-94317506D02*
G75*
G03*
X308691738Y-96788973I608747J-2083878D01*
G01*
D10*
X137516695Y-143133797D02*
X138629156Y-139709994D01*
D12*
X127623459Y-141706776D02*
X129953548Y-142463868D01*
D13*
X138424694Y-139853853D02*
X137235873Y-139467581D01*
D10*
X132951623Y-141650516D02*
X137516695Y-143133797D01*
X127371444Y-141835184D02*
X130253146Y-142771505D01*
D16*
X127858823Y-141467812D02*
X128415053Y-139755911D01*
D10*
X137806691Y-142176560D02*
X138501979Y-140036683D01*
X128746570Y-137602982D02*
X127371444Y-141835184D01*
X128014379Y-139047418D02*
X128204590Y-139109222D01*
D14*
X136361024Y-140865665D02*
X129988945Y-138795251D01*
D10*
X128246141Y-138334126D02*
X128014379Y-139047418D01*
D17*
X137968217Y-140126119D02*
X137195675Y-142503760D01*
D10*
X138629156Y-139709994D02*
X130830491Y-137176054D01*
D12*
X137403738Y-142834230D02*
X136182815Y-142384955D01*
D11*
X128140386Y-138983215D02*
X128341247Y-138365028D01*
D15*
X130015076Y-138488303D02*
X129322878Y-140618669D01*
D17*
X132694807Y-141146488D02*
G75*
G03*
X130006467Y-142248194I-732386J-2043704D01*
G01*
D10*
X130830491Y-137176054D02*
G75*
G03*
X128246141Y-138334127I-713139J-1871210D01*
G01*
X132951623Y-141650516D02*
G75*
G03*
X130263282Y-142752223I-732386J-2043705D01*
G01*
D19*
X198772560Y-88331494D02*
X198772560Y-90871494D01*
X198772560Y-90871494D02*
X196232560Y-90871494D01*
X214012560Y-118811494D02*
X214012560Y-85791494D01*
X196232560Y-118811494D02*
X214012560Y-118811494D01*
X214012560Y-85791494D02*
X196232560Y-85791494D01*
X198772560Y-88331494D02*
X196232560Y-88331494D01*
X196232560Y-85791494D02*
X196232560Y-118811494D01*
D10*
X211367195Y-94220524D02*
X211367195Y-95020524D01*
X211367195Y-95020524D02*
X211467195Y-95020524D01*
X211467195Y-95020524D02*
X211467195Y-94220524D01*
X211467195Y-94220524D02*
X211367195Y-94220524D01*
G36*
X211467195Y-95020524D02*
G01*
X211367195Y-95020524D01*
X211367195Y-94220524D01*
X211467195Y-94220524D01*
X211467195Y-95020524D01*
G37*
X211467195Y-95020524D02*
X211367195Y-95020524D01*
X211367195Y-94220524D01*
X211467195Y-94220524D01*
X211467195Y-95020524D01*
X210967195Y-94820524D02*
X210967195Y-95020524D01*
X210967195Y-95020524D02*
X211067195Y-95020524D01*
X211067195Y-95020524D02*
X211067195Y-94820524D01*
X211067195Y-94820524D02*
X210967195Y-94820524D01*
G36*
X211067195Y-95020524D02*
G01*
X210967195Y-95020524D01*
X210967195Y-94820524D01*
X211067195Y-94820524D01*
X211067195Y-95020524D01*
G37*
X211067195Y-95020524D02*
X210967195Y-95020524D01*
X210967195Y-94820524D01*
X211067195Y-94820524D01*
X211067195Y-95020524D01*
X210967195Y-94220524D02*
X210967195Y-94520524D01*
X210967195Y-94520524D02*
X211067195Y-94520524D01*
X211067195Y-94520524D02*
X211067195Y-94220524D01*
X211067195Y-94220524D02*
X210967195Y-94220524D01*
G36*
X211067195Y-94520524D02*
G01*
X210967195Y-94520524D01*
X210967195Y-94220524D01*
X211067195Y-94220524D01*
X211067195Y-94520524D01*
G37*
X211067195Y-94520524D02*
X210967195Y-94520524D01*
X210967195Y-94220524D01*
X211067195Y-94220524D01*
X211067195Y-94520524D01*
X211167195Y-94620524D02*
X211167195Y-94720524D01*
X211167195Y-94720524D02*
X211267195Y-94720524D01*
X211267195Y-94720524D02*
X211267195Y-94620524D01*
X211267195Y-94620524D02*
X211167195Y-94620524D01*
G36*
X211267195Y-94720524D02*
G01*
X211167195Y-94720524D01*
X211167195Y-94620524D01*
X211267195Y-94620524D01*
X211267195Y-94720524D01*
G37*
X211267195Y-94720524D02*
X211167195Y-94720524D01*
X211167195Y-94620524D01*
X211267195Y-94620524D01*
X211267195Y-94720524D01*
X210967195Y-94220524D02*
X210967195Y-94320524D01*
X210967195Y-94320524D02*
X211467195Y-94320524D01*
X211467195Y-94320524D02*
X211467195Y-94220524D01*
X211467195Y-94220524D02*
X210967195Y-94220524D01*
G36*
X211467195Y-94320524D02*
G01*
X210967195Y-94320524D01*
X210967195Y-94220524D01*
X211467195Y-94220524D01*
X211467195Y-94320524D01*
G37*
X211467195Y-94320524D02*
X210967195Y-94320524D01*
X210967195Y-94220524D01*
X211467195Y-94220524D01*
X211467195Y-94320524D01*
D13*
X98348345Y-110647730D02*
X97159524Y-110261458D01*
D10*
X97440346Y-113927674D02*
X98552807Y-110503871D01*
D12*
X97327389Y-113628107D02*
X96106466Y-113178832D01*
D10*
X97730342Y-112970437D02*
X98425630Y-110830560D01*
D11*
X88064037Y-109777092D02*
X88264898Y-109158905D01*
D12*
X87547110Y-112500653D02*
X89877199Y-113257745D01*
D10*
X92875274Y-112444393D02*
X97440346Y-113927674D01*
D15*
X89938727Y-109282180D02*
X89246529Y-111412546D01*
D16*
X87782474Y-112261689D02*
X88338704Y-110549788D01*
D10*
X88670221Y-108396859D02*
X87295095Y-112629061D01*
D14*
X96284675Y-111659542D02*
X89912596Y-109589128D01*
D17*
X97891868Y-110919996D02*
X97119326Y-113297637D01*
D10*
X88169792Y-109128003D02*
X87938030Y-109841295D01*
X87295095Y-112629061D02*
X90176797Y-113565382D01*
X87938030Y-109841295D02*
X88128241Y-109903099D01*
X98552807Y-110503871D02*
X90754142Y-107969931D01*
D17*
X92618458Y-111940365D02*
G75*
G03*
X89930118Y-113042071I-732386J-2043704D01*
G01*
D10*
X92875274Y-112444393D02*
G75*
G03*
X90186933Y-113546100I-732386J-2043705D01*
G01*
X90754142Y-107969931D02*
G75*
G03*
X88169792Y-109128004I-713139J-1871210D01*
G01*
D13*
X246123732Y-65651442D02*
X244934912Y-66037713D01*
D10*
X238346063Y-73751310D02*
X241227764Y-72814988D01*
D12*
X247049583Y-68662721D02*
X245797759Y-69016890D01*
D16*
X238524424Y-73167626D02*
X237968194Y-71455725D01*
D12*
X238474471Y-73499295D02*
X240804559Y-72742204D01*
D10*
X242751977Y-70321963D02*
X247317049Y-68838682D01*
X247317049Y-68838682D02*
X246204588Y-65414878D01*
D17*
X245914469Y-66140021D02*
X246687012Y-68517662D01*
D14*
X245048916Y-67683011D02*
X238676838Y-69753424D01*
D10*
X237227600Y-71118053D02*
X237417812Y-71056250D01*
D15*
X238517559Y-69489739D02*
X239209757Y-71620105D01*
D10*
X236995838Y-70404761D02*
X237227600Y-71118053D01*
X246204588Y-65414878D02*
X238405923Y-67948818D01*
X246989011Y-67893805D02*
X246293722Y-65753928D01*
D11*
X237291804Y-70992046D02*
X237090943Y-70373859D01*
D10*
X236970937Y-69519108D02*
X238346063Y-73751310D01*
X242751977Y-70321963D02*
G75*
G03*
X241224631Y-72793430I608747J-2083878D01*
G01*
X238405923Y-67948818D02*
G75*
G03*
X236995838Y-70404762I522928J-1933013D01*
G01*
D17*
X242247948Y-70065148D02*
G75*
G03*
X240720602Y-72536615I608747J-2083878D01*
G01*
X225104086Y-125381256D02*
X225876629Y-127758897D01*
D12*
X226239200Y-127903956D02*
X224987376Y-128258125D01*
D10*
X226506666Y-128079917D02*
X225394205Y-124656113D01*
X221941594Y-129563198D02*
X226506666Y-128079917D01*
D15*
X217707176Y-128730974D02*
X218399374Y-130861340D01*
D14*
X224238533Y-126924246D02*
X217866455Y-128994659D01*
D10*
X226178628Y-127135040D02*
X225483339Y-124995163D01*
X216160554Y-128760343D02*
X217535680Y-132992545D01*
X225394205Y-124656113D02*
X217595540Y-127190053D01*
D11*
X216481421Y-130233281D02*
X216280560Y-129615094D01*
D12*
X217664088Y-132740530D02*
X219994176Y-131983439D01*
D16*
X217714041Y-132408861D02*
X217157811Y-130696960D01*
D10*
X216185455Y-129645996D02*
X216417217Y-130359288D01*
D13*
X225313349Y-124892677D02*
X224124529Y-125278948D01*
D10*
X217535680Y-132992545D02*
X220417381Y-132056223D01*
X216417217Y-130359288D02*
X216607429Y-130297485D01*
X221941594Y-129563198D02*
G75*
G03*
X220414248Y-132034665I608747J-2083878D01*
G01*
X217595540Y-127190053D02*
G75*
G03*
X216185455Y-129645997I522928J-1933013D01*
G01*
D17*
X221437565Y-129306383D02*
G75*
G03*
X219910219Y-131777850I608747J-2083878D01*
G01*
D18*
X229806851Y-167404569D02*
X229509593Y-167136916D01*
X229807446Y-167405104D02*
X231305138Y-167609844D01*
X231305138Y-167609844D02*
X230167616Y-168873190D01*
X230342156Y-166810053D02*
X229271547Y-167999084D01*
X229807446Y-167405104D02*
X230167616Y-168873190D01*
D10*
X107256543Y-112838750D02*
X110138245Y-113775071D01*
X112836722Y-112654082D02*
X117401794Y-114137363D01*
D12*
X117288837Y-113837796D02*
X116067914Y-113388521D01*
D10*
X108131240Y-109337692D02*
X107899478Y-110050984D01*
D12*
X107508558Y-112710342D02*
X109838647Y-113467434D01*
D10*
X118514255Y-110713560D02*
X110715590Y-108179620D01*
D13*
X118309793Y-110857419D02*
X117120972Y-110471147D01*
D15*
X109900175Y-109491869D02*
X109207977Y-111622235D01*
D17*
X117853316Y-111129685D02*
X117080774Y-113507326D01*
D11*
X108025485Y-109986781D02*
X108226346Y-109368594D01*
D10*
X107899478Y-110050984D02*
X108089689Y-110112788D01*
D16*
X107743922Y-112471378D02*
X108300152Y-110759477D01*
D10*
X117691790Y-113180126D02*
X118387078Y-111040249D01*
X108631669Y-108606548D02*
X107256543Y-112838750D01*
X117401794Y-114137363D02*
X118514255Y-110713560D01*
D14*
X116246123Y-111869231D02*
X109874044Y-109798817D01*
D10*
X110715590Y-108179620D02*
G75*
G03*
X108131240Y-109337693I-713139J-1871210D01*
G01*
X112836722Y-112654082D02*
G75*
G03*
X110148381Y-113755789I-732386J-2043705D01*
G01*
D17*
X112579906Y-112150054D02*
G75*
G03*
X109891566Y-113251760I-732386J-2043704D01*
G01*
D18*
X131039056Y-153570926D02*
X131533483Y-152049235D01*
X129834024Y-153231960D02*
X130359353Y-151615164D01*
X131286270Y-152810080D02*
X131666692Y-152933687D01*
X131285509Y-152809833D02*
X129834024Y-153231960D01*
X131285509Y-152809833D02*
X130359353Y-151615164D01*
D14*
X133906443Y-57516352D02*
X127534364Y-55445938D01*
D12*
X134949157Y-59484917D02*
X133728234Y-59035642D01*
D10*
X135352110Y-58827247D02*
X136047398Y-56687370D01*
X124916863Y-58485871D02*
X127798565Y-59422192D01*
X126291989Y-54253669D02*
X124916863Y-58485871D01*
D13*
X135970113Y-56504540D02*
X134781292Y-56118268D01*
D16*
X125404242Y-58118499D02*
X125960472Y-56406598D01*
D10*
X136174575Y-56360681D02*
X128375910Y-53826741D01*
D15*
X127560495Y-55138990D02*
X126868297Y-57269356D01*
D10*
X125791560Y-54984813D02*
X125559798Y-55698105D01*
X130497042Y-58301203D02*
X135062114Y-59784484D01*
D17*
X135513636Y-56776806D02*
X134741094Y-59154447D01*
D10*
X135062114Y-59784484D02*
X136174575Y-56360681D01*
X125559798Y-55698105D02*
X125750009Y-55759909D01*
D11*
X125685805Y-55633902D02*
X125886666Y-55015715D01*
D12*
X125168878Y-58357463D02*
X127498967Y-59114555D01*
D17*
X130240226Y-57797175D02*
G75*
G03*
X127551886Y-58898881I-732386J-2043704D01*
G01*
D10*
X130497042Y-58301203D02*
G75*
G03*
X127808701Y-59402910I-732386J-2043705D01*
G01*
X128375910Y-53826741D02*
G75*
G03*
X125791560Y-54984814I-713139J-1871210D01*
G01*
D18*
X109163180Y-69346259D02*
X107711695Y-69768386D01*
X109163941Y-69346506D02*
X109544363Y-69470113D01*
X107711695Y-69768386D02*
X108237024Y-68151590D01*
X109163180Y-69346259D02*
X108237024Y-68151590D01*
X108916727Y-70107352D02*
X109411154Y-68585661D01*
X227472565Y-89390859D02*
X227092143Y-89514466D01*
X227225352Y-88630014D02*
X227719779Y-90151705D01*
X227473326Y-89390612D02*
X228924811Y-89812739D01*
X228399482Y-88195943D02*
X228924811Y-89812739D01*
X227473326Y-89390612D02*
X228399482Y-88195943D01*
D10*
X79859514Y-90855676D02*
X84424586Y-92338957D01*
X75654461Y-86808142D02*
X74279335Y-91040344D01*
X74279335Y-91040344D02*
X77161037Y-91976665D01*
D15*
X76922967Y-87693463D02*
X76230769Y-89823829D01*
D10*
X75154032Y-87539286D02*
X74922270Y-88252578D01*
X84714582Y-91381720D02*
X85409870Y-89241843D01*
D16*
X74766714Y-90672972D02*
X75322944Y-88961071D01*
D12*
X74531350Y-90911936D02*
X76861439Y-91669028D01*
D17*
X84876108Y-89331279D02*
X84103566Y-91708920D01*
D14*
X83268915Y-90070825D02*
X76896836Y-88000411D01*
D10*
X85537047Y-88915154D02*
X77738382Y-86381214D01*
D11*
X75048277Y-88188375D02*
X75249138Y-87570188D01*
D12*
X84311629Y-92039390D02*
X83090706Y-91590115D01*
D10*
X84424586Y-92338957D02*
X85537047Y-88915154D01*
X74922270Y-88252578D02*
X75112481Y-88314382D01*
D13*
X85332585Y-89059013D02*
X84143764Y-88672741D01*
D17*
X79602698Y-90351648D02*
G75*
G03*
X76914358Y-91453354I-732386J-2043704D01*
G01*
D10*
X77738382Y-86381214D02*
G75*
G03*
X75154032Y-87539287I-713139J-1871210D01*
G01*
X79859514Y-90855676D02*
G75*
G03*
X77171173Y-91957383I-732386J-2043705D01*
G01*
D18*
X262544098Y-135682852D02*
X262163676Y-135806459D01*
X263471015Y-134487936D02*
X263996344Y-136104732D01*
X262544859Y-135682605D02*
X263996344Y-136104732D01*
X262296885Y-134922007D02*
X262791312Y-136443698D01*
X262544859Y-135682605D02*
X263471015Y-134487936D01*
X245133645Y-143743493D02*
X246585130Y-144165620D01*
X246059801Y-142548824D02*
X246585130Y-144165620D01*
X244885671Y-142982895D02*
X245380098Y-144504586D01*
X245132884Y-143743740D02*
X244752462Y-143867347D01*
X245133645Y-143743493D02*
X246059801Y-142548824D01*
X318742386Y-123699728D02*
X318361964Y-123823335D01*
X318743147Y-123699481D02*
X320194632Y-124121608D01*
X318495173Y-122938883D02*
X318989600Y-124460574D01*
X318743147Y-123699481D02*
X319669303Y-122504812D01*
X319669303Y-122504812D02*
X320194632Y-124121608D01*
D10*
X320846921Y-110263789D02*
X320151632Y-108123912D01*
X316609887Y-112691947D02*
X321174959Y-111208666D01*
X321174959Y-111208666D02*
X320062498Y-107784862D01*
D17*
X319772379Y-108510005D02*
X320544922Y-110887646D01*
D10*
X311085510Y-113488037D02*
X311275722Y-113426234D01*
D12*
X312332381Y-115869279D02*
X314662469Y-115112188D01*
D10*
X312203973Y-116121294D02*
X315085674Y-115184972D01*
D15*
X312375469Y-111859723D02*
X313067667Y-113990089D01*
D10*
X310828847Y-111889092D02*
X312203973Y-116121294D01*
X320062498Y-107784862D02*
X312263833Y-110318802D01*
D11*
X311149714Y-113362030D02*
X310948853Y-112743843D01*
D10*
X310853748Y-112774745D02*
X311085510Y-113488037D01*
D14*
X318906826Y-110052995D02*
X312534748Y-112123408D01*
D12*
X320907493Y-111032705D02*
X319655669Y-111386874D01*
D16*
X312382334Y-115537610D02*
X311826104Y-113825709D01*
D13*
X319981642Y-108021426D02*
X318792822Y-108407697D01*
D10*
X316609887Y-112691947D02*
G75*
G03*
X315082541Y-115163414I608747J-2083878D01*
G01*
D17*
X316105858Y-112435132D02*
G75*
G03*
X314578512Y-114906599I608747J-2083878D01*
G01*
D10*
X312263833Y-110318802D02*
G75*
G03*
X310853748Y-112774746I522928J-1933013D01*
G01*
D18*
X141816139Y-92147555D02*
X142310566Y-90625864D01*
X140611107Y-91808589D02*
X141136436Y-90191793D01*
X142062592Y-91386462D02*
X140611107Y-91808589D01*
X142063353Y-91386709D02*
X142443775Y-91510316D01*
X142062592Y-91386462D02*
X141136436Y-90191793D01*
D16*
X267709187Y-101341990D02*
X267152957Y-99630089D01*
D13*
X275308495Y-93825806D02*
X274119675Y-94212077D01*
D10*
X266180601Y-98579125D02*
X266412363Y-99292417D01*
D12*
X267659234Y-101673659D02*
X269989322Y-100916568D01*
D10*
X271936740Y-98496327D02*
X276501812Y-97013046D01*
X266412363Y-99292417D02*
X266602575Y-99230614D01*
D17*
X275099232Y-94314385D02*
X275871775Y-96692026D01*
D10*
X276173774Y-96068169D02*
X275478485Y-93928292D01*
X275389351Y-93589242D02*
X267590686Y-96123182D01*
D11*
X266476567Y-99166410D02*
X266275706Y-98548223D01*
D10*
X267530826Y-101925674D02*
X270412527Y-100989352D01*
X276501812Y-97013046D02*
X275389351Y-93589242D01*
D14*
X274233679Y-95857375D02*
X267861601Y-97927788D01*
D12*
X276234346Y-96837085D02*
X274982522Y-97191254D01*
D15*
X267702322Y-97664103D02*
X268394520Y-99794469D01*
D10*
X266155700Y-97693472D02*
X267530826Y-101925674D01*
X267590686Y-96123182D02*
G75*
G03*
X266180601Y-98579126I522928J-1933013D01*
G01*
D17*
X271432711Y-98239512D02*
G75*
G03*
X269905365Y-100710979I608747J-2083878D01*
G01*
D10*
X271936740Y-98496327D02*
G75*
G03*
X270409394Y-100967794I608747J-2083878D01*
G01*
D14*
X298944494Y-110262343D02*
X292572416Y-112332756D01*
D12*
X300945161Y-111242053D02*
X299693337Y-111596222D01*
D10*
X300884589Y-110473137D02*
X300189300Y-108333260D01*
D15*
X292413137Y-112069071D02*
X293105335Y-114199437D01*
D17*
X299810047Y-108719353D02*
X300582590Y-111096994D01*
D16*
X292420002Y-115746958D02*
X291863772Y-114035057D01*
D10*
X296647555Y-112901295D02*
X301212627Y-111418014D01*
D13*
X300019310Y-108230774D02*
X298830490Y-108617045D01*
D11*
X291187382Y-113571378D02*
X290986521Y-112953191D01*
D10*
X290866515Y-112098440D02*
X292241641Y-116330642D01*
X300100166Y-107994210D02*
X292301501Y-110528150D01*
X291123178Y-113697385D02*
X291313390Y-113635582D01*
X301212627Y-111418014D02*
X300100166Y-107994210D01*
X292241641Y-116330642D02*
X295123342Y-115394320D01*
X290891416Y-112984093D02*
X291123178Y-113697385D01*
D12*
X292370049Y-116078627D02*
X294700137Y-115321536D01*
D17*
X296143526Y-112644480D02*
G75*
G03*
X294616180Y-115115947I608747J-2083878D01*
G01*
D10*
X296647555Y-112901295D02*
G75*
G03*
X295120209Y-115372762I608747J-2083878D01*
G01*
X292301501Y-110528150D02*
G75*
G03*
X290891416Y-112984094I522928J-1933013D01*
G01*
D18*
X117105329Y-106552524D02*
X117599756Y-105030833D01*
X117352543Y-105791678D02*
X117732965Y-105915285D01*
X117351782Y-105791431D02*
X115900297Y-106213558D01*
X117351782Y-105791431D02*
X116425626Y-104596762D01*
X115900297Y-106213558D02*
X116425626Y-104596762D01*
D14*
X169891068Y-131703172D02*
X163518989Y-129632758D01*
D17*
X171498261Y-130963626D02*
X170725719Y-133341267D01*
D10*
X161544423Y-129884925D02*
X161734634Y-129946729D01*
D11*
X161670430Y-129820722D02*
X161871291Y-129202535D01*
D13*
X171954738Y-130691360D02*
X170765917Y-130305088D01*
D12*
X170933782Y-133671737D02*
X169712859Y-133222462D01*
D16*
X161388867Y-132305319D02*
X161945097Y-130593418D01*
D10*
X161776185Y-129171633D02*
X161544423Y-129884925D01*
X171336735Y-133014067D02*
X172032023Y-130874190D01*
X166481667Y-132488023D02*
X171046739Y-133971304D01*
X160901488Y-132672691D02*
X163783190Y-133609012D01*
X172159200Y-130547501D02*
X164360535Y-128013561D01*
X162276614Y-128440489D02*
X160901488Y-132672691D01*
D12*
X161153503Y-132544283D02*
X163483592Y-133301375D01*
D10*
X171046739Y-133971304D02*
X172159200Y-130547501D01*
D15*
X163545120Y-129325810D02*
X162852922Y-131456176D01*
D10*
X166481667Y-132488023D02*
G75*
G03*
X163793326Y-133589730I-732386J-2043705D01*
G01*
D17*
X166224851Y-131983995D02*
G75*
G03*
X163536511Y-133085701I-732386J-2043704D01*
G01*
D10*
X164360535Y-128013561D02*
G75*
G03*
X161776185Y-129171634I-713139J-1871210D01*
G01*
X323738867Y-72985604D02*
X328303939Y-71502323D01*
X317957827Y-72182749D02*
X319332953Y-76414951D01*
X317982728Y-73068402D02*
X318214490Y-73781694D01*
D15*
X319504449Y-72153380D02*
X320196647Y-74283746D01*
D16*
X319511314Y-75831267D02*
X318955084Y-74119366D01*
D11*
X318278694Y-73655687D02*
X318077833Y-73037500D01*
D10*
X327975901Y-70557446D02*
X327280612Y-68417569D01*
X328303939Y-71502323D02*
X327191478Y-68078519D01*
X327191478Y-68078519D02*
X319392813Y-70612459D01*
D14*
X326035806Y-70346652D02*
X319663728Y-72417065D01*
D10*
X319332953Y-76414951D02*
X322214654Y-75478629D01*
D12*
X328036473Y-71326362D02*
X326784649Y-71680531D01*
D10*
X318214490Y-73781694D02*
X318404702Y-73719891D01*
D12*
X319461361Y-76162936D02*
X321791449Y-75405845D01*
D17*
X326901359Y-68803662D02*
X327673902Y-71181303D01*
D13*
X327110622Y-68315083D02*
X325921802Y-68701354D01*
D10*
X323738867Y-72985604D02*
G75*
G03*
X322211521Y-75457071I608747J-2083878D01*
G01*
X319392813Y-70612459D02*
G75*
G03*
X317982728Y-73068403I522928J-1933013D01*
G01*
D17*
X323234838Y-72728789D02*
G75*
G03*
X321707492Y-75200256I608747J-2083878D01*
G01*
D18*
X84374637Y-83993042D02*
X84755059Y-84116649D01*
X84127423Y-84753888D02*
X84621850Y-83232197D01*
X84373876Y-83992795D02*
X82922391Y-84414922D01*
X84373876Y-83992795D02*
X83447720Y-82798126D01*
X82922391Y-84414922D02*
X83447720Y-82798126D01*
D10*
X295325850Y-93300388D02*
X294213389Y-89876584D01*
X286354864Y-98213016D02*
X289236565Y-97276694D01*
D11*
X285300605Y-95453752D02*
X285099744Y-94835565D01*
D12*
X286483272Y-97961001D02*
X288813360Y-97203910D01*
D13*
X294132533Y-90113148D02*
X292943713Y-90499419D01*
D14*
X293057717Y-92144717D02*
X286685639Y-94215130D01*
D16*
X286533225Y-97629332D02*
X285976995Y-95917431D01*
D10*
X294997812Y-92355511D02*
X294302523Y-90215634D01*
X290760778Y-94783669D02*
X295325850Y-93300388D01*
X285236401Y-95579759D02*
X285426613Y-95517956D01*
X284979738Y-93980814D02*
X286354864Y-98213016D01*
D17*
X293923270Y-90601727D02*
X294695813Y-92979368D01*
D15*
X286526360Y-93951445D02*
X287218558Y-96081811D01*
D12*
X295058384Y-93124427D02*
X293806560Y-93478596D01*
D10*
X285004639Y-94866467D02*
X285236401Y-95579759D01*
X294213389Y-89876584D02*
X286414724Y-92410524D01*
D17*
X290256749Y-94526854D02*
G75*
G03*
X288729403Y-96998321I608747J-2083878D01*
G01*
D10*
X286414724Y-92410524D02*
G75*
G03*
X285004639Y-94866468I522928J-1933013D01*
G01*
X290760778Y-94783669D02*
G75*
G03*
X289233432Y-97255136I608747J-2083878D01*
G01*
D14*
X256822465Y-103918262D02*
X250450387Y-105988675D01*
D11*
X249065353Y-107227297D02*
X248864492Y-106609110D01*
D17*
X257688018Y-102375272D02*
X258460561Y-104752913D01*
D10*
X248769387Y-106640012D02*
X249001149Y-107353304D01*
X257978137Y-101650129D02*
X250179472Y-104184069D01*
X248744486Y-105754359D02*
X250119612Y-109986561D01*
D15*
X250291108Y-105724990D02*
X250983306Y-107855356D01*
D10*
X259090598Y-105073933D02*
X257978137Y-101650129D01*
D12*
X250248020Y-109734546D02*
X252578108Y-108977455D01*
D10*
X249001149Y-107353304D02*
X249191361Y-107291501D01*
D16*
X250297973Y-109402877D02*
X249741743Y-107690976D01*
D10*
X258762560Y-104129056D02*
X258067271Y-101989179D01*
X254525526Y-106557214D02*
X259090598Y-105073933D01*
D13*
X257897281Y-101886693D02*
X256708461Y-102272964D01*
D12*
X258823132Y-104897972D02*
X257571308Y-105252141D01*
D10*
X250119612Y-109986561D02*
X253001313Y-109050239D01*
X250179472Y-104184069D02*
G75*
G03*
X248769387Y-106640013I522928J-1933013D01*
G01*
D17*
X254021497Y-106300399D02*
G75*
G03*
X252494151Y-108771866I608747J-2083878D01*
G01*
D10*
X254525526Y-106557214D02*
G75*
G03*
X252998180Y-109028681I608747J-2083878D01*
G01*
D18*
X239246870Y-125625866D02*
X240698355Y-126047993D01*
X240173026Y-124431197D02*
X240698355Y-126047993D01*
X239246870Y-125625866D02*
X240173026Y-124431197D01*
X239246109Y-125626113D02*
X238865687Y-125749720D01*
X238998896Y-124865268D02*
X239493323Y-126386959D01*
X331757443Y-102111239D02*
X331377021Y-102234846D01*
X331758204Y-102110992D02*
X333209689Y-102533119D01*
X332684360Y-100916323D02*
X333209689Y-102533119D01*
X331758204Y-102110992D02*
X332684360Y-100916323D01*
X331510230Y-101350394D02*
X332004657Y-102872085D01*
X147700260Y-135682601D02*
X146774104Y-134487932D01*
X147700260Y-135682601D02*
X146248775Y-136104728D01*
X146248775Y-136104728D02*
X146774104Y-134487932D01*
X147701021Y-135682848D02*
X148081443Y-135806455D01*
X147453807Y-136443694D02*
X147948234Y-134922003D01*
X128837559Y-128043842D02*
X129362888Y-126427046D01*
X130289044Y-127621715D02*
X129362888Y-126427046D01*
X130042591Y-128382808D02*
X130537018Y-126861117D01*
X130289805Y-127621962D02*
X130670227Y-127745569D01*
X130289044Y-127621715D02*
X128837559Y-128043842D01*
X250771310Y-99447350D02*
X252222795Y-99869477D01*
X251697466Y-98252681D02*
X252222795Y-99869477D01*
X250523336Y-98686752D02*
X251017763Y-100208443D01*
X250770549Y-99447597D02*
X250390127Y-99571204D01*
X250771310Y-99447350D02*
X251697466Y-98252681D01*
D14*
X250935691Y-85800636D02*
X244563613Y-87871049D01*
D10*
X244232838Y-91868935D02*
X247114539Y-90932613D01*
D16*
X244411199Y-91285251D02*
X243854969Y-89573350D01*
D17*
X251801244Y-84257646D02*
X252573787Y-86635287D01*
D10*
X243114375Y-89235678D02*
X243304587Y-89173875D01*
D15*
X244404334Y-87607364D02*
X245096532Y-89737730D01*
D10*
X253203824Y-86956307D02*
X252091363Y-83532503D01*
D12*
X252936358Y-86780346D02*
X251684534Y-87134515D01*
D10*
X248638752Y-88439588D02*
X253203824Y-86956307D01*
X252091363Y-83532503D02*
X244292698Y-86066443D01*
X242857712Y-87636733D02*
X244232838Y-91868935D01*
D11*
X243178579Y-89109671D02*
X242977718Y-88491484D01*
D10*
X252875786Y-86011430D02*
X252180497Y-83871553D01*
X242882613Y-88522386D02*
X243114375Y-89235678D01*
D13*
X252010507Y-83769067D02*
X250821687Y-84155338D01*
D12*
X244361246Y-91616920D02*
X246691334Y-90859829D01*
D10*
X244292698Y-86066443D02*
G75*
G03*
X242882613Y-88522387I522928J-1933013D01*
G01*
D17*
X248134723Y-88182773D02*
G75*
G03*
X246607377Y-90654240I608747J-2083878D01*
G01*
D10*
X248638752Y-88439588D02*
G75*
G03*
X247111406Y-90911055I608747J-2083878D01*
G01*
D15*
X128724211Y-113204528D02*
X128032013Y-115334894D01*
D10*
X126723514Y-113763643D02*
X126913725Y-113825447D01*
D14*
X135070159Y-115581890D02*
X128698080Y-113511476D01*
D10*
X131660758Y-116366741D02*
X136225830Y-117850022D01*
D12*
X136112873Y-117550455D02*
X134891950Y-117101180D01*
D16*
X126567958Y-116184037D02*
X127124188Y-114472136D01*
D12*
X126332594Y-116423001D02*
X128662683Y-117180093D01*
D10*
X136515826Y-116892785D02*
X137211114Y-114752908D01*
D11*
X126849521Y-113699440D02*
X127050382Y-113081253D01*
D10*
X137338291Y-114426219D02*
X129539626Y-111892279D01*
X136225830Y-117850022D02*
X137338291Y-114426219D01*
X126955276Y-113050351D02*
X126723514Y-113763643D01*
X127455705Y-112319207D02*
X126080579Y-116551409D01*
X126080579Y-116551409D02*
X128962281Y-117487730D01*
D17*
X136677352Y-114842344D02*
X135904810Y-117219985D01*
D13*
X137133829Y-114570078D02*
X135945008Y-114183806D01*
D10*
X129539626Y-111892279D02*
G75*
G03*
X126955276Y-113050352I-713139J-1871210D01*
G01*
D17*
X131403942Y-115862713D02*
G75*
G03*
X128715602Y-116964419I-732386J-2043704D01*
G01*
D10*
X131660758Y-116366741D02*
G75*
G03*
X128972417Y-117468448I-732386J-2043705D01*
G01*
X299055298Y-75653839D02*
X300430424Y-79886041D01*
D16*
X300608785Y-79302357D02*
X300052555Y-77590456D01*
D10*
X299311961Y-77252784D02*
X299502173Y-77190981D01*
X308288949Y-71549609D02*
X300490284Y-74083549D01*
X304836338Y-76456694D02*
X309401410Y-74973413D01*
X309073372Y-74028536D02*
X308378083Y-71888659D01*
D12*
X300558832Y-79634026D02*
X302888920Y-78876935D01*
D11*
X299376165Y-77126777D02*
X299175304Y-76508590D01*
D15*
X300601920Y-75624470D02*
X301294118Y-77754836D01*
D13*
X308208093Y-71786173D02*
X307019273Y-72172444D01*
D10*
X309401410Y-74973413D02*
X308288949Y-71549609D01*
D17*
X307998830Y-72274752D02*
X308771373Y-74652393D01*
D10*
X300430424Y-79886041D02*
X303312125Y-78949719D01*
D14*
X307133277Y-73817742D02*
X300761199Y-75888155D01*
D10*
X299080199Y-76539492D02*
X299311961Y-77252784D01*
D12*
X309133944Y-74797452D02*
X307882120Y-75151621D01*
D10*
X304836338Y-76456694D02*
G75*
G03*
X303308992Y-78928161I608747J-2083878D01*
G01*
X300490284Y-74083549D02*
G75*
G03*
X299080199Y-76539493I522928J-1933013D01*
G01*
D17*
X304332309Y-76199879D02*
G75*
G03*
X302804963Y-78671346I608747J-2083878D01*
G01*
D12*
X313574589Y-58045309D02*
X315904677Y-57288218D01*
D15*
X313617677Y-54035753D02*
X314309875Y-56166119D01*
D10*
X312327718Y-55664067D02*
X312517930Y-55602264D01*
D11*
X312391922Y-55538060D02*
X312191061Y-54919873D01*
D13*
X321223850Y-50197456D02*
X320035030Y-50583727D01*
D16*
X313624542Y-57713640D02*
X313068312Y-56001739D01*
D10*
X312095956Y-54950775D02*
X312327718Y-55664067D01*
X313446181Y-58297324D02*
X316327882Y-57361002D01*
X322089129Y-52439819D02*
X321393840Y-50299942D01*
D14*
X320149034Y-52229025D02*
X313776956Y-54299438D01*
D10*
X312071055Y-54065122D02*
X313446181Y-58297324D01*
D17*
X321014587Y-50686035D02*
X321787130Y-53063676D01*
D12*
X322149701Y-53208735D02*
X320897877Y-53562904D01*
D10*
X317852095Y-54867977D02*
X322417167Y-53384696D01*
X321304706Y-49960892D02*
X313506041Y-52494832D01*
X322417167Y-53384696D02*
X321304706Y-49960892D01*
D17*
X317348066Y-54611162D02*
G75*
G03*
X315820720Y-57082629I608747J-2083878D01*
G01*
D10*
X313506041Y-52494832D02*
G75*
G03*
X312095956Y-54950776I522928J-1933013D01*
G01*
X317852095Y-54867977D02*
G75*
G03*
X316324749Y-57339444I608747J-2083878D01*
G01*
X273206191Y-57745560D02*
X274581317Y-61977762D01*
D12*
X274709725Y-61725747D02*
X277039813Y-60968656D01*
D10*
X283224265Y-56120257D02*
X282528976Y-53980380D01*
X283552303Y-57065134D02*
X282439842Y-53641330D01*
D17*
X282149723Y-54366473D02*
X282922266Y-56744114D01*
D12*
X283284837Y-56889173D02*
X282033013Y-57243342D01*
D10*
X282439842Y-53641330D02*
X274641177Y-56175270D01*
D15*
X274752813Y-57716191D02*
X275445011Y-59846557D01*
D11*
X273527058Y-59218498D02*
X273326197Y-58600311D01*
D10*
X273462854Y-59344505D02*
X273653066Y-59282702D01*
D14*
X281284170Y-55909463D02*
X274912092Y-57979876D01*
D16*
X274759678Y-61394078D02*
X274203448Y-59682177D01*
D10*
X273231092Y-58631213D02*
X273462854Y-59344505D01*
D13*
X282358986Y-53877894D02*
X281170166Y-54264165D01*
D10*
X274581317Y-61977762D02*
X277463018Y-61041440D01*
X278987231Y-58548415D02*
X283552303Y-57065134D01*
X278987231Y-58548415D02*
G75*
G03*
X277459885Y-61019882I608747J-2083878D01*
G01*
X274641177Y-56175270D02*
G75*
G03*
X273231092Y-58631214I522928J-1933013D01*
G01*
D17*
X278483202Y-58291600D02*
G75*
G03*
X276955856Y-60763067I608747J-2083878D01*
G01*
D10*
X323844603Y-90300374D02*
X325219729Y-94532576D01*
X333862677Y-88675071D02*
X333167388Y-86535194D01*
D15*
X325391225Y-90271005D02*
X326083423Y-92401371D01*
D10*
X325219729Y-94532576D02*
X328101430Y-93596254D01*
X329625643Y-91103229D02*
X334190715Y-89619948D01*
D16*
X325398090Y-93948892D02*
X324841860Y-92236991D01*
D10*
X333078254Y-86196144D02*
X325279589Y-88730084D01*
X334190715Y-89619948D02*
X333078254Y-86196144D01*
D12*
X325348137Y-94280561D02*
X327678225Y-93523470D01*
X333923249Y-89443987D02*
X332671425Y-89798156D01*
D11*
X324165470Y-91773312D02*
X323964609Y-91155125D01*
D13*
X332997398Y-86432708D02*
X331808578Y-86818979D01*
D10*
X323869504Y-91186027D02*
X324101266Y-91899319D01*
D17*
X332788135Y-86921287D02*
X333560678Y-89298928D01*
D14*
X331922582Y-88464277D02*
X325550504Y-90534690D01*
D10*
X324101266Y-91899319D02*
X324291478Y-91837516D01*
X325279589Y-88730084D02*
G75*
G03*
X323869504Y-91186028I522928J-1933013D01*
G01*
D17*
X329121614Y-90846414D02*
G75*
G03*
X327594268Y-93317881I608747J-2083878D01*
G01*
D10*
X329625643Y-91103229D02*
G75*
G03*
X328098297Y-93574696I608747J-2083878D01*
G01*
D12*
X289171611Y-75006799D02*
X287919787Y-75360968D01*
D10*
X279349628Y-77462131D02*
X279539840Y-77400328D01*
D17*
X288036497Y-72484099D02*
X288809040Y-74861740D01*
D10*
X280468091Y-80095388D02*
X283349792Y-79159066D01*
D13*
X288245760Y-71995520D02*
X287056940Y-72381791D01*
D10*
X289111039Y-74237883D02*
X288415750Y-72098006D01*
D11*
X279413832Y-77336124D02*
X279212971Y-76717937D01*
D12*
X280596499Y-79843373D02*
X282926587Y-79086282D01*
D10*
X284874005Y-76666041D02*
X289439077Y-75182760D01*
X289439077Y-75182760D02*
X288326616Y-71758956D01*
X279092965Y-75863186D02*
X280468091Y-80095388D01*
X279117866Y-76748839D02*
X279349628Y-77462131D01*
D16*
X280646452Y-79511704D02*
X280090222Y-77799803D01*
D15*
X280639587Y-75833817D02*
X281331785Y-77964183D01*
D14*
X287170944Y-74027089D02*
X280798866Y-76097502D01*
D10*
X288326616Y-71758956D02*
X280527951Y-74292896D01*
D17*
X284369976Y-76409226D02*
G75*
G03*
X282842630Y-78880693I608747J-2083878D01*
G01*
D10*
X284874005Y-76666041D02*
G75*
G03*
X283346659Y-79137508I608747J-2083878D01*
G01*
X280527951Y-74292896D02*
G75*
G03*
X279117866Y-76748840I522928J-1933013D01*
G01*
D18*
X297506682Y-147998187D02*
X297618293Y-149594289D01*
X297563286Y-148796182D02*
X298750948Y-147861057D01*
X297563286Y-148796182D02*
X298869534Y-149556916D01*
X297562488Y-148796238D02*
X297163462Y-148824140D01*
X298750948Y-147861057D02*
X298869534Y-149556916D01*
X147950129Y-73269082D02*
X148330551Y-73392689D01*
X147949368Y-73268835D02*
X146497883Y-73690962D01*
X147949368Y-73268835D02*
X147023212Y-72074166D01*
X146497883Y-73690962D02*
X147023212Y-72074166D01*
X147702915Y-74029928D02*
X148197342Y-72508237D01*
X215714192Y-139946569D02*
X217235883Y-139452142D01*
X216474790Y-139698595D02*
X216896917Y-138247110D01*
X216475037Y-139699356D02*
X216598644Y-140079778D01*
X216474790Y-139698595D02*
X215280121Y-138772439D01*
X215280121Y-138772439D02*
X216896917Y-138247110D01*
D10*
X165410594Y-89675657D02*
X166523055Y-86251854D01*
X160845522Y-88192376D02*
X165410594Y-89675657D01*
D14*
X164254923Y-87407525D02*
X157882844Y-85337111D01*
D17*
X165862116Y-86667979D02*
X165089574Y-89045620D01*
D10*
X155908278Y-85589278D02*
X156098489Y-85651082D01*
D11*
X156034285Y-85525075D02*
X156235146Y-84906888D01*
D12*
X165297637Y-89376090D02*
X164076714Y-88926815D01*
D10*
X156640469Y-84144842D02*
X155265343Y-88377044D01*
X156140040Y-84875986D02*
X155908278Y-85589278D01*
X155265343Y-88377044D02*
X158147045Y-89313365D01*
D12*
X155517358Y-88248636D02*
X157847447Y-89005728D01*
D15*
X157908975Y-85030163D02*
X157216777Y-87160529D01*
D13*
X166318593Y-86395713D02*
X165129772Y-86009441D01*
D10*
X165700590Y-88718420D02*
X166395878Y-86578543D01*
D16*
X155752722Y-88009672D02*
X156308952Y-86297771D01*
D10*
X166523055Y-86251854D02*
X158724390Y-83717914D01*
X160845522Y-88192376D02*
G75*
G03*
X158157181Y-89294083I-732386J-2043705D01*
G01*
X158724390Y-83717914D02*
G75*
G03*
X156140040Y-84875987I-713139J-1871210D01*
G01*
D17*
X160588706Y-87688348D02*
G75*
G03*
X157900366Y-88790054I-732386J-2043704D01*
G01*
D13*
X72928897Y-127226090D02*
X71740076Y-126839818D01*
D16*
X62363026Y-128840049D02*
X62919256Y-127128148D01*
D10*
X61875647Y-129207421D02*
X64757349Y-130143742D01*
X73133359Y-127082231D02*
X65334694Y-124548291D01*
X72020898Y-130506034D02*
X73133359Y-127082231D01*
X62750344Y-125706363D02*
X62518582Y-126419655D01*
D17*
X72472420Y-127498356D02*
X71699878Y-129875997D01*
D12*
X71907941Y-130206467D02*
X70687018Y-129757192D01*
D10*
X72310894Y-129548797D02*
X73006182Y-127408920D01*
X67455826Y-129022753D02*
X72020898Y-130506034D01*
D11*
X62644589Y-126355452D02*
X62845450Y-125737265D01*
D12*
X62127662Y-129079013D02*
X64457751Y-129836105D01*
D14*
X70865227Y-128237902D02*
X64493148Y-126167488D01*
D10*
X62518582Y-126419655D02*
X62708793Y-126481459D01*
D15*
X64519279Y-125860540D02*
X63827081Y-127990906D01*
D10*
X63250773Y-124975219D02*
X61875647Y-129207421D01*
X65334694Y-124548291D02*
G75*
G03*
X62750344Y-125706364I-713139J-1871210D01*
G01*
D17*
X67199010Y-128518725D02*
G75*
G03*
X64510670Y-129620431I-732386J-2043704D01*
G01*
D10*
X67455826Y-129022753D02*
G75*
G03*
X64767485Y-130124460I-732386J-2043705D01*
G01*
D17*
X258645952Y-146474559D02*
X259970750Y-148594680D01*
D12*
X253207323Y-155415130D02*
X255285041Y-154116828D01*
D11*
X251453228Y-153268470D02*
X251108781Y-152717239D01*
D13*
X258730801Y-145949868D02*
X257670741Y-146612267D01*
D10*
X253143697Y-155690724D02*
X255713283Y-154085069D01*
X260112854Y-147916294D02*
X258920535Y-146008186D01*
D14*
X258179393Y-148181112D02*
X252497470Y-151731571D01*
D10*
X251023976Y-152770231D02*
X251421415Y-153406267D01*
X251421415Y-153406267D02*
X251591025Y-153300283D01*
D15*
X252279131Y-151514251D02*
X253466150Y-153413879D01*
D10*
X260659734Y-148753744D02*
X258752024Y-145700771D01*
X250785556Y-151916910D02*
X253143697Y-155690724D01*
X258752024Y-145700771D02*
X251798029Y-150046109D01*
D12*
X260357644Y-148647716D02*
X259228686Y-149294208D01*
D10*
X256589103Y-151297356D02*
X260659734Y-148753744D01*
D16*
X253175554Y-155081228D02*
X252221700Y-153554742D01*
D17*
X256037916Y-151170105D02*
G75*
G03*
X255153840Y-153937657I1094800J-1874709D01*
G01*
D10*
X256589103Y-151297356D02*
G75*
G03*
X255705027Y-154064909I1094800J-1874709D01*
G01*
X251798029Y-150046109D02*
G75*
G03*
X251023976Y-152770231I975033J-1749087D01*
G01*
D11*
X225768887Y-97170065D02*
X225568026Y-96551878D01*
D14*
X233525999Y-93861030D02*
X227153921Y-95931443D01*
D10*
X225704683Y-97296072D02*
X225894895Y-97234269D01*
D15*
X226994642Y-95667758D02*
X227686840Y-97798124D01*
D16*
X227001507Y-99345645D02*
X226445277Y-97633744D01*
D12*
X235526666Y-94840740D02*
X234274842Y-95194909D01*
D10*
X225448020Y-95697127D02*
X226823146Y-99929329D01*
D13*
X234600815Y-91829461D02*
X233411995Y-92215732D01*
D17*
X234391552Y-92318040D02*
X235164095Y-94695681D01*
D10*
X235466094Y-94071824D02*
X234770805Y-91931947D01*
X226823146Y-99929329D02*
X229704847Y-98993007D01*
X235794132Y-95016701D02*
X234681671Y-91592897D01*
X225472921Y-96582780D02*
X225704683Y-97296072D01*
D12*
X226951554Y-99677314D02*
X229281642Y-98920223D01*
D10*
X231229060Y-96499982D02*
X235794132Y-95016701D01*
X234681671Y-91592897D02*
X226883006Y-94126837D01*
X226883006Y-94126837D02*
G75*
G03*
X225472921Y-96582781I522928J-1933013D01*
G01*
X231229060Y-96499982D02*
G75*
G03*
X229701714Y-98971449I608747J-2083878D01*
G01*
D17*
X230725031Y-96243167D02*
G75*
G03*
X229197685Y-98714634I608747J-2083878D01*
G01*
D12*
X264709905Y-123015601D02*
X263458081Y-123369770D01*
X256134793Y-127852175D02*
X258464881Y-127095084D01*
D13*
X263784054Y-120004322D02*
X262595234Y-120390593D01*
D10*
X260412299Y-124674843D02*
X264977371Y-123191562D01*
D16*
X256184746Y-127520506D02*
X255628516Y-125808605D01*
D17*
X263574791Y-120492901D02*
X264347334Y-122870542D01*
D10*
X254656160Y-124757641D02*
X254887922Y-125470933D01*
X264977371Y-123191562D02*
X263864910Y-119767758D01*
D14*
X262709238Y-122035891D02*
X256337160Y-124106304D01*
D10*
X256006385Y-128104190D02*
X258888086Y-127167868D01*
D15*
X256177881Y-123842619D02*
X256870079Y-125972985D01*
D10*
X263864910Y-119767758D02*
X256066245Y-122301698D01*
X254631259Y-123871988D02*
X256006385Y-128104190D01*
D11*
X254952126Y-125344926D02*
X254751265Y-124726739D01*
D10*
X254887922Y-125470933D02*
X255078134Y-125409130D01*
X264649333Y-122246685D02*
X263954044Y-120106808D01*
X256066245Y-122301698D02*
G75*
G03*
X254656160Y-124757642I522928J-1933013D01*
G01*
X260412299Y-124674843D02*
G75*
G03*
X258884953Y-127146310I608747J-2083878D01*
G01*
D17*
X259908270Y-124418028D02*
G75*
G03*
X258380924Y-126889495I608747J-2083878D01*
G01*
D18*
X325623456Y-83232766D02*
X326117883Y-84754457D01*
X325871430Y-83993364D02*
X326797586Y-82798695D01*
X325870669Y-83993611D02*
X325490247Y-84117218D01*
X325871430Y-83993364D02*
X327322915Y-84415491D01*
X326797586Y-82798695D02*
X327322915Y-84415491D01*
D11*
X236899739Y-157403920D02*
X237334674Y-156920876D01*
D10*
X236758511Y-157411321D02*
X236907140Y-157545147D01*
X246186099Y-162334033D02*
X240092311Y-156847161D01*
X240210134Y-161797527D02*
X243777229Y-165009354D01*
X235037275Y-159696567D02*
X237289004Y-161724033D01*
D15*
X238813652Y-157714301D02*
X237314800Y-159378945D01*
D16*
X235631941Y-159559190D02*
X236836376Y-158221530D01*
D10*
X237260359Y-156853963D02*
X236758511Y-157411321D01*
D13*
X245940801Y-162382292D02*
X245011870Y-161545879D01*
D10*
X244431497Y-164252827D02*
X245937041Y-162580751D01*
X238014907Y-156389572D02*
X235037275Y-159696567D01*
D12*
X235319730Y-159681764D02*
X237140435Y-161321134D01*
X243795883Y-164689742D02*
X242863251Y-163782715D01*
D10*
X243777229Y-165009354D02*
X246186099Y-162334033D01*
D14*
X243644003Y-162467258D02*
X238664933Y-157984083D01*
D17*
X245413048Y-162445354D02*
X243740222Y-164303216D01*
D10*
X240210134Y-161797527D02*
G75*
G03*
X237306107Y-161710540I-1500318J-1569130D01*
G01*
X240092312Y-156847160D02*
G75*
G03*
X237260359Y-156853963I-1412575J-1419376D01*
G01*
D17*
X240180527Y-161232618D02*
G75*
G03*
X237276502Y-161145630I-1500317J-1569128D01*
G01*
D18*
X91503621Y-123699386D02*
X91884043Y-123822993D01*
X90051375Y-124121266D02*
X90576704Y-122504470D01*
X91256407Y-124460232D02*
X91750834Y-122938541D01*
X91502860Y-123699139D02*
X90051375Y-124121266D01*
X91502860Y-123699139D02*
X90576704Y-122504470D01*
X293819496Y-104596760D02*
X294344825Y-106213556D01*
X292645366Y-105030831D02*
X293139793Y-106552522D01*
X292892579Y-105791676D02*
X292512157Y-105915283D01*
X292893340Y-105791429D02*
X293819496Y-104596760D01*
X292893340Y-105791429D02*
X294344825Y-106213556D01*
X180438969Y-167404799D02*
X180736227Y-167137146D01*
X180438374Y-167405334D02*
X178940682Y-167610074D01*
X180078204Y-168873420D02*
X178940682Y-167610074D01*
X180974273Y-167999314D02*
X179903664Y-166810283D01*
X180438374Y-167405334D02*
X180078204Y-168873420D01*
X163909095Y-81751851D02*
X164434424Y-80135055D01*
X165361341Y-81329971D02*
X165741763Y-81453578D01*
X165360580Y-81329724D02*
X164434424Y-80135055D01*
X165360580Y-81329724D02*
X163909095Y-81751851D01*
X165114127Y-82090817D02*
X165608554Y-80569126D01*
D16*
X138341507Y-79948784D02*
X138897737Y-78236883D01*
D10*
X138728825Y-76815098D02*
X138497063Y-77528390D01*
X137854128Y-80316156D02*
X140735830Y-81252477D01*
D14*
X146843708Y-79346637D02*
X140471629Y-77276223D01*
D10*
X138497063Y-77528390D02*
X138687274Y-77590194D01*
X147999379Y-81614769D02*
X149111840Y-78190966D01*
X149111840Y-78190966D02*
X141313175Y-75657026D01*
D13*
X148907378Y-78334825D02*
X147718557Y-77948553D01*
D11*
X138623070Y-77464187D02*
X138823931Y-76846000D01*
D15*
X140497760Y-76969275D02*
X139805562Y-79099641D01*
D10*
X143434307Y-80131488D02*
X147999379Y-81614769D01*
D12*
X138106143Y-80187748D02*
X140436232Y-80944840D01*
D17*
X148450901Y-78607091D02*
X147678359Y-80984732D01*
D10*
X139229254Y-76083954D02*
X137854128Y-80316156D01*
D12*
X147886422Y-81315202D02*
X146665499Y-80865927D01*
D10*
X148289375Y-80657532D02*
X148984663Y-78517655D01*
X141313175Y-75657026D02*
G75*
G03*
X138728825Y-76815099I-713139J-1871210D01*
G01*
D17*
X143177491Y-79627460D02*
G75*
G03*
X140489151Y-80729166I-732386J-2043704D01*
G01*
D10*
X143434307Y-80131488D02*
G75*
G03*
X140745966Y-81233195I-732386J-2043705D01*
G01*
D14*
X181664614Y-95467920D02*
X175292535Y-93397506D01*
D10*
X174050160Y-92205237D02*
X172675034Y-96437439D01*
D17*
X183271807Y-94728374D02*
X182499265Y-97106015D01*
D13*
X183728284Y-94456108D02*
X182539463Y-94069836D01*
D10*
X173317969Y-93649673D02*
X173508180Y-93711477D01*
X178255213Y-96252771D02*
X182820285Y-97736052D01*
X183110281Y-96778815D02*
X183805569Y-94638938D01*
X183932746Y-94312249D02*
X176134081Y-91778309D01*
D15*
X175318666Y-93090558D02*
X174626468Y-95220924D01*
D10*
X172675034Y-96437439D02*
X175556736Y-97373760D01*
D16*
X173162413Y-96070067D02*
X173718643Y-94358166D01*
D10*
X182820285Y-97736052D02*
X183932746Y-94312249D01*
D11*
X173443976Y-93585470D02*
X173644837Y-92967283D01*
D10*
X173549731Y-92936381D02*
X173317969Y-93649673D01*
D12*
X172927049Y-96309031D02*
X175257138Y-97066123D01*
X182707328Y-97436485D02*
X181486405Y-96987210D01*
D10*
X176134081Y-91778309D02*
G75*
G03*
X173549731Y-92936382I-713139J-1871210D01*
G01*
D17*
X177998397Y-95748743D02*
G75*
G03*
X175310057Y-96850449I-732386J-2043704D01*
G01*
D10*
X178255213Y-96252771D02*
G75*
G03*
X175566872Y-97354478I-732386J-2043705D01*
G01*
D12*
X229639891Y-76723115D02*
X228388067Y-77077284D01*
D16*
X221114732Y-81228020D02*
X220558502Y-79516119D01*
D17*
X228504777Y-74200415D02*
X229277320Y-76578056D01*
D10*
X219817908Y-79178447D02*
X220008120Y-79116644D01*
X225342285Y-78382357D02*
X229907357Y-76899076D01*
X219561245Y-77579502D02*
X220936371Y-81811704D01*
X229579319Y-75954199D02*
X228884030Y-73814322D01*
X228794896Y-73475272D02*
X220996231Y-76009212D01*
X220936371Y-81811704D02*
X223818072Y-80875382D01*
X229907357Y-76899076D02*
X228794896Y-73475272D01*
X219586146Y-78465155D02*
X219817908Y-79178447D01*
D11*
X219882112Y-79052440D02*
X219681251Y-78434253D01*
D12*
X221064779Y-81559689D02*
X223394867Y-80802598D01*
D14*
X227639224Y-75743405D02*
X221267146Y-77813818D01*
D13*
X228714040Y-73711836D02*
X227525220Y-74098107D01*
D15*
X221107867Y-77550133D02*
X221800065Y-79680499D01*
D17*
X224838256Y-78125542D02*
G75*
G03*
X223310910Y-80597009I608747J-2083878D01*
G01*
D10*
X225342285Y-78382357D02*
G75*
G03*
X223814939Y-80853824I608747J-2083878D01*
G01*
X220996231Y-76009212D02*
G75*
G03*
X219586146Y-78465156I522928J-1933013D01*
G01*
D18*
X111218554Y-124670148D02*
X111712981Y-123148457D01*
X110013522Y-124331182D02*
X110538851Y-122714386D01*
X111465007Y-123909055D02*
X110538851Y-122714386D01*
X111465768Y-123909302D02*
X111846190Y-124032909D01*
X111465007Y-123909055D02*
X110013522Y-124331182D01*
D17*
X345191828Y-125088368D02*
X345964371Y-127466009D01*
D10*
X337623422Y-132699657D02*
X340505123Y-131763335D01*
D15*
X337794918Y-128438086D02*
X338487116Y-130568452D01*
D10*
X336273197Y-129353108D02*
X336504959Y-130066400D01*
D14*
X344326275Y-126631358D02*
X337954197Y-128701771D01*
D10*
X336504959Y-130066400D02*
X336695171Y-130004597D01*
D12*
X337751830Y-132447642D02*
X340081918Y-131690551D01*
D11*
X336569163Y-129940393D02*
X336368302Y-129322206D01*
D10*
X342029336Y-129270310D02*
X346594408Y-127787029D01*
X345481947Y-124363225D02*
X337683282Y-126897165D01*
X336248296Y-128467455D02*
X337623422Y-132699657D01*
X346594408Y-127787029D02*
X345481947Y-124363225D01*
D13*
X345401091Y-124599789D02*
X344212271Y-124986060D01*
D16*
X337801783Y-132115973D02*
X337245553Y-130404072D01*
D12*
X346326942Y-127611068D02*
X345075118Y-127965237D01*
D10*
X346266370Y-126842152D02*
X345571081Y-124702275D01*
X342029336Y-129270310D02*
G75*
G03*
X340501990Y-131741777I608747J-2083878D01*
G01*
D17*
X341525307Y-129013495D02*
G75*
G03*
X339997961Y-131484962I608747J-2083878D01*
G01*
D10*
X337683282Y-126897165D02*
G75*
G03*
X336273197Y-129353109I522928J-1933013D01*
G01*
D12*
X149630584Y-106366263D02*
X151960673Y-107123355D01*
D15*
X152022201Y-103147790D02*
X151330003Y-105278156D01*
D10*
X150753695Y-102262469D02*
X149378569Y-106494671D01*
D14*
X158368149Y-105525152D02*
X151996070Y-103454738D01*
D10*
X150253266Y-102993613D02*
X150021504Y-103706905D01*
X159523820Y-107793284D02*
X160636281Y-104369481D01*
D11*
X150147511Y-103642702D02*
X150348372Y-103024515D01*
D16*
X149865948Y-106127299D02*
X150422178Y-104415398D01*
D10*
X149378569Y-106494671D02*
X152260271Y-107430992D01*
D12*
X159410863Y-107493717D02*
X158189940Y-107044442D01*
D10*
X159813816Y-106836047D02*
X160509104Y-104696170D01*
X150021504Y-103706905D02*
X150211715Y-103768709D01*
X160636281Y-104369481D02*
X152837616Y-101835541D01*
D13*
X160431819Y-104513340D02*
X159242998Y-104127068D01*
D10*
X154958748Y-106310003D02*
X159523820Y-107793284D01*
D17*
X159975342Y-104785606D02*
X159202800Y-107163247D01*
X154701932Y-105805975D02*
G75*
G03*
X152013592Y-106907681I-732386J-2043704D01*
G01*
D10*
X152837616Y-101835541D02*
G75*
G03*
X150253266Y-102993614I-713139J-1871210D01*
G01*
X154958748Y-106310003D02*
G75*
G03*
X152270407Y-107411710I-732386J-2043705D01*
G01*
D18*
X77035616Y-102532549D02*
X77560945Y-100915753D01*
X78487101Y-102110422D02*
X77035616Y-102532549D01*
X78487862Y-102110669D02*
X78868284Y-102234276D01*
X78487101Y-102110422D02*
X77560945Y-100915753D01*
X78240648Y-102871515D02*
X78735075Y-101349824D01*
X302008282Y-68152158D02*
X302533611Y-69768954D01*
X301081365Y-69347074D02*
X300700943Y-69470681D01*
X301082126Y-69346827D02*
X302008282Y-68152158D01*
X300834152Y-68586229D02*
X301328579Y-70107920D01*
X301082126Y-69346827D02*
X302533611Y-69768954D01*
D17*
X280986004Y-112432012D02*
X281758547Y-114809653D01*
D15*
X273589094Y-115781730D02*
X274281292Y-117912096D01*
D16*
X273595959Y-119459617D02*
X273039729Y-117747716D01*
D14*
X280120451Y-113975002D02*
X273748373Y-116045415D01*
D10*
X281276123Y-111706869D02*
X273477458Y-114240809D01*
D13*
X281195267Y-111943433D02*
X280006447Y-112329704D01*
D10*
X273417598Y-120043301D02*
X276299299Y-119106979D01*
D12*
X273546006Y-119791286D02*
X275876094Y-119034195D01*
D10*
X272067373Y-116696752D02*
X272299135Y-117410044D01*
X272299135Y-117410044D02*
X272489347Y-117348241D01*
X277823512Y-116613954D02*
X282388584Y-115130673D01*
D11*
X272363339Y-117284037D02*
X272162478Y-116665850D01*
D12*
X282121118Y-114954712D02*
X280869294Y-115308881D01*
D10*
X282388584Y-115130673D02*
X281276123Y-111706869D01*
X282060546Y-114185796D02*
X281365257Y-112045919D01*
X272042472Y-115811099D02*
X273417598Y-120043301D01*
X273477458Y-114240809D02*
G75*
G03*
X272067373Y-116696753I522928J-1933013D01*
G01*
D17*
X277319483Y-116357139D02*
G75*
G03*
X275792137Y-118828606I608747J-2083878D01*
G01*
D10*
X277823512Y-116613954D02*
G75*
G03*
X276296166Y-119085421I608747J-2083878D01*
G01*
D18*
X176885020Y-107508240D02*
X175958864Y-106313571D01*
X175433535Y-107930367D02*
X175958864Y-106313571D01*
X176885020Y-107508240D02*
X175433535Y-107930367D01*
X176885781Y-107508487D02*
X177266203Y-107632094D01*
X176638567Y-108269333D02*
X177132994Y-106747642D01*
X337397003Y-119468020D02*
X337891430Y-120989711D01*
X337644977Y-120228618D02*
X338571133Y-119033949D01*
X337644977Y-120228618D02*
X339096462Y-120650745D01*
X338571133Y-119033949D02*
X339096462Y-120650745D01*
X337644216Y-120228865D02*
X337263794Y-120352472D01*
D12*
X331234912Y-112398188D02*
X333565000Y-111641097D01*
D14*
X337809357Y-106581904D02*
X331437279Y-108652317D01*
D10*
X331106504Y-112650203D02*
X333988205Y-111713881D01*
D13*
X338884173Y-104550335D02*
X337695353Y-104936606D01*
D12*
X339810024Y-107561614D02*
X338558200Y-107915783D01*
D10*
X329731378Y-108418001D02*
X331106504Y-112650203D01*
X340077490Y-107737575D02*
X338965029Y-104313771D01*
X338965029Y-104313771D02*
X331166364Y-106847711D01*
X329756279Y-109303654D02*
X329988041Y-110016946D01*
X335512418Y-109220856D02*
X340077490Y-107737575D01*
D11*
X330052245Y-109890939D02*
X329851384Y-109272752D01*
D15*
X331278000Y-108388632D02*
X331970198Y-110518998D01*
D16*
X331284865Y-112066519D02*
X330728635Y-110354618D01*
D10*
X339749452Y-106792698D02*
X339054163Y-104652821D01*
X329988041Y-110016946D02*
X330178253Y-109955143D01*
D17*
X338674910Y-105038914D02*
X339447453Y-107416555D01*
D10*
X331166364Y-106847711D02*
G75*
G03*
X329756279Y-109303655I522928J-1933013D01*
G01*
X335512418Y-109220856D02*
G75*
G03*
X333985072Y-111692323I608747J-2083878D01*
G01*
D17*
X335008389Y-108964041D02*
G75*
G03*
X333481043Y-111435508I608747J-2083878D01*
G01*
D18*
X90261410Y-65875416D02*
X90641832Y-65999023D01*
X90260649Y-65875169D02*
X88809164Y-66297296D01*
X88809164Y-66297296D02*
X89334493Y-64680500D01*
X90014196Y-66636262D02*
X90508623Y-65114571D01*
X90260649Y-65875169D02*
X89334493Y-64680500D01*
D10*
X167060170Y-159632643D02*
X160966382Y-165119515D01*
X161178975Y-168494023D02*
X161327604Y-168360196D01*
D17*
X167090076Y-160413096D02*
X168762903Y-162270958D01*
D12*
X169153129Y-162256005D02*
X168153584Y-163088717D01*
D14*
X166926945Y-162174739D02*
X161947874Y-166657914D01*
D10*
X163271783Y-170444703D02*
X165523512Y-168417237D01*
X160294152Y-167137708D02*
X163271783Y-170444703D01*
D13*
X167082525Y-159881642D02*
X166153594Y-160718055D01*
D15*
X161695115Y-166481810D02*
X163193968Y-168146454D01*
D10*
X168785047Y-161578203D02*
X167279503Y-159906127D01*
D16*
X163197318Y-169838934D02*
X161992884Y-168501275D01*
D10*
X165901945Y-165519792D02*
X169469040Y-162307965D01*
X169469040Y-162307965D02*
X167060170Y-159632643D01*
D11*
X161186376Y-168352795D02*
X160751441Y-167869751D01*
D10*
X160677127Y-167936664D02*
X161178975Y-168494023D01*
D12*
X163286586Y-170162248D02*
X165107291Y-168522878D01*
D10*
X165901944Y-165519791D02*
G75*
G03*
X165511881Y-168398817I1403709J-1656118D01*
G01*
X160966381Y-165119513D02*
G75*
G03*
X160677127Y-167936665I1263946J-1553203D01*
G01*
D17*
X165337036Y-165490187D02*
G75*
G03*
X164946971Y-168369211I1403707J-1656117D01*
G01*
D18*
X320910812Y-64681069D02*
X321436141Y-66297865D01*
X319736682Y-65115140D02*
X320231109Y-66636831D01*
X319984656Y-65875738D02*
X320910812Y-64681069D01*
X319983895Y-65875985D02*
X319603473Y-65999592D01*
X319984656Y-65875738D02*
X321436141Y-66297865D01*
X153587033Y-117564976D02*
X152660877Y-116370307D01*
X153587794Y-117565223D02*
X153968216Y-117688830D01*
X153340580Y-118326069D02*
X153835007Y-116804378D01*
X152135548Y-117987103D02*
X152660877Y-116370307D01*
X153587033Y-117564976D02*
X152135548Y-117987103D01*
D10*
X113786251Y-91933357D02*
X113976462Y-91995161D01*
D11*
X113912258Y-91869154D02*
X114113119Y-91250967D01*
D14*
X122132896Y-93751604D02*
X115760817Y-91681190D01*
D13*
X124196566Y-92739792D02*
X123007745Y-92353520D01*
D16*
X113630695Y-94353751D02*
X114186925Y-92641850D01*
D12*
X123175610Y-95720169D02*
X121954687Y-95270894D01*
X113395331Y-94592715D02*
X115725420Y-95349807D01*
D10*
X114018013Y-91220065D02*
X113786251Y-91933357D01*
X118723495Y-94536455D02*
X123288567Y-96019736D01*
X123288567Y-96019736D02*
X124401028Y-92595933D01*
X124401028Y-92595933D02*
X116602363Y-90061993D01*
X113143316Y-94721123D02*
X116025018Y-95657444D01*
X123578563Y-95062499D02*
X124273851Y-92922622D01*
X114518442Y-90488921D02*
X113143316Y-94721123D01*
D17*
X123740089Y-93012058D02*
X122967547Y-95389699D01*
D15*
X115786948Y-91374242D02*
X115094750Y-93504608D01*
D10*
X116602363Y-90061993D02*
G75*
G03*
X114018013Y-91220066I-713139J-1871210D01*
G01*
D17*
X118466679Y-94032427D02*
G75*
G03*
X115778339Y-95134133I-732386J-2043704D01*
G01*
D10*
X118723495Y-94536455D02*
G75*
G03*
X116035154Y-95638162I-732386J-2043705D01*
G01*
D14*
X152730483Y-61229011D02*
X146358404Y-59158597D01*
D17*
X154337676Y-60489465D02*
X153565134Y-62867106D01*
D10*
X144383838Y-59410764D02*
X144574049Y-59472568D01*
D15*
X146384535Y-58851649D02*
X145692337Y-60982015D01*
D10*
X144615600Y-58697472D02*
X144383838Y-59410764D01*
X153886154Y-63497143D02*
X154998615Y-60073340D01*
X149321082Y-62013862D02*
X153886154Y-63497143D01*
X145116029Y-57966328D02*
X143740903Y-62198530D01*
D16*
X144228282Y-61831158D02*
X144784512Y-60119257D01*
D11*
X144509845Y-59346561D02*
X144710706Y-58728374D01*
D10*
X154998615Y-60073340D02*
X147199950Y-57539400D01*
X154176150Y-62539906D02*
X154871438Y-60400029D01*
D12*
X153773197Y-63197576D02*
X152552274Y-62748301D01*
D10*
X143740903Y-62198530D02*
X146622605Y-63134851D01*
D13*
X154794153Y-60217199D02*
X153605332Y-59830927D01*
D12*
X143992918Y-62070122D02*
X146323007Y-62827214D01*
D10*
X147199950Y-57539400D02*
G75*
G03*
X144615600Y-58697473I-713139J-1871210D01*
G01*
X149321082Y-62013862D02*
G75*
G03*
X146632741Y-63115569I-732386J-2043705D01*
G01*
D17*
X149064266Y-61509834D02*
G75*
G03*
X146375926Y-62611540I-732386J-2043704D01*
G01*
X154088570Y-122903233D02*
X153316028Y-125280874D01*
D10*
X154749509Y-122487108D02*
X146950844Y-119953168D01*
D14*
X152481377Y-123642779D02*
X146109298Y-121572365D01*
D10*
X149071976Y-124427630D02*
X153637048Y-125910911D01*
X153637048Y-125910911D02*
X154749509Y-122487108D01*
X144366494Y-121111240D02*
X144134732Y-121824532D01*
X143491797Y-124612298D02*
X146373499Y-125548619D01*
D13*
X154545047Y-122630967D02*
X153356226Y-122244695D01*
D12*
X143743812Y-124483890D02*
X146073901Y-125240982D01*
D16*
X143979176Y-124244926D02*
X144535406Y-122533025D01*
D11*
X144260739Y-121760329D02*
X144461600Y-121142142D01*
D10*
X153927044Y-124953674D02*
X154622332Y-122813797D01*
X144866923Y-120380096D02*
X143491797Y-124612298D01*
D12*
X153524091Y-125611344D02*
X152303168Y-125162069D01*
D15*
X146135429Y-121265417D02*
X145443231Y-123395783D01*
D10*
X144134732Y-121824532D02*
X144324943Y-121886336D01*
X146950844Y-119953168D02*
G75*
G03*
X144366494Y-121111241I-713139J-1871210D01*
G01*
D17*
X148815160Y-123923602D02*
G75*
G03*
X146126820Y-125025308I-732386J-2043704D01*
G01*
D10*
X149071976Y-124427630D02*
G75*
G03*
X146383635Y-125529337I-732386J-2043705D01*
G01*
D12*
X119282105Y-76475088D02*
X121612194Y-77232180D01*
D10*
X119673025Y-73815730D02*
X119863236Y-73877534D01*
X129175341Y-77902109D02*
X130287802Y-74478306D01*
D13*
X130083340Y-74622165D02*
X128894519Y-74235893D01*
D11*
X119799032Y-73751527D02*
X119999893Y-73133340D01*
D14*
X128019670Y-75633977D02*
X121647591Y-73563563D01*
D12*
X129062384Y-77602542D02*
X127841461Y-77153267D01*
D10*
X129465337Y-76944872D02*
X130160625Y-74804995D01*
X119030090Y-76603496D02*
X121911792Y-77539817D01*
D15*
X121673722Y-73256615D02*
X120981524Y-75386981D01*
D16*
X119517469Y-76236124D02*
X120073699Y-74524223D01*
D17*
X129626863Y-74894431D02*
X128854321Y-77272072D01*
D10*
X124610269Y-76418828D02*
X129175341Y-77902109D01*
X120405216Y-72371294D02*
X119030090Y-76603496D01*
X119904787Y-73102438D02*
X119673025Y-73815730D01*
X130287802Y-74478306D02*
X122489137Y-71944366D01*
X124610269Y-76418828D02*
G75*
G03*
X121921928Y-77520535I-732386J-2043705D01*
G01*
D17*
X124353453Y-75914800D02*
G75*
G03*
X121665113Y-77016506I-732386J-2043704D01*
G01*
D10*
X122489137Y-71944366D02*
G75*
G03*
X119904787Y-73102439I-713139J-1871210D01*
G01*
D18*
X165111472Y-143743492D02*
X163659987Y-144165619D01*
X163659987Y-144165619D02*
X164185316Y-142548823D01*
X165111472Y-143743492D02*
X164185316Y-142548823D01*
X164865019Y-144504585D02*
X165359446Y-142982894D01*
X165112233Y-143743739D02*
X165492655Y-143867346D01*
X170998248Y-125625866D02*
X170072092Y-124431197D01*
X169546763Y-126047993D02*
X170072092Y-124431197D01*
X170999009Y-125626113D02*
X171379431Y-125749720D01*
X170998248Y-125625866D02*
X169546763Y-126047993D01*
X170751795Y-126386959D02*
X171246222Y-124865268D01*
D15*
X95825499Y-91164553D02*
X95133301Y-93294919D01*
D10*
X93824802Y-91723668D02*
X94015013Y-91785472D01*
D17*
X103778640Y-92802369D02*
X103006098Y-95180010D01*
D12*
X93433882Y-94383026D02*
X95763971Y-95140118D01*
X103214161Y-95510480D02*
X101993238Y-95061205D01*
D16*
X93669246Y-94144062D02*
X94225476Y-92432161D01*
D10*
X103327118Y-95810047D02*
X104439579Y-92386244D01*
D14*
X102171447Y-93541915D02*
X95799368Y-91471501D01*
D10*
X94556993Y-90279232D02*
X93181867Y-94511434D01*
X93181867Y-94511434D02*
X96063569Y-95447755D01*
D13*
X104235117Y-92530103D02*
X103046296Y-92143831D01*
D11*
X93950809Y-91659465D02*
X94151670Y-91041278D01*
D10*
X98762046Y-94326766D02*
X103327118Y-95810047D01*
X103617114Y-94852810D02*
X104312402Y-92712933D01*
X104439579Y-92386244D02*
X96640914Y-89852304D01*
X94056564Y-91010376D02*
X93824802Y-91723668D01*
X96640914Y-89852304D02*
G75*
G03*
X94056564Y-91010377I-713139J-1871210D01*
G01*
D17*
X98505230Y-93822738D02*
G75*
G03*
X95816890Y-94924444I-732386J-2043704D01*
G01*
D10*
X98762046Y-94326766D02*
G75*
G03*
X96073705Y-95428473I-732386J-2043705D01*
G01*
D18*
X193348201Y-138247111D02*
X194964997Y-138772440D01*
X193770328Y-139698596D02*
X193348201Y-138247111D01*
X193770328Y-139698596D02*
X194964997Y-138772440D01*
X193770081Y-139699357D02*
X193646474Y-140079779D01*
X193009235Y-139452143D02*
X194530926Y-139946570D01*
D10*
X241352869Y-112189454D02*
X240657580Y-110049577D01*
X231591458Y-115413702D02*
X231781670Y-115351899D01*
D15*
X232881417Y-113785388D02*
X233573615Y-115915754D01*
D12*
X232838329Y-117794944D02*
X235168417Y-117037853D01*
D13*
X240487590Y-109947091D02*
X239298770Y-110333362D01*
D12*
X241413441Y-112958370D02*
X240161617Y-113312539D01*
D10*
X231359696Y-114700410D02*
X231591458Y-115413702D01*
X240568446Y-109710527D02*
X232769781Y-112244467D01*
D11*
X231655662Y-115287695D02*
X231454801Y-114669508D01*
D10*
X232709921Y-118046959D02*
X235591622Y-117110637D01*
D16*
X232888282Y-117463275D02*
X232332052Y-115751374D01*
D10*
X231334795Y-113814757D02*
X232709921Y-118046959D01*
D14*
X239412774Y-111978660D02*
X233040696Y-114049073D01*
D10*
X237115835Y-114617612D02*
X241680907Y-113134331D01*
D17*
X240278327Y-110435670D02*
X241050870Y-112813311D01*
D10*
X241680907Y-113134331D02*
X240568446Y-109710527D01*
X232769781Y-112244467D02*
G75*
G03*
X231359696Y-114700411I522928J-1933013D01*
G01*
X237115835Y-114617612D02*
G75*
G03*
X235588489Y-117089079I608747J-2083878D01*
G01*
D17*
X236611806Y-114360797D02*
G75*
G03*
X235084460Y-116832264I608747J-2083878D01*
G01*
D18*
X344158912Y-140279039D02*
X343778490Y-140402646D01*
X343911699Y-139518194D02*
X344406126Y-141039885D01*
X345085829Y-139084123D02*
X345611158Y-140700919D01*
X344159673Y-140278792D02*
X345611158Y-140700919D01*
X344159673Y-140278792D02*
X345085829Y-139084123D01*
X280882232Y-126427046D02*
X281407561Y-128043842D01*
X279956076Y-127621715D02*
X280882232Y-126427046D01*
X279956076Y-127621715D02*
X281407561Y-128043842D01*
X279708102Y-126861117D02*
X280202529Y-128382808D01*
X279955315Y-127621962D02*
X279574893Y-127745569D01*
X66085632Y-140278222D02*
X65159476Y-139083553D01*
X66086393Y-140278469D02*
X66466815Y-140402076D01*
X66085632Y-140278222D02*
X64634147Y-140700349D01*
X64634147Y-140700349D02*
X65159476Y-139083553D01*
X65839179Y-141039315D02*
X66333606Y-139517624D01*
X129125328Y-69556176D02*
X128199172Y-68361507D01*
X127673843Y-69978303D02*
X128199172Y-68361507D01*
X129125328Y-69556176D02*
X127673843Y-69978303D01*
X129126089Y-69556423D02*
X129506511Y-69680030D01*
X128878875Y-70317269D02*
X129373302Y-68795578D01*
X121787069Y-88095929D02*
X122312398Y-86479133D01*
X123238554Y-87673802D02*
X122312398Y-86479133D01*
X123239315Y-87674049D02*
X123619737Y-87797656D01*
X122992101Y-88434895D02*
X123486528Y-86913204D01*
X123238554Y-87673802D02*
X121787069Y-88095929D01*
X97389631Y-105581512D02*
X95938146Y-106003639D01*
X97390392Y-105581759D02*
X97770814Y-105705366D01*
X95938146Y-106003639D02*
X96463475Y-104386843D01*
X97143178Y-106342605D02*
X97637605Y-104820914D01*
X97389631Y-105581512D02*
X96463475Y-104386843D01*
X287932723Y-86479134D02*
X288458052Y-88095930D01*
X287005806Y-87674050D02*
X286625384Y-87797657D01*
X287006567Y-87673803D02*
X288458052Y-88095930D01*
X287006567Y-87673803D02*
X287932723Y-86479134D01*
X286758593Y-86913205D02*
X287253020Y-88434896D01*
D10*
X238596693Y-136164584D02*
X241478394Y-135228262D01*
X237478230Y-133531327D02*
X237668442Y-133469524D01*
D17*
X246165099Y-128553295D02*
X246937642Y-130930936D01*
D10*
X247239641Y-130307079D02*
X246544352Y-128167202D01*
D13*
X246374362Y-128064716D02*
X245185542Y-128450987D01*
D11*
X237542434Y-133405320D02*
X237341573Y-132787133D01*
D10*
X243002607Y-132735237D02*
X247567679Y-131251956D01*
D15*
X238768189Y-131903013D02*
X239460387Y-134033379D01*
D10*
X246455218Y-127828152D02*
X238656553Y-130362092D01*
X237246468Y-132818035D02*
X237478230Y-133531327D01*
X247567679Y-131251956D02*
X246455218Y-127828152D01*
D16*
X238775054Y-135580900D02*
X238218824Y-133868999D01*
D12*
X238725101Y-135912569D02*
X241055189Y-135155478D01*
X247300213Y-131075995D02*
X246048389Y-131430164D01*
D14*
X245299546Y-130096285D02*
X238927468Y-132166698D01*
D10*
X237221567Y-131932382D02*
X238596693Y-136164584D01*
D17*
X242498578Y-132478422D02*
G75*
G03*
X240971232Y-134949889I608747J-2083878D01*
G01*
D10*
X243002607Y-132735237D02*
G75*
G03*
X241475261Y-135206704I608747J-2083878D01*
G01*
X238656553Y-130362092D02*
G75*
G03*
X237246468Y-132818036I522928J-1933013D01*
G01*
D18*
X262294991Y-73269082D02*
X261914569Y-73392689D01*
X262295752Y-73268835D02*
X263221908Y-72074166D01*
X262047778Y-72508237D02*
X262542205Y-74029928D01*
X263221908Y-72074166D02*
X263747237Y-73690962D01*
X262295752Y-73268835D02*
X263747237Y-73690962D01*
X135929367Y-110265180D02*
X136423794Y-108743489D01*
X136176581Y-109504334D02*
X136557003Y-109627941D01*
X136175820Y-109504087D02*
X135249664Y-108309418D01*
X134724335Y-109926214D02*
X135249664Y-108309418D01*
X136175820Y-109504087D02*
X134724335Y-109926214D01*
D10*
X183337624Y-125268452D02*
X181962498Y-129500654D01*
D15*
X184606130Y-126153773D02*
X183913932Y-128284139D01*
D11*
X182731440Y-126648685D02*
X182932301Y-126030498D01*
D10*
X193220210Y-127375464D02*
X185421545Y-124841524D01*
D12*
X182214513Y-129372246D02*
X184544602Y-130129338D01*
D10*
X181962498Y-129500654D02*
X184844200Y-130436975D01*
X187542677Y-129315986D02*
X192107749Y-130799267D01*
X192397745Y-129842030D02*
X193093033Y-127702153D01*
D12*
X191994792Y-130499700D02*
X190773869Y-130050425D01*
D16*
X182449877Y-129133282D02*
X183006107Y-127421381D01*
D10*
X182837195Y-125999596D02*
X182605433Y-126712888D01*
X192107749Y-130799267D02*
X193220210Y-127375464D01*
D17*
X192559271Y-127791589D02*
X191786729Y-130169230D01*
D10*
X182605433Y-126712888D02*
X182795644Y-126774692D01*
D13*
X193015748Y-127519323D02*
X191826927Y-127133051D01*
D14*
X190952078Y-128531135D02*
X184579999Y-126460721D01*
D10*
X185421545Y-124841524D02*
G75*
G03*
X182837195Y-125999597I-713139J-1871210D01*
G01*
D17*
X187285861Y-128811958D02*
G75*
G03*
X184597521Y-129913664I-732386J-2043704D01*
G01*
D10*
X187542677Y-129315986D02*
G75*
G03*
X184854336Y-130417693I-732386J-2043705D01*
G01*
X260525589Y-81174787D02*
X260715801Y-81112984D01*
X260293827Y-80461495D02*
X260525589Y-81174787D01*
X260268926Y-79575842D02*
X261644052Y-83808044D01*
D15*
X261815548Y-79546473D02*
X262507746Y-81676839D01*
D16*
X261822413Y-83224360D02*
X261266183Y-81512459D01*
D13*
X269421721Y-75708176D02*
X268232901Y-76094447D01*
D10*
X266049966Y-80378697D02*
X270615038Y-78895416D01*
X261644052Y-83808044D02*
X264525753Y-82871722D01*
D12*
X270347572Y-78719455D02*
X269095748Y-79073624D01*
D10*
X270287000Y-77950539D02*
X269591711Y-75810662D01*
D14*
X268346905Y-77739745D02*
X261974827Y-79810158D01*
D10*
X270615038Y-78895416D02*
X269502577Y-75471612D01*
D17*
X269212458Y-76196755D02*
X269985001Y-78574396D01*
D12*
X261772460Y-83556029D02*
X264102548Y-82798938D01*
D10*
X269502577Y-75471612D02*
X261703912Y-78005552D01*
D11*
X260589793Y-81048780D02*
X260388932Y-80430593D01*
D10*
X261703912Y-78005552D02*
G75*
G03*
X260293827Y-80461496I522928J-1933013D01*
G01*
X266049966Y-80378697D02*
G75*
G03*
X264522620Y-82850164I608747J-2083878D01*
G01*
D17*
X265545937Y-80121882D02*
G75*
G03*
X264018591Y-82593349I608747J-2083878D01*
G01*
D18*
X268181765Y-91386706D02*
X267801343Y-91510313D01*
X268182526Y-91386459D02*
X269634011Y-91808586D01*
X269108682Y-90191790D02*
X269634011Y-91808586D01*
X267934552Y-90625861D02*
X268428979Y-92147552D01*
X268182526Y-91386459D02*
X269108682Y-90191790D01*
X111379198Y-149545797D02*
X111497784Y-147849938D01*
X112630439Y-149583170D02*
X112742050Y-147987068D01*
X112685446Y-148785063D02*
X111379198Y-149545797D01*
X112686244Y-148785119D02*
X113085270Y-148813021D01*
X112685446Y-148785063D02*
X111497784Y-147849938D01*
D10*
X302692957Y-133661967D02*
X294512931Y-134233970D01*
D11*
X292695683Y-136917271D02*
X292650341Y-136268855D01*
D10*
X292550585Y-136275830D02*
X292602902Y-137024003D01*
D14*
X301022903Y-135583144D02*
X294339224Y-136050512D01*
D16*
X293365368Y-139326425D02*
X293239807Y-137530811D01*
D10*
X302854373Y-136257028D02*
X302697421Y-134012509D01*
D12*
X293236661Y-139636158D02*
X295680692Y-139465254D01*
D10*
X292602902Y-137024003D02*
X292802415Y-137010052D01*
D13*
X302557274Y-133871943D02*
X301310319Y-133959139D01*
D10*
X302944080Y-137253197D02*
X302692957Y-133661967D01*
D12*
X302727128Y-137017758D02*
X301426807Y-137058563D01*
D10*
X293051099Y-139849622D02*
X296073718Y-139638260D01*
D15*
X294248468Y-135756126D02*
X294404722Y-137990669D01*
D10*
X298155773Y-137588028D02*
X302944080Y-137253197D01*
D17*
X302236029Y-134295383D02*
X302410420Y-136789294D01*
D10*
X292740683Y-135410462D02*
X293051099Y-139849622D01*
X294512931Y-134233970D02*
G75*
G03*
X292550585Y-136275831I39756J-2002102D01*
G01*
D17*
X297728845Y-137216905D02*
G75*
G03*
X295648965Y-139245461I86529J-2169248D01*
G01*
D10*
X298155773Y-137588028D02*
G75*
G03*
X296075893Y-139616584I86529J-2169248D01*
G01*
D11*
X243639488Y-174372041D02*
X243204553Y-174855085D01*
D10*
X240329093Y-169978434D02*
X236761998Y-166766607D01*
X242524320Y-175386389D02*
X245501952Y-172079394D01*
D15*
X241725575Y-174061660D02*
X243224427Y-172397016D01*
D10*
X236107730Y-167523134D02*
X234602186Y-169195210D01*
X236761998Y-166766607D02*
X234353128Y-169441928D01*
D14*
X236895224Y-169308703D02*
X241874294Y-173791878D01*
D10*
X245501952Y-172079394D02*
X243250223Y-170051928D01*
D16*
X244907286Y-172216771D02*
X243702851Y-173554431D01*
D12*
X236743344Y-167086219D02*
X237675976Y-167993246D01*
X245219497Y-172094197D02*
X243398792Y-170454827D01*
D10*
X243780716Y-174364640D02*
X243632087Y-174230814D01*
X243278868Y-174921998D02*
X243780716Y-174364640D01*
D13*
X234598426Y-169393669D02*
X235527357Y-170230082D01*
D17*
X235126179Y-169330607D02*
X236799005Y-167472745D01*
D10*
X234353128Y-169441928D02*
X240446916Y-174928800D01*
X240446915Y-174928801D02*
G75*
G03*
X243278868Y-174921998I1412575J1419376D01*
G01*
X240329093Y-169978434D02*
G75*
G03*
X243233120Y-170065421I1500318J1569130D01*
G01*
D17*
X240358700Y-170543343D02*
G75*
G03*
X243262725Y-170630331I1500317J1569128D01*
G01*
D10*
X105598349Y-55488415D02*
X105788560Y-55550219D01*
D12*
X105207429Y-58147773D02*
X107537518Y-58904865D01*
D17*
X115552187Y-56567116D02*
X114779645Y-58944757D01*
D10*
X110535593Y-58091513D02*
X115100665Y-59574794D01*
X115390661Y-58617557D02*
X116085949Y-56477680D01*
D16*
X105442793Y-57908809D02*
X105999023Y-56196908D01*
D12*
X114987708Y-59275227D02*
X113766785Y-58825952D01*
D10*
X104955414Y-58276181D02*
X107837116Y-59212502D01*
X116213126Y-56150991D02*
X108414461Y-53617051D01*
X115100665Y-59574794D02*
X116213126Y-56150991D01*
X106330540Y-54043979D02*
X104955414Y-58276181D01*
D13*
X116008664Y-56294850D02*
X114819843Y-55908578D01*
D10*
X105830111Y-54775123D02*
X105598349Y-55488415D01*
D11*
X105724356Y-55424212D02*
X105925217Y-54806025D01*
D14*
X113944994Y-57306662D02*
X107572915Y-55236248D01*
D15*
X107599046Y-54929300D02*
X106906848Y-57059666D01*
D10*
X108414461Y-53617051D02*
G75*
G03*
X105830111Y-54775124I-713139J-1871210D01*
G01*
X110535593Y-58091513D02*
G75*
G03*
X107847252Y-59193220I-732386J-2043705D01*
G01*
D17*
X110278777Y-57587485D02*
G75*
G03*
X107590437Y-58689191I-732386J-2043704D01*
G01*
D18*
X72600328Y-120228049D02*
X71674172Y-119033380D01*
X72601089Y-120228296D02*
X72981511Y-120351903D01*
X72600328Y-120228049D02*
X71148843Y-120650176D01*
X71148843Y-120650176D02*
X71674172Y-119033380D01*
X72353875Y-120989142D02*
X72848302Y-119467451D01*
D17*
X115790790Y-134839711D02*
X115616398Y-137333621D01*
D10*
X106232663Y-134622440D02*
X105922246Y-139061600D01*
X105922246Y-139061600D02*
X108944865Y-139272963D01*
D14*
X114410249Y-135946104D02*
X107726569Y-135478736D01*
D10*
X116130107Y-136868322D02*
X116287060Y-134623803D01*
D11*
X105978393Y-136108323D02*
X106023735Y-135459906D01*
D12*
X115898229Y-137603939D02*
X114604883Y-137463377D01*
D10*
X116080302Y-137867281D02*
X116331426Y-134276051D01*
X105923979Y-135452931D02*
X105871661Y-136201104D01*
X111291995Y-137532450D02*
X116080302Y-137867281D01*
D12*
X106135710Y-138876039D02*
X108579742Y-139046942D01*
D10*
X105871661Y-136201104D02*
X106071174Y-136215055D01*
D13*
X116167840Y-134465100D02*
X114920885Y-134377904D01*
D15*
X107677667Y-135174584D02*
X107521412Y-137409127D01*
D10*
X116331426Y-134276051D02*
X108151399Y-133704048D01*
D16*
X106306272Y-138587233D02*
X106431833Y-136791619D01*
D17*
X110920872Y-137105523D02*
G75*
G03*
X108578913Y-138824873I-216214J-2160178D01*
G01*
D10*
X108151399Y-133704046D02*
G75*
G03*
X105923978Y-135452932I-239269J-1988152D01*
G01*
X111291995Y-137532451D02*
G75*
G03*
X108950036Y-139251801I-216214J-2160178D01*
G01*
D12*
X176665829Y-161614167D02*
X174845124Y-163253537D01*
D10*
X176680632Y-161331712D02*
X174428903Y-163359178D01*
X170483375Y-169468450D02*
X172892245Y-172143772D01*
D11*
X178766039Y-163423620D02*
X179200974Y-163906664D01*
D10*
X179658263Y-164638707D02*
X176680632Y-161331712D01*
X172892245Y-172143772D02*
X178986033Y-166656900D01*
D15*
X178257300Y-165294605D02*
X176758447Y-163629961D01*
D10*
X174050470Y-166256623D02*
X170483375Y-169468450D01*
X179275288Y-163839751D02*
X178773440Y-163282392D01*
D14*
X173025470Y-169601676D02*
X178004541Y-165118501D01*
D12*
X170799286Y-169520410D02*
X171798831Y-168687698D01*
D17*
X172862339Y-171363319D02*
X171189512Y-169505457D01*
D13*
X172869890Y-171894773D02*
X173798821Y-171058360D01*
D16*
X176755097Y-161937481D02*
X177959531Y-163275140D01*
D10*
X178773440Y-163282392D02*
X178624811Y-163416219D01*
X171167368Y-170198212D02*
X172672912Y-171870288D01*
D17*
X174615379Y-166286228D02*
G75*
G03*
X175005444Y-163407204I-1403707J1656117D01*
G01*
D10*
X178986034Y-166656902D02*
G75*
G03*
X179275288Y-163839750I-1263946J1553203D01*
G01*
X174050471Y-166256624D02*
G75*
G03*
X174440534Y-163377598I-1403709J1656118D01*
G01*
D18*
X256658085Y-117564975D02*
X258109570Y-117987102D01*
X256658085Y-117564975D02*
X257584241Y-116370306D01*
X256410111Y-116804377D02*
X256904538Y-118326068D01*
X257584241Y-116370306D02*
X258109570Y-117987102D01*
X256657324Y-117565222D02*
X256276902Y-117688829D01*
D11*
X80935055Y-70070750D02*
X81135916Y-69452563D01*
D13*
X91219363Y-70941388D02*
X90030542Y-70555116D01*
D12*
X80418128Y-72794311D02*
X82748217Y-73551403D01*
D10*
X80809048Y-70134953D02*
X80999259Y-70196757D01*
X85746292Y-72738051D02*
X90311364Y-74221332D01*
X81040810Y-69421661D02*
X80809048Y-70134953D01*
X81541239Y-68690517D02*
X80166113Y-72922719D01*
X90601360Y-73264095D02*
X91296648Y-71124218D01*
D17*
X90762886Y-71213654D02*
X89990344Y-73591295D01*
D16*
X80653492Y-72555347D02*
X81209722Y-70843446D01*
D12*
X90198407Y-73921765D02*
X88977484Y-73472490D01*
D15*
X82809745Y-69575838D02*
X82117547Y-71706204D01*
D10*
X80166113Y-72922719D02*
X83047815Y-73859040D01*
X90311364Y-74221332D02*
X91423825Y-70797529D01*
D14*
X89155693Y-71953200D02*
X82783614Y-69882786D01*
D10*
X91423825Y-70797529D02*
X83625160Y-68263589D01*
X83625160Y-68263589D02*
G75*
G03*
X81040810Y-69421662I-713139J-1871210D01*
G01*
X85746292Y-72738051D02*
G75*
G03*
X83057951Y-73839758I-732386J-2043705D01*
G01*
D17*
X85489476Y-72234023D02*
G75*
G03*
X82801136Y-73335729I-732386J-2043704D01*
G01*
D18*
X313781829Y-104387412D02*
X314307158Y-106004208D01*
X312607699Y-104821483D02*
X313102126Y-106343174D01*
X312855673Y-105582081D02*
X314307158Y-106004208D01*
X312855673Y-105582081D02*
X313781829Y-104387412D01*
X312854912Y-105582328D02*
X312474490Y-105705935D01*
D10*
X264728264Y-60777793D02*
X263615803Y-57353989D01*
X254407053Y-62343872D02*
X254638815Y-63057164D01*
D17*
X263325684Y-58079132D02*
X264098227Y-60456773D01*
D11*
X254703019Y-62931157D02*
X254502158Y-62312970D01*
D14*
X262460131Y-59622122D02*
X256088053Y-61692535D01*
D10*
X254638815Y-63057164D02*
X254829027Y-62995361D01*
X263615803Y-57353989D02*
X255817138Y-59887929D01*
X255757278Y-65690421D02*
X258638979Y-64754099D01*
D16*
X255935639Y-65106737D02*
X255379409Y-63394836D01*
D10*
X264400226Y-59832916D02*
X263704937Y-57693039D01*
X254382152Y-61458219D02*
X255757278Y-65690421D01*
X260163192Y-62261074D02*
X264728264Y-60777793D01*
D15*
X255928774Y-61428850D02*
X256620972Y-63559216D01*
D13*
X263534947Y-57590553D02*
X262346127Y-57976824D01*
D12*
X264460798Y-60601832D02*
X263208974Y-60956001D01*
X255885686Y-65438406D02*
X258215774Y-64681315D01*
D17*
X259659163Y-62004259D02*
G75*
G03*
X258131817Y-64475726I608747J-2083878D01*
G01*
D10*
X255817138Y-59887929D02*
G75*
G03*
X254407053Y-62343873I522928J-1933013D01*
G01*
X260163192Y-62261074D02*
G75*
G03*
X258635846Y-64732541I608747J-2083878D01*
G01*
D11*
X69161506Y-106306001D02*
X69362367Y-105687814D01*
D13*
X79445814Y-107176639D02*
X78256993Y-106790367D01*
D14*
X77382144Y-108188451D02*
X71010065Y-106118037D01*
D10*
X78827811Y-109499346D02*
X79523099Y-107359469D01*
X69767690Y-104925768D02*
X68392564Y-109157970D01*
X78537815Y-110456583D02*
X79650276Y-107032780D01*
D16*
X68879943Y-108790598D02*
X69436173Y-107078697D01*
D10*
X68392564Y-109157970D02*
X71274266Y-110094291D01*
D17*
X78989337Y-107448905D02*
X78216795Y-109826546D01*
D15*
X71036196Y-105811089D02*
X70343998Y-107941455D01*
D12*
X68644579Y-109029562D02*
X70974668Y-109786654D01*
D10*
X69035499Y-106370204D02*
X69225710Y-106432008D01*
D12*
X78424858Y-110157016D02*
X77203935Y-109707741D01*
D10*
X79650276Y-107032780D02*
X71851611Y-104498840D01*
X73972743Y-108973302D02*
X78537815Y-110456583D01*
X69267261Y-105656912D02*
X69035499Y-106370204D01*
X73972743Y-108973302D02*
G75*
G03*
X71284402Y-110075009I-732386J-2043705D01*
G01*
X71851611Y-104498840D02*
G75*
G03*
X69267261Y-105656913I-713139J-1871210D01*
G01*
D17*
X73715927Y-108469274D02*
G75*
G03*
X71027587Y-109570980I-732386J-2043704D01*
G01*
D18*
X281119031Y-69556423D02*
X280738609Y-69680030D01*
X281119792Y-69556176D02*
X282571277Y-69978303D01*
X282045948Y-68361507D02*
X282571277Y-69978303D01*
X281119792Y-69556176D02*
X282045948Y-68361507D01*
X280871818Y-68795578D02*
X281366245Y-70317269D01*
D16*
X294722014Y-61184733D02*
X294165784Y-59472832D01*
D10*
X293425190Y-59135160D02*
X293615402Y-59073357D01*
X303514639Y-56855789D02*
X302402178Y-53431985D01*
X293168527Y-57536215D02*
X294543653Y-61768417D01*
D15*
X294715149Y-57506846D02*
X295407347Y-59637212D01*
D10*
X303186601Y-55910912D02*
X302491312Y-53771035D01*
X294543653Y-61768417D02*
X297425354Y-60832095D01*
D17*
X302112059Y-54157128D02*
X302884602Y-56534769D01*
D10*
X302402178Y-53431985D02*
X294603513Y-55965925D01*
X298949567Y-58339070D02*
X303514639Y-56855789D01*
D12*
X294672061Y-61516402D02*
X297002149Y-60759311D01*
D10*
X293193428Y-58421868D02*
X293425190Y-59135160D01*
D14*
X301246506Y-55700118D02*
X294874428Y-57770531D01*
D12*
X303247173Y-56679828D02*
X301995349Y-57033997D01*
D13*
X302321322Y-53668549D02*
X301132502Y-54054820D01*
D11*
X293489394Y-59009153D02*
X293288533Y-58390966D01*
D17*
X298445538Y-58082255D02*
G75*
G03*
X296918192Y-60553722I608747J-2083878D01*
G01*
D10*
X294603513Y-55965925D02*
G75*
G03*
X293193428Y-58421869I522928J-1933013D01*
G01*
X298949567Y-58339070D02*
G75*
G03*
X297422221Y-60810537I608747J-2083878D01*
G01*
X188997054Y-78661189D02*
X189692342Y-76521312D01*
D13*
X189615057Y-76338482D02*
X188426236Y-75952210D01*
D11*
X179330749Y-75467844D02*
X179531610Y-74849657D01*
D10*
X188707058Y-79618426D02*
X189819519Y-76194623D01*
X178561807Y-78319813D02*
X181443509Y-79256134D01*
D16*
X179049186Y-77952441D02*
X179605416Y-76240540D01*
D14*
X187551387Y-77350294D02*
X181179308Y-75279880D01*
D10*
X189819519Y-76194623D02*
X182020854Y-73660683D01*
X184141986Y-78135145D02*
X188707058Y-79618426D01*
X179204742Y-75532047D02*
X179394953Y-75593851D01*
X179436504Y-74818755D02*
X179204742Y-75532047D01*
X179936933Y-74087611D02*
X178561807Y-78319813D01*
D12*
X188594101Y-79318859D02*
X187373178Y-78869584D01*
D15*
X181205439Y-74972932D02*
X180513241Y-77103298D01*
D12*
X178813822Y-78191405D02*
X181143911Y-78948497D01*
D17*
X189158580Y-76610748D02*
X188386038Y-78988389D01*
X183885170Y-77631117D02*
G75*
G03*
X181196830Y-78732823I-732386J-2043704D01*
G01*
D10*
X184141986Y-78135145D02*
G75*
G03*
X181453645Y-79236852I-732386J-2043705D01*
G01*
X182020854Y-73660683D02*
G75*
G03*
X179436504Y-74818756I-713139J-1871210D01*
G01*
D12*
X280830256Y-140238485D02*
X279578432Y-140592654D01*
D10*
X271008273Y-142693817D02*
X271198485Y-142632014D01*
X281097722Y-140414446D02*
X279985261Y-136990642D01*
D15*
X272298232Y-141065503D02*
X272990430Y-143195869D01*
D14*
X278829589Y-139258775D02*
X272457511Y-141329188D01*
D10*
X280769684Y-139469569D02*
X280074395Y-137329692D01*
X270776511Y-141980525D02*
X271008273Y-142693817D01*
X276532650Y-141897727D02*
X281097722Y-140414446D01*
X270751610Y-141094872D02*
X272126736Y-145327074D01*
D12*
X272255144Y-145075059D02*
X274585232Y-144317968D01*
D17*
X279695142Y-137715785D02*
X280467685Y-140093426D01*
D16*
X272305097Y-144743390D02*
X271748867Y-143031489D01*
D10*
X272126736Y-145327074D02*
X275008437Y-144390752D01*
X279985261Y-136990642D02*
X272186596Y-139524582D01*
D11*
X271072477Y-142567810D02*
X270871616Y-141949623D01*
D13*
X279904405Y-137227206D02*
X278715585Y-137613477D01*
D10*
X272186596Y-139524582D02*
G75*
G03*
X270776511Y-141980526I522928J-1933013D01*
G01*
D17*
X276028621Y-141640912D02*
G75*
G03*
X274501275Y-144112379I608747J-2083878D01*
G01*
D10*
X276532650Y-141897727D02*
G75*
G03*
X275005304Y-144369194I608747J-2083878D01*
G01*
X109213892Y-77692422D02*
X110326353Y-74268619D01*
X99943338Y-72892751D02*
X99711576Y-73606043D01*
D11*
X99837583Y-73541840D02*
X100038444Y-72923653D01*
D12*
X99320656Y-76265401D02*
X101650745Y-77022493D01*
D10*
X109503888Y-76735185D02*
X110199176Y-74595308D01*
D12*
X109100935Y-77392855D02*
X107880012Y-76943580D01*
D10*
X99711576Y-73606043D02*
X99901787Y-73667847D01*
D17*
X109665414Y-74684744D02*
X108892872Y-77062385D01*
D10*
X99068641Y-76393809D02*
X101950343Y-77330130D01*
X110326353Y-74268619D02*
X102527688Y-71734679D01*
D14*
X108058221Y-75424290D02*
X101686142Y-73353876D01*
D15*
X101712273Y-73046928D02*
X101020075Y-75177294D01*
D16*
X99556020Y-76026437D02*
X100112250Y-74314536D01*
D13*
X110121891Y-74412478D02*
X108933070Y-74026206D01*
D10*
X100443767Y-72161607D02*
X99068641Y-76393809D01*
X104648820Y-76209141D02*
X109213892Y-77692422D01*
X102527688Y-71734679D02*
G75*
G03*
X99943338Y-72892752I-713139J-1871210D01*
G01*
D17*
X104392004Y-75705113D02*
G75*
G03*
X101703664Y-76806819I-732386J-2043704D01*
G01*
D10*
X104648820Y-76209141D02*
G75*
G03*
X101960479Y-77310848I-732386J-2043705D01*
G01*
D18*
X306720925Y-86703857D02*
X307215352Y-88225548D01*
X306968138Y-87464702D02*
X306587716Y-87588309D01*
X306968899Y-87464455D02*
X308420384Y-87886582D01*
X307895055Y-86269786D02*
X308420384Y-87886582D01*
X306968899Y-87464455D02*
X307895055Y-86269786D01*
X261319302Y-161463497D02*
X260980083Y-161675465D01*
X261929609Y-160079833D02*
X262830472Y-161521515D01*
X261319980Y-161463073D02*
X262830472Y-161521515D01*
X261319980Y-161463073D02*
X261929609Y-160079833D01*
X260895366Y-160785058D02*
X261743237Y-162141935D01*
X159474569Y-99447596D02*
X159854991Y-99571203D01*
X159473808Y-99447349D02*
X158022323Y-99869476D01*
X159473808Y-99447349D02*
X158547652Y-98252680D01*
X159227355Y-100208442D02*
X159721782Y-98686751D01*
X158022323Y-99869476D02*
X158547652Y-98252680D01*
X103276406Y-87463885D02*
X101824921Y-87886012D01*
X103029953Y-88224978D02*
X103524380Y-86703287D01*
X103276406Y-87463885D02*
X102350250Y-86269216D01*
X101824921Y-87886012D02*
X102350250Y-86269216D01*
X103277167Y-87464132D02*
X103657589Y-87587739D01*
X274069300Y-109504088D02*
X275520785Y-109926215D01*
X274069300Y-109504088D02*
X274995456Y-108309419D01*
X273821326Y-108743490D02*
X274315753Y-110265181D01*
X274995456Y-108309419D02*
X275520785Y-109926215D01*
X274068539Y-109504335D02*
X273688117Y-109627942D01*
X233360096Y-107508239D02*
X234811581Y-107930366D01*
X234286252Y-106313570D02*
X234811581Y-107930366D01*
X233359335Y-107508486D02*
X232978913Y-107632093D01*
X233112122Y-106747641D02*
X233606549Y-108269332D01*
X233360096Y-107508239D02*
X234286252Y-106313570D01*
D10*
X172368438Y-114370398D02*
X176933510Y-115853679D01*
X168163385Y-110322864D02*
X166788259Y-114555066D01*
X166788259Y-114555066D02*
X169669961Y-115491387D01*
D12*
X176820553Y-115554112D02*
X175599630Y-115104837D01*
D10*
X178045971Y-112429876D02*
X170247306Y-109895936D01*
D12*
X167040274Y-114426658D02*
X169370363Y-115183750D01*
D10*
X167431194Y-111767300D02*
X167621405Y-111829104D01*
D16*
X167275638Y-114187694D02*
X167831868Y-112475793D01*
D10*
X177223506Y-114896442D02*
X177918794Y-112756565D01*
D15*
X169431891Y-111208185D02*
X168739693Y-113338551D01*
D14*
X175777839Y-113585547D02*
X169405760Y-111515133D01*
D17*
X177385032Y-112846001D02*
X176612490Y-115223642D01*
D10*
X176933510Y-115853679D02*
X178045971Y-112429876D01*
D13*
X177841509Y-112573735D02*
X176652688Y-112187463D01*
D11*
X167557201Y-111703097D02*
X167758062Y-111084910D01*
D10*
X167662956Y-111054008D02*
X167431194Y-111767300D01*
X172368438Y-114370398D02*
G75*
G03*
X169680097Y-115472105I-732386J-2043705D01*
G01*
X170247306Y-109895936D02*
G75*
G03*
X167662956Y-111054009I-713139J-1871210D01*
G01*
D17*
X172111622Y-113866370D02*
G75*
G03*
X169423282Y-114968076I-732386J-2043704D01*
G01*
D10*
X171587363Y-70600792D02*
X172282651Y-68460915D01*
X161795051Y-67471650D02*
X161985262Y-67533454D01*
X161152116Y-70259416D02*
X164033818Y-71195737D01*
X162026813Y-66758358D02*
X161795051Y-67471650D01*
D14*
X170141696Y-69289897D02*
X163769617Y-67219483D01*
D10*
X172409828Y-68134226D02*
X164611163Y-65600286D01*
X162527242Y-66027214D02*
X161152116Y-70259416D01*
X171297367Y-71558029D02*
X172409828Y-68134226D01*
X166732295Y-70074748D02*
X171297367Y-71558029D01*
D15*
X163795748Y-66912535D02*
X163103550Y-69042901D01*
D12*
X171184410Y-71258462D02*
X169963487Y-70809187D01*
D11*
X161921058Y-67407447D02*
X162121919Y-66789260D01*
D13*
X172205366Y-68278085D02*
X171016545Y-67891813D01*
D12*
X161404131Y-70131008D02*
X163734220Y-70888100D01*
D16*
X161639495Y-69892044D02*
X162195725Y-68180143D01*
D17*
X171748889Y-68550351D02*
X170976347Y-70927992D01*
D10*
X164611163Y-65600286D02*
G75*
G03*
X162026813Y-66758359I-713139J-1871210D01*
G01*
X166732295Y-70074748D02*
G75*
G03*
X164043954Y-71176455I-732386J-2043705D01*
G01*
D17*
X166475479Y-69570720D02*
G75*
G03*
X163787139Y-70672426I-732386J-2043704D01*
G01*
D18*
X298780114Y-123909056D02*
X299706270Y-122714387D01*
X298532140Y-123148458D02*
X299026567Y-124670149D01*
X299706270Y-122714387D02*
X300231599Y-124331183D01*
X298780114Y-123909056D02*
X300231599Y-124331183D01*
X298779353Y-123909303D02*
X298398931Y-124032910D01*
D17*
X96649657Y-53096025D02*
X95877115Y-55473666D01*
D10*
X86927581Y-51304032D02*
X86695819Y-52017324D01*
D14*
X95042464Y-53835571D02*
X88670385Y-51765157D01*
D15*
X88696516Y-51458209D02*
X88004318Y-53588575D01*
D10*
X87428010Y-50572888D02*
X86052884Y-54805090D01*
X91633063Y-54620422D02*
X96198135Y-56103703D01*
D16*
X86540263Y-54437718D02*
X87096493Y-52725817D01*
D12*
X86304899Y-54676682D02*
X88634988Y-55433774D01*
D10*
X97310596Y-52679900D02*
X89511931Y-50145960D01*
D12*
X96085178Y-55804136D02*
X94864255Y-55354861D01*
D10*
X96198135Y-56103703D02*
X97310596Y-52679900D01*
X86052884Y-54805090D02*
X88934586Y-55741411D01*
D13*
X97106134Y-52823759D02*
X95917313Y-52437487D01*
D10*
X96488131Y-55146466D02*
X97183419Y-53006589D01*
D11*
X86821826Y-51953121D02*
X87022687Y-51334934D01*
D10*
X86695819Y-52017324D02*
X86886030Y-52079128D01*
X91633063Y-54620422D02*
G75*
G03*
X88944722Y-55722129I-732386J-2043705D01*
G01*
D17*
X91376247Y-54116394D02*
G75*
G03*
X88687907Y-55218100I-732386J-2043704D01*
G01*
D10*
X89511931Y-50145960D02*
G75*
G03*
X86927581Y-51304033I-713139J-1871210D01*
G01*
D20*
X189996049Y-132292762D02*
G75*
G03*
X189996049Y-132292762I-3000000J0D01*
G01*
X187471577Y-132447270D02*
X186520521Y-132138254D01*
X190117426Y-126893039D02*
X187644679Y-126089595D01*
X191989248Y-136018075D02*
X190722279Y-139917407D01*
X193225316Y-132213849D02*
X194492286Y-128314518D01*
X185552355Y-125409758D02*
X183269819Y-124668117D01*
X186841541Y-132768290D02*
X187150557Y-131817234D01*
X188670458Y-140407339D02*
X188292436Y-140599950D01*
X188485048Y-140977973D02*
X188670458Y-140407339D01*
X188292436Y-140599950D02*
X188485048Y-140977973D01*
X194492286Y-128314518D02*
X192209750Y-127572877D01*
X190722279Y-139917407D02*
X179499812Y-136271006D01*
X180766782Y-132371675D02*
X179499812Y-136271006D01*
X183269819Y-124668117D02*
X182002850Y-128567449D01*
X226249068Y-132292761D02*
G75*
G03*
X226249068Y-132292761I-3000000J0D01*
G01*
X230745305Y-136271005D02*
X219522838Y-139917406D01*
X223403576Y-132768289D02*
X223094560Y-131817233D01*
X218255869Y-136018074D02*
X219522838Y-139917406D01*
X229558732Y-138444032D02*
X229373322Y-137873398D01*
X218035367Y-127572876D02*
X215752831Y-128314517D01*
X229180710Y-138251420D02*
X229558732Y-138444032D01*
X229478335Y-132371674D02*
X230745305Y-136271005D01*
X222600438Y-126089594D02*
X220127691Y-126893038D01*
X226975298Y-124668116D02*
X224692762Y-125409757D01*
X223724596Y-132138253D02*
X222773540Y-132447269D01*
X228242267Y-128567448D02*
X226975298Y-124668116D01*
X215752831Y-128314517D02*
X217019801Y-132213848D01*
X229373322Y-137873398D02*
X229180710Y-138251420D01*
D21*
X197502560Y-89601494D03*
D22*
X197502560Y-92141494D03*
X197502560Y-94681494D03*
X197502560Y-97221494D03*
X197502560Y-99761494D03*
X197502560Y-102301494D03*
X197502560Y-104841494D03*
X197502560Y-107381494D03*
X197502560Y-109921494D03*
X197502560Y-112461494D03*
X197502560Y-115001494D03*
X197502560Y-117541494D03*
X212742560Y-117541494D03*
X212742560Y-115001494D03*
X212742560Y-112461494D03*
X212742560Y-109921494D03*
X212742560Y-107381494D03*
X212742560Y-104841494D03*
X212742560Y-102301494D03*
X212742560Y-99761494D03*
X212742560Y-97221494D03*
X212742560Y-94681494D03*
X212742560Y-92141494D03*
X212742560Y-89601494D03*
X200042560Y-117541494D03*
X202582560Y-117541494D03*
X205122560Y-117541494D03*
X207662560Y-117541494D03*
X210202560Y-117541494D03*
%LPC*%
D23*
X156035123Y-156321521D03*
D24*
X156573071Y-150667442D03*
D23*
X147418955Y-150937541D03*
D25*
X151727039Y-153629531D03*
D24*
X149841971Y-149456496D03*
G36*
X148808273Y-147336598D02*
G01*
X147483475Y-149456718D01*
X145320953Y-148105424D01*
X146645751Y-145985304D01*
X148808273Y-147336598D01*
G37*
G36*
X161116986Y-152032822D02*
G01*
X159792188Y-154152942D01*
X157629666Y-152801648D01*
X158954464Y-150681528D01*
X161116986Y-152032822D01*
G37*
G36*
X277178703Y-154124510D02*
G01*
X276746080Y-152793031D01*
X278077559Y-152360408D01*
X278510182Y-153691887D01*
X277178703Y-154124510D01*
G37*
G36*
X281796128Y-151993340D02*
G01*
X281734325Y-151803129D01*
X283256016Y-151308702D01*
X283317819Y-151498913D01*
X281796128Y-151993340D01*
G37*
D26*
X283667340Y-151280201D03*
G36*
X280571605Y-152916944D02*
G01*
X280200785Y-151775676D01*
X281722475Y-151281248D01*
X282093295Y-152422516D01*
X280571605Y-152916944D01*
G37*
G36*
X184985510Y-89373238D02*
G01*
X184552887Y-90704717D01*
X183221408Y-90272094D01*
X183654031Y-88940615D01*
X184985510Y-89373238D01*
G37*
G36*
X181530805Y-88355883D02*
G01*
X181159985Y-89497151D01*
X179638295Y-89002723D01*
X180009115Y-87861455D01*
X181530805Y-88355883D01*
G37*
G36*
X179997265Y-88383336D02*
G01*
X179935462Y-88573547D01*
X178413771Y-88079120D01*
X178475574Y-87888909D01*
X179997265Y-88383336D01*
G37*
X178064250Y-87860408D03*
D25*
X137000906Y-101225891D03*
D24*
X140986396Y-97179427D03*
D23*
X132169539Y-99656085D03*
D24*
X134162284Y-97632853D03*
D23*
X141832273Y-102795697D03*
G36*
X132646442Y-95825998D02*
G01*
X131873900Y-98203639D01*
X129448706Y-97415646D01*
X130221248Y-95038005D01*
X132646442Y-95825998D01*
G37*
G36*
X145725652Y-97404977D02*
G01*
X144953110Y-99782618D01*
X142527916Y-98994625D01*
X143300458Y-96616984D01*
X145725652Y-97404977D01*
G37*
G36*
X243103634Y-82644400D02*
G01*
X242671011Y-81312921D01*
X244002490Y-80880298D01*
X244435113Y-82211777D01*
X243103634Y-82644400D01*
G37*
G36*
X247721059Y-80513230D02*
G01*
X247659256Y-80323019D01*
X249180947Y-79828592D01*
X249242750Y-80018803D01*
X247721059Y-80513230D01*
G37*
D26*
X249592271Y-79800091D03*
G36*
X246496536Y-81436834D02*
G01*
X246125716Y-80295566D01*
X247647406Y-79801138D01*
X248018226Y-80942406D01*
X246496536Y-81436834D01*
G37*
G36*
X151076986Y-161982270D02*
G01*
X150335099Y-163169537D01*
X149147832Y-162427650D01*
X149889719Y-161240383D01*
X151076986Y-161982270D01*
G37*
G36*
X146476391Y-159815007D02*
G01*
X146370408Y-159984616D01*
X145013531Y-159136745D01*
X145119514Y-158967136D01*
X146476391Y-159815007D01*
G37*
G36*
X147971021Y-160159366D02*
G01*
X147335118Y-161177023D01*
X145978241Y-160329152D01*
X146614144Y-159311495D01*
X147971021Y-160159366D01*
G37*
X144727304Y-158839973D03*
D24*
X307622159Y-96065555D03*
D25*
X312030587Y-97303884D03*
D23*
X316861954Y-95734078D03*
D24*
X312876464Y-91687614D03*
D23*
X307199220Y-98873690D03*
G36*
X305333774Y-95494769D02*
G01*
X306106316Y-97872410D01*
X303681122Y-98660403D01*
X302908580Y-96282762D01*
X305333774Y-95494769D01*
G37*
G36*
X316843179Y-89084423D02*
G01*
X317615721Y-91462064D01*
X315190527Y-92250057D01*
X314417985Y-89872416D01*
X316843179Y-89084423D01*
G37*
D24*
X129566373Y-141034254D03*
D25*
X132404995Y-144627292D03*
D23*
X127573628Y-143057486D03*
D24*
X136390485Y-140580828D03*
D23*
X137236362Y-146197098D03*
G36*
X128050531Y-139227399D02*
G01*
X127277989Y-141605040D01*
X124852795Y-140817047D01*
X125625337Y-138439406D01*
X128050531Y-139227399D01*
G37*
G36*
X141129741Y-140806378D02*
G01*
X140357199Y-143184019D01*
X137932005Y-142396026D01*
X138704547Y-140018385D01*
X141129741Y-140806378D01*
G37*
D21*
X197502560Y-89601494D03*
D22*
X197502560Y-92141494D03*
X197502560Y-94681494D03*
X197502560Y-97221494D03*
X197502560Y-99761494D03*
X197502560Y-102301494D03*
X197502560Y-104841494D03*
X197502560Y-107381494D03*
X197502560Y-109921494D03*
X197502560Y-112461494D03*
X197502560Y-115001494D03*
X197502560Y-117541494D03*
X212742560Y-117541494D03*
X212742560Y-115001494D03*
X212742560Y-112461494D03*
X212742560Y-109921494D03*
X212742560Y-107381494D03*
X212742560Y-104841494D03*
X212742560Y-102301494D03*
X212742560Y-99761494D03*
X212742560Y-97221494D03*
X212742560Y-94681494D03*
X212742560Y-92141494D03*
X212742560Y-89601494D03*
X200042560Y-117541494D03*
X202582560Y-117541494D03*
X205122560Y-117541494D03*
X207662560Y-117541494D03*
X210202560Y-117541494D03*
D25*
X92328646Y-115421169D03*
D23*
X97160013Y-116990975D03*
D24*
X96314136Y-111374705D03*
D23*
X87497279Y-113851363D03*
D24*
X89490024Y-111828131D03*
G36*
X87974182Y-110021276D02*
G01*
X87201640Y-112398917D01*
X84776446Y-111610924D01*
X85548988Y-109233283D01*
X87974182Y-110021276D01*
G37*
G36*
X101053392Y-111600255D02*
G01*
X100280850Y-113977896D01*
X97855656Y-113189903D01*
X98628198Y-110812262D01*
X101053392Y-111600255D01*
G37*
D23*
X248890818Y-71481720D03*
D24*
X239651023Y-71813197D03*
X244905328Y-67435256D03*
D23*
X239228084Y-74621332D03*
D25*
X244059451Y-73051526D03*
G36*
X237362638Y-71242411D02*
G01*
X238135180Y-73620052D01*
X235709986Y-74408045D01*
X234937444Y-72030404D01*
X237362638Y-71242411D01*
G37*
G36*
X248872043Y-64832065D02*
G01*
X249644585Y-67209706D01*
X247219391Y-67997699D01*
X246446849Y-65620058D01*
X248872043Y-64832065D01*
G37*
D23*
X218417701Y-133862567D03*
D24*
X224094945Y-126676491D03*
D25*
X223249068Y-132292761D03*
D23*
X228080435Y-130722955D03*
D24*
X218840640Y-131054432D03*
G36*
X216552255Y-130483646D02*
G01*
X217324797Y-132861287D01*
X214899603Y-133649280D01*
X214127061Y-131271639D01*
X216552255Y-130483646D01*
G37*
G36*
X228061660Y-124073300D02*
G01*
X228834202Y-126450941D01*
X226409008Y-127238934D01*
X225636466Y-124861293D01*
X228061660Y-124073300D01*
G37*
D27*
X312504521Y-67938959D03*
G36*
X227778450Y-166520131D02*
G01*
X228715233Y-165479728D01*
X229755636Y-166416511D01*
X228818853Y-167456914D01*
X227778450Y-166520131D01*
G37*
G36*
X230520685Y-168854686D02*
G01*
X231323642Y-167962913D01*
X232512673Y-169033522D01*
X231709716Y-169925295D01*
X230520685Y-168854686D01*
G37*
D26*
X233486013Y-170717300D03*
G36*
X231932810Y-169453354D02*
G01*
X232066636Y-169304725D01*
X233255668Y-170375334D01*
X233121842Y-170523963D01*
X231932810Y-169453354D01*
G37*
D24*
X109451472Y-112037820D03*
D23*
X107458727Y-114061052D03*
D24*
X116275584Y-111584394D03*
D23*
X117121461Y-117200664D03*
D25*
X112290094Y-115630858D03*
G36*
X107935630Y-110230965D02*
G01*
X107163088Y-112608606D01*
X104737894Y-111820613D01*
X105510436Y-109442972D01*
X107935630Y-110230965D01*
G37*
G36*
X121014840Y-111809944D02*
G01*
X120242298Y-114187585D01*
X117817104Y-113399592D01*
X118589646Y-111021951D01*
X121014840Y-111809944D01*
G37*
G36*
X133499039Y-152793029D02*
G01*
X133066416Y-154124508D01*
X131734937Y-153691885D01*
X132167560Y-152360406D01*
X133499039Y-152793029D01*
G37*
D26*
X126577779Y-151280199D03*
G36*
X130044334Y-151775674D02*
G01*
X129673514Y-152916942D01*
X128151824Y-152422514D01*
X128522644Y-151281246D01*
X130044334Y-151775674D01*
G37*
G36*
X128510794Y-151803127D02*
G01*
X128448991Y-151993338D01*
X126927300Y-151498911D01*
X126989103Y-151308700D01*
X128510794Y-151803127D01*
G37*
D25*
X129950414Y-61277979D03*
D24*
X133935904Y-57231515D03*
X127111792Y-57684941D03*
D23*
X125119047Y-59708173D03*
X134781781Y-62847785D03*
G36*
X125595950Y-55878086D02*
G01*
X124823408Y-58255727D01*
X122398214Y-57467734D01*
X123170756Y-55090093D01*
X125595950Y-55878086D01*
G37*
G36*
X138675160Y-57457065D02*
G01*
X137902618Y-59834706D01*
X135477424Y-59046713D01*
X136249966Y-56669072D01*
X138675160Y-57457065D01*
G37*
D27*
X330704465Y-123952619D03*
G36*
X111376710Y-69329455D02*
G01*
X110944087Y-70660934D01*
X109612608Y-70228311D01*
X110045231Y-68896832D01*
X111376710Y-69329455D01*
G37*
G36*
X106388465Y-68339553D02*
G01*
X106326662Y-68529764D01*
X104804971Y-68035337D01*
X104866774Y-67845126D01*
X106388465Y-68339553D01*
G37*
G36*
X107922005Y-68312100D02*
G01*
X107551185Y-69453368D01*
X106029495Y-68958940D01*
X106400315Y-67817672D01*
X107922005Y-68312100D01*
G37*
D26*
X104455450Y-67816625D03*
G36*
X225692419Y-90705287D02*
G01*
X225259796Y-89373808D01*
X226591275Y-88941185D01*
X227023898Y-90272664D01*
X225692419Y-90705287D01*
G37*
G36*
X230309844Y-88574117D02*
G01*
X230248041Y-88383906D01*
X231769732Y-87889479D01*
X231831535Y-88079690D01*
X230309844Y-88574117D01*
G37*
G36*
X229085321Y-89497721D02*
G01*
X228714501Y-88356453D01*
X230236191Y-87862025D01*
X230607011Y-89003293D01*
X229085321Y-89497721D01*
G37*
X232181056Y-87860978D03*
D24*
X76474264Y-90239414D03*
D25*
X79312886Y-93832452D03*
D23*
X84144253Y-95402258D03*
X74481519Y-92262646D03*
D24*
X83298376Y-89785988D03*
G36*
X74958422Y-88432559D02*
G01*
X74185880Y-90810200D01*
X71760686Y-90022207D01*
X72533228Y-87644566D01*
X74958422Y-88432559D01*
G37*
G36*
X88037632Y-90011538D02*
G01*
X87265090Y-92389179D01*
X84839896Y-91601186D01*
X85612438Y-89223545D01*
X88037632Y-90011538D01*
G37*
G36*
X260763952Y-136997280D02*
G01*
X260331329Y-135665801D01*
X261662808Y-135233178D01*
X262095431Y-136564657D01*
X260763952Y-136997280D01*
G37*
G36*
X265381377Y-134866110D02*
G01*
X265319574Y-134675899D01*
X266841265Y-134181472D01*
X266903068Y-134371683D01*
X265381377Y-134866110D01*
G37*
G36*
X264156854Y-135789714D02*
G01*
X263786034Y-134648446D01*
X265307724Y-134154018D01*
X265678544Y-135295286D01*
X264156854Y-135789714D01*
G37*
D26*
X267252589Y-134152971D03*
G36*
X243352738Y-145058168D02*
G01*
X242920115Y-143726689D01*
X244251594Y-143294066D01*
X244684217Y-144625545D01*
X243352738Y-145058168D01*
G37*
G36*
X246745640Y-143850602D02*
G01*
X246374820Y-142709334D01*
X247896510Y-142214906D01*
X248267330Y-143356174D01*
X246745640Y-143850602D01*
G37*
G36*
X247970163Y-142926998D02*
G01*
X247908360Y-142736787D01*
X249430051Y-142242360D01*
X249491854Y-142432571D01*
X247970163Y-142926998D01*
G37*
X249841375Y-142213859D03*
G36*
X316962240Y-125014156D02*
G01*
X316529617Y-123682677D01*
X317861096Y-123250054D01*
X318293719Y-124581533D01*
X316962240Y-125014156D01*
G37*
G36*
X320355142Y-123806590D02*
G01*
X319984322Y-122665322D01*
X321506012Y-122170894D01*
X321876832Y-123312162D01*
X320355142Y-123806590D01*
G37*
G36*
X321579665Y-122882986D02*
G01*
X321517862Y-122692775D01*
X323039553Y-122198348D01*
X323101356Y-122388559D01*
X321579665Y-122882986D01*
G37*
X323450877Y-122169847D03*
D24*
X318763238Y-109805240D03*
X313508933Y-114183181D03*
D23*
X313085994Y-116991316D03*
X322748728Y-113851704D03*
D25*
X317917361Y-115421510D03*
G36*
X311220548Y-113612395D02*
G01*
X311993090Y-115990036D01*
X309567896Y-116778029D01*
X308795354Y-114400388D01*
X311220548Y-113612395D01*
G37*
G36*
X322729953Y-107202049D02*
G01*
X323502495Y-109579690D01*
X321077301Y-110367683D01*
X320304759Y-107990042D01*
X322729953Y-107202049D01*
G37*
G36*
X144276122Y-91369658D02*
G01*
X143843499Y-92701137D01*
X142512020Y-92268514D01*
X142944643Y-90937035D01*
X144276122Y-91369658D01*
G37*
G36*
X139287877Y-90379756D02*
G01*
X139226074Y-90569967D01*
X137704383Y-90075540D01*
X137766186Y-89885329D01*
X139287877Y-90379756D01*
G37*
G36*
X140821417Y-90352303D02*
G01*
X140450597Y-91493571D01*
X138928907Y-90999143D01*
X139299727Y-89857875D01*
X140821417Y-90352303D01*
G37*
D26*
X137354862Y-89856828D03*
D24*
X268835786Y-99987561D03*
X274090091Y-95609620D03*
D23*
X278075581Y-99656084D03*
X268412847Y-102795696D03*
D25*
X273244214Y-101225890D03*
G36*
X266547401Y-99416775D02*
G01*
X267319943Y-101794416D01*
X264894749Y-102582409D01*
X264122207Y-100204768D01*
X266547401Y-99416775D01*
G37*
G36*
X278056806Y-93006429D02*
G01*
X278829348Y-95384070D01*
X276404154Y-96172063D01*
X275631612Y-93794422D01*
X278056806Y-93006429D01*
G37*
D24*
X298800906Y-110014588D03*
D25*
X297955029Y-115630858D03*
D23*
X293123662Y-117200664D03*
X302786396Y-114061052D03*
D24*
X293546601Y-114392529D03*
G36*
X291258216Y-113821743D02*
G01*
X292030758Y-116199384D01*
X289605564Y-116987377D01*
X288833022Y-114609736D01*
X291258216Y-113821743D01*
G37*
G36*
X302767621Y-107411397D02*
G01*
X303540163Y-109789038D01*
X301114969Y-110577031D01*
X300342427Y-108199390D01*
X302767621Y-107411397D01*
G37*
G36*
X119565312Y-105774627D02*
G01*
X119132689Y-107106106D01*
X117801210Y-106673483D01*
X118233833Y-105342004D01*
X119565312Y-105774627D01*
G37*
G36*
X116110607Y-104757272D02*
G01*
X115739787Y-105898540D01*
X114218097Y-105404112D01*
X114588917Y-104262844D01*
X116110607Y-104757272D01*
G37*
D26*
X112644052Y-104261797D03*
G36*
X114577067Y-104784725D02*
G01*
X114515264Y-104974936D01*
X112993573Y-104480509D01*
X113055376Y-104290298D01*
X114577067Y-104784725D01*
G37*
D25*
X165935039Y-135464799D03*
D23*
X170766406Y-137034605D03*
D24*
X169920529Y-131418335D03*
D23*
X161103672Y-133894993D03*
D24*
X163096417Y-131871761D03*
G36*
X161580575Y-130064906D02*
G01*
X160808033Y-132442547D01*
X158382839Y-131654554D01*
X159155381Y-129276913D01*
X161580575Y-130064906D01*
G37*
G36*
X174659785Y-131643885D02*
G01*
X173887243Y-134021526D01*
X171462049Y-133233533D01*
X172234591Y-130855892D01*
X174659785Y-131643885D01*
G37*
D23*
X320214974Y-77284973D03*
X329877708Y-74145361D03*
D24*
X320637913Y-74476838D03*
X325892218Y-70098897D03*
D25*
X325046341Y-75715167D03*
G36*
X318349528Y-73906052D02*
G01*
X319122070Y-76283693D01*
X316696876Y-77071686D01*
X315924334Y-74694045D01*
X318349528Y-73906052D01*
G37*
G36*
X329858933Y-67495706D02*
G01*
X330631475Y-69873347D01*
X328206281Y-70661340D01*
X327433739Y-68283699D01*
X329858933Y-67495706D01*
G37*
G36*
X86587406Y-83975991D02*
G01*
X86154783Y-85307470D01*
X84823304Y-84874847D01*
X85255927Y-83543368D01*
X86587406Y-83975991D01*
G37*
G36*
X83132701Y-82958636D02*
G01*
X82761881Y-84099904D01*
X81240191Y-83605476D01*
X81611011Y-82464208D01*
X83132701Y-82958636D01*
G37*
G36*
X81599161Y-82986089D02*
G01*
X81537358Y-83176300D01*
X80015667Y-82681873D01*
X80077470Y-82491662D01*
X81599161Y-82986089D01*
G37*
D26*
X79666146Y-82463161D03*
D25*
X292068252Y-97513232D03*
D23*
X296899619Y-95943426D03*
D24*
X287659824Y-96274903D03*
D23*
X287236885Y-99083038D03*
D24*
X292914129Y-91896962D03*
G36*
X285371439Y-95704117D02*
G01*
X286143981Y-98081758D01*
X283718787Y-98869751D01*
X282946245Y-96492110D01*
X285371439Y-95704117D01*
G37*
G36*
X296880844Y-89293771D02*
G01*
X297653386Y-91671412D01*
X295228192Y-92459405D01*
X294455650Y-90081764D01*
X296880844Y-89293771D01*
G37*
X251424572Y-108048448D03*
D25*
X255833000Y-109286777D03*
D23*
X251001633Y-110856583D03*
X260664367Y-107716971D03*
D24*
X256678877Y-103670507D03*
G36*
X249136187Y-107477662D02*
G01*
X249908729Y-109855303D01*
X247483535Y-110643296D01*
X246710993Y-108265655D01*
X249136187Y-107477662D01*
G37*
G36*
X260645592Y-101067316D02*
G01*
X261418134Y-103444957D01*
X258992940Y-104232950D01*
X258220398Y-101855309D01*
X260645592Y-101067316D01*
G37*
G36*
X237465963Y-126940541D02*
G01*
X237033340Y-125609062D01*
X238364819Y-125176439D01*
X238797442Y-126507918D01*
X237465963Y-126940541D01*
G37*
G36*
X240858865Y-125732975D02*
G01*
X240488045Y-124591707D01*
X242009735Y-124097279D01*
X242380555Y-125238547D01*
X240858865Y-125732975D01*
G37*
G36*
X242083388Y-124809371D02*
G01*
X242021585Y-124619160D01*
X243543276Y-124124733D01*
X243605079Y-124314944D01*
X242083388Y-124809371D01*
G37*
D26*
X243954600Y-124096232D03*
G36*
X329977297Y-103425667D02*
G01*
X329544674Y-102094188D01*
X330876153Y-101661565D01*
X331308776Y-102993044D01*
X329977297Y-103425667D01*
G37*
G36*
X334594722Y-101294497D02*
G01*
X334532919Y-101104286D01*
X336054610Y-100609859D01*
X336116413Y-100800070D01*
X334594722Y-101294497D01*
G37*
G36*
X333370199Y-102218101D02*
G01*
X332999379Y-101076833D01*
X334521069Y-100582405D01*
X334891889Y-101723673D01*
X333370199Y-102218101D01*
G37*
X336465934Y-100581358D03*
G36*
X149913790Y-135665797D02*
G01*
X149481167Y-136997276D01*
X148149688Y-136564653D01*
X148582311Y-135233174D01*
X149913790Y-135665797D01*
G37*
G36*
X144925545Y-134675895D02*
G01*
X144863742Y-134866106D01*
X143342051Y-134371679D01*
X143403854Y-134181468D01*
X144925545Y-134675895D01*
G37*
X142992530Y-134152967D03*
G36*
X146459085Y-134648442D02*
G01*
X146088265Y-135789710D01*
X144566575Y-135295282D01*
X144937395Y-134154014D01*
X146459085Y-134648442D01*
G37*
D27*
X238189307Y-85808627D03*
G36*
X132502574Y-127604911D02*
G01*
X132069951Y-128936390D01*
X130738472Y-128503767D01*
X131171095Y-127172288D01*
X132502574Y-127604911D01*
G37*
G36*
X127514329Y-126615009D02*
G01*
X127452526Y-126805220D01*
X125930835Y-126310793D01*
X125992638Y-126120582D01*
X127514329Y-126615009D01*
G37*
G36*
X129047869Y-126587556D02*
G01*
X128677049Y-127728824D01*
X127155359Y-127234396D01*
X127526179Y-126093128D01*
X129047869Y-126587556D01*
G37*
D26*
X125581314Y-126092081D03*
G36*
X248990403Y-100762025D02*
G01*
X248557780Y-99430546D01*
X249889259Y-98997923D01*
X250321882Y-100329402D01*
X248990403Y-100762025D01*
G37*
G36*
X252383305Y-99554459D02*
G01*
X252012485Y-98413191D01*
X253534175Y-97918763D01*
X253904995Y-99060031D01*
X252383305Y-99554459D01*
G37*
X255479040Y-97917716D03*
G36*
X253607828Y-98630855D02*
G01*
X253546025Y-98440644D01*
X255067716Y-97946217D01*
X255129519Y-98136428D01*
X253607828Y-98630855D01*
G37*
D27*
X285462261Y-108005630D03*
D25*
X249946226Y-91169151D03*
D23*
X254777593Y-89599345D03*
D24*
X245537798Y-89930822D03*
D23*
X245114859Y-92738957D03*
D24*
X250792103Y-85552881D03*
G36*
X243249413Y-89360036D02*
G01*
X244021955Y-91737677D01*
X241596761Y-92525670D01*
X240824219Y-90148029D01*
X243249413Y-89360036D01*
G37*
G36*
X254758818Y-82949690D02*
G01*
X255531360Y-85327331D01*
X253106166Y-86115324D01*
X252333624Y-83737683D01*
X254758818Y-82949690D01*
G37*
X135099620Y-115297053D03*
D23*
X135945497Y-120913323D03*
D24*
X128275508Y-115750479D03*
D23*
X126282763Y-117773711D03*
D25*
X131114130Y-119343517D03*
G36*
X126759666Y-113943624D02*
G01*
X125987124Y-116321265D01*
X123561930Y-115533272D01*
X124334472Y-113155631D01*
X126759666Y-113943624D01*
G37*
G36*
X139838876Y-115522603D02*
G01*
X139066334Y-117900244D01*
X136641140Y-117112251D01*
X137413682Y-114734610D01*
X139838876Y-115522603D01*
G37*
D24*
X301735384Y-77947928D03*
D23*
X310975179Y-77616451D03*
X301312445Y-80756063D03*
D24*
X306989689Y-73569987D03*
D25*
X306143812Y-79186257D03*
G36*
X299446999Y-77377142D02*
G01*
X300219541Y-79754783D01*
X297794347Y-80542776D01*
X297021805Y-78165135D01*
X299446999Y-77377142D01*
G37*
G36*
X310956404Y-70966796D02*
G01*
X311728946Y-73344437D01*
X309303752Y-74132430D01*
X308531210Y-71754789D01*
X310956404Y-70966796D01*
G37*
D24*
X314751141Y-56359211D03*
D25*
X319159569Y-57597540D03*
D24*
X320005446Y-51981270D03*
D23*
X314328202Y-59167346D03*
X323990936Y-56027734D03*
G36*
X312462756Y-55788425D02*
G01*
X313235298Y-58166066D01*
X310810104Y-58954059D01*
X310037562Y-56576418D01*
X312462756Y-55788425D01*
G37*
G36*
X323972161Y-49378079D02*
G01*
X324744703Y-51755720D01*
X322319509Y-52543713D01*
X321546967Y-50166072D01*
X323972161Y-49378079D01*
G37*
D24*
X275886277Y-60039649D03*
X281140582Y-55661708D03*
D23*
X275463338Y-62847784D03*
D25*
X280294705Y-61277978D03*
D23*
X285126072Y-59708172D03*
G36*
X273597892Y-59468863D02*
G01*
X274370434Y-61846504D01*
X271945240Y-62634497D01*
X271172698Y-60256856D01*
X273597892Y-59468863D01*
G37*
G36*
X285107297Y-53058517D02*
G01*
X285879839Y-55436158D01*
X283454645Y-56224151D01*
X282682103Y-53846510D01*
X285107297Y-53058517D01*
G37*
D28*
X221841020Y-64309882D03*
X215404278Y-65214508D03*
D24*
X326524689Y-92594463D03*
D23*
X326101750Y-95402598D03*
X335764484Y-92262986D03*
D24*
X331778994Y-88216522D03*
D25*
X330933117Y-93832792D03*
G36*
X324236304Y-92023677D02*
G01*
X325008846Y-94401318D01*
X322583652Y-95189311D01*
X321811110Y-92811670D01*
X324236304Y-92023677D01*
G37*
G36*
X335745709Y-85613331D02*
G01*
X336518251Y-87990972D01*
X334093057Y-88778965D01*
X333320515Y-86401324D01*
X335745709Y-85613331D01*
G37*
D24*
X281773051Y-78157275D03*
X287027356Y-73779334D03*
D23*
X281350112Y-80965410D03*
X291012846Y-77825798D03*
D25*
X286181479Y-79395604D03*
G36*
X279484666Y-77586489D02*
G01*
X280257208Y-79964130D01*
X277832014Y-80752123D01*
X277059472Y-78374482D01*
X279484666Y-77586489D01*
G37*
G36*
X290994071Y-71176143D02*
G01*
X291766613Y-73553784D01*
X289341419Y-74341777D01*
X288568877Y-71964136D01*
X290994071Y-71176143D01*
G37*
G36*
X295517231Y-149640965D02*
G01*
X295419572Y-148244376D01*
X296816161Y-148146717D01*
X296913820Y-149543306D01*
X295517231Y-149640965D01*
G37*
D26*
X302501228Y-148450887D03*
G36*
X300513075Y-148690157D02*
G01*
X300499124Y-148490644D01*
X302095227Y-148379033D01*
X302109178Y-148578546D01*
X300513075Y-148690157D01*
G37*
G36*
X299101486Y-149290086D02*
G01*
X299017778Y-148093009D01*
X300613880Y-147981398D01*
X300697588Y-149178475D01*
X299101486Y-149290086D01*
G37*
G36*
X150162898Y-73252031D02*
G01*
X149730275Y-74583510D01*
X148398796Y-74150887D01*
X148831419Y-72819408D01*
X150162898Y-73252031D01*
G37*
X143241638Y-71739201D03*
G36*
X145174653Y-72262129D02*
G01*
X145112850Y-72452340D01*
X143591159Y-71957913D01*
X143652962Y-71767702D01*
X145174653Y-72262129D01*
G37*
G36*
X146708193Y-72234676D02*
G01*
X146337373Y-73375944D01*
X144815683Y-72881516D01*
X145186503Y-71740248D01*
X146708193Y-72234676D01*
G37*
G36*
X217789465Y-141479502D02*
G01*
X216457986Y-141912125D01*
X216025363Y-140580646D01*
X217356842Y-140148023D01*
X217789465Y-141479502D01*
G37*
G36*
X216581899Y-138086600D02*
G01*
X215440631Y-138457420D01*
X214946203Y-136935730D01*
X216087471Y-136564910D01*
X216581899Y-138086600D01*
G37*
X214945156Y-134990865D03*
G36*
X215658295Y-136862077D02*
G01*
X215468084Y-136923880D01*
X214973657Y-135402189D01*
X215163868Y-135340386D01*
X215658295Y-136862077D01*
G37*
D23*
X155467527Y-89599346D03*
D25*
X160298894Y-91169152D03*
D24*
X157460272Y-87576114D03*
D23*
X165130261Y-92738958D03*
D24*
X164284384Y-87122688D03*
G36*
X155944430Y-85769259D02*
G01*
X155171888Y-88146900D01*
X152746694Y-87358907D01*
X153519236Y-84981266D01*
X155944430Y-85769259D01*
G37*
G36*
X169023640Y-87348238D02*
G01*
X168251098Y-89725879D01*
X165825904Y-88937886D01*
X166598446Y-86560245D01*
X169023640Y-87348238D01*
G37*
D23*
X71740565Y-133569335D03*
D24*
X70894688Y-127953065D03*
D25*
X66909198Y-131999529D03*
D23*
X62077831Y-130429723D03*
D24*
X64070576Y-128406491D03*
G36*
X62554734Y-126599636D02*
G01*
X61782192Y-128977277D01*
X59356998Y-128189284D01*
X60129540Y-125811643D01*
X62554734Y-126599636D01*
G37*
G36*
X75633944Y-128178615D02*
G01*
X74861402Y-130556256D01*
X72436208Y-129768263D01*
X73208750Y-127390622D01*
X75633944Y-128178615D01*
G37*
X257980132Y-147975454D03*
D23*
X254209996Y-156321523D03*
X262826164Y-150937543D03*
D24*
X253941022Y-153494483D03*
D25*
X258518080Y-153629533D03*
G36*
X251582526Y-153494262D02*
G01*
X252907324Y-155614382D01*
X250744802Y-156965676D01*
X249420004Y-154845556D01*
X251582526Y-153494262D01*
G37*
G36*
X261199249Y-144489953D02*
G01*
X262524047Y-146610073D01*
X260361525Y-147961367D01*
X259036727Y-145841247D01*
X261199249Y-144489953D01*
G37*
X232536534Y-99229545D03*
D23*
X227705167Y-100799351D03*
X237367901Y-97659739D03*
D24*
X228128106Y-97991216D03*
X233382411Y-93613275D03*
G36*
X225839721Y-97420430D02*
G01*
X226612263Y-99798071D01*
X224187069Y-100586064D01*
X223414527Y-98208423D01*
X225839721Y-97420430D01*
G37*
G36*
X237349126Y-91010084D02*
G01*
X238121668Y-93387725D01*
X235696474Y-94175718D01*
X234923932Y-91798077D01*
X237349126Y-91010084D01*
G37*
D25*
X261719773Y-127404406D03*
D24*
X257311345Y-126166077D03*
D23*
X266551140Y-125834600D03*
D24*
X262565650Y-121788136D03*
D23*
X256888406Y-128974212D03*
G36*
X255022960Y-125595291D02*
G01*
X255795502Y-127972932D01*
X253370308Y-128760925D01*
X252597766Y-126383284D01*
X255022960Y-125595291D01*
G37*
G36*
X266532365Y-119184945D02*
G01*
X267304907Y-121562586D01*
X264879713Y-122350579D01*
X264107171Y-119972938D01*
X266532365Y-119184945D01*
G37*
G36*
X324090523Y-85308039D02*
G01*
X323657900Y-83976560D01*
X324989379Y-83543937D01*
X325422002Y-84875416D01*
X324090523Y-85308039D01*
G37*
D26*
X330579160Y-82463730D03*
G36*
X328707948Y-83176869D02*
G01*
X328646145Y-82986658D01*
X330167836Y-82492231D01*
X330229639Y-82682442D01*
X328707948Y-83176869D01*
G37*
G36*
X327483425Y-84100473D02*
G01*
X327112605Y-82959205D01*
X328634295Y-82464777D01*
X329005115Y-83606045D01*
X327483425Y-84100473D01*
G37*
D23*
X242275176Y-167693797D03*
X234724824Y-160895431D03*
D24*
X243786771Y-162219030D03*
D25*
X238500000Y-164294614D03*
D24*
X237368210Y-159857639D03*
G36*
X236718334Y-157590446D02*
G01*
X235045507Y-159448309D01*
X233150488Y-157742026D01*
X234823315Y-155884163D01*
X236718334Y-157590446D01*
G37*
G36*
X248024559Y-164352709D02*
G01*
X246351732Y-166210572D01*
X244456713Y-164504289D01*
X246129540Y-162646426D01*
X248024559Y-164352709D01*
G37*
G36*
X93716390Y-123682335D02*
G01*
X93283767Y-125013814D01*
X91952288Y-124581191D01*
X92384911Y-123249712D01*
X93716390Y-123682335D01*
G37*
G36*
X88728145Y-122692433D02*
G01*
X88666342Y-122882644D01*
X87144651Y-122388217D01*
X87206454Y-122198006D01*
X88728145Y-122692433D01*
G37*
G36*
X90261685Y-122664980D02*
G01*
X89890865Y-123806248D01*
X88369175Y-123311820D01*
X88739995Y-122170552D01*
X90261685Y-122664980D01*
G37*
D26*
X86795130Y-122169505D03*
G36*
X291112433Y-107106104D02*
G01*
X290679810Y-105774625D01*
X292011289Y-105342002D01*
X292443912Y-106673481D01*
X291112433Y-107106104D01*
G37*
G36*
X295729858Y-104974934D02*
G01*
X295668055Y-104784723D01*
X297189746Y-104290296D01*
X297251549Y-104480507D01*
X295729858Y-104974934D01*
G37*
X297601070Y-104261795D03*
G36*
X294505335Y-105898538D02*
G01*
X294134515Y-104757270D01*
X295656205Y-104262842D01*
X296027025Y-105404110D01*
X294505335Y-105898538D01*
G37*
G36*
X181530587Y-165479958D02*
G01*
X182467370Y-166520361D01*
X181426967Y-167457144D01*
X180490184Y-166416741D01*
X181530587Y-165479958D01*
G37*
G36*
X178179184Y-169304955D02*
G01*
X178313010Y-169453584D01*
X177123978Y-170524193D01*
X176990152Y-170375564D01*
X178179184Y-169304955D01*
G37*
G36*
X178922178Y-167963143D02*
G01*
X179725135Y-168854916D01*
X178536104Y-169925525D01*
X177733147Y-169033752D01*
X178922178Y-167963143D01*
G37*
X176759807Y-170717530D03*
G36*
X167574110Y-81312920D02*
G01*
X167141487Y-82644399D01*
X165810008Y-82211776D01*
X166242631Y-80880297D01*
X167574110Y-81312920D01*
G37*
X160652850Y-79800090D03*
G36*
X164119405Y-80295565D02*
G01*
X163748585Y-81436833D01*
X162226895Y-80942405D01*
X162597715Y-79801137D01*
X164119405Y-80295565D01*
G37*
G36*
X162585865Y-80323018D02*
G01*
X162524062Y-80513229D01*
X161002371Y-80018802D01*
X161064174Y-79828591D01*
X162585865Y-80323018D01*
G37*
D24*
X140049057Y-79515226D03*
D23*
X138056312Y-81538458D03*
X147719046Y-84678070D03*
D25*
X142887679Y-83108264D03*
D24*
X146873169Y-79061800D03*
G36*
X138533215Y-77708371D02*
G01*
X137760673Y-80086012D01*
X135335479Y-79298019D01*
X136108021Y-76920378D01*
X138533215Y-77708371D01*
G37*
G36*
X151612425Y-79287350D02*
G01*
X150839883Y-81664991D01*
X148414689Y-80876998D01*
X149187231Y-78499357D01*
X151612425Y-79287350D01*
G37*
D23*
X182539952Y-100799353D03*
D25*
X177708585Y-99229547D03*
D24*
X181694075Y-95183083D03*
D23*
X172877218Y-97659741D03*
D24*
X174869963Y-95636509D03*
G36*
X173354121Y-93829654D02*
G01*
X172581579Y-96207295D01*
X170156385Y-95419302D01*
X170928927Y-93041661D01*
X173354121Y-93829654D01*
G37*
G36*
X186433331Y-95408633D02*
G01*
X185660789Y-97786274D01*
X183235595Y-96998281D01*
X184008137Y-94620640D01*
X186433331Y-95408633D01*
G37*
D23*
X221818392Y-82681726D03*
D24*
X222241331Y-79873591D03*
X227495636Y-75495650D03*
D23*
X231481126Y-79542114D03*
D25*
X226649759Y-81111920D03*
G36*
X219952946Y-79302805D02*
G01*
X220725488Y-81680446D01*
X218300294Y-82468439D01*
X217527752Y-80090798D01*
X219952946Y-79302805D01*
G37*
G36*
X231462351Y-72892459D02*
G01*
X232234893Y-75270100D01*
X229809699Y-76058093D01*
X229037157Y-73680452D01*
X231462351Y-72892459D01*
G37*
G36*
X113678537Y-123892251D02*
G01*
X113245914Y-125223730D01*
X111914435Y-124791107D01*
X112347058Y-123459628D01*
X113678537Y-123892251D01*
G37*
D26*
X106757277Y-122379421D03*
G36*
X110223832Y-122874896D02*
G01*
X109853012Y-124016164D01*
X108331322Y-123521736D01*
X108702142Y-122380468D01*
X110223832Y-122874896D01*
G37*
G36*
X108690292Y-122902349D02*
G01*
X108628489Y-123092560D01*
X107106798Y-122598133D01*
X107168601Y-122407922D01*
X108690292Y-122902349D01*
G37*
D24*
X344182687Y-126383603D03*
D23*
X338505443Y-133569679D03*
X348168177Y-130430067D03*
D25*
X343336810Y-131999873D03*
D24*
X338928382Y-130761544D03*
G36*
X336639997Y-130190758D02*
G01*
X337412539Y-132568399D01*
X334987345Y-133356392D01*
X334214803Y-130978751D01*
X336639997Y-130190758D01*
G37*
G36*
X348149402Y-123780412D02*
G01*
X348921944Y-126158053D01*
X346496750Y-126946046D01*
X345724208Y-124568405D01*
X348149402Y-123780412D01*
G37*
D23*
X159243487Y-110856585D03*
X149580753Y-107716973D03*
D25*
X154412120Y-109286779D03*
D24*
X158397610Y-105240315D03*
X151573498Y-105693741D03*
G36*
X150057656Y-103886886D02*
G01*
X149285114Y-106264527D01*
X146859920Y-105476534D01*
X147632462Y-103098893D01*
X150057656Y-103886886D01*
G37*
G36*
X163136866Y-105465865D02*
G01*
X162364324Y-107843506D01*
X159939130Y-107055513D01*
X160711672Y-104677872D01*
X163136866Y-105465865D01*
G37*
G36*
X80700631Y-102093618D02*
G01*
X80268008Y-103425097D01*
X78936529Y-102992474D01*
X79369152Y-101660995D01*
X80700631Y-102093618D01*
G37*
G36*
X75712386Y-101103716D02*
G01*
X75650583Y-101293927D01*
X74128892Y-100799500D01*
X74190695Y-100609289D01*
X75712386Y-101103716D01*
G37*
G36*
X77245926Y-101076263D02*
G01*
X76875106Y-102217531D01*
X75353416Y-101723103D01*
X75724236Y-100581835D01*
X77245926Y-101076263D01*
G37*
D26*
X73779371Y-100580788D03*
G36*
X299301219Y-70661502D02*
G01*
X298868596Y-69330023D01*
X300200075Y-68897400D01*
X300632698Y-70228879D01*
X299301219Y-70661502D01*
G37*
G36*
X302694121Y-69453936D02*
G01*
X302323301Y-68312668D01*
X303844991Y-67818240D01*
X304215811Y-68959508D01*
X302694121Y-69453936D01*
G37*
G36*
X303918644Y-68530332D02*
G01*
X303856841Y-68340121D01*
X305378532Y-67845694D01*
X305440335Y-68035905D01*
X303918644Y-68530332D01*
G37*
X305789856Y-67817193D03*
D23*
X283962353Y-117773711D03*
D24*
X279976863Y-113727247D03*
D23*
X274299619Y-120913323D03*
D24*
X274722558Y-118105188D03*
D25*
X279130986Y-119343517D03*
G36*
X272434173Y-117534402D02*
G01*
X273206715Y-119912043D01*
X270781521Y-120700036D01*
X270008979Y-118322395D01*
X272434173Y-117534402D01*
G37*
G36*
X283943578Y-111124056D02*
G01*
X284716120Y-113501697D01*
X282290926Y-114289690D01*
X281518384Y-111912049D01*
X283943578Y-111124056D01*
G37*
G36*
X179098550Y-107491436D02*
G01*
X178665927Y-108822915D01*
X177334448Y-108390292D01*
X177767071Y-107058813D01*
X179098550Y-107491436D01*
G37*
G36*
X175643845Y-106474081D02*
G01*
X175273025Y-107615349D01*
X173751335Y-107120921D01*
X174122155Y-105979653D01*
X175643845Y-106474081D01*
G37*
G36*
X174110305Y-106501534D02*
G01*
X174048502Y-106691745D01*
X172526811Y-106197318D01*
X172588614Y-106007107D01*
X174110305Y-106501534D01*
G37*
D26*
X172177290Y-105978606D03*
G36*
X335864070Y-121543293D02*
G01*
X335431447Y-120211814D01*
X336762926Y-119779191D01*
X337195549Y-121110670D01*
X335864070Y-121543293D01*
G37*
G36*
X339256972Y-120335727D02*
G01*
X338886152Y-119194459D01*
X340407842Y-118700031D01*
X340778662Y-119841299D01*
X339256972Y-120335727D01*
G37*
X342352707Y-118698984D03*
G36*
X340481495Y-119412123D02*
G01*
X340419692Y-119221912D01*
X341941383Y-118727485D01*
X342003186Y-118917696D01*
X340481495Y-119412123D01*
G37*
D25*
X336819892Y-111950419D03*
D23*
X341651259Y-110380613D03*
X331988525Y-113520225D03*
D24*
X337665769Y-106334149D03*
X332411464Y-110712090D03*
G36*
X330123079Y-110141304D02*
G01*
X330895621Y-112518945D01*
X328470427Y-113306938D01*
X327697885Y-110929297D01*
X330123079Y-110141304D01*
G37*
G36*
X341632484Y-103730958D02*
G01*
X342405026Y-106108599D01*
X339979832Y-106896592D01*
X339207290Y-104518951D01*
X341632484Y-103730958D01*
G37*
G36*
X92474179Y-65858365D02*
G01*
X92041556Y-67189844D01*
X90710077Y-66757221D01*
X91142700Y-65425742D01*
X92474179Y-65858365D01*
G37*
G36*
X87485934Y-64868463D02*
G01*
X87424131Y-65058674D01*
X85902440Y-64564247D01*
X85964243Y-64374036D01*
X87485934Y-64868463D01*
G37*
D26*
X85552919Y-64345535D03*
G36*
X89019474Y-64841010D02*
G01*
X88648654Y-65982278D01*
X87126964Y-65487850D01*
X87497784Y-64346582D01*
X89019474Y-64841010D01*
G37*
D23*
X171981771Y-164082391D03*
D24*
X163675621Y-168143374D03*
D23*
X164431419Y-170880757D03*
D24*
X166694999Y-162006807D03*
D25*
X168206595Y-167481574D03*
G36*
X161352918Y-168552703D02*
G01*
X163025745Y-170410566D01*
X161130726Y-172116849D01*
X159457899Y-170258986D01*
X161352918Y-168552703D01*
G37*
G36*
X169259960Y-158015264D02*
G01*
X170932787Y-159873127D01*
X169037768Y-161579410D01*
X167364941Y-159721547D01*
X169259960Y-158015264D01*
G37*
G36*
X318203749Y-67190413D02*
G01*
X317771126Y-65858934D01*
X319102605Y-65426311D01*
X319535228Y-66757790D01*
X318203749Y-67190413D01*
G37*
G36*
X321596651Y-65982847D02*
G01*
X321225831Y-64841579D01*
X322747521Y-64347151D01*
X323118341Y-65488419D01*
X321596651Y-65982847D01*
G37*
D26*
X324692386Y-64346104D03*
G36*
X322821174Y-65059243D02*
G01*
X322759371Y-64869032D01*
X324281062Y-64374605D01*
X324342865Y-64564816D01*
X322821174Y-65059243D01*
G37*
G36*
X155800563Y-117548172D02*
G01*
X155367940Y-118879651D01*
X154036461Y-118447028D01*
X154469084Y-117115549D01*
X155800563Y-117548172D01*
G37*
X148879303Y-116035342D03*
G36*
X150812318Y-116558270D02*
G01*
X150750515Y-116748481D01*
X149228824Y-116254054D01*
X149290627Y-116063843D01*
X150812318Y-116558270D01*
G37*
G36*
X152345858Y-116530817D02*
G01*
X151975038Y-117672085D01*
X150453348Y-117177657D01*
X150824168Y-116036389D01*
X152345858Y-116530817D01*
G37*
D24*
X122162357Y-93466767D03*
D23*
X113345500Y-95943425D03*
X123008234Y-99083037D03*
D24*
X115338245Y-93920193D03*
D25*
X118176867Y-97513231D03*
G36*
X113822403Y-92113338D02*
G01*
X113049861Y-94490979D01*
X110624667Y-93702986D01*
X111397209Y-91325345D01*
X113822403Y-92113338D01*
G37*
G36*
X126901613Y-93692317D02*
G01*
X126129071Y-96069958D01*
X123703877Y-95281965D01*
X124476419Y-92904324D01*
X126901613Y-93692317D01*
G37*
D23*
X153605821Y-66560444D03*
D25*
X148774454Y-64990638D03*
D24*
X152759944Y-60944174D03*
D23*
X143943087Y-63420832D03*
D24*
X145935832Y-61397600D03*
G36*
X144419990Y-59590745D02*
G01*
X143647448Y-61968386D01*
X141222254Y-61180393D01*
X141994796Y-58802752D01*
X144419990Y-59590745D01*
G37*
G36*
X157499200Y-61169724D02*
G01*
X156726658Y-63547365D01*
X154301464Y-62759372D01*
X155074006Y-60381731D01*
X157499200Y-61169724D01*
G37*
D23*
X153356715Y-128974212D03*
D24*
X152510838Y-123357942D03*
D25*
X148525348Y-127404406D03*
D24*
X145686726Y-123811368D03*
D23*
X143693981Y-125834600D03*
G36*
X144170884Y-122004513D02*
G01*
X143398342Y-124382154D01*
X140973148Y-123594161D01*
X141745690Y-121216520D01*
X144170884Y-122004513D01*
G37*
G36*
X157250094Y-123583492D02*
G01*
X156477552Y-125961133D01*
X154052358Y-125173140D01*
X154824900Y-122795499D01*
X157250094Y-123583492D01*
G37*
D25*
X124063641Y-79395604D03*
D24*
X121225019Y-75802566D03*
D23*
X119232274Y-77825798D03*
X128895008Y-80965410D03*
D24*
X128049131Y-75349140D03*
G36*
X119709177Y-73995711D02*
G01*
X118936635Y-76373352D01*
X116511441Y-75585359D01*
X117283983Y-73207718D01*
X119709177Y-73995711D01*
G37*
G36*
X132788387Y-75574690D02*
G01*
X132015845Y-77952331D01*
X129590651Y-77164338D01*
X130363193Y-74786697D01*
X132788387Y-75574690D01*
G37*
G36*
X167325002Y-143726688D02*
G01*
X166892379Y-145058167D01*
X165560900Y-144625544D01*
X165993523Y-143294065D01*
X167325002Y-143726688D01*
G37*
D26*
X160403742Y-142213858D03*
G36*
X163870297Y-142709333D02*
G01*
X163499477Y-143850601D01*
X161977787Y-143356173D01*
X162348607Y-142214905D01*
X163870297Y-142709333D01*
G37*
G36*
X162336757Y-142736786D02*
G01*
X162274954Y-142926997D01*
X160753263Y-142432570D01*
X160815066Y-142242359D01*
X162336757Y-142736786D01*
G37*
G36*
X173211778Y-125609062D02*
G01*
X172779155Y-126940541D01*
X171447676Y-126507918D01*
X171880299Y-125176439D01*
X173211778Y-125609062D01*
G37*
G36*
X168223533Y-124619160D02*
G01*
X168161730Y-124809371D01*
X166640039Y-124314944D01*
X166701842Y-124124733D01*
X168223533Y-124619160D01*
G37*
G36*
X169757073Y-124591707D02*
G01*
X169386253Y-125732975D01*
X167864563Y-125238547D01*
X168235383Y-124097279D01*
X169757073Y-124591707D01*
G37*
X166290518Y-124096232D03*
D23*
X93384051Y-95733736D03*
D24*
X102200908Y-93257078D03*
X95376796Y-93710504D03*
D25*
X98215418Y-97303542D03*
D23*
X103046785Y-98873348D03*
G36*
X93860954Y-91903649D02*
G01*
X93088412Y-94281290D01*
X90663218Y-93493297D01*
X91435760Y-91115656D01*
X93860954Y-91903649D01*
G37*
G36*
X106940164Y-93482628D02*
G01*
X106167622Y-95860269D01*
X103742428Y-95072276D01*
X104514970Y-92694635D01*
X106940164Y-93482628D01*
G37*
G36*
X193787132Y-141912126D02*
G01*
X192455653Y-141479503D01*
X192888276Y-140148024D01*
X194219755Y-140580647D01*
X193787132Y-141912126D01*
G37*
D26*
X195299962Y-134990866D03*
G36*
X194804487Y-138457421D02*
G01*
X193663219Y-138086601D01*
X194157647Y-136564911D01*
X195298915Y-136935731D01*
X194804487Y-138457421D01*
G37*
G36*
X194777034Y-136923881D02*
G01*
X194586823Y-136862078D01*
X195081250Y-135340387D01*
X195271461Y-135402190D01*
X194777034Y-136923881D01*
G37*
D23*
X243254676Y-115777369D03*
D24*
X234014881Y-116108846D03*
D25*
X238423309Y-117347175D03*
D24*
X239269186Y-111730905D03*
D23*
X233591942Y-118916981D03*
G36*
X231726496Y-115538060D02*
G01*
X232499038Y-117915701D01*
X230073844Y-118703694D01*
X229301302Y-116326053D01*
X231726496Y-115538060D01*
G37*
G36*
X243235901Y-109127714D02*
G01*
X244008443Y-111505355D01*
X241583249Y-112293348D01*
X240810707Y-109915707D01*
X243235901Y-109127714D01*
G37*
G36*
X342378766Y-141593467D02*
G01*
X341946143Y-140261988D01*
X343277622Y-139829365D01*
X343710245Y-141160844D01*
X342378766Y-141593467D01*
G37*
G36*
X346996191Y-139462297D02*
G01*
X346934388Y-139272086D01*
X348456079Y-138777659D01*
X348517882Y-138967870D01*
X346996191Y-139462297D01*
G37*
G36*
X345771668Y-140385901D02*
G01*
X345400848Y-139244633D01*
X346922538Y-138750205D01*
X347293358Y-139891473D01*
X345771668Y-140385901D01*
G37*
D26*
X348867403Y-138749158D03*
G36*
X278175169Y-128936390D02*
G01*
X277742546Y-127604911D01*
X279074025Y-127172288D01*
X279506648Y-128503767D01*
X278175169Y-128936390D01*
G37*
G36*
X282792594Y-126805220D02*
G01*
X282730791Y-126615009D01*
X284252482Y-126120582D01*
X284314285Y-126310793D01*
X282792594Y-126805220D01*
G37*
G36*
X281568071Y-127728824D02*
G01*
X281197251Y-126587556D01*
X282718941Y-126093128D01*
X283089761Y-127234396D01*
X281568071Y-127728824D01*
G37*
X284663806Y-126092081D03*
G36*
X68299162Y-140261418D02*
G01*
X67866539Y-141592897D01*
X66535060Y-141160274D01*
X66967683Y-139828795D01*
X68299162Y-140261418D01*
G37*
G36*
X63310917Y-139271516D02*
G01*
X63249114Y-139461727D01*
X61727423Y-138967300D01*
X61789226Y-138777089D01*
X63310917Y-139271516D01*
G37*
G36*
X64844457Y-139244063D02*
G01*
X64473637Y-140385331D01*
X62951947Y-139890903D01*
X63322767Y-138749635D01*
X64844457Y-139244063D01*
G37*
X61377902Y-138748588D03*
G36*
X131338858Y-69539372D02*
G01*
X130906235Y-70870851D01*
X129574756Y-70438228D01*
X130007379Y-69106749D01*
X131338858Y-69539372D01*
G37*
G36*
X127884153Y-68522017D02*
G01*
X127513333Y-69663285D01*
X125991643Y-69168857D01*
X126362463Y-68027589D01*
X127884153Y-68522017D01*
G37*
G36*
X126350613Y-68549470D02*
G01*
X126288810Y-68739681D01*
X124767119Y-68245254D01*
X124828922Y-68055043D01*
X126350613Y-68549470D01*
G37*
X124417598Y-68026542D03*
G36*
X125452084Y-87656998D02*
G01*
X125019461Y-88988477D01*
X123687982Y-88555854D01*
X124120605Y-87224375D01*
X125452084Y-87656998D01*
G37*
G36*
X121997379Y-86639643D02*
G01*
X121626559Y-87780911D01*
X120104869Y-87286483D01*
X120475689Y-86145215D01*
X121997379Y-86639643D01*
G37*
G36*
X120463839Y-86667096D02*
G01*
X120402036Y-86857307D01*
X118880345Y-86362880D01*
X118942148Y-86172669D01*
X120463839Y-86667096D01*
G37*
X118530824Y-86144168D03*
G36*
X99603161Y-105564708D02*
G01*
X99170538Y-106896187D01*
X97839059Y-106463564D01*
X98271682Y-105132085D01*
X99603161Y-105564708D01*
G37*
G36*
X96148456Y-104547353D02*
G01*
X95777636Y-105688621D01*
X94255946Y-105194193D01*
X94626766Y-104052925D01*
X96148456Y-104547353D01*
G37*
G36*
X94614916Y-104574806D02*
G01*
X94553113Y-104765017D01*
X93031422Y-104270590D01*
X93093225Y-104080379D01*
X94614916Y-104574806D01*
G37*
X92681901Y-104051878D03*
G36*
X285225660Y-88988478D02*
G01*
X284793037Y-87656999D01*
X286124516Y-87224376D01*
X286557139Y-88555855D01*
X285225660Y-88988478D01*
G37*
G36*
X288618562Y-87780912D02*
G01*
X288247742Y-86639644D01*
X289769432Y-86145216D01*
X290140252Y-87286484D01*
X288618562Y-87780912D01*
G37*
X291714297Y-86144169D03*
G36*
X289843085Y-86857308D02*
G01*
X289781282Y-86667097D01*
X291302973Y-86172670D01*
X291364776Y-86362881D01*
X289843085Y-86857308D01*
G37*
D25*
X244310081Y-135464800D03*
D24*
X239901653Y-134226471D03*
X245155958Y-129848530D03*
D23*
X249141448Y-133894994D03*
X239478714Y-137034606D03*
G36*
X237613268Y-133655685D02*
G01*
X238385810Y-136033326D01*
X235960616Y-136821319D01*
X235188074Y-134443678D01*
X237613268Y-133655685D01*
G37*
G36*
X249122673Y-127245339D02*
G01*
X249895215Y-129622980D01*
X247470021Y-130410973D01*
X246697479Y-128033332D01*
X249122673Y-127245339D01*
G37*
G36*
X260514845Y-74583510D02*
G01*
X260082222Y-73252031D01*
X261413701Y-72819408D01*
X261846324Y-74150887D01*
X260514845Y-74583510D01*
G37*
G36*
X263907747Y-73375944D02*
G01*
X263536927Y-72234676D01*
X265058617Y-71740248D01*
X265429437Y-72881516D01*
X263907747Y-73375944D01*
G37*
D26*
X267003482Y-71739201D03*
G36*
X265132270Y-72452340D02*
G01*
X265070467Y-72262129D01*
X266592158Y-71767702D01*
X266653961Y-71957913D01*
X265132270Y-72452340D01*
G37*
G36*
X138389350Y-109487283D02*
G01*
X137956727Y-110818762D01*
X136625248Y-110386139D01*
X137057871Y-109054660D01*
X138389350Y-109487283D01*
G37*
G36*
X133401105Y-108497381D02*
G01*
X133339302Y-108687592D01*
X131817611Y-108193165D01*
X131879414Y-108002954D01*
X133401105Y-108497381D01*
G37*
X131468090Y-107974453D03*
G36*
X134934645Y-108469928D02*
G01*
X134563825Y-109611196D01*
X133042135Y-109116768D01*
X133412955Y-107975500D01*
X134934645Y-108469928D01*
G37*
D23*
X182164682Y-130722956D03*
D24*
X184157427Y-128699724D03*
D23*
X191827416Y-133862568D03*
D25*
X186996049Y-132292762D03*
D24*
X190981539Y-128246298D03*
G36*
X182641585Y-126892869D02*
G01*
X181869043Y-129270510D01*
X179443849Y-128482517D01*
X180216391Y-126104876D01*
X182641585Y-126892869D01*
G37*
G36*
X195720795Y-128471848D02*
G01*
X194948253Y-130849489D01*
X192523059Y-130061496D01*
X193295601Y-127683855D01*
X195720795Y-128471848D01*
G37*
X268203317Y-77491990D03*
D25*
X267357440Y-83108260D03*
D23*
X262526073Y-84678066D03*
D24*
X262949012Y-81869931D03*
D23*
X272188807Y-81538454D03*
G36*
X260660627Y-81299145D02*
G01*
X261433169Y-83676786D01*
X259007975Y-84464779D01*
X258235433Y-82087138D01*
X260660627Y-81299145D01*
G37*
G36*
X272170032Y-74888799D02*
G01*
X272942574Y-77266440D01*
X270517380Y-78054433D01*
X269744838Y-75676792D01*
X272170032Y-74888799D01*
G37*
G36*
X266401619Y-92701134D02*
G01*
X265968996Y-91369655D01*
X267300475Y-90937032D01*
X267733098Y-92268511D01*
X266401619Y-92701134D01*
G37*
G36*
X269794521Y-91493568D02*
G01*
X269423701Y-90352300D01*
X270945391Y-89857872D01*
X271316211Y-90999140D01*
X269794521Y-91493568D01*
G37*
G36*
X271019044Y-90569964D02*
G01*
X270957241Y-90379753D01*
X272478932Y-89885326D01*
X272540735Y-90075537D01*
X271019044Y-90569964D01*
G37*
D26*
X272890256Y-89856825D03*
G36*
X114829160Y-148233257D02*
G01*
X114731501Y-149629846D01*
X113334912Y-149532187D01*
X113432571Y-148135598D01*
X114829160Y-148233257D01*
G37*
G36*
X109749608Y-148479525D02*
G01*
X109735657Y-148679038D01*
X108139554Y-148567427D01*
X108153505Y-148367914D01*
X109749608Y-148479525D01*
G37*
X107747504Y-148439768D03*
G36*
X111230954Y-148081890D02*
G01*
X111147246Y-149278967D01*
X109551144Y-149167356D01*
X109634852Y-147970279D01*
X111230954Y-148081890D01*
G37*
D23*
X293696443Y-140907181D03*
X303831693Y-140198455D03*
D25*
X298764068Y-140552818D03*
D24*
X294786168Y-138284777D03*
X300943518Y-135308011D03*
G36*
X292703844Y-137177335D02*
G01*
X292878235Y-139671246D01*
X290334446Y-139849125D01*
X290160055Y-137355214D01*
X292703844Y-137177335D01*
G37*
G36*
X305422173Y-133741780D02*
G01*
X305596564Y-136235691D01*
X303052775Y-136413570D01*
X302878384Y-133919659D01*
X305422173Y-133741780D01*
G37*
D23*
X238264051Y-164082164D03*
D24*
X236752456Y-169556931D03*
D25*
X242039227Y-167481347D03*
D23*
X245814403Y-170880530D03*
D24*
X243171017Y-171918322D03*
G36*
X243820893Y-174185515D02*
G01*
X245493720Y-172327652D01*
X247388739Y-174033935D01*
X245715912Y-175891798D01*
X243820893Y-174185515D01*
G37*
G36*
X232514668Y-167423252D02*
G01*
X234187495Y-165565389D01*
X236082514Y-167271672D01*
X234409687Y-169129535D01*
X232514668Y-167423252D01*
G37*
D23*
X105157598Y-59498483D03*
D25*
X109988965Y-61068289D03*
D23*
X114820332Y-62638095D03*
D24*
X107150343Y-57475251D03*
X113974455Y-57021825D03*
G36*
X105634501Y-55668396D02*
G01*
X104861959Y-58046037D01*
X102436765Y-57258044D01*
X103209307Y-54880403D01*
X105634501Y-55668396D01*
G37*
G36*
X118713711Y-57247375D02*
G01*
X117941169Y-59625016D01*
X115515975Y-58837023D01*
X116288517Y-56459382D01*
X118713711Y-57247375D01*
G37*
G36*
X74813858Y-120211245D02*
G01*
X74381235Y-121542724D01*
X73049756Y-121110101D01*
X73482379Y-119778622D01*
X74813858Y-120211245D01*
G37*
G36*
X71359153Y-119193890D02*
G01*
X70988333Y-120335158D01*
X69466643Y-119840730D01*
X69837463Y-118699462D01*
X71359153Y-119193890D01*
G37*
D26*
X67892598Y-118698415D03*
G36*
X69825613Y-119221343D02*
G01*
X69763810Y-119411554D01*
X68242119Y-118917127D01*
X68303922Y-118726916D01*
X69825613Y-119221343D01*
G37*
D23*
X106414126Y-140198682D03*
D24*
X114369927Y-135662601D03*
X107858213Y-137753460D03*
D25*
X111481751Y-140553045D03*
D23*
X116549376Y-140907408D03*
G36*
X105950281Y-136366992D02*
G01*
X105775890Y-138860903D01*
X103232101Y-138683024D01*
X103406492Y-136189113D01*
X105950281Y-136366992D01*
G37*
G36*
X119022973Y-134734921D02*
G01*
X118848582Y-137228832D01*
X116304793Y-137050953D01*
X116479184Y-134557042D01*
X119022973Y-134734921D01*
G37*
X175520996Y-160895658D03*
D24*
X176276794Y-163633041D03*
D25*
X171745820Y-164294841D03*
D23*
X167970644Y-167694024D03*
D24*
X173257416Y-169769608D03*
G36*
X178599497Y-163223712D02*
G01*
X176926670Y-161365849D01*
X178821689Y-159659566D01*
X180494516Y-161517429D01*
X178599497Y-163223712D01*
G37*
G36*
X170692455Y-173761151D02*
G01*
X169019628Y-171903288D01*
X170914647Y-170197005D01*
X172587474Y-172054868D01*
X170692455Y-173761151D01*
G37*
G36*
X254877178Y-118879650D02*
G01*
X254444555Y-117548171D01*
X255776034Y-117115548D01*
X256208657Y-118447027D01*
X254877178Y-118879650D01*
G37*
D26*
X261365815Y-116035341D03*
G36*
X258270080Y-117672084D02*
G01*
X257899260Y-116530816D01*
X259420950Y-116036388D01*
X259791770Y-117177656D01*
X258270080Y-117672084D01*
G37*
G36*
X259494603Y-116748480D02*
G01*
X259432800Y-116558269D01*
X260954491Y-116063842D01*
X261016294Y-116254053D01*
X259494603Y-116748480D01*
G37*
D23*
X80368297Y-74145021D03*
D24*
X82361042Y-72121789D03*
D25*
X85199664Y-75714827D03*
D23*
X90031031Y-77284633D03*
D24*
X89185154Y-71668363D03*
G36*
X80845200Y-70314934D02*
G01*
X80072658Y-72692575D01*
X77647464Y-71904582D01*
X78420006Y-69526941D01*
X80845200Y-70314934D01*
G37*
G36*
X93924410Y-71893913D02*
G01*
X93151868Y-74271554D01*
X90726674Y-73483561D01*
X91499216Y-71105920D01*
X93924410Y-71893913D01*
G37*
D27*
X238222566Y-147558083D03*
G36*
X311074766Y-106896756D02*
G01*
X310642143Y-105565277D01*
X311973622Y-105132654D01*
X312406245Y-106464133D01*
X311074766Y-106896756D01*
G37*
G36*
X314467668Y-105689190D02*
G01*
X314096848Y-104547922D01*
X315618538Y-104053494D01*
X315989358Y-105194762D01*
X314467668Y-105689190D01*
G37*
D26*
X317563403Y-104052447D03*
G36*
X315692191Y-104765586D02*
G01*
X315630388Y-104575375D01*
X317152079Y-104080948D01*
X317213882Y-104271159D01*
X315692191Y-104765586D01*
G37*
D24*
X257062238Y-63752308D03*
X262316543Y-59374367D03*
D23*
X266302033Y-63420831D03*
D25*
X261470666Y-64990637D03*
D23*
X256639299Y-66560443D03*
G36*
X254773853Y-63181522D02*
G01*
X255546395Y-65559163D01*
X253121201Y-66347156D01*
X252348659Y-63969515D01*
X254773853Y-63181522D01*
G37*
G36*
X266283258Y-56771176D02*
G01*
X267055800Y-59148817D01*
X264630606Y-59936810D01*
X263858064Y-57559169D01*
X266283258Y-56771176D01*
G37*
D25*
X73426115Y-111950078D03*
D23*
X78257482Y-113519884D03*
X68594748Y-110380272D03*
D24*
X70587493Y-108357040D03*
X77411605Y-107903614D03*
G36*
X69071651Y-106550185D02*
G01*
X68299109Y-108927826D01*
X65873915Y-108139833D01*
X66646457Y-105762192D01*
X69071651Y-106550185D01*
G37*
G36*
X82150861Y-108129164D02*
G01*
X81378319Y-110506805D01*
X78953125Y-109718812D01*
X79725667Y-107341171D01*
X82150861Y-108129164D01*
G37*
G36*
X279338885Y-70870851D02*
G01*
X278906262Y-69539372D01*
X280237741Y-69106749D01*
X280670364Y-70438228D01*
X279338885Y-70870851D01*
G37*
D26*
X285827522Y-68026542D03*
G36*
X283956310Y-68739681D02*
G01*
X283894507Y-68549470D01*
X285416198Y-68055043D01*
X285478001Y-68245254D01*
X283956310Y-68739681D01*
G37*
G36*
X282731787Y-69663285D02*
G01*
X282360967Y-68522017D01*
X283882657Y-68027589D01*
X284253477Y-69168857D01*
X282731787Y-69663285D01*
G37*
D23*
X295425674Y-62638439D03*
D24*
X301102918Y-55452363D03*
X295848613Y-59830304D03*
D23*
X305088408Y-59498827D03*
D25*
X300257041Y-61068633D03*
G36*
X293560228Y-59259518D02*
G01*
X294332770Y-61637159D01*
X291907576Y-62425152D01*
X291135034Y-60047511D01*
X293560228Y-59259518D01*
G37*
G36*
X305069633Y-52849172D02*
G01*
X305842175Y-55226813D01*
X303416981Y-56014806D01*
X302644439Y-53637165D01*
X305069633Y-52849172D01*
G37*
D23*
X188426725Y-82681727D03*
X178763991Y-79542115D03*
D24*
X187580848Y-77065457D03*
X180756736Y-77518883D03*
D25*
X183595358Y-81111921D03*
G36*
X179240894Y-75712028D02*
G01*
X178468352Y-78089669D01*
X176043158Y-77301676D01*
X176815700Y-74924035D01*
X179240894Y-75712028D01*
G37*
G36*
X192320104Y-77291007D02*
G01*
X191547562Y-79668648D01*
X189122368Y-78880655D01*
X189894910Y-76503014D01*
X192320104Y-77291007D01*
G37*
D24*
X278686001Y-139011020D03*
D25*
X277840124Y-144627290D03*
D24*
X273431696Y-143388961D03*
D23*
X282671491Y-143057484D03*
X273008757Y-146197096D03*
G36*
X271143311Y-142818175D02*
G01*
X271915853Y-145195816D01*
X269490659Y-145983809D01*
X268718117Y-143606168D01*
X271143311Y-142818175D01*
G37*
G36*
X282652716Y-136407829D02*
G01*
X283425258Y-138785470D01*
X281000064Y-139573463D01*
X280227522Y-137195822D01*
X282652716Y-136407829D01*
G37*
D25*
X104102192Y-79185917D03*
D24*
X101263570Y-75592879D03*
X108087682Y-75139453D03*
D23*
X99270825Y-77616111D03*
X108933559Y-80755723D03*
G36*
X99747728Y-73786024D02*
G01*
X98975186Y-76163665D01*
X96549992Y-75375672D01*
X97322534Y-72998031D01*
X99747728Y-73786024D01*
G37*
G36*
X112826938Y-75365003D02*
G01*
X112054396Y-77742644D01*
X109629202Y-76954651D01*
X110401744Y-74577010D01*
X112826938Y-75365003D01*
G37*
G36*
X305187992Y-88779130D02*
G01*
X304755369Y-87447651D01*
X306086848Y-87015028D01*
X306519471Y-88346507D01*
X305187992Y-88779130D01*
G37*
G36*
X309805417Y-86647960D02*
G01*
X309743614Y-86457749D01*
X311265305Y-85963322D01*
X311327108Y-86153533D01*
X309805417Y-86647960D01*
G37*
G36*
X308580894Y-87571564D02*
G01*
X308210074Y-86430296D01*
X309731764Y-85935868D01*
X310102584Y-87077136D01*
X308580894Y-87571564D01*
G37*
D26*
X311676629Y-85934821D03*
G36*
X259910023Y-163169537D02*
G01*
X259168136Y-161982270D01*
X260355403Y-161240383D01*
X261097290Y-162427650D01*
X259910023Y-163169537D01*
G37*
G36*
X262910004Y-161177023D02*
G01*
X262274101Y-160159366D01*
X263630978Y-159311495D01*
X264266881Y-160329152D01*
X262910004Y-161177023D01*
G37*
G36*
X263874714Y-159984616D02*
G01*
X263768731Y-159815007D01*
X265125608Y-158967136D01*
X265231591Y-159136745D01*
X263874714Y-159984616D01*
G37*
X265517818Y-158839973D03*
G36*
X161687338Y-99430545D02*
G01*
X161254715Y-100762024D01*
X159923236Y-100329401D01*
X160355859Y-98997922D01*
X161687338Y-99430545D01*
G37*
G36*
X158232633Y-98413190D02*
G01*
X157861813Y-99554458D01*
X156340123Y-99060030D01*
X156710943Y-97918762D01*
X158232633Y-98413190D01*
G37*
X154766078Y-97917715D03*
G36*
X156699093Y-98440643D02*
G01*
X156637290Y-98630854D01*
X155115599Y-98136427D01*
X155177402Y-97946216D01*
X156699093Y-98440643D01*
G37*
G36*
X105489936Y-87447081D02*
G01*
X105057313Y-88778560D01*
X103725834Y-88345937D01*
X104158457Y-87014458D01*
X105489936Y-87447081D01*
G37*
G36*
X102035231Y-86429726D02*
G01*
X101664411Y-87570994D01*
X100142721Y-87076566D01*
X100513541Y-85935298D01*
X102035231Y-86429726D01*
G37*
X98568676Y-85934251D03*
G36*
X100501691Y-86457179D02*
G01*
X100439888Y-86647390D01*
X98918197Y-86152963D01*
X98980000Y-85962752D01*
X100501691Y-86457179D01*
G37*
G36*
X272288393Y-110818763D02*
G01*
X271855770Y-109487284D01*
X273187249Y-109054661D01*
X273619872Y-110386140D01*
X272288393Y-110818763D01*
G37*
G36*
X275681295Y-109611197D02*
G01*
X275310475Y-108469929D01*
X276832165Y-107975501D01*
X277202985Y-109116769D01*
X275681295Y-109611197D01*
G37*
G36*
X276905818Y-108687593D02*
G01*
X276844015Y-108497382D01*
X278365706Y-108002955D01*
X278427509Y-108193166D01*
X276905818Y-108687593D01*
G37*
X278777030Y-107974454D03*
G36*
X231579189Y-108822914D02*
G01*
X231146566Y-107491435D01*
X232478045Y-107058812D01*
X232910668Y-108390291D01*
X231579189Y-108822914D01*
G37*
G36*
X234972091Y-107615348D02*
G01*
X234601271Y-106474080D01*
X236122961Y-105979652D01*
X236493781Y-107120920D01*
X234972091Y-107615348D01*
G37*
G36*
X236196614Y-106691744D02*
G01*
X236134811Y-106501533D01*
X237656502Y-106007106D01*
X237718305Y-106197317D01*
X236196614Y-106691744D01*
G37*
X238067826Y-105978605D03*
D24*
X175807300Y-113300710D03*
D23*
X176653177Y-118916980D03*
D25*
X171821810Y-117347174D03*
D23*
X166990443Y-115777368D03*
D24*
X168983188Y-113754136D03*
G36*
X167467346Y-111947281D02*
G01*
X166694804Y-114324922D01*
X164269610Y-113536929D01*
X165042152Y-111159288D01*
X167467346Y-111947281D01*
G37*
G36*
X180546556Y-113526260D02*
G01*
X179774014Y-115903901D01*
X177348820Y-115115908D01*
X178121362Y-112738267D01*
X180546556Y-113526260D01*
G37*
D23*
X171017034Y-74621330D03*
D25*
X166185667Y-73051524D03*
D24*
X170171157Y-69005060D03*
D23*
X161354300Y-71481718D03*
D24*
X163347045Y-69458486D03*
G36*
X161831203Y-67651631D02*
G01*
X161058661Y-70029272D01*
X158633467Y-69241279D01*
X159406009Y-66863638D01*
X161831203Y-67651631D01*
G37*
G36*
X174910413Y-69230610D02*
G01*
X174137871Y-71608251D01*
X171712677Y-70820258D01*
X172485219Y-68442617D01*
X174910413Y-69230610D01*
G37*
G36*
X296999207Y-125223731D02*
G01*
X296566584Y-123892252D01*
X297898063Y-123459629D01*
X298330686Y-124791108D01*
X296999207Y-125223731D01*
G37*
D26*
X303487844Y-122379422D03*
G36*
X301616632Y-123092561D02*
G01*
X301554829Y-122902350D01*
X303076520Y-122407923D01*
X303138323Y-122598134D01*
X301616632Y-123092561D01*
G37*
G36*
X300392109Y-124016165D02*
G01*
X300021289Y-122874897D01*
X301542979Y-122380469D01*
X301913799Y-123521737D01*
X300392109Y-124016165D01*
G37*
D25*
X91086435Y-57597198D03*
D23*
X95917802Y-59167004D03*
D24*
X88247813Y-54004160D03*
D23*
X86255068Y-56027392D03*
D24*
X95071925Y-53550734D03*
G36*
X86731971Y-52197305D02*
G01*
X85959429Y-54574946D01*
X83534235Y-53786953D01*
X84306777Y-51409312D01*
X86731971Y-52197305D01*
G37*
G36*
X99811181Y-53776284D02*
G01*
X99038639Y-56153925D01*
X96613445Y-55365932D01*
X97385987Y-52988291D01*
X99811181Y-53776284D01*
G37*
D28*
X191536809Y-126407909D03*
X186781527Y-124862824D03*
X184678422Y-139425686D03*
X182300780Y-138653143D03*
G36*
X187698103Y-141458302D02*
G01*
X185795989Y-140840268D01*
X186414023Y-138938154D01*
X188316137Y-139556188D01*
X187698103Y-141458302D01*
G37*
G36*
G01*
X191889341Y-135354736D02*
X191889341Y-135354736D01*
G75*
G02*
X191407812Y-134409681I231763J713292D01*
G01*
X191809534Y-133173307D01*
G75*
G02*
X192754589Y-132691778I713292J-231763D01*
G01*
X192754589Y-132691778D01*
G75*
G02*
X193236118Y-133636833I-231763J-713292D01*
G01*
X192834396Y-134873207D01*
G75*
G02*
X191889341Y-135354736I-713292J231763D01*
G01*
G37*
G36*
G01*
X181237509Y-131893746D02*
X181237509Y-131893746D01*
G75*
G02*
X180755980Y-130948691I231763J713292D01*
G01*
X181157702Y-129712317D01*
G75*
G02*
X182102757Y-129230788I713292J-231763D01*
G01*
X182102757Y-129230788D01*
G75*
G02*
X182584286Y-130175843I-231763J-713292D01*
G01*
X182182564Y-131412217D01*
G75*
G02*
X181237509Y-131893746I-713292J231763D01*
G01*
G37*
X223463590Y-124862823D03*
X218708308Y-126407908D03*
X225566695Y-139425685D03*
X223189054Y-140198227D03*
G36*
X229204411Y-139295182D02*
G01*
X227302297Y-139913216D01*
X226684263Y-138011102D01*
X228586377Y-137393068D01*
X229204411Y-139295182D01*
G37*
G36*
G01*
X218355776Y-135354735D02*
X218355776Y-135354735D01*
G75*
G02*
X217410721Y-134873206I-231763J713292D01*
G01*
X217008999Y-133636832D01*
G75*
G02*
X217490528Y-132691777I713292J231763D01*
G01*
X217490528Y-132691777D01*
G75*
G02*
X218435583Y-133173306I231763J-713292D01*
G01*
X218837305Y-134409680D01*
G75*
G02*
X218355776Y-135354735I-713292J-231763D01*
G01*
G37*
G36*
G01*
X229007608Y-131893745D02*
X229007608Y-131893745D01*
G75*
G02*
X228062553Y-131412216I-231763J713292D01*
G01*
X227660831Y-130175842D01*
G75*
G02*
X228142360Y-129230787I713292J231763D01*
G01*
X228142360Y-129230787D01*
G75*
G02*
X229087415Y-129712316I231763J-713292D01*
G01*
X229489137Y-130948690D01*
G75*
G02*
X229007608Y-131893745I-713292J-231763D01*
G01*
G37*
D27*
X172083724Y-85717541D03*
X172050465Y-147467000D03*
X97768509Y-67847875D03*
X124810771Y-107914546D03*
X79568568Y-123861536D03*
M02*
