G04 #@! TF.GenerationSoftware,KiCad,Pcbnew,(6.0.2-0)*
G04 #@! TF.CreationDate,2022-02-19T09:02:28+00:00*
G04 #@! TF.ProjectId,atreyu-pcb2,61747265-7975-42d7-9063-62322e6b6963,rev?*
G04 #@! TF.SameCoordinates,Original*
G04 #@! TF.FileFunction,Paste,Bot*
G04 #@! TF.FilePolarity,Positive*
%FSLAX46Y46*%
G04 Gerber Fmt 4.6, Leading zero omitted, Abs format (unit mm)*
G04 Created by KiCad (PCBNEW (6.0.2-0)) date 2022-02-19 09:02:28*
%MOMM*%
%LPD*%
G01*
G04 APERTURE LIST*
G04 APERTURE END LIST*
G36*
X148808273Y-147336598D02*
G01*
X147483475Y-149456718D01*
X145320953Y-148105424D01*
X146645751Y-145985304D01*
X148808273Y-147336598D01*
G37*
G36*
X161116986Y-152032822D02*
G01*
X159792188Y-154152942D01*
X157629666Y-152801648D01*
X158954464Y-150681528D01*
X161116986Y-152032822D01*
G37*
G36*
X281796128Y-151993340D02*
G01*
X281734325Y-151803129D01*
X283256016Y-151308702D01*
X283317819Y-151498913D01*
X281796128Y-151993340D01*
G37*
G36*
X280571605Y-152916944D02*
G01*
X280200785Y-151775676D01*
X281722475Y-151281248D01*
X282093295Y-152422516D01*
X280571605Y-152916944D01*
G37*
G36*
X181530805Y-88355883D02*
G01*
X181159985Y-89497151D01*
X179638295Y-89002723D01*
X180009115Y-87861455D01*
X181530805Y-88355883D01*
G37*
G36*
X179997265Y-88383336D02*
G01*
X179935462Y-88573547D01*
X178413771Y-88079120D01*
X178475574Y-87888909D01*
X179997265Y-88383336D01*
G37*
G36*
X132646442Y-95825998D02*
G01*
X131873900Y-98203639D01*
X129448706Y-97415646D01*
X130221248Y-95038005D01*
X132646442Y-95825998D01*
G37*
G36*
X145725652Y-97404977D02*
G01*
X144953110Y-99782618D01*
X142527916Y-98994625D01*
X143300458Y-96616984D01*
X145725652Y-97404977D01*
G37*
G36*
X247721059Y-80513230D02*
G01*
X247659256Y-80323019D01*
X249180947Y-79828592D01*
X249242750Y-80018803D01*
X247721059Y-80513230D01*
G37*
G36*
X246496536Y-81436834D02*
G01*
X246125716Y-80295566D01*
X247647406Y-79801138D01*
X248018226Y-80942406D01*
X246496536Y-81436834D01*
G37*
G36*
X146476391Y-159815007D02*
G01*
X146370408Y-159984616D01*
X145013531Y-159136745D01*
X145119514Y-158967136D01*
X146476391Y-159815007D01*
G37*
G36*
X147971021Y-160159366D02*
G01*
X147335118Y-161177023D01*
X145978241Y-160329152D01*
X146614144Y-159311495D01*
X147971021Y-160159366D01*
G37*
G36*
X305333774Y-95494769D02*
G01*
X306106316Y-97872410D01*
X303681122Y-98660403D01*
X302908580Y-96282762D01*
X305333774Y-95494769D01*
G37*
G36*
X316843179Y-89084423D02*
G01*
X317615721Y-91462064D01*
X315190527Y-92250057D01*
X314417985Y-89872416D01*
X316843179Y-89084423D01*
G37*
G36*
X128050531Y-139227399D02*
G01*
X127277989Y-141605040D01*
X124852795Y-140817047D01*
X125625337Y-138439406D01*
X128050531Y-139227399D01*
G37*
G36*
X141129741Y-140806378D02*
G01*
X140357199Y-143184019D01*
X137932005Y-142396026D01*
X138704547Y-140018385D01*
X141129741Y-140806378D01*
G37*
G36*
X87974182Y-110021276D02*
G01*
X87201640Y-112398917D01*
X84776446Y-111610924D01*
X85548988Y-109233283D01*
X87974182Y-110021276D01*
G37*
G36*
X101053392Y-111600255D02*
G01*
X100280850Y-113977896D01*
X97855656Y-113189903D01*
X98628198Y-110812262D01*
X101053392Y-111600255D01*
G37*
G36*
X237362638Y-71242411D02*
G01*
X238135180Y-73620052D01*
X235709986Y-74408045D01*
X234937444Y-72030404D01*
X237362638Y-71242411D01*
G37*
G36*
X248872043Y-64832065D02*
G01*
X249644585Y-67209706D01*
X247219391Y-67997699D01*
X246446849Y-65620058D01*
X248872043Y-64832065D01*
G37*
G36*
X216552255Y-130483646D02*
G01*
X217324797Y-132861287D01*
X214899603Y-133649280D01*
X214127061Y-131271639D01*
X216552255Y-130483646D01*
G37*
G36*
X228061660Y-124073300D02*
G01*
X228834202Y-126450941D01*
X226409008Y-127238934D01*
X225636466Y-124861293D01*
X228061660Y-124073300D01*
G37*
G36*
X230520685Y-168854686D02*
G01*
X231323642Y-167962913D01*
X232512673Y-169033522D01*
X231709716Y-169925295D01*
X230520685Y-168854686D01*
G37*
G36*
X231932810Y-169453354D02*
G01*
X232066636Y-169304725D01*
X233255668Y-170375334D01*
X233121842Y-170523963D01*
X231932810Y-169453354D01*
G37*
G36*
X107935630Y-110230965D02*
G01*
X107163088Y-112608606D01*
X104737894Y-111820613D01*
X105510436Y-109442972D01*
X107935630Y-110230965D01*
G37*
G36*
X121014840Y-111809944D02*
G01*
X120242298Y-114187585D01*
X117817104Y-113399592D01*
X118589646Y-111021951D01*
X121014840Y-111809944D01*
G37*
G36*
X130044334Y-151775674D02*
G01*
X129673514Y-152916942D01*
X128151824Y-152422514D01*
X128522644Y-151281246D01*
X130044334Y-151775674D01*
G37*
G36*
X128510794Y-151803127D02*
G01*
X128448991Y-151993338D01*
X126927300Y-151498911D01*
X126989103Y-151308700D01*
X128510794Y-151803127D01*
G37*
G36*
X125595950Y-55878086D02*
G01*
X124823408Y-58255727D01*
X122398214Y-57467734D01*
X123170756Y-55090093D01*
X125595950Y-55878086D01*
G37*
G36*
X138675160Y-57457065D02*
G01*
X137902618Y-59834706D01*
X135477424Y-59046713D01*
X136249966Y-56669072D01*
X138675160Y-57457065D01*
G37*
G36*
X106388465Y-68339553D02*
G01*
X106326662Y-68529764D01*
X104804971Y-68035337D01*
X104866774Y-67845126D01*
X106388465Y-68339553D01*
G37*
G36*
X107922005Y-68312100D02*
G01*
X107551185Y-69453368D01*
X106029495Y-68958940D01*
X106400315Y-67817672D01*
X107922005Y-68312100D01*
G37*
G36*
X230309844Y-88574117D02*
G01*
X230248041Y-88383906D01*
X231769732Y-87889479D01*
X231831535Y-88079690D01*
X230309844Y-88574117D01*
G37*
G36*
X229085321Y-89497721D02*
G01*
X228714501Y-88356453D01*
X230236191Y-87862025D01*
X230607011Y-89003293D01*
X229085321Y-89497721D01*
G37*
G36*
X74958422Y-88432559D02*
G01*
X74185880Y-90810200D01*
X71760686Y-90022207D01*
X72533228Y-87644566D01*
X74958422Y-88432559D01*
G37*
G36*
X88037632Y-90011538D02*
G01*
X87265090Y-92389179D01*
X84839896Y-91601186D01*
X85612438Y-89223545D01*
X88037632Y-90011538D01*
G37*
G36*
X265381377Y-134866110D02*
G01*
X265319574Y-134675899D01*
X266841265Y-134181472D01*
X266903068Y-134371683D01*
X265381377Y-134866110D01*
G37*
G36*
X264156854Y-135789714D02*
G01*
X263786034Y-134648446D01*
X265307724Y-134154018D01*
X265678544Y-135295286D01*
X264156854Y-135789714D01*
G37*
G36*
X246745640Y-143850602D02*
G01*
X246374820Y-142709334D01*
X247896510Y-142214906D01*
X248267330Y-143356174D01*
X246745640Y-143850602D01*
G37*
G36*
X247970163Y-142926998D02*
G01*
X247908360Y-142736787D01*
X249430051Y-142242360D01*
X249491854Y-142432571D01*
X247970163Y-142926998D01*
G37*
G36*
X320355142Y-123806590D02*
G01*
X319984322Y-122665322D01*
X321506012Y-122170894D01*
X321876832Y-123312162D01*
X320355142Y-123806590D01*
G37*
G36*
X321579665Y-122882986D02*
G01*
X321517862Y-122692775D01*
X323039553Y-122198348D01*
X323101356Y-122388559D01*
X321579665Y-122882986D01*
G37*
G36*
X311220548Y-113612395D02*
G01*
X311993090Y-115990036D01*
X309567896Y-116778029D01*
X308795354Y-114400388D01*
X311220548Y-113612395D01*
G37*
G36*
X322729953Y-107202049D02*
G01*
X323502495Y-109579690D01*
X321077301Y-110367683D01*
X320304759Y-107990042D01*
X322729953Y-107202049D01*
G37*
G36*
X139287877Y-90379756D02*
G01*
X139226074Y-90569967D01*
X137704383Y-90075540D01*
X137766186Y-89885329D01*
X139287877Y-90379756D01*
G37*
G36*
X140821417Y-90352303D02*
G01*
X140450597Y-91493571D01*
X138928907Y-90999143D01*
X139299727Y-89857875D01*
X140821417Y-90352303D01*
G37*
G36*
X266547401Y-99416775D02*
G01*
X267319943Y-101794416D01*
X264894749Y-102582409D01*
X264122207Y-100204768D01*
X266547401Y-99416775D01*
G37*
G36*
X278056806Y-93006429D02*
G01*
X278829348Y-95384070D01*
X276404154Y-96172063D01*
X275631612Y-93794422D01*
X278056806Y-93006429D01*
G37*
G36*
X291258216Y-113821743D02*
G01*
X292030758Y-116199384D01*
X289605564Y-116987377D01*
X288833022Y-114609736D01*
X291258216Y-113821743D01*
G37*
G36*
X302767621Y-107411397D02*
G01*
X303540163Y-109789038D01*
X301114969Y-110577031D01*
X300342427Y-108199390D01*
X302767621Y-107411397D01*
G37*
G36*
X116110607Y-104757272D02*
G01*
X115739787Y-105898540D01*
X114218097Y-105404112D01*
X114588917Y-104262844D01*
X116110607Y-104757272D01*
G37*
G36*
X114577067Y-104784725D02*
G01*
X114515264Y-104974936D01*
X112993573Y-104480509D01*
X113055376Y-104290298D01*
X114577067Y-104784725D01*
G37*
G36*
X161580575Y-130064906D02*
G01*
X160808033Y-132442547D01*
X158382839Y-131654554D01*
X159155381Y-129276913D01*
X161580575Y-130064906D01*
G37*
G36*
X174659785Y-131643885D02*
G01*
X173887243Y-134021526D01*
X171462049Y-133233533D01*
X172234591Y-130855892D01*
X174659785Y-131643885D01*
G37*
G36*
X318349528Y-73906052D02*
G01*
X319122070Y-76283693D01*
X316696876Y-77071686D01*
X315924334Y-74694045D01*
X318349528Y-73906052D01*
G37*
G36*
X329858933Y-67495706D02*
G01*
X330631475Y-69873347D01*
X328206281Y-70661340D01*
X327433739Y-68283699D01*
X329858933Y-67495706D01*
G37*
G36*
X83132701Y-82958636D02*
G01*
X82761881Y-84099904D01*
X81240191Y-83605476D01*
X81611011Y-82464208D01*
X83132701Y-82958636D01*
G37*
G36*
X81599161Y-82986089D02*
G01*
X81537358Y-83176300D01*
X80015667Y-82681873D01*
X80077470Y-82491662D01*
X81599161Y-82986089D01*
G37*
G36*
X285371439Y-95704117D02*
G01*
X286143981Y-98081758D01*
X283718787Y-98869751D01*
X282946245Y-96492110D01*
X285371439Y-95704117D01*
G37*
G36*
X296880844Y-89293771D02*
G01*
X297653386Y-91671412D01*
X295228192Y-92459405D01*
X294455650Y-90081764D01*
X296880844Y-89293771D01*
G37*
G36*
X249136187Y-107477662D02*
G01*
X249908729Y-109855303D01*
X247483535Y-110643296D01*
X246710993Y-108265655D01*
X249136187Y-107477662D01*
G37*
G36*
X260645592Y-101067316D02*
G01*
X261418134Y-103444957D01*
X258992940Y-104232950D01*
X258220398Y-101855309D01*
X260645592Y-101067316D01*
G37*
G36*
X240858865Y-125732975D02*
G01*
X240488045Y-124591707D01*
X242009735Y-124097279D01*
X242380555Y-125238547D01*
X240858865Y-125732975D01*
G37*
G36*
X242083388Y-124809371D02*
G01*
X242021585Y-124619160D01*
X243543276Y-124124733D01*
X243605079Y-124314944D01*
X242083388Y-124809371D01*
G37*
G36*
X334594722Y-101294497D02*
G01*
X334532919Y-101104286D01*
X336054610Y-100609859D01*
X336116413Y-100800070D01*
X334594722Y-101294497D01*
G37*
G36*
X333370199Y-102218101D02*
G01*
X332999379Y-101076833D01*
X334521069Y-100582405D01*
X334891889Y-101723673D01*
X333370199Y-102218101D01*
G37*
G36*
X144925545Y-134675895D02*
G01*
X144863742Y-134866106D01*
X143342051Y-134371679D01*
X143403854Y-134181468D01*
X144925545Y-134675895D01*
G37*
G36*
X146459085Y-134648442D02*
G01*
X146088265Y-135789710D01*
X144566575Y-135295282D01*
X144937395Y-134154014D01*
X146459085Y-134648442D01*
G37*
G36*
X127514329Y-126615009D02*
G01*
X127452526Y-126805220D01*
X125930835Y-126310793D01*
X125992638Y-126120582D01*
X127514329Y-126615009D01*
G37*
G36*
X129047869Y-126587556D02*
G01*
X128677049Y-127728824D01*
X127155359Y-127234396D01*
X127526179Y-126093128D01*
X129047869Y-126587556D01*
G37*
G36*
X252383305Y-99554459D02*
G01*
X252012485Y-98413191D01*
X253534175Y-97918763D01*
X253904995Y-99060031D01*
X252383305Y-99554459D01*
G37*
G36*
X253607828Y-98630855D02*
G01*
X253546025Y-98440644D01*
X255067716Y-97946217D01*
X255129519Y-98136428D01*
X253607828Y-98630855D01*
G37*
G36*
X243249413Y-89360036D02*
G01*
X244021955Y-91737677D01*
X241596761Y-92525670D01*
X240824219Y-90148029D01*
X243249413Y-89360036D01*
G37*
G36*
X254758818Y-82949690D02*
G01*
X255531360Y-85327331D01*
X253106166Y-86115324D01*
X252333624Y-83737683D01*
X254758818Y-82949690D01*
G37*
G36*
X126759666Y-113943624D02*
G01*
X125987124Y-116321265D01*
X123561930Y-115533272D01*
X124334472Y-113155631D01*
X126759666Y-113943624D01*
G37*
G36*
X139838876Y-115522603D02*
G01*
X139066334Y-117900244D01*
X136641140Y-117112251D01*
X137413682Y-114734610D01*
X139838876Y-115522603D01*
G37*
G36*
X299446999Y-77377142D02*
G01*
X300219541Y-79754783D01*
X297794347Y-80542776D01*
X297021805Y-78165135D01*
X299446999Y-77377142D01*
G37*
G36*
X310956404Y-70966796D02*
G01*
X311728946Y-73344437D01*
X309303752Y-74132430D01*
X308531210Y-71754789D01*
X310956404Y-70966796D01*
G37*
G36*
X312462756Y-55788425D02*
G01*
X313235298Y-58166066D01*
X310810104Y-58954059D01*
X310037562Y-56576418D01*
X312462756Y-55788425D01*
G37*
G36*
X323972161Y-49378079D02*
G01*
X324744703Y-51755720D01*
X322319509Y-52543713D01*
X321546967Y-50166072D01*
X323972161Y-49378079D01*
G37*
G36*
X273597892Y-59468863D02*
G01*
X274370434Y-61846504D01*
X271945240Y-62634497D01*
X271172698Y-60256856D01*
X273597892Y-59468863D01*
G37*
G36*
X285107297Y-53058517D02*
G01*
X285879839Y-55436158D01*
X283454645Y-56224151D01*
X282682103Y-53846510D01*
X285107297Y-53058517D01*
G37*
G36*
X324236304Y-92023677D02*
G01*
X325008846Y-94401318D01*
X322583652Y-95189311D01*
X321811110Y-92811670D01*
X324236304Y-92023677D01*
G37*
G36*
X335745709Y-85613331D02*
G01*
X336518251Y-87990972D01*
X334093057Y-88778965D01*
X333320515Y-86401324D01*
X335745709Y-85613331D01*
G37*
G36*
X279484666Y-77586489D02*
G01*
X280257208Y-79964130D01*
X277832014Y-80752123D01*
X277059472Y-78374482D01*
X279484666Y-77586489D01*
G37*
G36*
X290994071Y-71176143D02*
G01*
X291766613Y-73553784D01*
X289341419Y-74341777D01*
X288568877Y-71964136D01*
X290994071Y-71176143D01*
G37*
G36*
X300513075Y-148690157D02*
G01*
X300499124Y-148490644D01*
X302095227Y-148379033D01*
X302109178Y-148578546D01*
X300513075Y-148690157D01*
G37*
G36*
X299101486Y-149290086D02*
G01*
X299017778Y-148093009D01*
X300613880Y-147981398D01*
X300697588Y-149178475D01*
X299101486Y-149290086D01*
G37*
G36*
X145174653Y-72262129D02*
G01*
X145112850Y-72452340D01*
X143591159Y-71957913D01*
X143652962Y-71767702D01*
X145174653Y-72262129D01*
G37*
G36*
X146708193Y-72234676D02*
G01*
X146337373Y-73375944D01*
X144815683Y-72881516D01*
X145186503Y-71740248D01*
X146708193Y-72234676D01*
G37*
G36*
X216581899Y-138086600D02*
G01*
X215440631Y-138457420D01*
X214946203Y-136935730D01*
X216087471Y-136564910D01*
X216581899Y-138086600D01*
G37*
G36*
X215658295Y-136862077D02*
G01*
X215468084Y-136923880D01*
X214973657Y-135402189D01*
X215163868Y-135340386D01*
X215658295Y-136862077D01*
G37*
G36*
X155944430Y-85769259D02*
G01*
X155171888Y-88146900D01*
X152746694Y-87358907D01*
X153519236Y-84981266D01*
X155944430Y-85769259D01*
G37*
G36*
X169023640Y-87348238D02*
G01*
X168251098Y-89725879D01*
X165825904Y-88937886D01*
X166598446Y-86560245D01*
X169023640Y-87348238D01*
G37*
G36*
X62554734Y-126599636D02*
G01*
X61782192Y-128977277D01*
X59356998Y-128189284D01*
X60129540Y-125811643D01*
X62554734Y-126599636D01*
G37*
G36*
X75633944Y-128178615D02*
G01*
X74861402Y-130556256D01*
X72436208Y-129768263D01*
X73208750Y-127390622D01*
X75633944Y-128178615D01*
G37*
G36*
X251582526Y-153494262D02*
G01*
X252907324Y-155614382D01*
X250744802Y-156965676D01*
X249420004Y-154845556D01*
X251582526Y-153494262D01*
G37*
G36*
X261199249Y-144489953D02*
G01*
X262524047Y-146610073D01*
X260361525Y-147961367D01*
X259036727Y-145841247D01*
X261199249Y-144489953D01*
G37*
G36*
X225839721Y-97420430D02*
G01*
X226612263Y-99798071D01*
X224187069Y-100586064D01*
X223414527Y-98208423D01*
X225839721Y-97420430D01*
G37*
G36*
X237349126Y-91010084D02*
G01*
X238121668Y-93387725D01*
X235696474Y-94175718D01*
X234923932Y-91798077D01*
X237349126Y-91010084D01*
G37*
G36*
X255022960Y-125595291D02*
G01*
X255795502Y-127972932D01*
X253370308Y-128760925D01*
X252597766Y-126383284D01*
X255022960Y-125595291D01*
G37*
G36*
X266532365Y-119184945D02*
G01*
X267304907Y-121562586D01*
X264879713Y-122350579D01*
X264107171Y-119972938D01*
X266532365Y-119184945D01*
G37*
G36*
X328707948Y-83176869D02*
G01*
X328646145Y-82986658D01*
X330167836Y-82492231D01*
X330229639Y-82682442D01*
X328707948Y-83176869D01*
G37*
G36*
X327483425Y-84100473D02*
G01*
X327112605Y-82959205D01*
X328634295Y-82464777D01*
X329005115Y-83606045D01*
X327483425Y-84100473D01*
G37*
G36*
X236718334Y-157590446D02*
G01*
X235045507Y-159448309D01*
X233150488Y-157742026D01*
X234823315Y-155884163D01*
X236718334Y-157590446D01*
G37*
G36*
X248024559Y-164352709D02*
G01*
X246351732Y-166210572D01*
X244456713Y-164504289D01*
X246129540Y-162646426D01*
X248024559Y-164352709D01*
G37*
G36*
X88728145Y-122692433D02*
G01*
X88666342Y-122882644D01*
X87144651Y-122388217D01*
X87206454Y-122198006D01*
X88728145Y-122692433D01*
G37*
G36*
X90261685Y-122664980D02*
G01*
X89890865Y-123806248D01*
X88369175Y-123311820D01*
X88739995Y-122170552D01*
X90261685Y-122664980D01*
G37*
G36*
X295729858Y-104974934D02*
G01*
X295668055Y-104784723D01*
X297189746Y-104290296D01*
X297251549Y-104480507D01*
X295729858Y-104974934D01*
G37*
G36*
X294505335Y-105898538D02*
G01*
X294134515Y-104757270D01*
X295656205Y-104262842D01*
X296027025Y-105404110D01*
X294505335Y-105898538D01*
G37*
G36*
X178179184Y-169304955D02*
G01*
X178313010Y-169453584D01*
X177123978Y-170524193D01*
X176990152Y-170375564D01*
X178179184Y-169304955D01*
G37*
G36*
X178922178Y-167963143D02*
G01*
X179725135Y-168854916D01*
X178536104Y-169925525D01*
X177733147Y-169033752D01*
X178922178Y-167963143D01*
G37*
G36*
X164119405Y-80295565D02*
G01*
X163748585Y-81436833D01*
X162226895Y-80942405D01*
X162597715Y-79801137D01*
X164119405Y-80295565D01*
G37*
G36*
X162585865Y-80323018D02*
G01*
X162524062Y-80513229D01*
X161002371Y-80018802D01*
X161064174Y-79828591D01*
X162585865Y-80323018D01*
G37*
G36*
X138533215Y-77708371D02*
G01*
X137760673Y-80086012D01*
X135335479Y-79298019D01*
X136108021Y-76920378D01*
X138533215Y-77708371D01*
G37*
G36*
X151612425Y-79287350D02*
G01*
X150839883Y-81664991D01*
X148414689Y-80876998D01*
X149187231Y-78499357D01*
X151612425Y-79287350D01*
G37*
G36*
X173354121Y-93829654D02*
G01*
X172581579Y-96207295D01*
X170156385Y-95419302D01*
X170928927Y-93041661D01*
X173354121Y-93829654D01*
G37*
G36*
X186433331Y-95408633D02*
G01*
X185660789Y-97786274D01*
X183235595Y-96998281D01*
X184008137Y-94620640D01*
X186433331Y-95408633D01*
G37*
G36*
X219952946Y-79302805D02*
G01*
X220725488Y-81680446D01*
X218300294Y-82468439D01*
X217527752Y-80090798D01*
X219952946Y-79302805D01*
G37*
G36*
X231462351Y-72892459D02*
G01*
X232234893Y-75270100D01*
X229809699Y-76058093D01*
X229037157Y-73680452D01*
X231462351Y-72892459D01*
G37*
G36*
X110223832Y-122874896D02*
G01*
X109853012Y-124016164D01*
X108331322Y-123521736D01*
X108702142Y-122380468D01*
X110223832Y-122874896D01*
G37*
G36*
X108690292Y-122902349D02*
G01*
X108628489Y-123092560D01*
X107106798Y-122598133D01*
X107168601Y-122407922D01*
X108690292Y-122902349D01*
G37*
G36*
X336639997Y-130190758D02*
G01*
X337412539Y-132568399D01*
X334987345Y-133356392D01*
X334214803Y-130978751D01*
X336639997Y-130190758D01*
G37*
G36*
X348149402Y-123780412D02*
G01*
X348921944Y-126158053D01*
X346496750Y-126946046D01*
X345724208Y-124568405D01*
X348149402Y-123780412D01*
G37*
G36*
X150057656Y-103886886D02*
G01*
X149285114Y-106264527D01*
X146859920Y-105476534D01*
X147632462Y-103098893D01*
X150057656Y-103886886D01*
G37*
G36*
X163136866Y-105465865D02*
G01*
X162364324Y-107843506D01*
X159939130Y-107055513D01*
X160711672Y-104677872D01*
X163136866Y-105465865D01*
G37*
G36*
X75712386Y-101103716D02*
G01*
X75650583Y-101293927D01*
X74128892Y-100799500D01*
X74190695Y-100609289D01*
X75712386Y-101103716D01*
G37*
G36*
X77245926Y-101076263D02*
G01*
X76875106Y-102217531D01*
X75353416Y-101723103D01*
X75724236Y-100581835D01*
X77245926Y-101076263D01*
G37*
G36*
X302694121Y-69453936D02*
G01*
X302323301Y-68312668D01*
X303844991Y-67818240D01*
X304215811Y-68959508D01*
X302694121Y-69453936D01*
G37*
G36*
X303918644Y-68530332D02*
G01*
X303856841Y-68340121D01*
X305378532Y-67845694D01*
X305440335Y-68035905D01*
X303918644Y-68530332D01*
G37*
G36*
X272434173Y-117534402D02*
G01*
X273206715Y-119912043D01*
X270781521Y-120700036D01*
X270008979Y-118322395D01*
X272434173Y-117534402D01*
G37*
G36*
X283943578Y-111124056D02*
G01*
X284716120Y-113501697D01*
X282290926Y-114289690D01*
X281518384Y-111912049D01*
X283943578Y-111124056D01*
G37*
G36*
X175643845Y-106474081D02*
G01*
X175273025Y-107615349D01*
X173751335Y-107120921D01*
X174122155Y-105979653D01*
X175643845Y-106474081D01*
G37*
G36*
X174110305Y-106501534D02*
G01*
X174048502Y-106691745D01*
X172526811Y-106197318D01*
X172588614Y-106007107D01*
X174110305Y-106501534D01*
G37*
G36*
X339256972Y-120335727D02*
G01*
X338886152Y-119194459D01*
X340407842Y-118700031D01*
X340778662Y-119841299D01*
X339256972Y-120335727D01*
G37*
G36*
X340481495Y-119412123D02*
G01*
X340419692Y-119221912D01*
X341941383Y-118727485D01*
X342003186Y-118917696D01*
X340481495Y-119412123D01*
G37*
G36*
X330123079Y-110141304D02*
G01*
X330895621Y-112518945D01*
X328470427Y-113306938D01*
X327697885Y-110929297D01*
X330123079Y-110141304D01*
G37*
G36*
X341632484Y-103730958D02*
G01*
X342405026Y-106108599D01*
X339979832Y-106896592D01*
X339207290Y-104518951D01*
X341632484Y-103730958D01*
G37*
G36*
X87485934Y-64868463D02*
G01*
X87424131Y-65058674D01*
X85902440Y-64564247D01*
X85964243Y-64374036D01*
X87485934Y-64868463D01*
G37*
G36*
X89019474Y-64841010D02*
G01*
X88648654Y-65982278D01*
X87126964Y-65487850D01*
X87497784Y-64346582D01*
X89019474Y-64841010D01*
G37*
G36*
X161352918Y-168552703D02*
G01*
X163025745Y-170410566D01*
X161130726Y-172116849D01*
X159457899Y-170258986D01*
X161352918Y-168552703D01*
G37*
G36*
X169259960Y-158015264D02*
G01*
X170932787Y-159873127D01*
X169037768Y-161579410D01*
X167364941Y-159721547D01*
X169259960Y-158015264D01*
G37*
G36*
X321596651Y-65982847D02*
G01*
X321225831Y-64841579D01*
X322747521Y-64347151D01*
X323118341Y-65488419D01*
X321596651Y-65982847D01*
G37*
G36*
X322821174Y-65059243D02*
G01*
X322759371Y-64869032D01*
X324281062Y-64374605D01*
X324342865Y-64564816D01*
X322821174Y-65059243D01*
G37*
G36*
X150812318Y-116558270D02*
G01*
X150750515Y-116748481D01*
X149228824Y-116254054D01*
X149290627Y-116063843D01*
X150812318Y-116558270D01*
G37*
G36*
X152345858Y-116530817D02*
G01*
X151975038Y-117672085D01*
X150453348Y-117177657D01*
X150824168Y-116036389D01*
X152345858Y-116530817D01*
G37*
G36*
X113822403Y-92113338D02*
G01*
X113049861Y-94490979D01*
X110624667Y-93702986D01*
X111397209Y-91325345D01*
X113822403Y-92113338D01*
G37*
G36*
X126901613Y-93692317D02*
G01*
X126129071Y-96069958D01*
X123703877Y-95281965D01*
X124476419Y-92904324D01*
X126901613Y-93692317D01*
G37*
G36*
X144419990Y-59590745D02*
G01*
X143647448Y-61968386D01*
X141222254Y-61180393D01*
X141994796Y-58802752D01*
X144419990Y-59590745D01*
G37*
G36*
X157499200Y-61169724D02*
G01*
X156726658Y-63547365D01*
X154301464Y-62759372D01*
X155074006Y-60381731D01*
X157499200Y-61169724D01*
G37*
G36*
X144170884Y-122004513D02*
G01*
X143398342Y-124382154D01*
X140973148Y-123594161D01*
X141745690Y-121216520D01*
X144170884Y-122004513D01*
G37*
G36*
X157250094Y-123583492D02*
G01*
X156477552Y-125961133D01*
X154052358Y-125173140D01*
X154824900Y-122795499D01*
X157250094Y-123583492D01*
G37*
G36*
X119709177Y-73995711D02*
G01*
X118936635Y-76373352D01*
X116511441Y-75585359D01*
X117283983Y-73207718D01*
X119709177Y-73995711D01*
G37*
G36*
X132788387Y-75574690D02*
G01*
X132015845Y-77952331D01*
X129590651Y-77164338D01*
X130363193Y-74786697D01*
X132788387Y-75574690D01*
G37*
G36*
X163870297Y-142709333D02*
G01*
X163499477Y-143850601D01*
X161977787Y-143356173D01*
X162348607Y-142214905D01*
X163870297Y-142709333D01*
G37*
G36*
X162336757Y-142736786D02*
G01*
X162274954Y-142926997D01*
X160753263Y-142432570D01*
X160815066Y-142242359D01*
X162336757Y-142736786D01*
G37*
G36*
X168223533Y-124619160D02*
G01*
X168161730Y-124809371D01*
X166640039Y-124314944D01*
X166701842Y-124124733D01*
X168223533Y-124619160D01*
G37*
G36*
X169757073Y-124591707D02*
G01*
X169386253Y-125732975D01*
X167864563Y-125238547D01*
X168235383Y-124097279D01*
X169757073Y-124591707D01*
G37*
G36*
X93860954Y-91903649D02*
G01*
X93088412Y-94281290D01*
X90663218Y-93493297D01*
X91435760Y-91115656D01*
X93860954Y-91903649D01*
G37*
G36*
X106940164Y-93482628D02*
G01*
X106167622Y-95860269D01*
X103742428Y-95072276D01*
X104514970Y-92694635D01*
X106940164Y-93482628D01*
G37*
G36*
X194804487Y-138457421D02*
G01*
X193663219Y-138086601D01*
X194157647Y-136564911D01*
X195298915Y-136935731D01*
X194804487Y-138457421D01*
G37*
G36*
X194777034Y-136923881D02*
G01*
X194586823Y-136862078D01*
X195081250Y-135340387D01*
X195271461Y-135402190D01*
X194777034Y-136923881D01*
G37*
G36*
X231726496Y-115538060D02*
G01*
X232499038Y-117915701D01*
X230073844Y-118703694D01*
X229301302Y-116326053D01*
X231726496Y-115538060D01*
G37*
G36*
X243235901Y-109127714D02*
G01*
X244008443Y-111505355D01*
X241583249Y-112293348D01*
X240810707Y-109915707D01*
X243235901Y-109127714D01*
G37*
G36*
X346996191Y-139462297D02*
G01*
X346934388Y-139272086D01*
X348456079Y-138777659D01*
X348517882Y-138967870D01*
X346996191Y-139462297D01*
G37*
G36*
X345771668Y-140385901D02*
G01*
X345400848Y-139244633D01*
X346922538Y-138750205D01*
X347293358Y-139891473D01*
X345771668Y-140385901D01*
G37*
G36*
X282792594Y-126805220D02*
G01*
X282730791Y-126615009D01*
X284252482Y-126120582D01*
X284314285Y-126310793D01*
X282792594Y-126805220D01*
G37*
G36*
X281568071Y-127728824D02*
G01*
X281197251Y-126587556D01*
X282718941Y-126093128D01*
X283089761Y-127234396D01*
X281568071Y-127728824D01*
G37*
G36*
X63310917Y-139271516D02*
G01*
X63249114Y-139461727D01*
X61727423Y-138967300D01*
X61789226Y-138777089D01*
X63310917Y-139271516D01*
G37*
G36*
X64844457Y-139244063D02*
G01*
X64473637Y-140385331D01*
X62951947Y-139890903D01*
X63322767Y-138749635D01*
X64844457Y-139244063D01*
G37*
G36*
X127884153Y-68522017D02*
G01*
X127513333Y-69663285D01*
X125991643Y-69168857D01*
X126362463Y-68027589D01*
X127884153Y-68522017D01*
G37*
G36*
X126350613Y-68549470D02*
G01*
X126288810Y-68739681D01*
X124767119Y-68245254D01*
X124828922Y-68055043D01*
X126350613Y-68549470D01*
G37*
G36*
X121997379Y-86639643D02*
G01*
X121626559Y-87780911D01*
X120104869Y-87286483D01*
X120475689Y-86145215D01*
X121997379Y-86639643D01*
G37*
G36*
X120463839Y-86667096D02*
G01*
X120402036Y-86857307D01*
X118880345Y-86362880D01*
X118942148Y-86172669D01*
X120463839Y-86667096D01*
G37*
G36*
X96148456Y-104547353D02*
G01*
X95777636Y-105688621D01*
X94255946Y-105194193D01*
X94626766Y-104052925D01*
X96148456Y-104547353D01*
G37*
G36*
X94614916Y-104574806D02*
G01*
X94553113Y-104765017D01*
X93031422Y-104270590D01*
X93093225Y-104080379D01*
X94614916Y-104574806D01*
G37*
G36*
X288618562Y-87780912D02*
G01*
X288247742Y-86639644D01*
X289769432Y-86145216D01*
X290140252Y-87286484D01*
X288618562Y-87780912D01*
G37*
G36*
X289843085Y-86857308D02*
G01*
X289781282Y-86667097D01*
X291302973Y-86172670D01*
X291364776Y-86362881D01*
X289843085Y-86857308D01*
G37*
G36*
X237613268Y-133655685D02*
G01*
X238385810Y-136033326D01*
X235960616Y-136821319D01*
X235188074Y-134443678D01*
X237613268Y-133655685D01*
G37*
G36*
X249122673Y-127245339D02*
G01*
X249895215Y-129622980D01*
X247470021Y-130410973D01*
X246697479Y-128033332D01*
X249122673Y-127245339D01*
G37*
G36*
X263907747Y-73375944D02*
G01*
X263536927Y-72234676D01*
X265058617Y-71740248D01*
X265429437Y-72881516D01*
X263907747Y-73375944D01*
G37*
G36*
X265132270Y-72452340D02*
G01*
X265070467Y-72262129D01*
X266592158Y-71767702D01*
X266653961Y-71957913D01*
X265132270Y-72452340D01*
G37*
G36*
X133401105Y-108497381D02*
G01*
X133339302Y-108687592D01*
X131817611Y-108193165D01*
X131879414Y-108002954D01*
X133401105Y-108497381D01*
G37*
G36*
X134934645Y-108469928D02*
G01*
X134563825Y-109611196D01*
X133042135Y-109116768D01*
X133412955Y-107975500D01*
X134934645Y-108469928D01*
G37*
G36*
X182641585Y-126892869D02*
G01*
X181869043Y-129270510D01*
X179443849Y-128482517D01*
X180216391Y-126104876D01*
X182641585Y-126892869D01*
G37*
G36*
X195720795Y-128471848D02*
G01*
X194948253Y-130849489D01*
X192523059Y-130061496D01*
X193295601Y-127683855D01*
X195720795Y-128471848D01*
G37*
G36*
X260660627Y-81299145D02*
G01*
X261433169Y-83676786D01*
X259007975Y-84464779D01*
X258235433Y-82087138D01*
X260660627Y-81299145D01*
G37*
G36*
X272170032Y-74888799D02*
G01*
X272942574Y-77266440D01*
X270517380Y-78054433D01*
X269744838Y-75676792D01*
X272170032Y-74888799D01*
G37*
G36*
X269794521Y-91493568D02*
G01*
X269423701Y-90352300D01*
X270945391Y-89857872D01*
X271316211Y-90999140D01*
X269794521Y-91493568D01*
G37*
G36*
X271019044Y-90569964D02*
G01*
X270957241Y-90379753D01*
X272478932Y-89885326D01*
X272540735Y-90075537D01*
X271019044Y-90569964D01*
G37*
G36*
X109749608Y-148479525D02*
G01*
X109735657Y-148679038D01*
X108139554Y-148567427D01*
X108153505Y-148367914D01*
X109749608Y-148479525D01*
G37*
G36*
X111230954Y-148081890D02*
G01*
X111147246Y-149278967D01*
X109551144Y-149167356D01*
X109634852Y-147970279D01*
X111230954Y-148081890D01*
G37*
G36*
X292703844Y-137177335D02*
G01*
X292878235Y-139671246D01*
X290334446Y-139849125D01*
X290160055Y-137355214D01*
X292703844Y-137177335D01*
G37*
G36*
X305422173Y-133741780D02*
G01*
X305596564Y-136235691D01*
X303052775Y-136413570D01*
X302878384Y-133919659D01*
X305422173Y-133741780D01*
G37*
G36*
X243820893Y-174185515D02*
G01*
X245493720Y-172327652D01*
X247388739Y-174033935D01*
X245715912Y-175891798D01*
X243820893Y-174185515D01*
G37*
G36*
X232514668Y-167423252D02*
G01*
X234187495Y-165565389D01*
X236082514Y-167271672D01*
X234409687Y-169129535D01*
X232514668Y-167423252D01*
G37*
G36*
X105634501Y-55668396D02*
G01*
X104861959Y-58046037D01*
X102436765Y-57258044D01*
X103209307Y-54880403D01*
X105634501Y-55668396D01*
G37*
G36*
X118713711Y-57247375D02*
G01*
X117941169Y-59625016D01*
X115515975Y-58837023D01*
X116288517Y-56459382D01*
X118713711Y-57247375D01*
G37*
G36*
X71359153Y-119193890D02*
G01*
X70988333Y-120335158D01*
X69466643Y-119840730D01*
X69837463Y-118699462D01*
X71359153Y-119193890D01*
G37*
G36*
X69825613Y-119221343D02*
G01*
X69763810Y-119411554D01*
X68242119Y-118917127D01*
X68303922Y-118726916D01*
X69825613Y-119221343D01*
G37*
G36*
X105950281Y-136366992D02*
G01*
X105775890Y-138860903D01*
X103232101Y-138683024D01*
X103406492Y-136189113D01*
X105950281Y-136366992D01*
G37*
G36*
X119022973Y-134734921D02*
G01*
X118848582Y-137228832D01*
X116304793Y-137050953D01*
X116479184Y-134557042D01*
X119022973Y-134734921D01*
G37*
G36*
X178599497Y-163223712D02*
G01*
X176926670Y-161365849D01*
X178821689Y-159659566D01*
X180494516Y-161517429D01*
X178599497Y-163223712D01*
G37*
G36*
X170692455Y-173761151D02*
G01*
X169019628Y-171903288D01*
X170914647Y-170197005D01*
X172587474Y-172054868D01*
X170692455Y-173761151D01*
G37*
G36*
X258270080Y-117672084D02*
G01*
X257899260Y-116530816D01*
X259420950Y-116036388D01*
X259791770Y-117177656D01*
X258270080Y-117672084D01*
G37*
G36*
X259494603Y-116748480D02*
G01*
X259432800Y-116558269D01*
X260954491Y-116063842D01*
X261016294Y-116254053D01*
X259494603Y-116748480D01*
G37*
G36*
X80845200Y-70314934D02*
G01*
X80072658Y-72692575D01*
X77647464Y-71904582D01*
X78420006Y-69526941D01*
X80845200Y-70314934D01*
G37*
G36*
X93924410Y-71893913D02*
G01*
X93151868Y-74271554D01*
X90726674Y-73483561D01*
X91499216Y-71105920D01*
X93924410Y-71893913D01*
G37*
G36*
X314467668Y-105689190D02*
G01*
X314096848Y-104547922D01*
X315618538Y-104053494D01*
X315989358Y-105194762D01*
X314467668Y-105689190D01*
G37*
G36*
X315692191Y-104765586D02*
G01*
X315630388Y-104575375D01*
X317152079Y-104080948D01*
X317213882Y-104271159D01*
X315692191Y-104765586D01*
G37*
G36*
X254773853Y-63181522D02*
G01*
X255546395Y-65559163D01*
X253121201Y-66347156D01*
X252348659Y-63969515D01*
X254773853Y-63181522D01*
G37*
G36*
X266283258Y-56771176D02*
G01*
X267055800Y-59148817D01*
X264630606Y-59936810D01*
X263858064Y-57559169D01*
X266283258Y-56771176D01*
G37*
G36*
X69071651Y-106550185D02*
G01*
X68299109Y-108927826D01*
X65873915Y-108139833D01*
X66646457Y-105762192D01*
X69071651Y-106550185D01*
G37*
G36*
X82150861Y-108129164D02*
G01*
X81378319Y-110506805D01*
X78953125Y-109718812D01*
X79725667Y-107341171D01*
X82150861Y-108129164D01*
G37*
G36*
X283956310Y-68739681D02*
G01*
X283894507Y-68549470D01*
X285416198Y-68055043D01*
X285478001Y-68245254D01*
X283956310Y-68739681D01*
G37*
G36*
X282731787Y-69663285D02*
G01*
X282360967Y-68522017D01*
X283882657Y-68027589D01*
X284253477Y-69168857D01*
X282731787Y-69663285D01*
G37*
G36*
X293560228Y-59259518D02*
G01*
X294332770Y-61637159D01*
X291907576Y-62425152D01*
X291135034Y-60047511D01*
X293560228Y-59259518D01*
G37*
G36*
X305069633Y-52849172D02*
G01*
X305842175Y-55226813D01*
X303416981Y-56014806D01*
X302644439Y-53637165D01*
X305069633Y-52849172D01*
G37*
G36*
X179240894Y-75712028D02*
G01*
X178468352Y-78089669D01*
X176043158Y-77301676D01*
X176815700Y-74924035D01*
X179240894Y-75712028D01*
G37*
G36*
X192320104Y-77291007D02*
G01*
X191547562Y-79668648D01*
X189122368Y-78880655D01*
X189894910Y-76503014D01*
X192320104Y-77291007D01*
G37*
G36*
X271143311Y-142818175D02*
G01*
X271915853Y-145195816D01*
X269490659Y-145983809D01*
X268718117Y-143606168D01*
X271143311Y-142818175D01*
G37*
G36*
X282652716Y-136407829D02*
G01*
X283425258Y-138785470D01*
X281000064Y-139573463D01*
X280227522Y-137195822D01*
X282652716Y-136407829D01*
G37*
G36*
X99747728Y-73786024D02*
G01*
X98975186Y-76163665D01*
X96549992Y-75375672D01*
X97322534Y-72998031D01*
X99747728Y-73786024D01*
G37*
G36*
X112826938Y-75365003D02*
G01*
X112054396Y-77742644D01*
X109629202Y-76954651D01*
X110401744Y-74577010D01*
X112826938Y-75365003D01*
G37*
G36*
X309805417Y-86647960D02*
G01*
X309743614Y-86457749D01*
X311265305Y-85963322D01*
X311327108Y-86153533D01*
X309805417Y-86647960D01*
G37*
G36*
X308580894Y-87571564D02*
G01*
X308210074Y-86430296D01*
X309731764Y-85935868D01*
X310102584Y-87077136D01*
X308580894Y-87571564D01*
G37*
G36*
X262910004Y-161177023D02*
G01*
X262274101Y-160159366D01*
X263630978Y-159311495D01*
X264266881Y-160329152D01*
X262910004Y-161177023D01*
G37*
G36*
X263874714Y-159984616D02*
G01*
X263768731Y-159815007D01*
X265125608Y-158967136D01*
X265231591Y-159136745D01*
X263874714Y-159984616D01*
G37*
G36*
X158232633Y-98413190D02*
G01*
X157861813Y-99554458D01*
X156340123Y-99060030D01*
X156710943Y-97918762D01*
X158232633Y-98413190D01*
G37*
G36*
X156699093Y-98440643D02*
G01*
X156637290Y-98630854D01*
X155115599Y-98136427D01*
X155177402Y-97946216D01*
X156699093Y-98440643D01*
G37*
G36*
X102035231Y-86429726D02*
G01*
X101664411Y-87570994D01*
X100142721Y-87076566D01*
X100513541Y-85935298D01*
X102035231Y-86429726D01*
G37*
G36*
X100501691Y-86457179D02*
G01*
X100439888Y-86647390D01*
X98918197Y-86152963D01*
X98980000Y-85962752D01*
X100501691Y-86457179D01*
G37*
G36*
X275681295Y-109611197D02*
G01*
X275310475Y-108469929D01*
X276832165Y-107975501D01*
X277202985Y-109116769D01*
X275681295Y-109611197D01*
G37*
G36*
X276905818Y-108687593D02*
G01*
X276844015Y-108497382D01*
X278365706Y-108002955D01*
X278427509Y-108193166D01*
X276905818Y-108687593D01*
G37*
G36*
X234972091Y-107615348D02*
G01*
X234601271Y-106474080D01*
X236122961Y-105979652D01*
X236493781Y-107120920D01*
X234972091Y-107615348D01*
G37*
G36*
X236196614Y-106691744D02*
G01*
X236134811Y-106501533D01*
X237656502Y-106007106D01*
X237718305Y-106197317D01*
X236196614Y-106691744D01*
G37*
G36*
X167467346Y-111947281D02*
G01*
X166694804Y-114324922D01*
X164269610Y-113536929D01*
X165042152Y-111159288D01*
X167467346Y-111947281D01*
G37*
G36*
X180546556Y-113526260D02*
G01*
X179774014Y-115903901D01*
X177348820Y-115115908D01*
X178121362Y-112738267D01*
X180546556Y-113526260D01*
G37*
G36*
X161831203Y-67651631D02*
G01*
X161058661Y-70029272D01*
X158633467Y-69241279D01*
X159406009Y-66863638D01*
X161831203Y-67651631D01*
G37*
G36*
X174910413Y-69230610D02*
G01*
X174137871Y-71608251D01*
X171712677Y-70820258D01*
X172485219Y-68442617D01*
X174910413Y-69230610D01*
G37*
G36*
X301616632Y-123092561D02*
G01*
X301554829Y-122902350D01*
X303076520Y-122407923D01*
X303138323Y-122598134D01*
X301616632Y-123092561D01*
G37*
G36*
X300392109Y-124016165D02*
G01*
X300021289Y-122874897D01*
X301542979Y-122380469D01*
X301913799Y-123521737D01*
X300392109Y-124016165D01*
G37*
G36*
X86731971Y-52197305D02*
G01*
X85959429Y-54574946D01*
X83534235Y-53786953D01*
X84306777Y-51409312D01*
X86731971Y-52197305D01*
G37*
G36*
X99811181Y-53776284D02*
G01*
X99038639Y-56153925D01*
X96613445Y-55365932D01*
X97385987Y-52988291D01*
X99811181Y-53776284D01*
G37*
M02*
