M48
; DRILL file {KiCad (6.0.2-0)} date Saturday, February 19, 2022 at 09:02:34 AM
; FORMAT={-:-/ absolute / metric / decimal}
; #@! TF.CreationDate,2022-02-19T09:02:34+00:00
; #@! TF.GenerationSoftware,Kicad,Pcbnew,(6.0.2-0)
; #@! TF.FileFunction,NonPlated,1,2,NPTH
FMAT,2
METRIC
; #@! TA.AperFunction,NonPlated,NPTH,ComponentDrill
T1C1.500
; #@! TA.AperFunction,NonPlated,NPTH,ComponentDrill
T2C1.900
; #@! TA.AperFunction,NonPlated,NPTH,ComponentDrill
T3C3.000
; #@! TA.AperFunction,NonPlated,NPTH,ComponentDrill
T4C4.100
%
G90
G05
T2
X62.078Y-130.43
X68.595Y-110.38
X71.741Y-133.569
X74.482Y-92.263
X78.257Y-113.52
X80.368Y-74.145
X84.144Y-95.402
X86.255Y-56.027
X87.497Y-113.851
X90.031Y-77.285
X93.384Y-95.734
X95.918Y-59.167
X97.16Y-116.991
X99.271Y-77.616
X103.047Y-98.873
X105.158Y-59.498
X106.414Y-140.199
X107.459Y-114.061
X108.934Y-80.756
X113.346Y-95.943
X114.82Y-62.638
X116.549Y-140.907
X117.121Y-117.201
X119.232Y-77.826
X123.008Y-99.083
X125.119Y-59.708
X126.283Y-117.774
X127.574Y-143.057
X128.895Y-80.965
X132.17Y-99.656
X134.782Y-62.848
X135.945Y-120.913
X137.236Y-146.197
X138.056Y-81.538
X141.832Y-102.796
X143.694Y-125.835
X143.943Y-63.421
X147.419Y-150.938
X147.719Y-84.678
X149.581Y-107.717
X153.357Y-128.974
X153.606Y-66.56
X155.468Y-89.599
X156.035Y-156.322
X159.243Y-110.857
X161.104Y-133.895
X161.354Y-71.482
X164.431Y-170.881
X165.13Y-92.739
X166.99Y-115.777
X167.971Y-167.694
X170.766Y-137.035
X171.017Y-74.621
X171.982Y-164.082
X172.877Y-97.66
X175.521Y-160.896
X176.653Y-118.917
X178.764Y-79.542
X182.165Y-130.723
X182.54Y-100.799
X188.427Y-82.682
X191.827Y-133.863
X218.418Y-133.863
X221.818Y-82.682
X227.705Y-100.799
X228.08Y-130.723
X231.481Y-79.542
X233.592Y-118.917
X234.725Y-160.895
X237.368Y-97.66
X238.264Y-164.082
X239.228Y-74.621
X239.479Y-137.035
X242.275Y-167.694
X243.255Y-115.777
X245.115Y-92.739
X245.814Y-170.881
X248.891Y-71.482
X249.141Y-133.895
X251.002Y-110.857
X254.21Y-156.322
X254.778Y-89.599
X256.639Y-66.56
X256.888Y-128.974
X260.664Y-107.717
X262.526Y-84.678
X262.826Y-150.938
X266.302Y-63.421
X266.551Y-125.835
X268.413Y-102.796
X272.189Y-81.538
X273.009Y-146.197
X274.3Y-120.913
X275.463Y-62.848
X278.076Y-99.656
X281.35Y-80.965
X282.671Y-143.057
X283.962Y-117.774
X285.126Y-59.708
X287.237Y-99.083
X291.013Y-77.826
X293.124Y-117.201
X293.696Y-140.907
X295.426Y-62.638
X296.9Y-95.943
X301.312Y-80.756
X302.786Y-114.061
X303.832Y-140.198
X305.088Y-59.499
X307.199Y-98.874
X310.975Y-77.616
X313.086Y-116.991
X314.328Y-59.167
X316.862Y-95.734
X320.215Y-77.285
X322.749Y-113.852
X323.991Y-56.028
X326.102Y-95.403
X329.878Y-74.145
X331.989Y-113.52
X335.764Y-92.263
X338.505Y-133.57
X341.651Y-110.381
X348.168Y-130.43
T3
X64.071Y-128.406
X70.587Y-108.357
X70.895Y-127.953
X76.474Y-90.239
X77.412Y-107.904
X82.361Y-72.122
X83.298Y-89.786
X88.248Y-54.004
X89.185Y-71.668
X89.49Y-111.828
X95.072Y-53.551
X95.377Y-93.711
X96.314Y-111.375
X101.264Y-75.593
X102.201Y-93.257
X107.15Y-57.475
X107.858Y-137.753
X108.088Y-75.139
X109.451Y-112.038
X113.974Y-57.022
X114.37Y-135.663
X115.338Y-93.92
X116.276Y-111.584
X121.225Y-75.803
X122.162Y-93.467
X127.112Y-57.685
X128.049Y-75.349
X128.276Y-115.75
X129.566Y-141.034
X133.936Y-57.232
X134.162Y-97.633
X135.1Y-115.297
X136.39Y-140.581
X140.049Y-79.515
X140.986Y-97.179
X145.687Y-123.811
X145.936Y-61.398
X146.873Y-79.062
X149.842Y-149.456
X151.573Y-105.694
X152.511Y-123.358
X152.76Y-60.944
X156.573Y-150.667
X157.46Y-87.576
X158.398Y-105.24
X163.096Y-131.872
X163.347Y-69.458
X163.676Y-168.143
X164.284Y-87.123
X166.695Y-162.007
X168.983Y-113.754
X169.921Y-131.418
X170.171Y-69.005
X173.257Y-169.77
X174.87Y-95.637
X175.807Y-113.301
X176.277Y-163.633
X180.757Y-77.519
X181.694Y-95.183
X184.157Y-128.7
X187.581Y-77.065
X190.982Y-128.246
X218.841Y-131.054
X222.241Y-79.874
X224.095Y-126.676
X227.496Y-75.496
X228.128Y-97.991
X233.382Y-93.613
X234.015Y-116.109
X236.752Y-169.557
X237.368Y-159.858
X239.269Y-111.731
X239.651Y-71.813
X239.902Y-134.226
X243.171Y-171.918
X243.787Y-162.219
X244.905Y-67.435
X245.156Y-129.849
X245.538Y-89.931
X250.792Y-85.553
X251.425Y-108.048
X253.941Y-153.494
X256.679Y-103.671
X257.062Y-63.752
X257.311Y-126.166
X257.98Y-147.975
X262.317Y-59.374
X262.566Y-121.788
X262.949Y-81.87
X268.203Y-77.492
X268.836Y-99.988
X273.432Y-143.389
X274.09Y-95.61
X274.723Y-118.105
X275.886Y-60.04
X278.686Y-139.011
X279.977Y-113.727
X281.141Y-55.662
X281.773Y-78.157
X287.027Y-73.779
X287.66Y-96.275
X292.914Y-91.897
X293.547Y-114.393
X294.786Y-138.285
X295.849Y-59.83
X298.801Y-110.015
X300.944Y-135.308
X301.103Y-55.452
X301.735Y-77.948
X306.99Y-73.57
X307.622Y-96.066
X312.876Y-91.688
X313.509Y-114.183
X314.751Y-56.359
X318.763Y-109.805
X320.005Y-51.981
X320.638Y-74.477
X325.892Y-70.099
X326.525Y-92.594
X331.779Y-88.217
X332.411Y-110.712
X337.666Y-106.334
X338.928Y-130.762
X344.183Y-126.384
T4
X66.909Y-132.0
X73.426Y-111.95
X79.313Y-93.832
X85.2Y-75.715
X91.086Y-57.597
X92.329Y-115.421
X98.215Y-97.304
X104.102Y-79.186
X109.989Y-61.068
X111.482Y-140.553
X112.29Y-115.631
X118.177Y-97.513
X124.064Y-79.396
X129.95Y-61.278
X131.114Y-119.344
X132.405Y-144.627
X137.001Y-101.226
X142.888Y-83.108
X148.525Y-127.404
X148.774Y-64.991
X151.727Y-153.63
X154.412Y-109.287
X160.299Y-91.169
X165.935Y-135.465
X166.186Y-73.052
X168.207Y-167.482
X171.746Y-164.295
X171.822Y-117.347
X177.709Y-99.23
X183.595Y-81.112
X186.996Y-132.293
X223.249Y-132.293
X226.65Y-81.112
X232.537Y-99.23
X238.423Y-117.347
X238.5Y-164.295
X242.039Y-167.481
X244.059Y-73.052
X244.31Y-135.465
X249.946Y-91.169
X255.833Y-109.287
X258.518Y-153.63
X261.471Y-64.991
X261.72Y-127.404
X267.357Y-83.108
X273.244Y-101.226
X277.84Y-144.627
X279.131Y-119.344
X280.295Y-61.278
X286.181Y-79.396
X292.068Y-97.513
X297.955Y-115.631
X298.764Y-140.553
X300.257Y-61.069
X306.144Y-79.186
X312.031Y-97.304
X317.917Y-115.422
X319.16Y-57.598
X325.046Y-75.715
X330.933Y-93.833
X336.82Y-111.95
X343.337Y-132.0
T1
X181.469Y-131.18G85X181.871Y-129.944
G05
X192.121Y-134.641G85X192.523Y-133.405
G05
X218.124Y-134.641G85X217.722Y-133.405
G05
X228.776Y-131.18G85X228.374Y-129.944
G05
T0
M30
