<?xml version="1.0" encoding="UTF-8" standalone="no"?>
<!DOCTYPE svg PUBLIC "-//W3C//DTD SVG 1.1//EN" "http://www.w3.org/Graphics/SVG/1.1/DTD/svg11.dtd">
<svg width="100%" height="100%" viewBox="0 0 842 596" version="1.1" xmlns="http://www.w3.org/2000/svg" xmlns:xlink="http://www.w3.org/1999/xlink" xml:space="preserve" xmlns:serif="http://www.serif.com/" style="fill-rule:evenodd;clip-rule:evenodd;stroke-linecap:round;stroke-linejoin:round;">
    <g transform="matrix(1.33333,0,0,-1.33333,23.961,806.352)">
        <g id="iris-switch-plate">
            <g id="g4125">
                <g id="g5217">
                    <g transform="matrix(0.971887,-0.23545,0.23545,0.971887,-19.7555,215.707)">
                        <g id="g5393" transform="matrix(1,-2.77556e-17,2.77556e-17,1,268.052,0.216)">
                            <path id="path5395" d="M-156.802,34.623C-159.919,35.096 -162.222,37.776 -162.222,40.928L-162.222,67.781C-162.222,71.301 -165.076,74.156 -168.597,74.156L-261.458,72.19C-264.98,72.19 -267.836,75.046 -267.836,78.568L-267.836,251.835C-267.836,254.719 -265.9,257.244 -263.116,257.994L-258.395,259.264C-86.678,306.962 -115.643,257.272 -6.289,280.084C101.381,309.848 52.886,340.773 227.394,376.952L232.172,377.983C234.992,378.59 237.869,377.231 239.188,374.667L318.486,220.611C320.098,217.479 318.865,213.633 315.734,212.021L232.217,171.257C229.086,169.646 227.855,165.802 229.466,162.671L241.756,138.796C243.199,135.993 242.377,132.556 239.822,130.709C181.858,81.916 100.089,37.977 54.886,27.566C9.931,16.135 -82.933,17.767 -156.802,34.623Z" style="fill:none;fill-rule:nonzero;stroke:rgb(215,34,39);stroke-width:0.43px;"/>
                        </g>
                        <g>
                            <g id="g5225" transform="matrix(1,2.77556e-17,-2.77556e-17,1,10.7536,80.6278)">
                                <path id="path5227" d="M0,0C0,-1.233 -1,-2.232 -2.232,-2.232C-3.465,-2.232 -4.465,-1.233 -4.465,0C-4.465,1.233 -3.465,2.232 -2.232,2.232C-1,2.232 0,1.233 0,0ZM565.571,137.015C566.135,135.919 567.481,135.488 568.577,136.052C569.673,136.617 570.105,137.962 569.541,139.059C568.976,140.155 567.63,140.586 566.534,140.021C565.438,139.457 565.007,138.112 565.571,137.015Z" style="fill:none;fill-rule:nonzero;stroke:rgb(198,32,39);stroke-width:0.43px;"/>
                            </g>
                            <g id="g5229" transform="matrix(1,2.77556e-17,-2.77556e-17,1,150.582,40.518)">
                                <path id="path5231" d="M0,0C0,-1.233 -1,-2.232 -2.232,-2.232C-3.465,-2.232 -4.465,-1.233 -4.465,0C-4.465,1.233 -3.465,2.232 -2.232,2.232C-1,2.232 0,1.233 0,0ZM319.775,77.469C320.339,76.372 321.685,75.942 322.781,76.506C323.877,77.07 324.309,78.416 323.744,79.512C323.18,80.608 321.834,81.039 320.738,80.475C319.642,79.911 319.21,78.565 319.775,77.469Z" style="fill:none;fill-rule:nonzero;stroke:rgb(198,32,39);stroke-width:0.43px;"/>
                            </g>
                            <g id="g5233" transform="matrix(1,2.77556e-17,-2.77556e-17,1,269.691,9.14347)">
                                <path id="path5235" d="M14.813,25.374C14.813,24.141 13.813,23.142 12.581,23.142C11.348,23.142 10.348,24.141 10.348,25.374C10.348,26.607 11.348,27.606 12.581,27.606C13.813,27.606 14.813,26.607 14.813,25.374ZM84.337,42.217C84.901,41.121 86.248,40.69 87.343,41.254C88.439,41.818 88.871,43.164 88.307,44.26C87.743,45.356 86.396,45.787 85.3,45.223C84.205,44.659 83.773,43.313 84.337,42.217Z" style="fill:none;fill-rule:nonzero;stroke:rgb(198,32,39);stroke-width:0.43px;"/>
                            </g>
                            <g id="g5245" transform="matrix(1,2.77556e-17,-2.77556e-17,1,219.261,262.196)">
                                <path id="path5247" d="M0,0C0,-1.233 -1,-2.232 -2.232,-2.232C-3.465,-2.232 -4.465,-1.233 -4.465,0C-4.465,1.233 -3.465,2.232 -2.232,2.232C-1,2.232 0,1.233 0,0ZM88.576,21.459C89.141,20.362 90.487,19.932 91.583,20.496C92.679,21.06 93.111,22.406 92.546,23.502C91.982,24.598 90.636,25.029 89.54,24.465C88.444,23.901 88.012,22.555 88.576,21.459Z" style="fill:none;fill-rule:nonzero;stroke:rgb(198,32,39);stroke-width:0.43px;"/>
                            </g>
                            <g id="g5249" transform="matrix(1,2.77556e-17,-2.77556e-17,1,113.894,274.237)">
                                <path id="path5251" d="M14.18,-1.195C14.18,-2.428 13.18,-3.427 11.948,-3.427C10.715,-3.427 9.715,-2.428 9.715,-1.195C9.715,0.038 10.715,1.037 11.948,1.037C13.18,1.037 14.18,0.038 14.18,-1.195ZM270.057,60.794C270.621,59.698 271.967,59.267 273.063,59.831C274.159,60.395 274.591,61.741 274.027,62.837C273.462,63.934 272.116,64.364 271.02,63.8C269.924,63.236 269.493,61.89 270.057,60.794Z" style="fill:none;fill-rule:nonzero;stroke:rgb(198,32,39);stroke-width:0.43px;"/>
                            </g>
                            <g id="g5253" transform="matrix(1,2.77556e-17,-2.77556e-17,1,10.3317,251.3)">
                                <path id="path5255" d="M0,0C0,-1.233 -1,-2.232 -2.232,-2.232C-3.465,-2.232 -4.465,-1.233 -4.465,0C-4.465,1.233 -3.465,2.232 -2.232,2.232C-1,2.232 0,1.233 0,0ZM488.258,118.286C488.822,117.189 490.169,116.759 491.264,117.323C492.36,117.887 492.792,119.233 492.228,120.329C491.664,121.425 490.317,121.856 489.221,121.292C488.126,120.728 487.694,119.382 488.258,118.286Z" style="fill:none;fill-rule:nonzero;stroke:rgb(198,32,39);stroke-width:0.43px;"/>
                            </g>
                            <g id="g5257" transform="matrix(1,2.77556e-17,-2.77556e-17,1,55.7067,206.66)">
                                <path id="path5259" d="M0,0C0,-1.233 -1,-2.232 -2.232,-2.232C-3.465,-2.232 -4.465,-1.233 -4.465,0C-4.465,1.233 -3.465,2.232 -2.232,2.232C-1,2.232 0,1.233 0,0ZM422.969,102.469C423.533,101.372 424.879,100.942 425.975,101.506C427.071,102.07 427.503,103.416 426.939,104.512C426.374,105.608 425.028,106.039 423.932,105.475C422.836,104.911 422.405,103.565 422.969,102.469Z" style="fill:none;fill-rule:nonzero;stroke:rgb(198,32,39);stroke-width:0.43px;"/>
                            </g>
                            <g id="g5261" transform="matrix(1,2.77556e-17,-2.77556e-17,1,55.7067,125.66)">
                                <path id="path5263" d="M0,0C0,-1.233 -1,-2.232 -2.232,-2.232C-3.465,-2.232 -4.465,-1.233 -4.465,0C-4.465,1.233 -3.465,2.232 -2.232,2.232C-1,2.232 0,1.233 0,0ZM460.039,111.449C460.604,110.353 461.95,109.922 463.045,110.486C464.142,111.051 464.573,112.396 464.009,113.493C463.445,114.589 462.099,115.02 461.002,114.455C459.907,113.891 459.475,112.546 460.039,111.449Z" style="fill:none;fill-rule:nonzero;stroke:rgb(198,32,39);stroke-width:0.43px;"/>
                            </g>
                            <g id="g5265" transform="matrix(1,2.77556e-17,-2.77556e-17,1,217.707,133.253)">
                                <path id="path5267" d="M0,0C0,-1.233 -1,-2.232 -2.232,-2.232C-3.465,-2.232 -4.465,-1.233 -4.465,0C-4.465,1.233 -3.465,2.232 -2.232,2.232C-1,2.232 0,1.233 0,0ZM150.526,36.466C151.09,35.37 152.436,34.939 153.532,35.503C154.628,36.068 155.06,37.413 154.495,38.51C153.931,39.606 152.585,40.037 151.489,39.472C150.393,38.908 149.961,37.563 150.526,36.466Z" style="fill:none;fill-rule:nonzero;stroke:rgb(198,32,39);stroke-width:0.43px;"/>
                            </g>
                            <g id="g5269" transform="matrix(1,2.77556e-17,-2.77556e-17,1,217.707,214.253)">
                                <path id="path5271" d="M0,0C0,-1.233 -1,-2.232 -2.232,-2.232C-3.465,-2.232 -4.465,-1.233 -4.465,0C-4.465,1.233 -3.465,2.232 -2.232,2.232C-1,2.232 0,1.233 0,0ZM113.455,27.486C114.019,26.389 115.366,25.959 116.461,26.523C117.557,27.087 117.989,28.433 117.425,29.529C116.861,30.625 115.514,31.056 114.418,30.492C113.323,29.928 112.891,28.582 113.455,27.486Z" style="fill:none;fill-rule:nonzero;stroke:rgb(198,32,39);stroke-width:0.43px;"/>
                            </g>
                            <g id="g5281" transform="matrix(1,2.77556e-17,-2.77556e-17,1,253.079,76.3516)">
                                <path id="path5283" d="M0,0C0,-1.233 -1,-2.232 -2.232,-2.232C-3.465,-2.232 -4.465,-1.233 -4.465,0C-4.465,1.233 -3.465,2.232 -2.232,2.232C-1,2.232 0,1.233 0,0ZM109.745,26.587C110.309,25.491 111.655,25.06 112.751,25.624C113.847,26.188 114.279,27.534 113.715,28.63C113.15,29.726 111.804,30.157 110.708,29.593C109.612,29.029 109.181,27.683 109.745,26.587Z" style="fill:none;fill-rule:nonzero;stroke:rgb(198,32,39);stroke-width:0.43px;"/>
                            </g>
                        </g>
                    </g>
                    <g transform="matrix(0.971887,-0.23545,0.23545,0.971887,-19.7555,215.707)">
                        <g id="g5285" transform="matrix(1,2.77556e-17,-2.77556e-17,1,200.772,79.6462)">
                            <path id="path5287" d="M0,0L0,-1.276L-1.701,-1.276L-1.701,-28.169L0,-28.169L0,-29.445L29.445,-29.445L29.445,-28.169L31.146,-28.169L31.146,-1.276L29.445,-1.276L29.445,0L0,0ZM207.051,50.16L207.635,49.026L209.147,49.804L221.455,25.893L219.943,25.114L220.527,23.98L194.346,10.504L193.762,11.638L192.25,10.86L179.942,34.772L181.454,35.55L180.87,36.684L207.051,50.16Z" style="fill:none;fill-rule:nonzero;stroke:rgb(58,83,164);stroke-width:0.43px;stroke-linecap:butt;stroke-linejoin:miter;"/>
                        </g>
                        <g id="g5289" transform="matrix(1,2.77556e-17,-2.77556e-17,1,160.272,84.7081)">
                            <path id="path5291" d="M0,0L0,-1.276L-1.701,-1.276L-1.701,-28.169L0,-28.169L0,-29.445L29.445,-29.445L29.445,-28.169L31.146,-28.169L31.146,-1.276L29.445,-1.276L29.445,0L0,0ZM281.244,68.134L281.828,67L283.34,67.778L295.648,43.867L294.136,43.088L294.719,41.954L268.539,28.478L267.955,29.612L266.443,28.834L254.135,52.746L255.647,53.524L255.063,54.658L281.244,68.134Z" style="fill:none;fill-rule:nonzero;stroke:rgb(58,83,164);stroke-width:0.43px;stroke-linecap:butt;stroke-linejoin:miter;"/>
                        </g>
                        <g transform="matrix(0.728915,0.176587,0.176587,-0.728915,-89.8687,378.54)">
                            <g id="g52891" serif:id="g5289">
                                <path d="M671.875,451.25L672.276,452.903L674.48,452.369L682.923,487.219L680.719,487.753L681.119,489.406L642.963,498.65L642.562,496.997L640.358,497.531L631.915,462.681L634.12,462.147L633.719,460.494L671.875,451.25ZM177.766,451.25L177.366,452.903L175.162,452.369L166.719,487.219L168.923,487.753L168.523,489.406L206.679,498.65L207.08,496.997L209.284,497.531L217.727,462.681L215.522,462.147L215.923,460.494L177.766,451.25Z" style="fill:none;stroke:rgb(58,83,164);stroke-width:0.43px;stroke-linecap:butt;stroke-linejoin:miter;"/>
                            </g>
                        </g>
                        <g id="g5293" transform="matrix(1,2.77556e-17,-2.77556e-17,1,18.5224,120.146)">
                            <path id="path5295" d="M0,0L0,-1.276L-1.701,-1.276L-1.701,-28.169L0,-28.169L0,-29.445L29.445,-29.445L29.445,-28.169L31.146,-28.169L31.146,-1.276L29.445,-1.276L29.445,0L0,0ZM532.809,129.078L533.393,127.944L534.905,128.723L547.213,104.811L545.701,104.032L546.285,102.898L520.104,89.422L519.52,90.557L518.008,89.778L505.7,113.69L507.212,114.468L506.628,115.603L532.809,129.078Z" style="fill:none;fill-rule:nonzero;stroke:rgb(58,83,164);stroke-width:0.43px;stroke-linecap:butt;stroke-linejoin:miter;"/>
                        </g>
                        <g id="g5297" transform="matrix(1,2.77556e-17,-2.77556e-17,1,59.0224,120.146)">
                            <path id="path5299" d="M0,0L0,-1.276L-1.701,-1.276L-1.701,-28.169L0,-28.169L0,-29.445L29.445,-29.445L29.445,-28.169L31.146,-28.169L31.146,-1.276L29.445,-1.276L29.445,0L0,0ZM456.299,110.543L456.883,109.409L458.395,110.187L470.703,86.276L469.191,85.497L469.775,84.363L443.595,70.887L443.011,72.021L441.498,71.243L429.19,95.155L430.703,95.933L430.119,97.067L456.299,110.543Z" style="fill:none;fill-rule:nonzero;stroke:rgb(58,83,164);stroke-width:0.43px;stroke-linecap:butt;stroke-linejoin:miter;"/>
                        </g>
                        <g id="g5301" transform="matrix(1,2.77556e-17,-2.77556e-17,1,221.022,125.208)">
                            <path id="path5303" d="M0,0L0,-1.276L-1.701,-1.276L-1.701,-28.169L0,-28.169L0,-29.445L29.445,-29.445L29.445,-28.169L31.146,-28.169L31.146,-1.276L29.445,-1.276L29.445,0L0,0ZM147.944,35.841L148.528,34.707L150.04,35.485L162.348,11.573L160.836,10.795L161.42,9.661L135.239,-3.815L134.656,-2.681L133.143,-3.459L120.835,20.452L122.347,21.231L121.764,22.365L147.944,35.841Z" style="fill:none;fill-rule:nonzero;stroke:rgb(58,83,164);stroke-width:0.43px;stroke-linecap:butt;stroke-linejoin:miter;"/>
                        </g>
                        <g id="g5305" transform="matrix(1,2.77556e-17,-2.77556e-17,1,99.5224,130.27)">
                            <path id="path5307" d="M0,0L0,-1.276L-1.701,-1.276L-1.701,-28.169L0,-28.169L0,-29.445L29.445,-29.445L29.445,-28.169L31.146,-28.169L31.146,-1.276L29.445,-1.276L29.445,0L0,0ZM375.156,90.885L375.74,89.751L377.252,90.53L389.56,66.618L388.048,65.839L388.632,64.705L362.452,51.229L361.868,52.364L360.355,51.585L348.047,75.497L349.56,76.275L348.976,77.41L375.156,90.885Z" style="fill:none;fill-rule:nonzero;stroke:rgb(58,83,164);stroke-width:0.43px;stroke-linecap:butt;stroke-linejoin:miter;"/>
                        </g>
                        <g id="g5309" transform="matrix(1,2.77556e-17,-2.77556e-17,1,180.522,130.27)">
                            <path id="path5311" d="M0,0L0,-1.276L-1.701,-1.276L-1.701,-28.169L0,-28.169L0,-29.445L29.445,-29.445L29.445,-28.169L31.146,-28.169L31.146,-1.276L29.445,-1.276L29.445,0L0,0ZM222.137,53.815L222.721,52.681L224.233,53.459L236.541,29.547L235.029,28.769L235.613,27.635L209.432,14.159L208.849,15.293L207.336,14.515L195.028,38.426L196.54,39.205L195.957,40.339L222.137,53.815Z" style="fill:none;fill-rule:nonzero;stroke:rgb(58,83,164);stroke-width:0.43px;stroke-linecap:butt;stroke-linejoin:miter;"/>
                        </g>
                        <g id="g5313" transform="matrix(1,2.77556e-17,-2.77556e-17,1,140.022,135.332)">
                            <path id="path5315" d="M0,0L0,-1.276L-1.701,-1.276L-1.701,-28.169L0,-28.169L0,-29.445L29.445,-29.445L29.445,-28.169L31.146,-28.169L31.146,-1.276L29.445,-1.276L29.445,0L0,0ZM296.33,71.789L296.914,70.655L298.426,71.433L310.734,47.521L309.222,46.743L309.806,45.609L283.625,32.133L283.042,33.267L281.529,32.489L269.221,56.4L270.733,57.179L270.15,58.313L296.33,71.789Z" style="fill:none;fill-rule:nonzero;stroke:rgb(58,83,164);stroke-width:0.43px;stroke-linecap:butt;stroke-linejoin:miter;"/>
                        </g>
                        <g id="g5317" transform="matrix(1,2.77556e-17,-2.77556e-17,1,18.5224,160.646)">
                            <path id="path5319" d="M0,0L0,-1.276L-1.701,-1.276L-1.701,-28.169L0,-28.169L0,-29.445L29.445,-29.445L29.445,-28.169L31.146,-28.169L31.146,-1.276L29.445,-1.276L29.445,0L0,0ZM514.273,124.588L514.857,123.454L516.37,124.232L528.678,100.32L527.165,99.542L527.749,98.408L501.569,84.932L500.985,86.066L499.473,85.288L487.165,109.199L488.677,109.978L488.093,111.112L514.273,124.588Z" style="fill:none;fill-rule:nonzero;stroke:rgb(58,83,164);stroke-width:0.43px;stroke-linecap:butt;stroke-linejoin:miter;"/>
                        </g>
                        <g id="g5321" transform="matrix(1,2.77556e-17,-2.77556e-17,1,59.0224,160.646)">
                            <path id="path5323" d="M0,0L0,-1.276L-1.701,-1.276L-1.701,-28.169L0,-28.169L0,-29.445L29.445,-29.445L29.445,-28.169L31.146,-28.169L31.146,-1.276L29.445,-1.276L29.445,0L0,0ZM437.764,106.053L438.348,104.918L439.86,105.697L452.168,81.785L450.656,81.007L451.24,79.872L425.059,66.397L424.475,67.531L422.963,66.752L410.655,90.664L412.167,91.443L411.583,92.577L437.764,106.053Z" style="fill:none;fill-rule:nonzero;stroke:rgb(58,83,164);stroke-width:0.43px;stroke-linecap:butt;stroke-linejoin:miter;"/>
                        </g>
                        <g id="g5325" transform="matrix(1,2.77556e-17,-2.77556e-17,1,221.022,165.708)">
                            <path id="path5327" d="M0,0L0,-1.276L-1.701,-1.276L-1.701,-28.169L0,-28.169L0,-29.445L29.445,-29.445L29.445,-28.169L31.146,-28.169L31.146,-1.276L29.445,-1.276L29.445,0L0,0ZM129.409,31.351L129.993,30.216L131.505,30.995L143.813,7.083L142.301,6.305L142.885,5.17L116.704,-8.306L116.12,-7.171L114.608,-7.95L102.3,15.962L103.812,16.74L103.228,17.875L129.409,31.351Z" style="fill:none;fill-rule:nonzero;stroke:rgb(58,83,164);stroke-width:0.43px;stroke-linecap:butt;stroke-linejoin:miter;"/>
                        </g>
                        <g id="g5329" transform="matrix(1,2.77556e-17,-2.77556e-17,1,99.5224,170.77)">
                            <path id="path5331" d="M0,0L0,-1.276L-1.701,-1.276L-1.701,-28.169L0,-28.169L0,-29.445L29.445,-29.445L29.445,-28.169L31.146,-28.169L31.146,-1.276L29.445,-1.276L29.445,0L0,0ZM356.621,86.395L357.205,85.261L358.717,86.039L371.025,62.128L369.513,61.349L370.097,60.215L343.916,46.739L343.332,47.873L341.82,47.095L329.512,71.006L331.024,71.785L330.44,72.919L356.621,86.395Z" style="fill:none;fill-rule:nonzero;stroke:rgb(58,83,164);stroke-width:0.43px;stroke-linecap:butt;stroke-linejoin:miter;"/>
                        </g>
                        <g id="g5333" transform="matrix(1,2.77556e-17,-2.77556e-17,1,180.522,170.77)">
                            <path id="path5335" d="M0,0L0,-1.276L-1.701,-1.276L-1.701,-28.169L0,-28.169L0,-29.445L29.445,-29.445L29.445,-28.169L31.146,-28.169L31.146,-1.276L29.445,-1.276L29.445,0L0,0ZM203.602,49.325L204.186,48.19L205.698,48.969L218.006,25.057L216.494,24.279L217.077,23.144L190.897,9.668L190.313,10.803L188.801,10.024L176.493,33.936L178.005,34.714L177.421,35.849L203.602,49.325Z" style="fill:none;fill-rule:nonzero;stroke:rgb(58,83,164);stroke-width:0.43px;stroke-linecap:butt;stroke-linejoin:miter;"/>
                        </g>
                        <g id="g5337" transform="matrix(1,2.77556e-17,-2.77556e-17,1,140.022,175.832)">
                            <path id="path5339" d="M0,0L0,-1.276L-1.701,-1.276L-1.701,-28.169L0,-28.169L0,-29.445L29.445,-29.445L29.445,-28.169L31.146,-28.169L31.146,-1.276L29.445,-1.276L29.445,0L0,0ZM277.795,67.299L278.379,66.164L279.891,66.943L292.199,43.031L290.687,42.253L291.27,41.118L265.09,27.642L264.506,28.777L262.994,27.998L250.686,51.91L252.198,52.689L251.614,53.823L277.795,67.299Z" style="fill:none;fill-rule:nonzero;stroke:rgb(58,83,164);stroke-width:0.43px;stroke-linecap:butt;stroke-linejoin:miter;"/>
                        </g>
                        <g id="g5341" transform="matrix(1,2.77556e-17,-2.77556e-17,1,18.5224,201.146)">
                            <path id="path5343" d="M0,0L0,-1.276L-1.701,-1.276L-1.701,-28.169L0,-28.169L0,-29.445L29.445,-29.445L29.445,-28.169L31.146,-28.169L31.146,-1.276L29.445,-1.276L29.445,0L0,0ZM495.738,120.098L496.322,118.963L497.834,119.742L510.143,95.83L508.63,95.052L509.214,93.917L483.034,80.442L482.45,81.576L480.937,80.797L468.629,104.709L470.142,105.488L469.558,106.622L495.738,120.098Z" style="fill:none;fill-rule:nonzero;stroke:rgb(58,83,164);stroke-width:0.43px;stroke-linecap:butt;stroke-linejoin:miter;"/>
                        </g>
                        <g id="g5345" transform="matrix(1,2.77556e-17,-2.77556e-17,1,59.0224,201.146)">
                            <path id="path5347" d="M0,0L0,-1.276L-1.701,-1.276L-1.701,-28.169L0,-28.169L0,-29.445L29.445,-29.445L29.445,-28.169L31.146,-28.169L31.146,-1.276L29.445,-1.276L29.445,0L0,0ZM419.229,101.562L419.812,100.428L421.325,101.207L433.633,77.295L432.121,76.516L432.704,75.382L406.524,61.906L405.94,63.041L404.428,62.262L392.12,86.174L393.632,86.952L393.048,88.087L419.229,101.562Z" style="fill:none;fill-rule:nonzero;stroke:rgb(58,83,164);stroke-width:0.43px;stroke-linecap:butt;stroke-linejoin:miter;"/>
                        </g>
                        <g id="g5349" transform="matrix(1,2.77556e-17,-2.77556e-17,1,221.022,206.208)">
                            <path id="path5351" d="M0,0L0,-1.276L-1.701,-1.276L-1.701,-28.169L0,-28.169L0,-29.445L29.445,-29.445L29.445,-28.169L31.146,-28.169L31.146,-1.276L29.445,-1.276L29.445,0L0,0ZM110.873,26.86L111.457,25.726L112.97,26.504L125.278,2.593L123.765,1.814L124.349,0.68L98.169,-12.796L97.585,-11.662L96.073,-12.44L83.765,11.472L85.277,12.25L84.693,13.384L110.873,26.86Z" style="fill:none;fill-rule:nonzero;stroke:rgb(58,83,164);stroke-width:0.43px;stroke-linecap:butt;stroke-linejoin:miter;"/>
                        </g>
                        <g id="g5353" transform="matrix(1,2.77556e-17,-2.77556e-17,1,99.5224,211.27)">
                            <path id="path5355" d="M0,0L0,-1.276L-1.701,-1.276L-1.701,-28.169L0,-28.169L0,-29.445L29.445,-29.445L29.445,-28.169L31.146,-28.169L31.146,-1.276L29.445,-1.276L29.445,0L0,0ZM338.086,81.905L338.669,80.77L340.182,81.549L352.49,57.637L350.978,56.859L351.561,55.724L325.381,42.249L324.797,43.383L323.285,42.604L310.977,66.516L312.489,67.295L311.905,68.429L338.086,81.905Z" style="fill:none;fill-rule:nonzero;stroke:rgb(58,83,164);stroke-width:0.43px;stroke-linecap:butt;stroke-linejoin:miter;"/>
                        </g>
                        <g id="g5357" transform="matrix(1,2.77556e-17,-2.77556e-17,1,180.522,211.27)">
                            <path id="path5359" d="M0,0L0,-1.276L-1.701,-1.276L-1.701,-28.169L0,-28.169L0,-29.445L29.445,-29.445L29.445,-28.169L31.146,-28.169L31.146,-1.276L29.445,-1.276L29.445,0L0,0ZM185.066,44.834L185.65,43.7L187.163,44.478L199.471,20.567L197.958,19.788L198.542,18.654L172.362,5.178L171.778,6.312L170.266,5.534L157.958,29.446L159.47,30.224L158.886,31.358L185.066,44.834Z" style="fill:none;fill-rule:nonzero;stroke:rgb(58,83,164);stroke-width:0.43px;stroke-linecap:butt;stroke-linejoin:miter;"/>
                        </g>
                        <g id="g5361" transform="matrix(1,2.77556e-17,-2.77556e-17,1,140.022,216.332)">
                            <path id="path5363" d="M0,0L0,-1.276L-1.701,-1.276L-1.701,-28.169L0,-28.169L0,-29.445L29.445,-29.445L29.445,-28.169L31.146,-28.169L31.146,-1.276L29.445,-1.276L29.445,0L0,0ZM259.259,62.808L259.843,61.674L261.356,62.452L273.664,38.541L272.151,37.762L272.735,36.628L246.555,23.152L245.971,24.286L244.459,23.508L232.151,47.42L233.663,48.198L233.079,49.332L259.259,62.808Z" style="fill:none;fill-rule:nonzero;stroke:rgb(58,83,164);stroke-width:0.43px;stroke-linecap:butt;stroke-linejoin:miter;"/>
                        </g>
                        <g id="g5365" transform="matrix(1,2.77556e-17,-2.77556e-17,1,18.5224,241.646)">
                            <path id="path5367" d="M0,0L0,-1.276L-1.701,-1.276L-1.701,-28.169L0,-28.169L0,-29.445L29.445,-29.445L29.445,-28.169L31.146,-28.169L31.146,-1.276L29.445,-1.276L29.445,0L0,0ZM477.203,115.607L477.787,114.473L479.299,115.252L491.607,91.34L490.095,90.561L490.679,89.427L464.498,75.951L463.915,77.085L462.402,76.307L450.094,100.219L451.606,100.997L451.023,102.132L477.203,115.607Z" style="fill:none;fill-rule:nonzero;stroke:rgb(58,83,164);stroke-width:0.43px;stroke-linecap:butt;stroke-linejoin:miter;"/>
                        </g>
                        <g id="g5369" transform="matrix(1,2.77556e-17,-2.77556e-17,1,59.0224,241.646)">
                            <path id="path5371" d="M0,0L0,-1.276L-1.701,-1.276L-1.701,-28.169L0,-28.169L0,-29.445L29.445,-29.445L29.445,-28.169L31.146,-28.169L31.146,-1.276L29.445,-1.276L29.445,0L0,0ZM400.693,97.072L401.277,95.938L402.79,96.716L415.098,72.805L413.585,72.026L414.169,70.892L387.989,57.416L387.405,58.55L385.892,57.772L373.584,81.683L375.097,82.462L374.513,83.596L400.693,97.072Z" style="fill:none;fill-rule:nonzero;stroke:rgb(58,83,164);stroke-width:0.43px;stroke-linecap:butt;stroke-linejoin:miter;"/>
                        </g>
                        <g id="g5373" transform="matrix(1,2.77556e-17,-2.77556e-17,1,221.022,246.708)">
                            <path id="path5375" d="M0,0L0,-1.276L-1.701,-1.276L-1.701,-28.169L0,-28.169L0,-29.445L29.445,-29.445L29.445,-28.169L31.146,-28.169L31.146,-1.276L29.445,-1.276L29.445,0L0,0ZM92.338,22.37L92.922,21.236L94.434,22.014L106.743,-1.898L105.23,-2.676L105.814,-3.81L79.634,-17.286L79.05,-16.152L77.537,-16.93L65.229,6.981L66.742,7.76L66.158,8.894L92.338,22.37Z" style="fill:none;fill-rule:nonzero;stroke:rgb(58,83,164);stroke-width:0.43px;stroke-linecap:butt;stroke-linejoin:miter;"/>
                        </g>
                        <g id="g5377" transform="matrix(1,2.77556e-17,-2.77556e-17,1,99.5224,251.77)">
                            <path id="path5379" d="M0,0L0,-1.276L-1.701,-1.276L-1.701,-28.169L0,-28.169L0,-29.445L29.445,-29.445L29.445,-28.169L31.146,-28.169L31.146,-1.276L29.445,-1.276L29.445,0L0,0ZM319.55,77.414L320.134,76.28L321.647,77.059L333.955,53.147L332.442,52.368L333.026,51.234L306.846,37.758L306.262,38.893L304.75,38.114L292.441,62.026L293.954,62.804L293.37,63.939L319.55,77.414Z" style="fill:none;fill-rule:nonzero;stroke:rgb(58,83,164);stroke-width:0.43px;stroke-linecap:butt;stroke-linejoin:miter;"/>
                        </g>
                        <g id="g5381" transform="matrix(1,2.77556e-17,-2.77556e-17,1,180.522,251.77)">
                            <path id="path5383" d="M0,0L0,-1.276L-1.701,-1.276L-1.701,-28.169L0,-28.169L0,-29.445L29.445,-29.445L29.445,-28.169L31.146,-28.169L31.146,-1.276L29.445,-1.276L29.445,0L0,0ZM166.531,40.344L167.115,39.21L168.627,39.988L180.936,16.076L179.423,15.298L180.007,14.164L153.827,0.688L153.243,1.822L151.73,1.044L139.422,24.955L140.935,25.734L140.351,26.868L166.531,40.344Z" style="fill:none;fill-rule:nonzero;stroke:rgb(58,83,164);stroke-width:0.43px;stroke-linecap:butt;stroke-linejoin:miter;"/>
                        </g>
                        <g id="g5385" transform="matrix(1,2.77556e-17,-2.77556e-17,1,140.022,256.832)">
                            <path id="path5387" d="M0,0L0,-1.276L-1.701,-1.276L-1.701,-28.169L0,-28.169L0,-29.445L29.445,-29.445L29.445,-28.169L31.146,-28.169L31.146,-1.276L29.445,-1.276L29.445,0L0,0ZM240.724,58.318L241.308,57.184L242.82,57.962L255.129,34.05L253.616,33.272L254.2,32.138L228.02,18.662L227.436,19.796L225.923,19.018L213.615,42.929L215.128,43.708L214.544,44.842L240.724,58.318Z" style="fill:none;fill-rule:nonzero;stroke:rgb(58,83,164);stroke-width:0.43px;stroke-linecap:butt;stroke-linejoin:miter;"/>
                        </g>
                        <g id="g5389" transform="matrix(1,2.77556e-17,-2.77556e-17,1,301.385,87.8113)">
                            <path id="path5391" d="M0,0L-1.104,0.637L-0.241,2.131L-23.56,15.594L-24.422,14.1L-25.526,14.737L-28.676,9.281L-30.04,10.069L-33.377,4.288L-32.014,3.501L-53.989,-34.561L-55.352,-33.773L-58.69,-39.554L-57.326,-40.342L-60.476,-45.798L-59.372,-46.435L-60.235,-47.929L-36.916,-61.391L-36.054,-59.898L-34.95,-60.535L0,0ZM13.243,3.208L13.933,4.28L12.482,5.214L27.054,27.856L28.505,26.922L29.194,27.994L34.492,24.584L35.344,25.909L40.957,22.297L40.105,20.973L77.063,-2.812L77.915,-1.488L83.528,-5.1L82.676,-6.425L87.974,-9.834L87.284,-10.906L88.735,-11.839L74.163,-34.481L72.713,-33.548L72.023,-34.62L13.243,3.208Z" style="fill:none;fill-rule:nonzero;stroke:rgb(58,83,164);stroke-width:0.43px;stroke-linecap:butt;stroke-linejoin:miter;"/>
                        </g>
                    </g>
                </g>
            </g>
        </g>
    </g>
</svg>
