G04 #@! TF.GenerationSoftware,KiCad,Pcbnew,(6.0.2-0)*
G04 #@! TF.CreationDate,2022-03-11T16:48:04+00:00*
G04 #@! TF.ProjectId,untitled,756e7469-746c-4656-942e-6b696361645f,rev?*
G04 #@! TF.SameCoordinates,Original*
G04 #@! TF.FileFunction,Profile,NP*
%FSLAX46Y46*%
G04 Gerber Fmt 4.6, Leading zero omitted, Abs format (unit mm)*
G04 Created by KiCad (PCBNEW (6.0.2-0)) date 2022-03-11 16:48:04*
%MOMM*%
%LPD*%
G01*
G04 APERTURE LIST*
G04 #@! TA.AperFunction,Profile*
%ADD10C,0.050000*%
G04 #@! TD*
G04 #@! TA.AperFunction,Profile*
%ADD11C,0.099999*%
G04 #@! TD*
G04 #@! TA.AperFunction,Profile*
%ADD12C,0.100000*%
G04 #@! TD*
G04 APERTURE END LIST*
D10*
X151098086Y-163133462D02*
G75*
G03*
X152098086Y-164133462I1000000J0D01*
G01*
X160098086Y-96809413D02*
X153098086Y-96809413D01*
X160098086Y-96809413D02*
G75*
G03*
X160598086Y-96309413I0J500000D01*
G01*
X160598086Y-63559413D02*
X160598086Y-96309413D01*
X160598086Y-63559413D02*
G75*
G03*
X160098086Y-63059413I-500000J0D01*
G01*
X158098086Y-63059413D02*
X160098086Y-63059413D01*
X157098086Y-62059413D02*
X157098086Y-43559413D01*
X157098086Y-62059413D02*
G75*
G03*
X158098086Y-63059413I1000000J0D01*
G01*
X151098086Y-98809413D02*
X151098086Y-163133462D01*
X153098086Y-96809413D02*
G75*
G03*
X151098086Y-98809413I0J-2000000D01*
G01*
X159598086Y-41059413D02*
G75*
G03*
X157098086Y-43559413I0J-2500000D01*
G01*
X174583261Y-142403681D02*
X183951089Y-131999653D01*
X188526516Y-154958242D02*
X174583261Y-142403681D01*
X197894344Y-144554214D02*
X188526516Y-154958242D01*
X183951089Y-131999653D02*
X197894344Y-144554214D01*
X202260367Y-140866272D02*
X194841497Y-128993598D01*
X214133041Y-133447402D02*
X202260367Y-140866272D01*
X206714171Y-121574728D02*
X214133041Y-133447402D01*
X194841497Y-128993598D02*
X206714171Y-121574728D01*
X238238604Y-125615029D02*
X237262013Y-111649132D01*
X252204501Y-124638438D02*
X238238604Y-125615029D01*
X251227910Y-110672541D02*
X252204501Y-124638438D01*
X237262013Y-111649132D02*
X251227910Y-110672541D01*
X298126512Y-114085116D02*
X293800276Y-100770323D01*
X280485484Y-105096563D02*
X284811721Y-118411355D01*
X284811721Y-118411355D02*
X298126512Y-114085116D01*
X293800276Y-100770323D02*
X280485484Y-105096563D01*
X232629826Y-126712533D02*
X228303590Y-113397740D01*
X214988798Y-117723980D02*
X219315035Y-131038772D01*
X219315035Y-131038772D02*
X232629826Y-126712533D01*
X228303590Y-113397740D02*
X214988798Y-117723980D01*
X178038770Y-114378004D02*
X173712534Y-101063211D01*
X160397742Y-105389451D02*
X164723979Y-118704243D01*
X164723979Y-118704243D02*
X178038770Y-114378004D01*
X173712534Y-101063211D02*
X160397742Y-105389451D01*
X214719125Y-87637373D02*
X228033916Y-83311134D01*
X199099783Y-117550043D02*
X194773547Y-104235250D01*
X181458755Y-108561490D02*
X185784992Y-121876282D01*
X278294800Y-98361901D02*
X291609591Y-94035662D01*
X287283355Y-80720869D02*
X273968563Y-85047109D01*
X185784992Y-121876282D02*
X199099783Y-117550043D01*
X273968563Y-85047109D02*
X278294800Y-98361901D01*
X291609591Y-94035662D02*
X287283355Y-80720869D01*
X194773547Y-104235250D02*
X181458755Y-108561490D01*
X252744727Y-97716100D02*
X248418491Y-84401307D01*
X235103699Y-88727547D02*
X239429936Y-102042339D01*
X239429936Y-102042339D02*
X252744727Y-97716100D01*
X248418491Y-84401307D02*
X235103699Y-88727547D01*
X259392272Y-101832994D02*
X272707063Y-97506755D01*
X272707063Y-97506755D02*
X268380827Y-84191962D01*
X255066035Y-88518202D02*
X259392272Y-101832994D01*
X268380827Y-84191962D02*
X255066035Y-88518202D01*
X233920688Y-101428759D02*
X229594452Y-88113966D01*
X216279660Y-92440206D02*
X220605897Y-105754998D01*
X203194682Y-113815887D02*
X216509473Y-109489648D01*
X220605897Y-105754998D02*
X233920688Y-101428759D01*
X229594452Y-88113966D02*
X216279660Y-92440206D01*
X216509473Y-109489648D02*
X212183237Y-96174855D01*
X198868445Y-100501095D02*
X203194682Y-113815887D01*
X212183237Y-96174855D02*
X198868445Y-100501095D01*
X193213011Y-99432418D02*
X188886775Y-86117625D01*
X175571983Y-90443865D02*
X179898220Y-103758657D01*
X272408028Y-80244276D02*
X285722819Y-75918037D01*
X281396583Y-62603244D02*
X268081791Y-66929484D01*
X179898220Y-103758657D02*
X193213011Y-99432418D01*
X268081791Y-66929484D02*
X272408028Y-80244276D01*
X285722819Y-75918037D02*
X281396583Y-62603244D01*
X188886775Y-86117625D02*
X175571983Y-90443865D01*
X246857955Y-79598475D02*
X242531719Y-66283682D01*
X229216927Y-70609922D02*
X233543164Y-83924714D01*
X233543164Y-83924714D02*
X246857955Y-79598475D01*
X242531719Y-66283682D02*
X229216927Y-70609922D01*
X253505500Y-83715369D02*
X266820291Y-79389130D01*
X266820291Y-79389130D02*
X262494055Y-66074337D01*
X249179263Y-70400577D02*
X253505500Y-83715369D01*
X262494055Y-66074337D02*
X249179263Y-70400577D01*
X228033916Y-83311134D02*
X223707680Y-69996341D01*
X210392888Y-74322581D02*
X214719125Y-87637373D01*
X197307910Y-95698262D02*
X210622701Y-91372023D01*
X223707680Y-69996341D02*
X210392888Y-74322581D01*
X210622701Y-91372023D02*
X206296465Y-78057230D01*
X192981673Y-82383470D02*
X197307910Y-95698262D01*
X206296465Y-78057230D02*
X192981673Y-82383470D01*
X187326236Y-81314788D02*
X183000000Y-67999995D01*
X169685208Y-72326235D02*
X174011445Y-85641027D01*
X266521253Y-62126646D02*
X279836044Y-57800407D01*
X275509808Y-44485614D02*
X262195016Y-48811854D01*
X174011445Y-85641027D02*
X187326236Y-81314788D01*
X262195016Y-48811854D02*
X266521253Y-62126646D01*
X279836044Y-57800407D02*
X275509808Y-44485614D01*
X183000000Y-67999995D02*
X169685208Y-72326235D01*
X240971180Y-61480845D02*
X236644944Y-48166052D01*
X223330152Y-52492292D02*
X227656389Y-65807084D01*
X227656389Y-65807084D02*
X240971180Y-61480845D01*
X236644944Y-48166052D02*
X223330152Y-52492292D01*
X247618725Y-65597739D02*
X260933516Y-61271500D01*
X260933516Y-61271500D02*
X256607280Y-47956707D01*
X243292488Y-52282947D02*
X247618725Y-65597739D01*
X256607280Y-47956707D02*
X243292488Y-52282947D01*
X222147141Y-65193504D02*
X217820905Y-51878711D01*
X204506113Y-56204951D02*
X208832350Y-69519743D01*
X191421135Y-77580632D02*
X204735926Y-73254393D01*
X208832350Y-69519743D02*
X222147141Y-65193504D01*
X217820905Y-51878711D02*
X204506113Y-56204951D01*
X204735926Y-73254393D02*
X200409690Y-59939600D01*
X187094898Y-64265840D02*
X191421135Y-77580632D01*
X200409690Y-59939600D02*
X187094898Y-64265840D01*
X273949271Y-39682783D02*
X269623035Y-26367990D01*
X256308243Y-30694230D02*
X260634480Y-44009022D01*
X260634480Y-44009022D02*
X273949271Y-39682783D01*
X269623035Y-26367990D02*
X256308243Y-30694230D01*
X255046743Y-43153876D02*
X250720507Y-29839083D01*
X237405715Y-34165323D02*
X241731952Y-47480115D01*
X241731952Y-47480115D02*
X255046743Y-43153876D01*
X250720507Y-29839083D02*
X237405715Y-34165323D01*
X235084407Y-43363221D02*
X230758171Y-30048428D01*
X217443379Y-34374668D02*
X221769616Y-47689460D01*
X221769616Y-47689460D02*
X235084407Y-43363221D01*
X230758171Y-30048428D02*
X217443379Y-34374668D01*
X216260368Y-47075880D02*
X211934132Y-33761087D01*
X198619340Y-38087327D02*
X202945577Y-51402119D01*
X202945577Y-51402119D02*
X216260368Y-47075880D01*
X211934132Y-33761087D02*
X198619340Y-38087327D01*
X198849153Y-55136769D02*
X194522917Y-41821976D01*
X181208125Y-46148216D02*
X185534362Y-59463008D01*
X185534362Y-59463008D02*
X198849153Y-55136769D01*
X194522917Y-41821976D02*
X181208125Y-46148216D01*
X181439463Y-63197164D02*
X177113227Y-49882371D01*
X168124672Y-67523403D02*
X181439463Y-63197164D01*
X163798435Y-54208611D02*
X168124672Y-67523403D01*
X177113227Y-49882371D02*
X163798435Y-54208611D01*
D11*
X223187000Y-22052735D02*
X226218995Y-21560300D01*
X212849800Y-24338059D02*
X215618660Y-23601103D01*
X250916187Y-19256758D02*
X256754244Y-19042683D01*
X201924568Y-27915804D02*
X204054190Y-27075203D01*
X219022104Y-22840879D02*
X223187000Y-22052735D01*
X215618660Y-23601103D02*
X219022104Y-22840879D01*
X226218995Y-21560300D02*
X229885576Y-21044598D01*
X160846943Y-40986817D02*
X164640436Y-40466463D01*
D12*
X202589078Y-150518485D02*
X195525152Y-158303622D01*
D11*
X191308769Y-161173830D02*
X193288505Y-160003494D01*
X204054190Y-27075203D02*
X209074936Y-25366074D01*
D12*
X299002320Y-120471130D02*
X303729643Y-118935131D01*
D11*
X273138746Y-18896265D02*
X273545147Y-19048669D01*
X168556173Y-39814535D02*
X171710430Y-39190532D01*
D12*
X298717855Y-93144770D02*
X305801121Y-114944822D01*
D11*
X185912176Y-34857219D02*
X189541511Y-33326198D01*
X274815168Y-20064663D02*
X275018323Y-20369465D01*
X269835790Y-18817178D02*
X272529157Y-18794663D01*
X202589078Y-150518485D02*
X205637096Y-147800696D01*
D12*
X171157747Y-164133462D02*
X162267749Y-164133461D01*
D11*
X219734082Y-138580498D02*
X212190288Y-142669898D01*
X185619154Y-163129621D02*
X188667166Y-162367630D01*
X171710430Y-39190532D02*
X175489945Y-38289430D01*
X209345503Y-144498694D02*
X212190288Y-142669898D01*
D12*
X280884693Y-126357906D02*
X299002320Y-120471130D01*
X255421281Y-131116812D02*
X263001278Y-130556813D01*
D11*
X180896085Y-36693261D02*
X183655623Y-35702472D01*
D12*
X303729643Y-118935131D02*
G75*
G03*
X305801121Y-114944822I-922445J3011701D01*
G01*
X179285750Y-163879460D02*
X171157747Y-164133462D01*
D11*
X273951552Y-19251863D02*
X274307174Y-19505863D01*
X205637096Y-147800696D02*
X209345503Y-144498694D01*
X229885576Y-21044598D02*
X232668396Y-20688384D01*
D12*
X162267749Y-164133461D02*
X152098086Y-164133462D01*
D11*
X272529157Y-18794663D02*
X273138746Y-18896265D01*
X238657086Y-132865501D02*
X228624707Y-135154153D01*
X197293870Y-29864799D02*
X199794944Y-28756408D01*
X238873249Y-20079605D02*
X244955856Y-19602394D01*
D12*
X263001278Y-130556813D02*
X267422692Y-129913905D01*
D11*
X193542278Y-31527389D02*
X197293870Y-29864799D01*
X178507980Y-37416251D02*
X180896085Y-36693261D01*
X244955856Y-19602394D02*
X250916187Y-19256758D01*
D12*
X275170759Y-20674264D02*
X298717855Y-93144770D01*
D11*
X164640436Y-40466463D02*
X168556173Y-39814535D01*
X175489945Y-38289430D02*
X178507980Y-37416251D01*
X273545147Y-19048669D02*
X273951552Y-19251863D01*
X188667166Y-162367630D02*
X191308769Y-161173830D01*
X159598086Y-41059413D02*
X160846943Y-40986817D01*
X209074936Y-25366074D02*
X212849800Y-24338059D01*
D12*
X267422692Y-129913905D02*
X280884693Y-126357906D01*
D11*
X183655623Y-35702472D02*
X185912176Y-34857219D01*
X274561139Y-19759869D02*
X274815168Y-20064663D01*
X193288505Y-160003494D02*
X195525152Y-158303622D01*
X232668396Y-20688384D02*
X238873249Y-20079605D01*
X189541511Y-33326198D02*
X193542278Y-31527389D01*
X252246108Y-131341498D02*
X244499278Y-131978813D01*
X244499278Y-131978813D02*
X238657086Y-132865501D01*
X264881430Y-18871757D02*
X269835790Y-18817178D01*
X252246108Y-131341498D02*
X255421281Y-131116812D01*
X219734082Y-138580498D02*
X224306103Y-136421502D01*
X275018323Y-20369465D02*
X275170759Y-20674264D01*
X199794944Y-28756408D02*
X201924568Y-27915804D01*
D12*
X185619154Y-163129621D02*
X179285750Y-163879460D01*
D11*
X224306103Y-136421502D02*
X228624707Y-135154153D01*
X256754244Y-19042683D02*
X264881430Y-18871757D01*
X274307174Y-19505863D02*
X274561139Y-19759869D01*
M02*
